<svg xmlns="http://www.w3.org/2000/svg" viewBox="0 0 50 50" width="100" height="100">
<path d="M41.6 10.8C37.5 7.6 31.2 7 31 7a1 1 0 0 0-1 .6l-.3.8c2.6.5 5.9 1.4 8.8 3.2a1 1 0 1 1-1 1.7 25.8 25.8 0 0 0-25.1 0 1 1 0 0 1-1-1.7c2.8-1.8 6-2.7 8.7-3.2l-.3-.8a1 1 0 0 0-1-.6c-.2 0-6.5.6-10.6 3.8a45.4 45.4 0 0 0-6.2 23.7c3 5.1 10.9 6.4 12.7 6.5.3 0 .6-.2.8-.4l1.8-2.5c-4.9-1.3-7.4-3.5-7.5-3.6a1 1 0 0 1 1.3-1.5s4.7 4 13.8 4c9.1 0 13.8-4 13.8-4a1 1 0 0 1 1.3 1.5c-.1.1-2.6 2.3-7.5 3.6l1.8 2.5c.2.2.5.4.8.4C37 41 45 39.6 48 34.5l.1-.5c0-9.8-4.2-21.2-6.4-23.2zM18.5 30a3.5 3.5 0 1 1 0-7 3.5 3.5 0 0 1 0 7zm13 0a3.5 3.5 0 1 1 0-7 3.5 3.5 0 0 1 0 7z"/>
</svg>