<svg width="26" height="26" viewBox="0 0 26 26" fill="none" xmlns="http://www.w3.org/2000/svg">
<path fill-rule="evenodd" clip-rule="evenodd" d="M0 5.2C0 2.32812 2.32812 0 5.2 0H20.8C23.6718 0 26 2.32812 26 5.2V20.8C26 23.6718 23.6718 26 20.8 26H5.2C2.32812 26 0 23.6718 0 20.8V5.2ZM5.2 2.6C3.76406 2.6 2.6 3.76406 2.6 5.2V20.8C2.6 22.236 3.76406 23.4 5.2 23.4H20.8C22.236 23.4 23.4 22.236 23.4 20.8V5.2C23.4 3.76406 22.236 2.6 20.8 2.6H5.2ZM13 9.1C10.846 9.1 9.1 10.846 9.1 13C9.1 15.154 10.846 16.9 13 16.9C15.154 16.9 16.9 15.154 16.9 13C16.9 10.846 15.154 9.1 13 9.1ZM6.5 13C6.5 9.41015 9.41015 6.5 13 6.5C16.5898 6.5 19.5 9.41015 19.5 13C19.5 16.5898 16.5898 19.5 13 19.5C9.41015 19.5 6.5 16.5898 6.5 13ZM20.15 7.8C21.2269 7.8 22.1 6.92696 22.1 5.85C22.1 4.77304 21.2269 3.9 20.15 3.9C19.0731 3.9 18.2 4.77304 18.2 5.85C18.2 6.92696 19.0731 7.8 20.15 7.8Z" fill="#4A5769"/>
</svg>
