{
  "accessors": [
    {
      "bufferView": 2,
      "componentType": 5126,
      "count": 9770,
      "max": [0.44676628708839417, 0.9709575176239014, 0.4467662572860718],
      "min": [-0.4467662572860718, -0.9709575176239014, -0.44676628708839417],
      "type": "VEC3"
    },
    {
      "bufferView": 2,
      "byteOffset": 117240,
      "componentType": 5126,
      "count": 9770,
      "max": [1.0, 1.0, 1.0],
      "min": [-1.0, -1.0, -1.0],
      "type": "VEC3"
    },
    {
      "bufferView": 1,
      "componentType": 5126,
      "count": 9770,
      "max": [0.8712201118469238, 0.9980596303939819],
      "min": [0.003144539427012205, 0.00012648179836105555],
      "type": "VEC2"
    },
    {
      "bufferView": 0,
      "componentType": 5125,
      "count": 49152,
      "type": "SCALAR"
    },
    {
      "bufferView": 2,
      "byteOffset": 234480,
      "componentType": 5126,
      "count": 15725,
      "max": [0.44676628708839417, 2.9709579944610596, 0.446766197681427],
      "min": [-0.4467662572860718, 1.0437239408493042, -0.44676631689071655],
      "type": "VEC3"
    },
    {
      "bufferView": 2,
      "byteOffset": 423180,
      "componentType": 5126,
      "count": 15725,
      "max": [1.0, 1.0, 1.0],
      "min": [-1.0, -1.0, -1.0],
      "type": "VEC3"
    },
    {
      "bufferView": 1,
      "byteOffset": 78160,
      "componentType": 5126,
      "count": 15725,
      "max": [0.8168232440948486, 0.9986897706985474],
      "min": [0.0008421530947089195, 0.00010016304440796375],
      "type": "VEC2"
    },
    {
      "bufferView": 0,
      "byteOffset": 196608,
      "componentType": 5125,
      "count": 79872,
      "type": "SCALAR"
    },
    {
      "bufferView": 2,
      "byteOffset": 611880,
      "componentType": 5126,
      "count": 14846,
      "max": [0.44630172848701477, 1.1181772947311401, 0.44630172848701477],
      "min": [-0.44630172848701477, 0.95415860414505, -0.44630172848701477],
      "type": "VEC3"
    },
    {
      "bufferView": 2,
      "byteOffset": 790032,
      "componentType": 5126,
      "count": 14846,
      "max": [1.0, 1.0, 1.0],
      "min": [-1.0, -1.0, -1.0],
      "type": "VEC3"
    },
    {
      "bufferView": 1,
      "byteOffset": 203960,
      "componentType": 5126,
      "count": 14846,
      "max": [0.8145514130592346, 0.9963911175727844],
      "min": [0.001272415043786168, 0.0005104689043946564],
      "type": "VEC2"
    },
    {
      "bufferView": 0,
      "byteOffset": 516096,
      "componentType": 5125,
      "count": 76800,
      "type": "SCALAR"
    },
    {
      "bufferView": 2,
      "byteOffset": 968184,
      "componentType": 5126,
      "count": 5170,
      "max": [0.3252315819263458, 2.114908218383789, 0.325698584318161],
      "min": [-0.32902663946151733, 1.018174648284912, -0.3256986439228058],
      "type": "VEC3"
    },
    {
      "bufferView": 2,
      "byteOffset": 1030224,
      "componentType": 5126,
      "count": 5170,
      "max": [0.9999998807907104, 1.0, 1.0],
      "min": [-0.9999997615814209, -1.0, -1.0],
      "type": "VEC3"
    },
    {
      "bufferView": 1,
      "byteOffset": 322728,
      "componentType": 5126,
      "count": 5170,
      "max": [0.9969991445541382, 0.9850624799728394],
      "min": [0.00022545969113707542, 0.000182118164957501],
      "type": "VEC2"
    },
    {
      "bufferView": 0,
      "byteOffset": 823296,
      "componentType": 5125,
      "count": 26112,
      "type": "SCALAR"
    },
    {
      "bufferView": 2,
      "byteOffset": 1092264,
      "componentType": 5126,
      "count": 3879,
      "max": [0.28702181577682495, 1.426328182220459, 0.28642791509628296],
      "min": [-0.2870129644870758, -0.28266555070877075, -0.2884083092212677],
      "type": "VEC3"
    },
    {
      "bufferView": 2,
      "byteOffset": 1138812,
      "componentType": 5126,
      "count": 3879,
      "max": [0.9999994039535522, 0.9999991655349731, 0.9999996423721313],
      "min": [-0.9999994039535522, -0.9999990463256836, -0.9999972581863403],
      "type": "VEC3"
    },
    {
      "bufferView": 3,
      "componentType": 5126,
      "count": 3879,
      "max": [0.9995278716087341, 0.999999463558197, 0.9992120265960693, -1.0],
      "min": [
        -0.9999634027481079, -0.9965614080429077, -0.9996429681777954, -1.0
      ],
      "type": "VEC4"
    },
    {
      "bufferView": 1,
      "byteOffset": 364088,
      "componentType": 5126,
      "count": 3879,
      "max": [0.9735018610954285, 0.8674283623695374],
      "min": [0.00013385049533098936, 0.00013385049533098936],
      "type": "VEC2"
    },
    {
      "bufferView": 0,
      "byteOffset": 927744,
      "componentType": 5125,
      "count": 21696,
      "type": "SCALAR"
    }
  ],
  "asset": {
    "extras": {
      "author": "neeb17 (https://sketchfab.com/neeb17)",
      "license": "CC-BY-4.0 (http://creativecommons.org/licenses/by/4.0/)",
      "source": "https://sketchfab.com/3d-models/lipstick-db40146676ce4320968e532517d43f3c",
      "title": "Lipstick"
    },
    "generator": "Sketchfab-12.67.0",
    "version": "2.0"
  },
  "bufferViews": [
    {
      "buffer": 0,
      "byteLength": 1014528,
      "name": "floatBufferViews",
      "target": 34963
    },
    {
      "buffer": 0,
      "byteLength": 395120,
      "byteOffset": 1014528,
      "byteStride": 8,
      "name": "floatBufferViews",
      "target": 34962
    },
    {
      "buffer": 0,
      "byteLength": 1185360,
      "byteOffset": 1409648,
      "byteStride": 12,
      "name": "floatBufferViews",
      "target": 34962
    },
    {
      "buffer": 0,
      "byteLength": 62064,
      "byteOffset": 2595008,
      "byteStride": 16,
      "name": "floatBufferViews",
      "target": 34962
    }
  ],
  "buffers": [
    {
      "byteLength": 2657072,
      "uri": "ls.bin"
    }
  ],
  "images": [
    {
      "uri": "textures/Black_Gloss_baseColor.png"
    },
    {
      "uri": "textures/Black_Gloss_metallicRoughness.png"
    },
    {
      "uri": "textures/Gold_Gloss.001_baseColor.png"
    },
    {
      "uri": "textures/Gold_Gloss.001_metallicRoughness.png"
    },
    {
      "uri": "textures/Gold_Gloss_metallicRoughness.png"
    },
    {
      "uri": "textures/Paint_baseColor.png"
    },
    {
      "uri": "textures/Paint_metallicRoughness.png"
    },
    {
      "uri": "textures/Paint_normal.png"
    }
  ],
  "materials": [
    {
      "doubleSided": true,
      "name": "Black_Gloss",
      "pbrMetallicRoughness": {
        "baseColorTexture": {
          "index": 0
        },
        "metallicFactor": 0.0,
        "metallicRoughnessTexture": {
          "index": 1
        }
      }
    },
    {
      "doubleSided": true,
      "name": "Gold_Gloss.001",
      "pbrMetallicRoughness": {
        "baseColorTexture": {
          "index": 2
        },
        "metallicRoughnessTexture": {
          "index": 3
        }
      }
    },
    {
      "doubleSided": true,
      "name": "Gold_Gloss",
      "pbrMetallicRoughness": {
        "baseColorTexture": {
          "index": 2
        },
        "metallicRoughnessTexture": {
          "index": 4
        }
      }
    },
    {
      "doubleSided": true,
      "name": "Paint",
      "normalTexture": {
        "index": 7,
        "scale": 0.4334030020900627
      },
      "pbrMetallicRoughness": {
        "baseColorTexture": {
          "index": 5
        },
        "metallicFactor": 0.0,
        "metallicRoughnessTexture": {
          "index": 6
        }
      }
    }
  ],
  "meshes": [
    {
      "name": "Object_0",
      "primitives": [
        {
          "attributes": {
            "NORMAL": 1,
            "POSITION": 0,
            "TEXCOORD_0": 2
          },
          "indices": 3,
          "material": 0,
          "mode": 4
        }
      ]
    },
    {
      "name": "Object_1",
      "primitives": [
        {
          "attributes": {
            "NORMAL": 5,
            "POSITION": 4,
            "TEXCOORD_0": 6
          },
          "indices": 7,
          "material": 0,
          "mode": 4
        }
      ]
    },
    {
      "name": "Object_2",
      "primitives": [
        {
          "attributes": {
            "NORMAL": 9,
            "POSITION": 8,
            "TEXCOORD_0": 10
          },
          "indices": 11,
          "material": 1,
          "mode": 4
        }
      ]
    },
    {
      "name": "Object_3",
      "primitives": [
        {
          "attributes": {
            "NORMAL": 13,
            "POSITION": 12,
            "TEXCOORD_0": 14
          },
          "indices": 15,
          "material": 2,
          "mode": 4
        }
      ]
    },
    {
      "name": "Object_4",
      "primitives": [
        {
          "attributes": {
            "NORMAL": 17,
            "POSITION": 16,
            "TANGENT": 18,
            "TEXCOORD_0": 19
          },
          "indices": 20,
          "material": 3,
          "mode": 4
        }
      ]
    }
  ],
  "nodes": [
    {
      "children": [1],
      "matrix": [
        1.0, 0.0, 0.0, 0.0, 0.0, 2.220446049250313e-16, -1.0, 0.0, 0.0, 1.0,
        2.220446049250313e-16, 0.0, 0.0, 0.0, 0.0, 1.0
      ],
      "name": "Sketchfab_model"
    },
    {
      "children": [2],
      "name": "root"
    },
    {
      "children": [3, 5, 7, 9, 11],
      "matrix": [
        1.0, 0.0, 0.0, 0.0, 0.0, 2.220446049250313e-16, 1.0, 0.0, 0.0, -1.0,
        2.220446049250313e-16, 0.0, 0.0, 0.0, 0.0, 1.0
      ],
      "name": "GLTF_SceneRootNode"
    },
    {
      "children": [4],
      "matrix": [
        0.005851559071725965, -0.9999828794816589, -0.0, 0.0,
        0.9999828794816589, 0.005851559071725965, 0.0, 0.0, 0.0, 0.0, 1.0, 0.0,
        -3.0139780044555664, 0.46691200137138367, 0.0, 1.0
      ],
      "name": "Base_0"
    },
    {
      "mesh": 0,
      "name": "Object_4"
    },
    {
      "children": [6],
      "matrix": [
        -0.04987623545935049, -0.9987554060611564, -1.3409890561866256e-7, 0.0,
        0.9262995959381671, -0.04625785885906075, -0.37393752026048865, 0.0,
        0.373472113686138, -0.01865072002335988, 0.9274538969358093, 0.0,
        -0.823191225528717, 0.5466945767402649, -0.7173770070075989, 1.0
      ],
      "name": "Cap_1"
    },
    {
      "mesh": 1,
      "name": "Object_6"
    },
    {
      "children": [8],
      "matrix": [
        0.005851559071725965, -0.9999828794816589, -0.0, 0.0,
        0.9999828794816589, 0.005851559071725965, 0.0, 0.0, 0.0, 0.0, 1.0, 0.0,
        -3.0139780044555664, 0.46691200137138367, 0.0, 1.0
      ],
      "name": "Center_2"
    },
    {
      "mesh": 2,
      "name": "Object_8"
    },
    {
      "children": [10],
      "matrix": [
        0.005851559071725965, -0.9999828794816589, -0.0, 0.0,
        0.9999828794816589, 0.005851559071725965, 0.0, 0.0, 0.0, 0.0, 1.0, 0.0,
        -3.0139780044555664, 0.46691200137138367, 0.0, 1.0
      ],
      "name": "Arm_3"
    },
    {
      "mesh": 3,
      "name": "Object_10"
    },
    {
      "children": [12],
      "matrix": [
        0.005851531949642386, -0.7583750225804424, 0.6517922097570326, 0.0,
        0.9999828796403547, 0.0044376267120085355, -0.0038141703355346612, 0.0,
        1.6099363986388227e-7, 0.6518033695795674, 0.758388005841796, 0.0,
        -1.5433114767074585, 0.47551777958869934, 0.0, 1.0
      ],
      "name": "Paint_4"
    },
    {
      "mesh": 4,
      "name": "Object_12"
    }
  ],
  "samplers": [
    {
      "magFilter": 9729,
      "minFilter": 9987,
      "wrapS": 10497,
      "wrapT": 10497
    }
  ],
  "scene": 0,
  "scenes": [
    {
      "name": "Sketchfab_Scene",
      "nodes": [0]
    }
  ],
  "textures": [
    {
      "sampler": 0,
      "source": 0
    },
    {
      "sampler": 0,
      "source": 1
    },
    {
      "sampler": 0,
      "source": 2
    },
    {
      "sampler": 0,
      "source": 3
    },
    {
      "sampler": 0,
      "source": 4
    },
    {
      "sampler": 0,
      "source": 5
    },
    {
      "sampler": 0,
      "source": 6
    },
    {
      "sampler": 0,
      "source": 7
    }
  ]
}
