<svg xmlns="http://www.w3.org/2000/svg" width="800" height="800" class="icon" viewBox="0 0 1024 1024">
    <path fill="#FDDF6D" d="M19.4 512a492 492 0 1 0 984 0 492 492 0 1 0-984 0Z"/>
    <path fill="#FCC56B" d="M616.8 931.4A492 492 0 0 1 287.7 73.7a492 492 0 1 0 552.8 804 490 490 0 0 1-223.7 53.7z"/>
    <path fill="#7F184C" d="M583 842.4c-110 0-199.2-89.2-199.2-199.2h398.3c0 110-89.2 199.2-199.2 199.2zm-91-462.7a20 20 0 0 1-20-20 46.9 46.9 0 0 0-93.7 0 20 20 0 0 1-20 20 20 20 0 0 1-20-20 87 87 0 0 1 173.7 0c0 11-9 20-20 20zm338 0a20 20 0 0 1-20-20 46.9 46.9 0 0 0-93.7 0 20 20 0 0 1-20 20 20 20 0 0 1-20-20 87 87 0 0 1 173.7 0c0 11-9 20-20 20z"/>
    <path fill="#F9A880" d="M300 481.5a66.2 66.2 0 0 0-66.2 66.2H366a66.2 66.2 0 0 0-66.2-66.2zm577-8.8a66.2 66.2 0 0 0-66.2 66.1h132.4a66.2 66.2 0 0 0-66.2-66.1z"/>
    <path fill="#F2F2F2" d="M432.4 643.2v31A23.7 23.7 0 0 0 456 698h253.7a23.7 23.7 0 0 0 23.7-23.7v-31.1h-301z"/>
    <path fill="#FC4C59" d="M587.1 759.7a181 181 0 0 0-162 4.6 199 199 0 0 0 158 78 198.4 198.4 0 0 0 79.9-16.6c-18-27.8-43.7-51-75.9-66z"/>
    <path fill="#0DAED3" d="M254.2 298.5a103.5 103.5 0 1 1-207 0c0-57.2 103.5-206.2 103.5-206.2s103.5 149 103.5 206.2z"/>
    <path d="M511.4 0a511.3 511.3 0 0 0-322.1 114c-11-17-19.3-29.1-22.1-33.1a20 20 0 0 0-32.9 0c-11 15.7-107 156-107 217.6 0 68 55.3 123.5 123.4 123.5s123.5-55.4 123.5-123.5c0-36.6-33.8-100.8-63.6-150.2A471.3 471.3 0 0 1 511.4 40c260.2 0 472 211.8 472 472s-211.8 472-472 472A470.3 470.3 0 0 1 189 856.8 470 470 0 0 1 40.6 546.2a20 20 0 1 0-40 2.8 510 510 0 0 0 161.2 337 510 510 0 0 0 349.6 138c282.3 0 512-229.7 512-512S793.7 0 511.4 0zM150.7 382c-46 0-83.4-37.5-83.4-83.5 0-32.1 46-113.1 83.4-170.4a1290.2 1290.2 0 0 1 16 25.1l1.9 3c32.8 53.1 65.6 115.1 65.6 142.3 0 46-37.4 83.5-83.5 83.5z"/>
    <path d="M425.1 272.9a87 87 0 0 0-86.8 86.8 20 20 0 1 0 40 0 46.9 46.9 0 0 1 93.6 0 20 20 0 1 0 40 0 87 87 0 0 0-86.8-86.8zm291.2 86.8a46.9 46.9 0 0 1 93.7 0 20 20 0 0 0 20 20 20 20 0 0 0 20-20 87 87 0 0 0-173.7 0 20 20 0 1 0 40 0zM363.8 643.2C363.8 764 462 862.4 583 862.4S802 764 802 643.2a20 20 0 0 0-20-20H383.8c-11 0-20 9-20 20zm397.2 20c-10 89.4-86 159.1-178 159.1s-168-69.7-178-159h356zM.6 475a20 20 0 1 0 40 0 20 20 0 1 0-40 0Z"/>
</svg>