<svg xmlns="http://www.w3.org/2000/svg" width="872" height="219" fill="none"><path fill="#fff" d="m599 111 272 107H408l2-1h1l9-3a5 5 0 0 1 4-1 4 4 0 0 0 3 0c2 0 5 0 7-2l3-1 3 1 1 2 2-2c2-2 2-2 5-1l3 1 5-4 3-3v-9c-1-2 0-3 2-4l3-1c3-1 5-2 6-4 1-3 4-3 5-6l1 3a8 8 0 0 0 4-2l6-6c3-3 6-5 7-9l5-4 3 1 2 1h4l3 1 5 2h5c2-2 2-2 4 0s4 2 7 1l2-1c2 2 4 1 6 0 1-1 2-2 3-1l5-1 3-1-2-2 4-4 5-2-1-3c1-1 1-2 3-1 0 2 0 3 2 3l4-1 1-2 3-3 2 2 2-3 3-3c-1-2-2-1-3-1-2 0-2 0-3-2l-1-5h-3v-3h3c2 2 4 2 7 0l3-2 3 1c0 1 1 2 2 1l1-4c2 0 3 1 3 3 1 2-1 2-2 3l-1 4-2 2 1 3 4 3 1 4v4h2l2-1c3 1 6 1 8 3 2 1 4 1 6-1h9l5-1h6l7-1h4c2 1 2 0 4-2l-2-2-1-2a2 2 0 0 1 1-2h1c1-1 3 0 3 2l2 3 4-1 2-1h9l10-2c2 0 5 0 6-4l4 1-2-2-2-2a6 6 0 0 0-4-3l-6-1c-1 0-2 0-2-2h-1l-12-4-3-1c-1-2-2-2-3-2l-6-3h-4l-3 6c-2-2-2-2-1-4l1-1-1-3-10-4-5-1a28 28 0 0 0-4-1l-14-6-22-7h-1l-1-1-5-1-5-2-31-11-18-6-4-1h-1l-1-1-3-1h-3c0-2-2-2-3-2l-6-1a7 7 0 0 0-6-2l-2-1-2-1-6-2-11-4-4-1-3-1h-2l-4-2-16-5-4-1-1-1-5-1-7-3-7-2-2-1-4-1-1-1-11-4h-3l-4-2-3-1-5-1-25-9-4-1-11-4h-5l-1-1h-1l-10-3-35-9h-2l-8-1-1-1-13-2-17-3-17-1-6-1-8-1h-34l-6-1h-11l-9 1h-26a3 3 0 0 0-4 0H34a7 7 0 0 0-6 0H8a6 6 0 0 0-6 0H0"/><path fill="#fff" d="M375 219H0v-38h6l3 1 3-1c1-2 2-3 1-5v-2l2-1v1l4 10c0 3 2 4 5 3h2l2 1 1 1-3 2c2 1 4 3 6 2l-1-2c0-1 0-2 2-3a7 7 0 0 0 4-6h2l1 1c2 3 5 3 7 1l3-3 2-1 1 5h1l3-1 2 1c1 1 2 2 3 1l5-1h7l2 1h4c0-3 2-6 5-7l3 1c2 1 2 2 2 3l2 2 6-4c1 2 1 4 4 5 1-2 2-3 4-2h10l4-4 5 2 2 1 5-1c1-3 2-3 5-2l4 1 2-1 3-1c2 0 5 0 7-2h3l10-4 3 2 1-1h2l6 8c1 1 2 2 1 4l1 2 1 4c1 2 2 3 4 3l3 3c2 3 5 3 7-1l2-1c1 3 0 6-1 8h1c2-1 5-2 5-5l4-4 2 3c3-1 2-4 4-5l3 2c-2-5-1-6 3-8l1 4a6 6 0 0 1 0 2c-1 2 0 2 1 3h4l2-2c1-2 1-2 3-2h3l1-3 4-2 1 1c0 2 1 2 2 3 2 1 3 2 3 4 0 1 0 2 2 2l1-2c0-2 2-3 3-4l4-1 2 1 2 1v-2l-1-2-2-1c2-2 3 1 5 1l1-2-2-3h1c2-1 7 1 7 3l-1 2h-1l-1-2c-2 1-1 2-1 3l1 1c1 2 1 2 3 2l4 1h1c0-4 2-4 5-3l1-1 2-2a7 7 0 0 0 6-1v-3a6 6 0 0 1 4 0c2 1 4 1 5-1l2-1 5-2c2-1 5-1 5-4v-1l4-2 8-4h4c2-1 2-1 2-4-1-2 0-2 1-3a3 3 0 0 1 2 0h5l1 1c3 5 2 11 3 17 1 2 2 4 5 5h1c0 1-2 2-1 4l4-3 6-4a5 5 0 0 1 3-2l2-2 2-2 2 2v4l3 8 4 8 4 10 4 11Z"/><path fill="#FCFDFE" d="M13 174v2l-1 2H8l-2-1a7 7 0 0 1-2-1H0v-6h1c2 0 3 0 3 3v1l3-1 3-1c3 0 4-1 3-4l1-2 1-3 2-3 1 2c-1 2 0 3 2 3l4 1h3l4-2c3 0 4 0 4 2 3 0 6-3 8 0l3-6 5-1-2 4 4-2h4c1 1 0 3 2 4l2-2-2-2c0-2 3-2 2-4h-3l1-3 3 1 2-2c3 1 5 4 7 0l4 2c1 1 3 2 4 1a12 12 0 0 1 2-1c2 0 3-1 3-3v-4c0-2 1-3 3-3l-1 8h4l1 2h4c2 2 5 2 9 1l2-1c0-2 0-3-2-4v-3c1-1 2-1 2-3l3-1c0 1-1 4 1 5-1 1-2 1-2 3l3 4 4 2 5-2 2 5 1 3c1 1 4 2 6 1a47 47 0 0 1 4-2l2 1 5 2v-1l3-2h4v-9l3 1c3 0 3 0 4-2v-1l5-3c2 2 2 2 0 3v3c1 0 2-2 4 0-1 1-1 3-4 4v2l2-1 2 1h4c1-1 2 0 3 1v2c0 2 2 3 3 5l2 1c1 0 2 0 3 2l1 1 2-1 1-3 3 1v-2c-1-2 0-2 1-3l2-1 2-1 2-1-1 4c2 1 3-2 5-2v-2l2-1 4-3 3-2 1-1 1-3v-2c1 2 2 3 4 3 2-1 1-3 1-4l5-1 3 3c2 2 1 4-1 4s-3 1-5 3l7 2c3-1 6-1 8 1 2 1 3 0 4-2 2-2 3-2 5 0 0 1 1 2 3 2h1c2 1 3-1 4-2-2-3-1-3 2-4l1-1 4-3 2-2-1 4-1 2-1 1a15 15 0 0 0 5-6c1-3 4-5 7-3l3 1 2 2h-3v2h2l1 1-1 1-2 1c0 3 0 3 2 2h3c3 1 3 1 4-2l-2-1 2-3 2-3 3 2 5-1h1l2 1 4-5 2 3c0 2 1 2 2 2 2 1 3 0 4-1l5-2 3-3v-2l4-2h5l1 2c0 2 0 3 2 4l2-2 2-2 3-2 2 3 1-1 4 8h4l3-1 10-1 1 3 1 3 1 1 1 3 3 10c1 3 4 4 6 7l2-4c2 0 2 1 2 2 1 2 2 2 4 1l1-1 3-3v-5l1-2 2 3v-11h-3c1-3 1-3 3-2l2 1h3c1 1 2-1 2-2h2l1 1c1 1 0 2-1 2l-3 2-3 1 3 2c2 1 2 2 1 4-2 1-2 2-1 4a4 4 0 0 1 0 4v2l2-1c2-1 4-2 3-5-1-1 0-2 1-2l1 2 3 9 2 5c1 3 4 3 6 4h4l2-6 4 1c1 0 2 0 3-2s3-2 6-3a3 3 0 0 1 2 1c2 2 2 2 4 1l3 1c1 1 2 2 1 3l-1 4h3c0-1-1-3 1-4l7-1 5 1h7l2-2-1-6a8 8 0 0 1 3-7v-4l3-8 2-1 2-3 1-2 3-3c1-4 3-6 7-4h3v-4l-5-2c-2-1-2-2 0-3v-4l-1 2h-2l-1-1 1-4h-1c-2-1-3-4-2-6s1-3-1-4c-1 0-2 0-2-2h2c2 1 4 0 5-1l3-4 1 3v2l2 1a4 4 0 0 0 4-2v-6h3v4a12 12 0 0 1 3 7h2c1-2 3-2 3-4 1-3 1-3 4-2l1-1v-1c4 0 4 0 4 3v1l-3 1 2 5 2-1c1-2 2-2 4-2v-5c3-2 4 0 5 5l-4 1c1 2 2 0 4 0h3l3-1 2 1c0 2 2 2 4 2v4l-3-2-1 1 1 1c3 0 3 0 3 2l1 2 1 1 1-1-1-2-1-1 2-3 1-1v1l-1 1 1 1c0 2 1 2 3 2l3-1-2-1-1-1 2-2h1c2 0 5 0 6-2v-4l-2-2v-4c0-1 1-2 2-1l3 4c0 3 1 3 3 2h1l1 3 2-2 1 1 2 1 4-3c1-2 2-3 4-3l2-1 2 1c1 0 2 1 2 3v5c0 1 0 2 2 3l1-3v-7c3 0 3 0 2-3v-1a5 5 0 0 0-3-6h-2l-14-5-4-1-20-7-10-4-4-1-3-1v-1l4 1 18 6 31 11 5 1 5 2 1 1h1l2 1 8 3 8 3 2 2-3 1h-9l-2-1-8-1c-2 0-5 4-4 5 2 3 1 5 1 8l-3 8s-2-1-2 1h-1l-3 5v2h3c2 1 3 1 3 4h-1c-2-1-4 0-5 1l-6 4c-1 1-2 2-3 1l-2 1 1 1 2 1c-1 2-2 2-5 2 0-2 0-3-3-4l-1-1v-6l-2 1c0 2-1 6 2 7l3 3c-1 2-2 2-3 1h-3l-9 1c-2 0-3-1-4-3v-1l-6 2-3 1c-1 1-2 0-3-1l-2-1-6 1c-1 0-3 0-4-2l-3-1-2 2h-2l-1-1c-4-2-5-1-6 3h-1c-1 1-1 0-2-1l-2-1-6 3 1 2c1 1 2 3 1 4a7 7 0 0 1-2 4 12 12 0 0 0-4 5c0 2-1 2-3 2l-4 3c-1 1-1 2-3 2l-1 1v1c2 3 2 3-1 5a2 2 0 0 1-3-2c0-3 0-3-3-2v1l1 1-1 3-2 4-3 3-4 1-2-2c0 2 1 5-2 6l-4-1-2-2-2-1-1 5c-4 1-8 1-9 6-3-2-5 0-7 1a66 66 0 0 1-5 3c-2 1-5 2-8 1h-7c-2-1-3-3-3-5l-1-5-1-6-1-5-1-3c0-2-1-2-2-2l-3 1h-5l-2-1a25 25 0 0 1-8 2l-2 1 2 7c0 2 0 4-3 5-2 0-2-1-2-3l-1-2-5-12-1-4a11 11 0 0 0-2-6l-2-3-4-10-2-5c-2 0-3 1-4 3h-1l1-3-3 1c-1 2-2 3-5 3l-1 1c-2 1-3 1-4-1l-3-5c0-1-1-2-3-2h-7c-3 1-3 1-4-1l-3-3c-3 3-3 4-1 5l-1 5-2 1c-1 2-3 2-5 2h-2a5 5 0 0 1-4 0l-2 2-5-1h-8l-7-1 2 5c2 2 2 4 0 5s-3 0-3-1v-1c-3-1-5 0-5 2l-2 2-4 1c-1-1-2 0-2 2l-1 1-3-2-5 5h-2c0-2-2-3-4-2l-2-1v-3l-2-3-2-1-1 2v4l-3 1v-3l-3-4-1-1-1 2 1 2-1 2h-1l-2-4v-5l1-2a5 5 0 0 0-2-2l-2 1-1 3-1 2-5 5v1c-2-1-4 0-5 1s-2 2-3 1v-1l6-5 2-2 2-2 3-4v-2h-1l-7 3v-1l-3-1-2 2v2l-1 2a3 3 0 0 0-2 2l-2 4-4 1 3 2-1 1-6 2c-2 0-3 0-4 2l-2 1-2 2-2 3-1-2c-1-2-1-2-3-1-2 2-3 1-4-1l-3-6-3-3a262 262 0 0 0-7-7 4 4 0 0 0-2-1 6 6 0 0 1-4-2c-2-1-2-1-3 1l-1 1h-3c-2 0-3 0-4 2-1 1-2 2-3 1l-4 2-1 1h-10l-5 1h-2c-4 1-4 1-8-2l1-2c1-1-1-3-2-2l-1 1 1 4-1 3-2 1a33 33 0 0 1-7 1c-2 0-5 0-5-3l-1-1-2-1c-1-1-1-3 1-3h5l3 1v-5l-2-1-1 2c-2 2-2 2-4 1l-2-2h-7l-2 2h1l2 2-3 2-1-1c-2-1-3-1-4 1l-1 3-1 1v-5l-1-1c-4 0-5 0-4 5l-1 2a4 4 0 0 1-4 1l-1-2-2 1-2 1-2-1c0-2-2-3 0-5 1-1 0-3-1-4-1 1-2 1-2 3l-2 3-3-1-4-1v1l2 3c-3 1-4 1-5-2v-5l-2-2-3-1v6h-3c-2-2-5-2-6 0l-2 3v3l-3-2c-1-2-3-2-5-2-3 0-3 1-3 3l1 2-2 1-3-3a4 4 0 0 1-2-1v-4l-1-2-1-2-1-2-1 1-1 4-1 3Zm73-13-3-1-2 4 2 2h5c1-1 0-2-1-4l-1-1h4l-1-3a2 2 0 0 0-2 0 2 2 0 0 0-1 1v2Zm179 4c-1-2-2-2-3-2l-3 2c-2 0-2 1-2 3v4c0 2 1 3 3 2l3-1 1-1c-2-1-3-2-3-4 1-2 1-4 4-3Zm-156-2 3 1v2c1 1 3 0 4-1v-3l-2-1h-3l-2 2Zm416-14-6-5v7c-1 1 0 2 1 1l5-3Zm-330 20 2 1-1 4 3-3v-4l-2-1-2 3Zm-119 3-2-3a2 2 0 0 0-3-1v3l2 2 3-1Zm27-12-2 1v2l3 2 4-2c-1-2-3 0-4-1l-1-2Zm106-4h-1l-3 4 1 2h2l1-1v-5Zm-5 9-2 4v2l3-1c1-1 1-3-1-5Zm-133-7c-2 1-2 1-2 3 0 1 1 2 3 2l-1-5Zm217-2-1-3h-2v2l3 1Zm-26-7c-1-1-2 0-2 1a12 12 0 0 0-1 3h2l1-4Zm-70 23-2 3 4-1c0-1 0-2-2-3Zm43-9c-1 2-1 3 1 4 1-2 1-3-1-4Zm294-11v-1h-1l1 1Z"/><path fill="#F1F5FA" d="M0 127v-1l1-1H0v-3h1v-1H0v-7h3l2 3h2v-1c2-2 4-2 5-1l2 1c2 1 3 1 4-1v-4l1-3h2l3 1c1-1 2-2 1-3s-2-2-4-1h-3l-2-2 1-2 2-2 2 4v-4l-3-4-1-4h3l2 2 1 1 3 2c2-1 2-4 5-2v1c0 3 0 3 3 3 0-2 1-4 3-5h3l2-1h2l1-1h3l1 1 1 3c-1 1 0 2 1 4l3-3 2 2-1 2 1 1v3c-2 2-2 2 0 3h2c2 1 3 0 4-1l3-4 3 2 2-3 3-3c2 0 3-2 4-3l2-1 3-1h2c2 2 5 1 7 1-1-3-2-6-1-9h6c1 2 1 4 3 4l-1 2-3-2-2-1 1 1-2 2c2 3 2 3 5 2h9l1 1 2 2 5 4 2-2-3-7v-5l1-1 4 4v2l5 1h2l2-1 1-2c-1-1-2-3-4-3l-5-1 1-2-2-1c0-2-1-2-3-3 3 0 3-2 3-3l3-1 1-3c1 1 1 0 1-1l2-1-4-4v-2l1 1 2 1c2 0 2 2 2 3l-1 4c-1 0-2 0-2 2l-2 6v1l1 1h1l2-3h1l2-1-1-1-1-1a66 66 0 0 0-1-4l6 2v-2l1 2v2h6c2-1 4-2 7 0 1 0 2 0 2-2h-3l-3-1 1-5c1-1 2-1 3 1h2l8 5c2 1 2 1 4-1l-2-2c-2 1-4-1-4-2 0-2-2-3-3-4v-1h4l1 3c1 1 2 2 4 1l1-3-2-3c1-2 3-4 6-4l2 2h1l-1-1-2-1 1-3c0-1 0-2-2-2l-1-1 1-2 3-1 3-3 3-2c1-1 2 0 3 1-1 1-3 1-3 3h2v1c0 1 1 2 2 1l1-2v-1h3c1-1 4-4 4-6l-1-2-2-2 2-2h4l2 2 3-6c1-2 3-3 1-5v-1c1-1 0-2-1-3-2-1-3 0-5 1h-2v1h2l-4 5-2-2a3 3 0 0 1 0-2 9 9 0 0 0 0-8h-1v3l-2-1c-2-1-2-1-3 1l-1 1-3-1 3-1v-3l1-1v-1l1-3 2 2 2 3 4-1 1 3-1 1 3 1-1-2 3-1-3-3 3-1h2c1 1 3 2 3 4a5 5 0 0 0 2 4 9 9 0 0 1 3 4l-3 6c1 3 0 6 2 8v1c0 1-1 2 1 3l1 5v9l-1 1c-3 1-3 2-3 5 3-1 6 1 9 3a4 4 0 0 1 2 3l-2 2h-3a5 5 0 0 0-3 2h-6l-1 4 2-1c0-2 2-2 3 0l2 2c2 0 3-3 5-2v1c1 2 2 2 3 1l1-1c1-2 1-2 3-2h1c0 2 1 2 2 2l2-1 1 4-2 1c-2 0-2-1-2-3-2 0-3 1-4 3 0 2-1 3-3 5v7l-1 2v2l1 2v3c2 0 2-1 2-2l2-3h1l-1 5-2 1-3 3-1 5v1c1 3 0 6-1 9a10 10 0 0 0 0 4v10l-1 1-1 1a7 7 0 0 1-5 4l-1 1h-1c0-2-1-3-3-4l1-2v-2a6 6 0 0 1 0-5l1-3c-2-1-4-2-6 0h-2l-4 1c-1 0-2 1-1 2l1 3h-3l-1 2h-1c-2 0-3-1-4-3l-1 3c-1 2 0 3 2 3h4l1 1-1 1v2c1 2 1 4-1 5l-1 4c-2 1-3 1-3-2v-1l-2-1c-3 0-4-1-5-4s-1-5 1-7v-1l-1-1c-1-1-1 0-2 1h-2c-1-4-1-9-4-13 0-2 2-3 1-6l-2 1h-7l-3-1-4-1-3 2-2-1v-1l1-1c-3-1-3-1-4 2h-2a13 13 0 0 1-7 3c-2 0-3 1-3 2l-1 2-2-2h-6l-2 1h-1l-2-3 1-2c2 0 3-2 5-1h1c1-1 0-2-1-2-1-1-2-3-4-2h-1c-1-2-3-2-4-1v4l1 3-2 2c-1 0-2 0-3-2v-3c-1-2-1-5 1-6-1-3-4-4-2-7l-2-1v-1c-2 0-3 0-3 2l-2 4v4l1 1 1 3c1 1 2 1 1 3v7l-1 1-3 6h-1l-1-1 1-6v-3l-2-1v5l-1 1-1-1-2-4-1-2-2 1c-1 2-1 2-3 1l-5-2v-1l2-1v-2c1-2 1-3-1-5-1-1 2-3 0-4v-3l2-1c-3-2-6-1-7 3v6l1 5v1c2 3 2 3-1 4-2 1-2 1-2 3l1 3-2-2c0-2-2-2-4-3l-5-3v8c2 2 0 4-1 6 0 1-1 2-2 1v-2l1-1v-2c-1-3-2-6-5-8-2-1-3-1-3 1-1 2-3 2-4 2l-5-1v-2c-2-1-3 0-3 1v2c0 3 1 3 4 2l3 1 1-1c2 2 2 2 1 4l-3 3h-4l-2-2c-2 1-5 0-7 3l2 1c2-1 2 0 4 1a63 63 0 0 0-4 5c-1 2-3 2-5 1l-3-3c-2 3-4 1-6 0a4 4 0 0 0-2 4v5l-1 3c1 2 0 4-1 5-3-1-3-2-3-4v-1c0-1-1-2-2-1s-2 2-1 3v2l-3-1c-2 0-3 0-3-2l-1-1v-21l2-1-2-2Zm44-23 3-3-1-1v-4c-1-1 0-3-2-2l-3 3c-2 2-1 3 0 4a4 4 0 0 1 3 3Zm91-17c-3 2-4 4-3 5l4-4 4-8-2-1c-2 0-3 1-2 3l-1 1v4Zm0 11c-2 2-1 2-1 4l-1 3c-2-1-1-3-3-3l1 5-3 4h2l3-3c2-1 2-3 2-6v-4Zm-70 15-3 6 3 1h3l1-2c0-1 1-2-1-3l-3-1Zm-18 0c-2 1-3 3-3 5-1 2 0 2 2 2s3-2 4-3l-3-4Zm1-6h-4l-2 6c0 1 0 2 2 3 0-3 0-7 3-9Zm69 3 3 5-1 2 1 2 1-1 1-2-2-4c0-1 0-2-3-2Zm-81-1c-1-3-1-3-3-2h-2c0 3 2 3 5 2Zm159-73c-2 0-3 1-2 2l1 4v1l1-3a5 5 0 0 1 0-4Zm-67 68-1-3-3 2-1 2h2l3-1ZM16 121h-3c1 2 2 2 3 0Zm3 15c2 0 3-1 1-4l-1 4Zm-12 5-3-1v2l3-1Zm4-13c1-2 0-3-1-4 0 2-1 3 1 4Zm47-16c-1 3-1 3 1 4l-1-4Zm68 0-3 1 1 1 2-1v-1Zm-85 16-2 2 1 1 1-3Zm-37 4v2h1c1-1 0-2-1-2Zm163-80v2l1-1-1-1Zm48 29 1-1-1-1v2ZM12 133h-1 1Zm0 11-1-1v1h1Zm5-8h-1 1Z"/><path fill="#FDFEFE" d="m13 174 1-3 1-4 1-1 1 2 1 3 1 1v4a4 4 0 0 0 2 1l3 3 2-1-1-2c0-2 1-3 3-3s4 0 5 2c1 1 1 2 3 2v-3l2-3c1-2 4-2 6 0h3v-6l3 1 2 2v5c1 2 2 3 5 2l-2-3v-1l4 1 3 1 2-3c0-2 1-2 2-3 1 1 2 3 1 4-2 2 0 3 0 5l2 1 2-1 2-1 1 2a4 4 0 0 0 4-2l1-1c-1-5 0-5 4-5l1 1 1 2v3-1l1-3c1-2 2-2 4-1l1 1 3-2-2-2h-1l2-2h7l2 1c2 2 2 2 4 0a4 4 0 0 1 1-2l2 1v5l-3-1c-2-1-4 0-5 1-2 0-2 1-1 2l2 1 1 1c0 3 3 3 5 3h7l2-2 1-2-1-5 1-1c1-1 3 1 2 2l-1 2c3 3 4 3 8 2h2l5-1h10l1-1 4-2c1 1 2 0 3-1 1-2 2-2 4-2h3l1-1c0-2 1-2 2-1a6 6 0 0 0 5 2 4 4 0 0 1 2 1l7 7 3 3 3 6c1 2 2 3 4 1 2-1 2-1 3 1l1 2 2-3c0-2 1-2 2-2l2-1c1-2 2-2 4-2l6-2 1-1-3-2 4-1 2-4 1-2 2-2v-2l2-2 2 1 1 1 7-3h1v2l-3 4-2 2-2 2-6 5v1c1 1 2 0 3-1s3-2 5-1v-1a10 10 0 0 1 5-5l1-2 1-3 2-1 2 2-1 2v5l2 4h1l1-2-1-2 1-2 1 1 3 4v3l3-1v-4l1-2 2 1 2 3v3l2 1c2 0 4 0 4 2h2l5-5 3 2 1-1c0-2 1-3 2-2l4-1 2-2c0-2 2-3 5-2v1c0 1 1 2 3 1s2-3 0-5l-2-5 7 1h8l5 1 2-2a5 5 0 0 0 4 0h2c2 0 4 0 5-2l2-1 1-5c-2-2-2-2 1-5l3 3c1 2 1 2 4 1a4 4 0 0 0 3 0h4c2 0 3 1 3 2a43 43 0 0 0 3 5c1 2 2 2 4 1l1-1c3 0 4-1 5-3l3-1-1 3h1l3-3c2 1 2 3 3 5l4 10 2 3a10 10 0 0 1 1 6l1 4 6 12v2c1 2 1 3 3 3 2-1 2-3 2-5l-1-7 2-1 8-2h2l5 1 3-1c1 0 2 0 2 2l1 3a28 28 0 0 1 1 5l1 6a16 16 0 0 1 1 5c0 2 1 4 3 5h7c3 1 6 0 8-1l5-3c2-1 4-3 7-1 1-5 5-5 8-6l1-5 3 1a5 5 0 0 0 2 2l4 1c3-1 2-4 2-6l2 2 4-1c0-1 1-3 3-3l2-4 1-3-1-1v-1c3-1 3-1 3 2a2 2 0 0 0 3 2c3-2 3-2 1-5v-1l1-1c2 0 2-1 3-2s2-3 4-3 3 0 3-2a12 12 0 0 1 4-5 7 7 0 0 0 2-4c1-1 0-3-1-4l-1-2 5-3 3 1c1 1 1 2 2 1h1c0-4 2-5 5-3l2 1a4 4 0 0 0 2 0l2-1c1-1 2-1 3 1l4 1 6-1 2 1c1 1 2 2 3 1l3-1 5-2 1 1c1 2 1 3 4 3l9-1h3c1 1 2 0 3-1l-3-3c-3-1-2-5-2-7l2-1v6l1 1c2 1 3 2 3 4 3 0 4 0 5-2l-2-1-1-1 2-1c1 1 2 0 3-1l6-4c1-1 3-2 5-1h1c0-3-1-3-3-3h-3v-2l2-6h1v3h3l1 5c1 2 1 2 3 2 1 0 2-1 3 1l-3 3-2 3-2-2-4 3v2l-4 1c-2 0-2-1-2-3-2-1-2 0-3 1l1 3-5 2-4 4 2 2-3 1-5 1c-1-1-2 0-3 1-2 1-4 2-6 0l-2 1c-3 1-5 1-7-1s-2-2-4 0a4 4 0 0 1-5 0l-5-2-3-1h-3l-3-2h-3l-5 4c-1 4-4 6-7 9l-6 6a8 8 0 0 1-4 2l-1-3c-1 2-4 3-5 6-1 2-3 3-6 4l-3 1c-2 1-3 2-3 4v9l-2 3-5 4-3-1c-3-1-3-1-5 1l-2 2-1-2-3-1-3 1c-2 2-5 2-7 2h-3a5 5 0 0 0-4 1l-9 3h-1l-2 1h-7l-3-3c-4-1-5-1-4 3h-4l-1-2-1 2h-13l-4-11-4-10-4-8-3-8v-4l-2-2-2 2-2 2c-2 0-3 1-3 2l-6 4-4 3c-1-2 1-3 1-4l-1-1c-3 0-4-2-5-4-1-6 0-12-3-17l-1-1a6 6 0 0 1-5 0h-2c-1 1-2 1-2 3 1 3 1 3-2 4h-3a16 16 0 0 1-8 4l-4 2v1c0 3-4 3-5 4l-5 2-2 1c-1 2-3 2-5 1a6 6 0 0 0-4 0l-1 3a7 7 0 0 1-5 1l-2 2-1 1c-4-1-5-1-5 3h-1c-1-2-3-1-4-1-2 0-2 0-3-2l-1-1c0-1-1-2 1-3l1 2h2v-2c0-2-4-4-7-3h-1l2 3-1 2c-2 0-3-3-5-1l2 1 1 2-1 1h-1l-2-1h-4c-1 2-3 2-3 5l-1 2c-2 0-2-1-2-2 0-2-1-3-3-4-1-1-2-1-2-3l-1-1-4 2-1 2c-1 2-2 2-3 1-2-1-2 0-3 2l-2 2h-4c-1-1-2-1-1-3a6 6 0 0 0 0-3l-1-3c-4 2-5 3-3 8l-3-2c-2 1-1 4-4 5l-2-3c-2 1-3 1-4 4 0 3-3 4-5 5h-1c1-3 2-5 1-8l-2 1c-2 3-5 4-7 1 0-2-2-2-3-3-2 0-3-2-4-4l-1-3-1-2c1-2 0-3-1-4l-6-8-2-1-1 2-3-2-10 4h-3c-2 2-5 2-7 2l-3 1-2 1-4-1c-3-1-4-1-5 2l-5 1-2-1-5-3-4 5h-10c-2-1-3 0-4 2-3-1-3-4-4-5l-6 4-2-2c0-1 0-2-2-3l-3-1c-3 0-5 4-5 6l-4 1-2-1h-3a7 7 0 0 1-4 0l-5 1c-1 1-2 0-3-1l-2-1-2 1h-2l-1-5-2 1-3 3c-2 2-5 1-7-1l-1-2-2 1a7 7 0 0 1-4 6c-2 1-2 2-1 3v2c-2 1-4-1-6-2l3-2-1-1-2-1h-2c-3 1-5 0-5-3l-4-10v-1l-2 1Zm208 12c2 1 4 1 5-1l2 2a6 6 0 0 0 3-4l-7 1c-1 0-3 0-3 2Zm-5-2a5 5 0 0 0-5 1l-3 1-1 1 1 1c3 1 5-1 8-2v-1Zm-19 9-2-1 1-4c-3 0-5 1-5 3l2 2c1 1 3 2 4 0Zm3-11c-3 0-5 1-6 4 3 1 4 0 6-4Zm44 4c-2 0-3 1-3 2v2h2l1-4Zm285-23c0-1-1-2-2-1l-2 2 2 1 2-2Zm31-13c2 1 4 0 5-4l-5 4Zm-336 30-4-1-1 2c2 1 3 1 5-1Zm4-1c2 1 3 0 4-1v-1l-1-1c-1 0-3 1-3 3Zm61-13-2 4 3-1-1-3Zm-44 19 2-1-1-2h-3l2 3Zm-34-3 2-2-1-1-2 2 1 1Zm-120-8c-1-1-2-2-3 0v2c2 1 2-1 3-2Zm111 9 1 1 2-1v-1h-2l-1 1Zm287-21c1 2 2 2 4 2l-2-2h-2Zm-270 8 2-4c-2 1-3 2-2 4Zm64-2c2 1 3 0 3-1v-1h-2l-1 2ZM48 179l-3-1c0 3 1 3 3 1Zm267-19v2l2-1-2-1Zm135 40 1 1h2v-1l-1-1-2 1Zm116-50 1-1v-2l-2 1 1 2ZM28 185c3 1 4 1 3-1l-3 1Zm180-5-1-1v2l1-1Zm6-11-1 1 1 1h1l-1-1Zm68-4h1l-1-1v1ZM38 179l-1-1v1h1Zm149 9h-1 1Zm189 5-1-1v1h1Zm146-33s1 0 0 0Zm-293 6h1-1ZM42 176v-1 1Zm89 5-1-1v1h1Zm-5 0 1 1v-1h-1Zm89 1Z"/><path fill="#F7F9FC" d="m110 117-2 2-1 3 1 2-1 1c-1-2-2-1-3 0l-4 1-1-2-2 1c0 2 0 3-2 3v1c-1 3 0 5 1 7 2 2 2 2 4 1s2-1 3 1l1 1-2 5c-2 0-1-2-3-2l-2 2v2h-1l-2-2h-3v2c0 2 0 4-3 5v-3l-1-3-3-2c-1 3-2 5-1 8v1c-1 1-1 2-3 2h-4l-4-2v-1h2c2-1 2-2 2-3l2-4-1-2c-2-1-2-4-2-5 0-3-2-4-3-5l-3 1-1 2a5 5 0 0 0 3 1h3l-4 5c-2 3-3 3-4 0h-1c-3 0-5 0-6-2l-1-1c-2-1-2-1-3 2v1h-2l-1-2v-10c1-2 1-2-1-3l-2-2-2 2c2 2 2 2 0 4v1c-2 1-2 2-2 4 1 3-1 6-3 6h-4c-1 0-2 2-3 1h-1l-1 1 1 3h1c2-2 2-2 4 0l2 1a7 7 0 0 1 4 2c1 1 3 0 3-2v-1l3 1c2 1 2 3 0 5s-3 3-6 2c-1 0-2 0-2-2l-1-1-4-2c-1 3 0 4 2 6l-2 1-6-2-3-3-4 2-2-2h-1v1l1 3-2 2-4-1c-1 0-2 0-2 2l-2 3-2 1-4-3a11 11 0 0 0-7-2v-6l1 1c0 2 1 2 3 2l3 1v-2c-1-1 0-2 1-3s2 0 2 1v1c0 2 0 3 3 4 1-1 2-3 1-5l1-3v-5l2-4c2 1 4 3 6 0l3 3c2 1 4 1 5-1l4-5c-2-1-2-2-4-1l-2-1c2-3 5-2 7-3l2 2c1 1 3 1 4-1l3-2c1-2 1-2-1-4l-1 1h-1l-2-1c-3 1-3 1-4-2v-2c1-1 1-2 3-1v2l5 1c1 0 3 0 4-2 0-2 1-2 3-1 3 2 4 5 5 8v2l-1 1v2c1 1 2 0 2-1 1-2 3-4 1-6v-8l5 3c2 1 4 1 4 3l2 2-1-3c0-2 1-2 2-3h1c2-1 3-1 1-4l-1-1-1-5v-6c1-4 4-5 7-3l-2 1v3c2 1-1 3 0 4 2 2 2 3 1 5v2l-2 1 1 1 4 2c2 1 2 1 3-1l2-1 1 2 2 4h2v-5l2 1v10h1l3-6 1-1v-8c1-1 0-2-1-3l-1-2-1-2v-3l2-5 3-1v1l2 1c-2 3 1 4 2 7-2 1-2 4-1 6v3c1 2 2 2 3 2l2-2-1-3v-4h4l1 1c2-1 4 0 5 2l-2 1c-2 0-3 0-3 2Zm-47 20 2-3c1-2 1-2-1-3-2 1-2 3-1 6Z"/><path fill="#FAFBFD" d="m0 157 7 2 4 3 2-1 2-3c0-2 1-2 2-1h4c1 2 3 2 4 2 1 4 2 4 4 3v-3l4 1 1-2-2-1h-2c-2-1-4-1-6 1v-2l1-3 4-2 3 3a10 10 0 0 0 6 2l2-1c-2-2-3-3-2-6l4 2 1 1c0 2 1 2 2 2 3 1 4 0 6-2s2-3 0-5l-3-1v1c-1 2-2 3-3 2a7 7 0 0 0-4-2l-2-1c-2-2-2-2-4 0h-1l-1-3 1-1h1c1 1 2-1 3-1h4c2 0 4-3 3-6 0-2 0-3 2-4v-1c2-2 2-2 0-4l2-2 2 2c2 1 2 1 1 3-1 3 0 7 1 10l1 2v1l1-1v-1l3-2 1 1c1 2 3 3 6 2h1c1 3 2 3 4 0l4-5h-3a5 5 0 0 1-3-1l1-2 3-1c1 1 3 2 3 5 0 2 0 4 2 5l1 2a14 14 0 0 0-2 4c0 1 0 2-2 3h-2v1l4 2h5l3-2c0 2-1 3-3 3l-2 1c-1 1-3 0-4-1l-4-2c-2 4-4 1-7 0l-2 2-3-1c-2 1-1 2-1 3h3c1 2-2 2-3 4l3 2-2 2c-2-1-2-3-2-4h-4a5 5 0 0 1-4 2l2-4-5 1-3 6c-3-3-5 0-8 0 0-2-1-2-4-2l-4 2h-3l-4-1c-2 0-3 0-2-3l-1-2-2 3-1 3-1 2c1 3 0 4-3 4l-3 1-3 1v-1c0-3-1-3-3-3l-1 1v-2c3 0 4-2 7-3-1-2-1-3-3-3l-4-1v-5Zm35 4c3 2 5 2 8 1l-1-6-2 2-5 3Zm23-15v4c0 2 2 3 4 3l1-1v-2h-1l1-3c-2-1-3-2-5-1Zm16-4h-1l-1 3-1 4h1c3 0 3 0 3-3l-1-4Zm-7 5c0-3-2-4-5-4l-1 1 2 2 4 1Zm-13-1v-3c-2 2-2 2 0 3Zm-7-1v1-1Z"/><path fill="#EFF4FA" d="M0 53V11l2-1c2-1 4-1 6 1 1 2 1 4 3 4v1l2 2c-1 2-1 4 1 6l3-2 1-2 1 1 2-1c2 2 1 3 1 5 1 0 2 1 1 3-1 0-3 0-3 2-2-1-4-2-4-4l-1 2c1 1 1 3-1 4l-2 6 2 2h5v2c-1 0-2 1-2 3v2l-2 1-1-2v-2l-2-1c-2-1-3 0-2 2v1c-1 2 1 2 1 3l-3 3v-1H7l1 1v1c-2 0-3 1-3 3l-1 1 3 2 2-2 1 3-3 2c2 3 2 5 0 8v-1l-2-8-3-6-2-2Z"/><path fill="#EDF2F9" d="m17 91 1 4 3 4v4l-1-3-3 1-1 2 2 2h3c2-1 3 0 4 1s0 2-1 3l-3-1h-2l-1 2c1 2 0 3-1 5 0 2-1 2-3 1l-2-1H7l-4-1H0v-13c2 1 4 0 5-2l2-1h1v2l2 2 1-4c-1-1 0-2 1-3v-3l-3 2c-1-4-1-4 3-4v1l3-1-1 6v4l3-2-1-5 1-2Zm-5 15c2-1 2-2 1-4l-3 3c-2 2-2 3-1 5 3 0 4-1 3-4Z"/><path fill="#F5F8FC" d="m0 53 2 2 3 6 2 8v3l1 2v3c1 4 1 5-3 6l-2 2 2 2c-2 0-3 0-4 2H0V53Z"/><path fill="#EEF3F9" d="M8 77v-2l1-2c1 2 3 2 6 2-1 1 0 3 1 4l1 2h-2l-1 1-1 6-1 2c-4 0-4 0-3 4H4c-2 0-3 0-3 2l-1 2v-8c2 0 5 1 7-2l3 1a2 2 0 0 0 1-1l-1-2c-2-2-2-2 0-4l1-1-1-2-2-2Z"/><path fill="#F1F5FA" d="m0 98 2-2c0-2 0-2 2-2h5l3-2v3c-1 1-2 2-1 3l-1 4-2-2v-2H7l-2 1c-1 2-3 3-5 2v-3Z"/><path fill="#F3F7FB" d="m13 18-1-2-1-1c-2 0-2-2-3-4-2-2-4-2-6-1l-2 1V4l2-1v2H1c1 2 3 2 4 2l1 2 2-2 1 2h4v3c-1 2-1 2 1 3v3h-1Z"/><path fill="#F1F5FA" d="m8 77 2 2 1 2-1 1c-2 2-2 2 0 4 1 1 2 1 1 2a2 2 0 0 1-1 1l-3-1c-2 3-4 2-7 2v-1h1c1-2 2-2 4-2l-2-2 3-2c3-1 3-2 2-6Z"/><path fill="#FDFEFE" d="m0 177 1-1h3a7 7 0 0 0 2 1l2 1h4l1-2c1 2 0 3-1 5 0 1-2 2-3 1l-3-1H0v-4Z"/><path fill="#FCFDFE" d="m0 162 4 1c2 0 2 1 3 3-3 1-4 3-7 3v-7Z"/><path fill="#fff" d="M394 219c-1-5 0-4 4-4 2 1 3 2 3 4h-7Z"/><path fill="#F1F5FA" d="m0 127 2 2-2 1v-3Z"/><path fill="#fff" d="M388 219v-1l1-2 1 2h-2Z"/><path fill="#EFF4FA" d="M0 2h2v1L0 2Zm0 0 2 1-2 1V2Z"/><path fill="#F1F5FA" d="M0 121h1v1H0v-1Zm0 4h1l-1 1v-1Z"/><path fill="#F2F6FB" d="m216 77-2 1-2-2c3 0 3-1 1-3l-2-2c-1-2-3-5-1-7h2l4 2h5v-3l-2 1c-2 1-3 0-4-2a3 3 0 0 1 1-3l1-4-2 3c-1-3 0-4 1-5-2-3-2-4-1-5l2 1 3-1-1-2v-3h2c1 3 2 0 3 1l2 3 2-4-1-5h2l1 2 1-1 1-1v-6a26 26 0 0 1 0-5v-1l6-3v2l-1 8c0 1 0 3 2 3v5c1 2 2 4 1 5v1a10 10 0 0 1 0 7c3 1 4 1 3-1a21 21 0 0 1 0-8 4 4 0 0 1 1-4c1-1 3-3 2-6l1-1 3 1-1 3a9 9 0 0 1 2 9c-1 2-2 5 0 7s1 4 0 6c-2 2-2 3-1 5v2l1 3v3c-1 1-2 2-1 3l1 4 2 2-2 3v2h2l2-2 5-3c-2-3-2-4 1-5l1 1 4 2 2-4 2-2c2 0 2-1 2-3l3 1c3-2 1-4 0-6-3 1-3 1-3 5l-2-2c1-2-2-3-3-5-3 1-5 2-6 1v-1c1-1 2-2 1-3-1-2-3-1-4-1l-2-3v-2a4 4 0 0 0 2-3l1-2 2 3c1 2 3 2 4 2a2 2 0 0 0 2-3l3-3c-2-3-5-4-7-2h-1l-2-1-1-2 1-1c1-1 1-3-1-4l-2-1h3l2-4c1-2 3 0 4-1v-2l1-3a7 7 0 0 0 2-5c-4 0-4 4-6 5l1 3c-3 0-4-1-5-3l4-3-1-3c0-2 4-4 6-4 2 1 3 0 4-1h4l2 1 1-2c-1-2 0-4 1-5l8 1-4 3c3 0 4 0 5 3-1 2-4 0-5 1h-4c-1 1-2 2-1 3l3 1c1 2-1 2-1 4l1 2-2 4c-1 1-2 3-1 5l2 7 1 1v1l-1 3v3l3-4c1 0 2 1 2 3-3 2 1 3 1 5-2 1-5 0-7 2 2 1 3 2 2 4l1 2 2 9v1l-3 3c-1 1-2 2 0 3l-1 2 1 1 2-1 2 2c1 3 3 6 6 7 3 0 4 2 3 4 0 2 1 3 3 3 2 1 3 2 5 0l2-2 2 1 2-1v-1c-2-1-1-3 0-4s1-2 3-1v1c-1 1-1 2 1 2s3 1 5 3l5-1 5 1 1-1h3a5 5 0 0 0 3 0l6 1h2l5-2 3-3c3-3 6-4 10-2a8 8 0 0 0 4 0c2 0 2-1 1-3l-1-1 2-1c2 0 2 0 3-2v-2c1-2 2-2 3-1l3 2-3 2 2 1c2 0 4-1 4-4l2-4 4-4 6-3c0-2-3-2-4-3l1-1c2-1 1-3 1-4 0-2-1-2-2-2h-1l-1-1v-4a5 5 0 0 0-1-1c1-4 2-4-2-6l1-5-6 2v2l1 1-3 1c-2 0-3 0-4 2s-2 3-5 2l-4-1c-1 1-1 0-2-1 2-2 2-4 1-6h-1c-1 2-2 2-4 2l-7 1c-1 1-2 0-2-1v-3l2-3v-1h2l1 2h9c2 0 3-1 3-3l1-5h-3l-1-1-3-2-1-1 25 8c1 4 2 4 4 2l4 1c0 2-1 1-2 1-2 0-2 0-2 2l4 2c1-1 1-2 3-2 0 1 0 2 2 3l3 3-2 1c2 2 2 3 2 5-1 1 0 2 1 2 3-1 5 0 7 2l1 3 2-2c0-2 1-2 3-2l2 4h2v-2c-1-1-2-3-4-2l-2-2 1-2c1 1 2 0 3-1l1-3v-1l7 2c0 2-1 3-2 3-3 0-4 1-3 3l1 5-4 5c1 2 1 3-1 4h-4c-2 1-2 0-2-1l-1-2 2-2c-2-4-4-4-6-2l1 1c-2 2-2 2-5 2h-1l1 3-3 2-1 1c-1-1-2 0-2 1l-2 5c-1 0-2-1-3 1 0 2 2 2 3 3l1 2 1 2v3a12 12 0 0 1-5 4c-2 0-2 0-2-2l-1-2c-2 3-4 3-7 2h-1l-3 1-2 1h-1c-2 2-5 1-7 1h-4l-2-2h-1c-3 0-4 2-6 4l-4 2h-2a8 8 0 0 1-5 1h-3c-3 0-6-1-9 1h-12c-2 0-3-1-4 1l-2 1c0-2-1-4-4-4 2 2 0 5 0 6h4l2 1-1 1-2 1h-5l-3-2c0-2-2-3-3-4l-2-1c-1 1-1 0-2-1l-1-5c-2-1-1-1-4 1l-2-1c-1-2-2-3-4-2h-2c-2-1-2 0-3 1l-2 4c-1 3-2 3-4 1l-3-4c-2 2-4 3-6 2v-3l-3-2-5 6c-1-2-3-2-2-4l-1-2c-1-1-2 0-3 1l-2 1-4-4v-1l3-1c-1-2-2-2-2-1a8 8 0 0 0-2 2l-1 2-4 6v2c-1-3-2-5-1-7v-5c3-2 4-3 2-5l-2 1c-1 1-2 2-3 0h-2l-1 1 1 2c1 2 3 3 3 5l-4 1v-1c0-2-1-3-3-3l-1-3 1-5v-3l-2-4-2 1-4 2h-2Zm6-16c2-2 1-5 3-7l1 2c1-2 4-1 4-4l-4-1-1 2a3 3 0 0 1-2 0l-1-2 1-2h-3l-1 5 2-1v5c-1 1 0 2 1 3Zm40-23c0 3 3 6 6 7l1-2-1-3-3-1-1-1h-2Zm17 42-2-2c-2-1-3 0-3 2l-1 3v2c2-2 5-2 6-5Zm117-27-4 1 1 4h3v-5Zm5 7c-1-2-3-1-4-1 1 2 1 2 4 1Zm-123-3v-2c-2 0-3 0-3 2h3Zm134 8 1-2-2-1v1l1 2Zm-15 2-2-1h-1l1 1h2Z"/><path fill="#EEF4FA" d="m285 74-2-9-1-2c1-2 0-3-2-4l7-2c0-2-4-3-1-5l2-1c0-2-2-4 1-6l1 1c2 0 3-1 3-3l2-2-3-5 2-1c1 1 1 3 3 2l-1-4 1-1 2 4a4 4 0 0 0 7-1v-1c-1-1 0-2 1-3-2-1-4 0-5-2h-7l-3-1v-7c1-3 0-5-2-5l-2-1 1-3 36 9 10 3c-1 1 0 2 1 2v4a3 3 0 0 0 0 3l1 6c0 2 1 4 3 4l3 2-3 2 2 7c0 2 1 3 2 3l6-1 2-2c0-2 1-2 3-2 1 1 2 2 4 1h1v1l-1 2 6 2c1 1 4 0 4-1l3-6c1-2 3-2 4 0 0 1 0 2 1 1 2-2 2-2 4-1-1 3-1 4 3 4l1 1v3c-4 1-5 2-3 7l-2 3c-2 1-2 1-1 3v1c-1 2-2 0-4 0v3l-1 1-4 1-1-2h-3l-2 1c-1 2-2 5-5 6l1 2v1l-9 3-1 1c0 2-2 3-3 3h-2c-4 2-8 1-12 2h-1l-4-1c-2-1-3 1-4-1h-1l-2-1-3-1-2-1-2-1c-2 0-3-2-5-3l1-3h-1l-2 4c0 1 2 3 0 5-4-1-1-4-2-5-2 0-5 0-5 2 0 3-2 3-3 4l-1-2a4 4 0 0 0-3-5h-3v-4h-3l2-2c1-2 1-2-1-3l-1-2-2-1Zm5-23c2-2 2-3 0-4v4Z"/><path fill="#F5F8FC" d="M216 77h2l4-2 2-1 2 4v3l-1 5c0 1 0 2 2 3 2 0 2 1 2 3v1l4-1-2-5-1-2 1-1h1c1 2 2 1 3 0l2-1c2 2 1 3-2 4 0 2-1 4 1 6-2 2-1 4 0 7l1-2 3-6 1-2a8 8 0 0 1 2-2c1-1 2-1 2 1l-3 1v1l4 4 3-1c0-1 1-2 2-1l1 2c0 2 2 2 3 4l4-6 3 2v3c2 1 4 0 6-2l3 4c2 2 3 2 4-1l2-4c1-1 2-2 3-1h2c2-1 3 0 4 2l2 1 1 2c-3 2-3 3-1 5l3-4c2 1 1 3 1 4l2 4h3c3 0 3 1 4 3l1 2 1-2h3c3 0 3 0 4-3l1-1 1-2 1-2 3 2a6 6 0 0 1 5 1v-1h4l3-1 2-1 6-1 2 1 5-1a3 3 0 0 1 4 0c2 1 2 1 3-2 6 0 7 0 9-4h4c2 0 5 0 7-2l1 1 2-1 3-1 1 1c3 0 5 1 7-2l1 1c0 2 0 2 2 2l5-4v-3l-1-2-1-2c-1-1-3-1-3-3 1-2 2-1 3-1l2-5c0-1 1-2 2-1l1-1 3-2-1-3h1c3 0 3 0 5-2l-1-1c2-2 4-2 6 2l-2 2 1 2c0 1 0 2 2 1h4c2-1 2-1 1-4l4-5-1-5c-1-2 0-3 3-3l3-3 6 3 5 1 1 1 4 1v4l2 4c1 1 1 2 3 1l2 1a6 6 0 0 0 2 1 4 4 0 0 1 2 2l2 1 1 3a11 11 0 0 1-2 4l-3 1a7 7 0 0 0-4 0c-1 1-3 1-4-1l-1 2-2 1c-2 0-3 2-4 4v2c-1 2-2 2-5 1v-1c-2-1-3-1-4 1 1 2 0 4-1 6l-3 1c-2-1 2-3 0-5h-1l-3 2-4 1a82 82 0 0 0-8 5l-1 1 1 5 1 2-1 3 1 3c0 3 0 4-3 4-2-2-2-2-4 0l-3 1c-1-1-3-2-5-1l1 3v2l-2 3-1 2-1-4-2-7a72 72 0 0 1-4-13l-2-2c0 2-1 3-3 3 0-2 0-3-2-4-2 1-3 3-6 2l-7 1-6 2-2 2c-1 2-2 2-4 2a4 4 0 0 0-3 1 4 4 0 0 1-4 0h-5c-2 1-3 2-5 1l-3 2-3-4c-2 2-2 5-4 6-1-1-1-3-3-3l-1 2v4c1 1 0 2-1 2l-3 1v-4h-5l-1 3h-1c-3-1-5 0-7 1h-2v-2l-1-2-4-3-5-3-1-1-2-1-1-2 1-2c-2-2-4-2-3-5l2-1-2-1h-3l-3 1c0 2 0 2 2 3l1 1a4 4 0 0 1-4 1l-4-1a3 3 0 0 0-2 0l-5 7v1h8l3 2-2 2-3 2-2 2v-3a3 3 0 0 0-2-2l-1 1-1 1c-2 1-2 2-2 3s1 2-1 3c-2-1-4 0-5 2l-3 1c-1 2-3 1-4 1l-2-1-1-5-2-2h-5c-1 0-2-1-2 1h-2l-1-2c-2 2-4 1-7 0-1 0-2 0-2 2-1 0-2 0-3-2h-2l-1 2h-1l-1 1-2 1h-2l-2-1c-1-2-3-1-5 0l-2 4c0 1 1 2-1 2a8 8 0 0 1 0-5 24 24 0 0 0 1-9l1-5 3-3 3-1v-5h-1l-2 3c0 1 0 2-2 2v-3l-1-2c-1-1-1-2 1-2l1 2 2-2v-2l-2-1-1 1a4 4 0 0 0 0-4c-1-1 0-2 1-3l2-5c1-2 2-3 4-3 0 2 0 3 2 3l-1 7-3-4-2 1-2 3 2 1h4l2 1-1 3-2 1c3 3 2 5 1 8l-2 2-3 2-1 1 1 1 2 2c0 2 1 2 2 2l2 1c0 2 2 2 3 1v-3h1c3-1 3-2 1-4v-1c-1-2-1-3 2-4 0 2 0 4 3 4 1 0 2 1 1 2v4l-4-2c1 3 2 5 4 5l1-2c3 1 5 0 7-1l1-3-1-3a9 9 0 0 1-4-3v-3l2-4 2-2v-2l-4 3-5-8-2-3-2-2v-2l-2-1-1 1-1-4Zm34 21-1-3-2 2h3c-1 3-1 3-4 1l-2 2c1 2 2 1 3 1-2 3-2 3-5 3l-1-7h-2l-1 5-4 1 11 8v-2c0-2 1-3 4-2l3 1v3l-2 2-1 1 2 1c1-3 2-3 4-1 2 1 2 1 3-1l1-2-2-1-2-1 1-1c3 0 2-2 2-3l3-3-2-5-2 2a4 4 0 0 0 0 2c0 1 0 2-2 2h-2v3h-3c0-3 0-4 2-6v-2h-2Zm-26-14 1-4-1-3c-1-1-2 0-3 1l-1 1 2 3 2 2Zm176 21c-3 0-4 0-5 2 0 2 0 4 3 5 2-2 0-5 2-7Zm37-42h-6l3 3 3-3Zm2 12 2-2-2-1v3Zm-204 31 1 2h1l-2-2Zm-23-24h-1l1 1v-1Z"/><path fill="#F5F8FC" d="M221 43h-3l-1 3-2-1-1 1h-2c-2 0-3 0-3 2h-1l-1 2 1 7v1l2 6c-2 2 0 5 1 7l2 2c2 2 1 3-1 3h-1c-2 0-2 0-3 2l-1 1c-1 1-2 1-3-1v-1c-2-1-3 2-5 2l-2-3c-1-1-3-1-4 1l-1 1 1-4h2c2 1 3 0 4-1a5 5 0 0 1 3-1h3l2-2-2-4a16 16 0 0 0-9-3c0-2 0-4 3-4a2 2 0 0 0 1-1v-9l-1-5 4-2c2 1 1 4 5 3l-3-6c-2 2-4 3-7 2v-1c-2-2-1-6-2-8l3-6a8 8 0 0 0-3-5 5 5 0 0 1-2-3c0-2-2-3-3-4h-2l-3 1 3 3-3 1h-1l-1-3-3 1-3-3-2-2c1-1 2-1 2-3l1-5h5l-1 3c1 0 3-1 3 1 1 2 1 2 4 2V6l-3-3h-1l-2 1V1h23l11 1 8 1 6 1 17 1 16 3 14 2 1 1c-1 1-2 3-1 5l-1 2-2-1h-4c-1 1-2 2-4 1-2 0-6 2-6 4l1 3-4 3c1 2 2 3 5 3l-1-3c2-1 2-5 6-5a7 7 0 0 1-2 5l-1 3v2c-1 1-3-1-4 1l-2 4h-2c-1 1 0 1 1 1 2 1 2 3 1 4l-1 1 1 2 2 1h1c2-2 5-1 7 2-2 1-3 2-2 3 0 2-1 3-3 3-1 0-3 0-4-2l-2-3-1 2a4 4 0 0 1-2 3v2l2 3c1 0 2-1 4 1s0 2-1 3v1c1 1 3 0 6-1 1 2 4 3 3 6l2 1c0 2 0 3-2 3-1 0-2 1-2 3l-2 3-5-2v-1c-3 1-3 2-1 5l-5 3-2 2h-2v-2l2-3-2-2-1-4c-1-1 0-2 1-3v-3l-1-3v-2c-1-2-1-3 1-5 1-2 2-4 0-6s-1-4 0-7a9 9 0 0 0-2-9l1-3-3-1-1 1c1 3-1 5-2 6a4 4 0 0 0-1 4l1 8c0 1-1 2-3 1l-1-7s-1 0 0 0c1-2 0-4-1-6v-5c1-1 0-1-1-2l1-5h6l1-2 1-1-1-4-1-1-1 2-1 2-3 1c-2-2 1-5-1-7l-4 3v-3c1-2 1-2-1-3l-3 3-1 1h-7l-2 3-3 3-4 1 3 2 2-1h4c1 2 1 2 3 1l1-1h2c2 0 2 0 1 2v1h-2l-1 1c-1 2-3 4-1 6v2h-3c0 2 0 3-2 3Zm-15-8v-6c2-2 2-4 2-7l-2-2-3 1v2h3c-1 3-4 1-5 3l1 4c1 1 2 2 1 3 0 1 1 2 3 2Zm54 39c2 0 3 1 3 2v1l1 1 1-1 1-4-2-2-1-1h-2l-1 4Zm-39-42h-1l-3 2a2 2 0 0 0-1 3l3 2h2v-1c-1-1-2-2-1-4l1-2Zm35-5-1-4-3 1-1 2 1 1h4Zm-42-4 2 2c2-1 2-2 1-3s-2-1-3 1Zm35-1 1-1v-3h-1v4Z"/><path fill="#F6F9FC" d="m287 110 1 1 5 3 4 3 1 2v2h2c2-1 4-2 6-1h2l1-3h5l-1 4 4-1 1-2v-4l1-2c2 0 2 2 3 3 2-1 2-4 4-6l3 4 3-2c1 1 3 0 5-1h9l2-1c3 0 4 0 5-2l2-2 6-2 7-1c2 1 4-1 6-2 2 1 2 2 2 4 2 0 3-1 3-3l1 2 5 13 1 7 2 4 1-2 2-3v-2l-1-3c2-1 4 0 5 1l3-1c2-2 2-2 4 0 3 0 3-1 3-4l-1-3 1-3-1-2c-2-2-1-3-1-5l1-1 8-5 4-1 3-2h1c1 2-2 4 0 5l3-1c0-2 2-4 1-6 1-2 2-1 3-1l1 1c3 1 4 1 5-1v-2c1-2 2-4 4-4l2-1 1-2c1 2 3 2 4 1h4l3-1a11 11 0 0 0 2-4c0-1 0-3-2-3l-1-1a4 4 0 0 0-2-2 6 6 0 0 1-3-1l-2-1c-1 1-1 0-2-1l-2-4v-4l16 5c0 2 2 2 4 2h2c1 2 1 2 3 1l4 1 1 2 4 2c3 0 4 2 5 5 1 2 1 3-1 4l-1 2c-1 1-2 2-4 1h-1c0 2 1 2 2 3s2 1 4-1v4l-2 2h-1c-2 1-5 0-6 3h-3a4 4 0 0 1-2 0c-1 2-2 5-5 4l1-5-5 1c-2 2-3 1-5 0l-3-1-1 4c0 2-1 3-3 3-2-1-3 0-4 2l-3 4-2 1c-1-3 0-6 2-8l-2-2c-2-2-4-2-5 0a5 5 0 0 1-4 2c1 3-1 5-3 6-1 2-2 3-4 3l3 8c1 3 1 6-1 9a6 6 0 0 0 0 2l-2 7-1 4c-2 1-2 3-2 5l-2 1c-2 0-3 1-3 3v1c-2-1-2-4-5-3l-1-1c-1-2-2-3-4-3l-3-2-3 1 1-3v-1l-3 3-2-3-1-5-2-2-1-5v-1l-1-3v-1l-1-3a8 8 0 0 1-2-4 8 8 0 0 0-2-5c-3 3-5 4-8 3 0-1 1-2-1-3-4 0-7 0-10 3h-1c-3 0-5 1-7 3l-2 1-3-1v3l-1 1h-3v-2c1-1 2-1 1-2l-5 1c-2 1-5 2-8 1l-2 1-7 2c-2 0-3 2-2 4v1c-1 1-3 2-4 1h-2l-4-1h-3l-3 2c-1 3-1 3-3 3h-2l-5 1-1-1 1-1v-4c-2-2-2-3 0-4l2-1c-2-2-3-4-6-3l-1 3h-2v-8Zm149-25-3 6 2-1 2-3 1-1-2-1Zm1 13 3-2h-3v2Zm36-22 2-2-2 2Z"/><path fill="#ECF2F9" d="M174 17v3l-3 1 3 1 1-2c1-1 1-2 3-1l2 2v-3h1a9 9 0 0 1 0 8 3 3 0 0 0 0 2l2 2 4-5v-1c2-2 3-2 5-1 1 1 2 1 1 3v1c2 2 0 3-1 4l-3 7-2-2h-4l-2 1 2 3 1 2-4 6-3-1v2l-1 2-2-1v-1h-2c0-2 2-2 3-3-1-2-1-2-2-1l-3 2-4 3-3 1-1 2c-2 1-2 2-1 5l3-4 1 2-1 3c-3 0-4 2-6 4 1 1 2 1 2 3l-1 3c-2 1-3 0-4-1l-1-3h-4v1c1 1 3 2 3 4 0 1 2 3 4 2l2 2c-2 2-2 2-4 0a37 37 0 0 0-8-4l-2-1h-3l-1 5 3 1h3c0 2-1 2-2 2-3-2-5-1-7 0h-6c-1-1 0-2 1-2l1-1c0-2-2-4-1-6h1c0-2-1-2-2-2a2 2 0 0 1-2-1l1-2 2-3c0-2 1-4 3-5l-2-2c2-2 0-4 0-5l-3 1-4-1-1-2 1-3 2-1c1-1 2-2 3-1l-1 3 2 1 1-2 1-1-2-4c2-3 1-5 0-7v2c-4-1-3-4-3-6h-4l1 5-1 4c1 0 3 0 2 2l-1 2-3 1-3-1c-1-1-2-2-1-3l1-1 1-5c-1-1-2 1-3-1l4-4c-3-1-2-3-1-5h5l2 1 2-2 2 2 1-4c0-1 0-4 2-5a5 5 0 0 0-5 1h-1c-3 0-2 2-3 4l-4-4h-1l-1-1c-2 0-1 2-2 3v2l1 2-3-1c-1-2-1-3-3-3l-2-1 2-4-2-2V5c-2 1-4 1-6-1l1-3h8l2 2 1-2h6v1l1-1h3v3l4-3h26v1l-5 3-1 1c0 2-1 4 1 6v1l-2 1v1l-1 3-2-2-1-2v6h4l-3 8-1 1c-2 1-2 2-1 5l1-1a126 126 0 0 0 4-5c1-2 3-3 1-6l1-3v-2l3-1 3-1 3 1c1 0 1 2 3 2s3-1 3-2l2 1h4Zm-34 31c-2 0-2 2-4 3l2 1 1 1 1-2v-2l1 1-1 7 1 3 3 3c1 0 2 1 1 3h3c0-3 0-4 2-5l4-2-1-2c-1-2-1-3 1-5 1-1 3-2 2-4-2 1-3-1-3-2-2 2-4 2-6 2l-3-1v-1c-3-1-3 1-4 2Zm27-12 2 2-3 3a5 5 0 0 0 3 4v-3l5-8c2 2 2 3 0 4-1 0-2 0-3 2h4c1-1 3-2 3-4l1-3 1-2c-2 2-3 2-4 1h-3l-2 1-3 2h-5c-2 0-3 1-3 3h1c1-1 2-2 3-1s2 1 3-1Zm-1-15-3 4 2 1c3-1 1-3 1-5Zm-1 11c3 0 3 0 4-2l-4 2Zm9-5 1 2 1-2h-2Zm-4 3h2v-1h-2Z"/><path fill="#FDFEFE" d="M567 134c0-2 2-1 2-1a23 23 0 0 0 2-8c1-3 2-5 0-8-1-1 2-5 4-5l8 1 1 1h10l3-1-2-2-8-3-8-3-2-1 22 7 14 5 4 2 4 1 11 4 1 2-1 2c-1 2-1 2 1 3l3-5h4a54 54 0 0 1 6 3c1 0 2 0 3 2l3 1 12 4h1c0 2 1 2 2 2l6 1a6 6 0 0 1 4 3l2 2 2 2-5-1c0 4-3 4-5 4l-10 2h-9l-2 1-4 1-2-3c0-2-2-3-3-2a2 2 0 0 0-2 3l1 1 2 2c-2 2-2 3-4 2h-4l-7 1h-6l-6 1h-8c-2 2-4 2-6 1-2-2-5-2-8-3l-2 1h-2v-4l-1-4-4-3-1-3 2-2 1-4c1-1 3-1 2-3 0-2-1-3-3-3l-1 4c-1 1-2 0-2-1l-3-1-3 2c-2 2-4 2-7 0h-2Zm30 0v-6c-2-2-5-3-7-3l-1 2h3l-2 6a2 2 0 0 0 3 3l4-2Zm62 7c2 2 4 2 7 2s4-2 2-4h-6l-3 2Zm-82-15-4 4c3 2 3 2 5-1l1-1c1-1 2-2 1-4l-2-3c-3 1-3 1-2 3l1 2Zm30-4-3-3h-2a6 6 0 0 0-2 1l2 2a3 3 0 0 1 2 2l1 2c0 1 1 2 2 1l1-2-1-3Zm39 20 1-1h3c1 2 1 2 4 0l-2-3-4 1c-1 0-3 0-5-2h-1v2c2 0 3 1 3 3Zm-52-1-5 1-1-3-2 2 2 1c0 2 1 2 2 2h3c1-1 2-2 1-3Zm5-12 2 3h2v-3l-2-3-2 3Zm31 10 5 1 1-1v-1l-5-1-1 2Zm-31 8-2-4-2 2c1 3 2 3 4 2Zm-1 3-1 1c0 1-1 3 1 3l2-3-2-1Zm13-11-2-1-1 1 2 4 1-4Zm-36-24 4 3 1-3h-5Zm69 14c0 2 1 3 2 3l1-1v-1l-3-1Zm-42-14-2-2c-1 0-2 1-1 2l2 1 1-1Zm-12 4c-1 3 0 4 1 4h1v-1l-2-3Zm31 17-2 2 1 1 2-1-1-2Zm-15-18c1-1 2-1 1-2l-1-1c-1 2 0 2 1 3Zm12 6h-1l-2 3 3-1v-2Zm-28 27c1-1 3 0 3-2-2 0-3 0-3 2Zm22-19 2-2h-2v2Zm22 13c0 1 0 2 1 1v-1h-2Zm-29-9h-1l1 1v-1Zm6-9v1-1Zm-39 5v-1 1Zm39 18v-1 1Zm-1 3h1-1Z"/><path fill="#F8FBFD" d="m512 83 3 1c1 1 2 2 4 1l10 4a8 8 0 0 0 5 3c2 0 3 1 3 3 2-3 4-2 6 0l-1 2c-3 2-6 4-10 2a7 7 0 0 0-6 1 5 5 0 0 1-2 1l-4 1-3-2h-5v2l3 1c-2 4-3 4-5 4v-2c0-3-2-4-4-3l-1 1c-2 1-4 1-6-1h-5l-2-2h-2l-3-1c1 3-1 4-3 6-3 1-2 2-5 0l-2-1c-1 2-4 2-4 5l-1 2-4-2 2-1 1-3a10 10 0 0 0-3-3l-6-1-1 3v5c2 1 4 0 5 3-1 1-3 1-3 3l2 3v1h-2c-3-2-3-2-5 1l-2 1 1 1a9 9 0 0 1 3 7v5l1 2c-5 2-2 4-1 7h-2c-4 1-6 4-5 8a4 4 0 0 1 0 3v2l-1 4-3 5-2 1-2-2-2-2-6-1v-7c-2-1-5-2-6 1v1c-3 0-3 2-3 4h-4c0 3 1 3 3 3l3 1-2 5c-2-2-4-1-5 1l-1 1-2 1-2 2-7 2c-1 1-1 0-1-1l-1-2c-2 0-3-2-3-4l-5 1c-2 2-2 3-5 2 0-2 0-4-2-5l-2-8-4-20v-1l2 8 2 7 1 3c0 2 0 3 2 4l2 3 1 2 2-2c1-2 1-2 3-1l3 3 7 2h1c0 1 1 2 2 1s2-1 1-3h-2c0-2 4-2 3-4s-2-3-1-4l2-1c1 1 2 0 3-2l1-4c2-2 3-4 1-7v-1c3 0 3-2 3-4 1-2-1-3-1-5h2a4 4 0 0 0 5 1h1v1a6 6 0 0 1-1 0c-1 2-1 3 1 3s2 1 2 3l1 1 2-1 1 4-1 4c1 3 3 5 6 4v-1c0-2 1-4 3-5l1-1c-4-2-4-3-3-6l-1-4 1-5v-1l-1-5v-9c-2-2-1-4-2-6l1-1h5c-2 3-2 3-1 5l3-2c-2-3-1-4 1-6l1-1 1 2v3l-1 2-2 3h-1v3l-2 2 1 1c2-1 4 0 5-2 2-1 3-2 3-4v-3c2 0 2-1 2-2l-2-2 2-5 2-3v-1l2-2 1 1c2 2 4 2 6 0h3l3-1c2-1 4-2 5 0h3l5-4c-1 3 0 5 3 5l4-2-2-3h-3l1-4v-2a6 6 0 0 1 3-5l1-3-2-1h-2l-3-2-2-2h2l6 3 6 1c0 2 2 2 3 2h2l2 1 2 1 2 1Zm-12-2c-2 2-2 2 0 4v3c-2 1-2 4-2 6 0 1 1 2 2 1l2-3 1-2c2 0 3-2 3-4v-2c1-1 0-2-1-2l-5-1Zm16 15-1 2 1 1 1-1-1-2Z"/><path fill="#F7FAFD" d="m419 156-2 1c-1-2-3-1-5 0h-3a6 6 0 0 0-2-1v1l2 3c-1 3-3 3-5 1l-2-4a9 9 0 0 0-2-4h-1l-2 1 1 2-1 2h-3v-2l2-3-4-1-2-6-2-8v-1l-1-2v-2l-1-1v-4l1 3 2 6 2 2 3-3-1 4 3-1 3 2c2 0 3 1 4 3l1 1c3-1 3 2 5 3v-1c0-2 1-3 3-3l2-1c0-2 0-4 2-5l1-4 2-7v-2c2-3 2-6 1-9l-3-8c2 0 3-1 4-3 2-1 4-3 3-6a5 5 0 0 0 4-2c1-2 3-2 4 0l2 2c-2 2-2 5-1 8l2-1 3-4c1-2 2-3 4-3 2 1 3 0 3-2l1-4 3 1c2 1 3 2 5 0l5-1-1 4c3 2 4-1 5-3h5c1-3 4-3 6-3h1l2-2v-4c-2 2-3 2-4 1s-2-1-2-3h1c2 1 3 0 4-1l1-2c2-1 2-2 1-5-1-2-2-4-5-5l-4-1-1-2 11 4c1 3 4 2 6 2l2 1 3 2c-1 1 0 2 1 3l1-1h2c1 2-1 4-2 5l-2-1h-2v2l1 2v5-1c-2 2-4 0-7 1l2 2c-1 1-2 0-2 2h-2c-2-1-4 1-6 2l-1 1h-2l-1-3c-2 1-1 2-1 3-2 1-2-1-3-2s-2-1-3 1l-2 2-3 1a42 42 0 0 1-7 5c-3 1-5 3-7 1a3 3 0 0 0-2-1 4 4 0 0 0-2 1v1c-2 2-2 2 0 5a6 6 0 0 1 2 5v8l1 2c0 2 0 3-2 4l-1 1a4 4 0 0 1-4 1l-3-1-4-1c-2 0-3 0-4 2l-2 2a11 11 0 0 0-3 8c1 5 2 9-1 13Z"/><path fill="#EAF1F8" d="M11 9H9L8 7l1-3-1-2h39c2 3 2 3 0 5l-3-1-1 2-2-2-3 1-1 2 7 1 1 3c2 1 0 3 0 5h-1l-3-1-1 2-2 3c-1 1-1 2-3 2l-3-1 1 3v2l-1 1h-1l-2-1-2 1h-1l-3 1v-2c1-2 0-3-1-3 0-2 1-3-1-5l-2 1-1-1v-2l1-2-2-2v-2l1-3V8h-4c-2 0-3-1-3 1Zm14 12 1 2v3l2-2 4-1-1-1 1-1 1 1v-2c-2-1-3 1-4 1a3 3 0 0 0-3-2c-2-2-2-2-4 0l3 2ZM40 6c1-1 2-1 2-3-1 0-2 1-2 3Z"/><path fill="#F1F5FA" d="M385 56h-1c-4-1-4-2-3-5-2-1-2-1-4 1-1 1-1 0-1-1-1-2-3-2-4 0l-3 6c0 1-3 2-4 1l-6-2 1-2v-1h-1c-2 1-3 0-4-1-2 0-3 0-3 2l-2 2-6 1c-1 0-2-1-2-3l-2-7 3-2-3-2c-2 0-3-2-3-4l-1-6a3 3 0 0 1 0-3v-4c-1 0-2-1-1-2h1l1 1h5c0 2 1 2 2 3l6 1h3l4 1 1 1a18 18 0 0 0 3 2l1 1h3l-1 5c0 2-1 3-3 3h-9l-1-2h-2v1l-2 3v3c0 1 1 2 2 1l7-1c2 0 3 0 4-2h1c1 2 1 4-1 6 1 1 1 2 2 1l4 1c3 1 4 0 5-2s2-2 4-2l3-1-1-2v-1a18 18 0 0 1 6-2l-1 5c4 2 3 2 2 6l1 1v1Zm-37-17a12 12 0 0 0 2-7c0-1-1-2-3-2l-2 5 3 4Zm-9-1 1 1c3 0 4-1 3-4v-1c0-3 0-3-2-3h-1v4c0 1-2 1-1 3Zm21 0-4-2h-2c-1 0-2 1-1 2l3 2c2 0 3 0 4-2Zm20 11 1-2v-2h-1l-1 2 1 2Zm-35 0-1 3c1-1 2-2 1-3Zm37 2 1 1 1-1-1-1-1 1Zm-32-1-1 1h1v-1Zm-10-22 1-1h-1v1ZM123 14l4 4c1-2 0-4 3-4h1a5 5 0 0 1 4-1h1c-2 1-2 4-2 5l-1 4-2-2-2 2-2-1h-5c-1 2-2 4 1 5l-4 4c1 2 2 0 3 1l-1 5-1 1c-1 1 0 2 1 3l-5 1 1 3c-2 0-3 2-4 3 0 2 0 3 2 3v2h-1a3 3 0 0 0-3 1c-1 1-1 2-2 1l-1-2v-4c3 0 3-2 4-3l-1-2-1-3 1 1 2 1c1-2 1-4-1-5v-2l2 1 3-4c-1-2-2-3-4-3l-3 2a6 6 0 0 1-6 1l1 3-3 2c-1-2-2-3-6-3l-1-1c-1-1-2-1-2 1l-1-2a2 2 0 0 1 2-1c2 0 5-1 7 1l1-3c0-2 1-2 2-2l4-1c1 0 2-1 1-2h-2l-3 1c-1-1 1-2 1-3 2-1 2-1 0-3l-1-2v-5l1-1c2 0 2-1 1-3l-2-3h-1l-1-3h5l-1 2c2 2 4 2 6 1v4l2 2-2 4 2 1c2 0 2 1 3 3l3 1-1-2v-2l2 1 2-3Zm-4 8h-6v5l6-1v-4Zm-12-7v1h2l1-2h-2l-1 1Zm4-3-2-2-1 2h3Zm1 5v2l1-1-1-1Z"/><path fill="#EBF1F8" d="m102 2 1 3h1l2 3c1 2 1 3-1 3h-1v6l1 2c2 2 2 2 0 3 0 1-2 2-1 3v2c-1 0-2 0-2 2l-1 3c-2-2-5 0-7 0a2 2 0 0 0-2 0l1 2 1 1 2 3-2 2-1 1c-2 0-3 1-4 3h1l-1 1-3-2v-1c2 1 3-2 4-2l-4-6c1-2 2-4 5-4l1-2 3-4a4 4 0 0 1 0-4c1 0 2 3 4 2 1-3 0-5-1-7h-2l-1 1c-1-1 1-3-1-3l-2 1-1 2-3 1c-2-1-5-3-8-3l1-2h5c3 0 3-2 2-4V5l3 1 4-3 2 1c2 0 2-1 2-2h3Z"/><path fill="#F2F6FB" d="m170 17-2-1c0 1-1 2-3 2s-2-2-3-2l-3-1-3 1-3 1v2l-1 3v1c2 2-1 3-2 5a126 126 0 0 1-3 5l-1 1c-1-3-1-4 1-5l1-1 3-8h-4v-6l1 2c0 1 0 2 2 2l1-3v-1l1-1V6l1-1 5-3V1h26v3h-5l-1 5c0 2-1 2-2 3l-1 2h-3l-1 2-1 1ZM159 5l-2 1c-2 3-2 3 1 4 2 1 4 2 4 4 2-1 1-3 2-4-1-1-2-3-4-2l-1-3Z"/><path fill="#EAF1F8" d="M51 2h9a5 5 0 0 1-1 5v6l2 1 1-1 2-1v4l-4 1c-2 0-2 0-1 2v3h-5l-2-3c0-2-3-3-4-4v-4c-1-2 0-3 1-4l2-1-1-2 1-3Z"/><path fill="#F1F5FA" d="m290 12-1 3 1 1c2 0 3 3 2 5v7c-2 0-2-3-2-4 0-2-1-3-3-4a8 8 0 0 0-2 6h-1c-1 2 0 5 2 5 1 1 2 0 2-1l-1-3 2 1 1 5h-4l-2 2-2-3c-1 2 0 3 1 3v4l2 4-3-1v4l-1-1-2-7c-1-2 0-4 1-5l2-4-1-2c0-2 2-2 1-4l-3-1c-1-1 0-2 1-3h4c1 0 4 1 5-1-1-3-2-3-5-3l4-3h1Zm116 48c-2-2-4-3-7-3-1 1-2 0-1-1 0-2 0-4-2-5l2-1-3-3c-2-1-2-2-2-3l1-1h3l11 4c1 3-1 5-3 6-1 1-2 1-1 2 0 1 0 2 1 1 2-2 3-3 6-2v2a5 5 0 0 0-4 3l-1 1Zm-4-13h-1l-1 2 1 2 2-2-1-2Z"/><path fill="#EFF4FA" d="m51 2-1 2 1 2-2 1c-1 1-2 2-1 4v4c1 1 4 2 4 4-2 2-3 1-5-1l-2 4-5-3 1-2 3 1h1v-5l-1-3-7-1c-1-1-1-2 1-2l3-1 2 1 1-1 3 1c2-2 2-3 0-5h4Z"/><path fill="#F3F7FB" d="M63 2h3l2 2 1-2h6a6 6 0 0 0-1 5v1h-3l-3-1-1-1v3l-2 3-1-2V5l-1-2V2Z"/><path fill="#EFF4FA" d="M63 2v1l-1 1 1 1h1v5l1 2h-1c-1 0-2-1-2 1l-1 1-1-2v-1l-1-4a5 5 0 0 0 1-5h3Z"/><path fill="#F8FAFD" d="m8 2 1 2-1 3-2 2-1-2V6L2 5V2a6 6 0 0 1 6 0Z"/><path fill="#F2F6FB" d="M411 54c-3-1-4 0-6 2-1 1-1 0-1-1-1-1 0-1 1-2 2-1 4-3 3-6l1 1 1 2h2c1 2 0 3-1 4Z"/><path fill="#F3F7FB" d="m99 2-1 2-3-1-4 3-3-1c0-2 1-3 2-3l2-1h7ZM88 5l-2 1-5-1-1-2V2h4l4 3Z"/><path fill="#F1F5FA" d="m394 43-1 1c-2-1-2 1-3 2l-4-2c0-2 0-2 2-2 1 0 2 1 2-1l4 2Z"/><path fill="#F5F8FC" d="M411 54c1-1 2-2 1-4h-3v-2l4 1 2 2-1 3c-1 1-2 2-3 1v-1Z"/><path fill="#EFF4FA" d="M74 8V7c-1-2 0-4 1-5h2l-1 1 1 2-1 2-2 1Z"/><path fill="#F2F6FB" d="M353 29h-3l-6-1c-1-1-2-1-2-3l11 4Z"/><path fill="#F8FAFD" d="m88 5-4-3h8-2l-2 3Z"/><path fill="#F2F6FB" d="m77 5-1-2 1-1h3v1l-1 1-2 1Z"/><path fill="#F8FAFD" d="M34 2h-6 6Zm98 0-4 2V2a3 3 0 0 1 4 0Z"/><path fill="#F6F9FC" d="M387 40c-3 2-4 2-5-1l4 1Z"/><path fill="#F8FBFD" d="M485 73c-2 0-5 1-6-2l6 2Z"/><path fill="#FCFDFE" d="m495 77-6-2c2-1 5 0 6 2Z"/><path fill="#F8FAFD" d="m118 2-1 1-2-2h3ZM20 2h-4 4Z"/><path fill="#F7FAFD" d="M459 65c-2 0-3 0-4-2l4 2Z"/><path fill="#EFF4FA" d="m69 2-1 2-2-2h3Z"/><path fill="#FCFDFE" d="M510 82h-2l-2-2 4 1 1 1h-1Z"/><path fill="#F7FAFD" d="m415 51-2-2 2 1v1Z"/><path fill="#FCFDFE" d="M504 80c-1 0-2 0-3-2 1 0 3 0 3 2Z"/><path fill="#F7FAFD" d="M464 66c-2 1-2 1-3-1l3 1Z"/><path fill="#F8FAFD" d="M125 2h-1V1h1Z"/><path fill="#FAFCFE" d="M510 82h2v1c-1 1-1 0-2-1Z"/><path fill="#EEF4FA" d="m338 25-2-1 1 1Z"/><path fill="#F7F9FC" d="m435 57-1-1 1 1Z"/><path fill="#FAFCFE" d="M387 133v2l1 2v2l4 20 2 8v3l2 3 1 3c1 1 2 2 3 1h8l4 1 7-3a5 5 0 0 0 2-1 8 8 0 0 1 6-2c2-1 4-1 4-3l1-2 1 1 2 4h3l4-1 1-3 3 3 2-2c1-1 1-2 3-2s2 0 3-3v-7l1-4v-3c-1-2 0-3 1-3 1-1 2 0 2 2v1l2 2 1-2c0-3 2-5 5-7l2-4c-1-1-4 2-4-1l1-2c-1-1-4 0-4-3 2-2 3-5 3-8l-4-2h-3l1-3c2-3 2-3 5-1l1 1 1-1v-1l-2-3c0-2 2-2 2-3h1c-1-3-3-2-5-3v-5l1-3 5 2a10 10 0 0 1 4 3l-1 2-2 1 4 2 1-2c0-3 2-3 4-5l2 1c2 2 2 1 5 0 2-2 4-3 3-6l2 1h3l2 2h2l3 1h6l1-1c2-1 4 1 4 3v2c2 0 3 0 5-4l-3-1-1-2h6l3 2 4-1a5 5 0 0 0 1-1c3-2 5-2 7-1 4 2 7 0 10-2l1-2c-2-2-4-3-6 0 0-2-1-3-3-3a8 8 0 0 1-5-3l20 7 4 1 14 5h2a5 5 0 0 1 3 6v1c1 3 0 3-2 3l-1-4-2-1v2l1 3h2v7l-2 3c-1-1-2-2-1-3v-5c0-2-1-3-3-3l-1-1-2 1c-2 0-3 1-4 3l-4 3-2-1-1-1-2 2-1-3h-1c-2 1-3 1-4-2 0-2 0-3-2-4l-2 1a15 15 0 0 0 0 4l2 2v4c-2 2-4 2-6 2h-1l-2 2 1 2h2c-1 1-2 2-4 1-1 0-2 0-3-2v-1h1v-2l-1 1-2 3 1 1 1 2-1 1h-1l-1-2c-1-3-1-3-3-3h-1v-1l1-1 3 2v-3c-2-1-4-1-4-3l-2-1-3 2c-1 0-3 1-3-1-2 0-3 2-4 0l4-1c-1-5-2-6-5-5v5l-4 2-2 1c0-2-1-3-3-4 1-2 3-1 4-2 0-4-1-4-4-3 0-1 1-3-1-3l-6-4-2 3c-1 2-2 3 0 5v1l1 1 1-1c0-2 1-2 2-2h5l-1 1c-3 0-3 0-4 2 0 2-2 3-3 4h-2a12 12 0 0 0-3-7v-4h-3v6a4 4 0 0 1-4 2l-3-1v-4l-3 3c-2 1-3 2-5 1h-2c0 2 1 2 2 3 2 0 2 1 1 3-2 2-1 5 2 6l1 1-1 3 1 2 2-1v-2c2 2 2 2 1 4s-2 2 0 3l4 2 1 4h-4c-4-2-5 0-7 4a6 6 0 0 1-2 3 4 4 0 0 0-2 2c0 1 0 2-2 3a3 3 0 0 0-1 1l-3 8v4a8 8 0 0 0-3 7l1 6-2 2c-2 1-4 2-6 0h-6l-7 1c-2 0-1 2-1 3h-3l1-4c1-1 0-2-1-3h-3c-2 1-3 0-5-1a3 3 0 0 0-2-1c-2 0-4 0-6 3l-2 1-5-1-2 6h-3c-2-1-5-1-7-3l-1-6-3-9-1-2-2 2c2 3 0 4-2 5l-2 1v-2a4 4 0 0 0 0-4v-4c2-2 2-2 0-4l-3-2 3-1 3-2 1-1-1-2h-2l-2 3-3-1-2-1c-2-1-2-1-3 2l3 1v7c1 1 1 2-1 3l-1-3-1 2v5l-3 3-2 1c-1 1-2 1-3-1l-2-2-2 4h-1l-5-7-4-10h4l1-1a6 6 0 0 1 2-5l1-1 2-3 1-3 1-4v-1c-1-2 0-4 2-6v-2l1-6 4 2a5 5 0 0 0 4 1l2-2 1-1 3 2 3 3v1l1 1Zm133-19c2-1 4 1 5 2 2-1 3-2 3-4h-7l-1 2Zm-148 48h3l1-3v-2l-2 1-3 4Zm150-53h-4l-1 1-1 1 2 1 2-2c2 0 2 0 1-1Zm-54 20-2-1c0-1 0 0 0 0l1 1 1-1Zm99-23c-1-2-2-1-3-1v1h3Z"/><path fill="#FAFBFD" d="M97 146v-2l2-2c1 0 1 2 3 2l2-5-1-1c0-2-1-2-2-1-2 1-3 1-4-1a7 7 0 0 1-2-7v-1c2 0 2-1 2-3l2-1 1 2 4-1c1-1 2-2 3 0l1-1 2-1h1l2 1c2 2 5 3 8 1h1c2-2 4-2 6 0l1 1h4l1 2 1 1 2-1 1 2-1 1a4 4 0 0 0-3 2 4 4 0 0 1 1 4l1 2 3 2v4h-4a7 7 0 0 0-4 0l-1-1 1-2h-2l-2 1c-3 1-3 1-4 4l-1 2v2h-2c-2-1-2-1-3 1v1l1 1c2-1 4 0 5 2 0 1 1 2 3 1l-2-3 4-1c1 0 2 0 2-2h2v1l2 2v3h4c0-1-2-2-1-3s2 0 3 1l-1 1v2h2c1-1 2-2 1-3l-1-2v-2h3l1 1h4l3-1 5-4 1-1c0-2 2-3 4-3l1 3-1 4c3 0 5 2 5 5l1 2 1 1c2 1 3 3 3 5l1 3c2 2 5 1 6-2l1-1h3c2 1 2 0 2-1l1-2h11c2 0 2-1 3-3 0-2 0-4 3-6v1c1 1 2 1 2-1 1-2 2-4 5-4l1-1v-7a5 5 0 0 1 4 3c1 2 2 3 4 2l4-1c2-1 2-2 1-3l-1-1c3-3 3-3 6 0l3-1h3l2 3v4c-1 1-1 2-3 2h-2l2 2-1 1 1 3h2c1 1 2 0 2-1 0-2 2-3 3-3l2-3 1-1 1-2h2l2-1 1-2 3-2v-1l1-2 3-2 1 3v3a8 8 0 0 1 2 5l6 2v-3l1-4h1c0 1 0 2 2 3l1 3c-1 2 1 3 3 3l5-4a3 3 0 0 0 2-3l-2-2 1-1h4l1-3c1-2 2-2 4 0l-2 1v7h3l-1-3v-2l2 1 3 1v-5l1-1h2l4 2 2 1 1 1c1-2 4-2 4-5h1c3-1 5-1 7 1v1c0 2 1 3 3 3l5-1-2 2-5 1h-5c-2 0-3 1-4 3l-1 2c0 1-1 2-3 2l-4 3-4 1-2-2-2-4-4 5-2-1h-2c-1 2-3 0-5 2l-2-3-2 3-2 4 2 1c-1 2-2 2-4 2l-3-1c-2 1-3 1-2-2l2-1 1-1-2-1h-1v-1h3l-2-2a8 8 0 0 1-3-1c-3-2-7-1-7 2l-5 7c-1-1 0-2 1-2l1-2 1-3-2 1-4 3-1 1c-4 1-4 2-2 4-1 2-2 3-4 2h-1l-3-1c-2-3-4-3-5 0-1 2-2 2-4 1a13 13 0 0 0-8-1l-7-2c1-2 2-3 4-3 3 0 3-2 2-4l-4-3a4 4 0 0 0-4 1c0 1 1 3-1 4l-4-2v1c0 2 0 3-2 4l-1 1-2 1-4 3h-6c-2 0-4 0-5 3l-1 1c-2 1-2 1-1 3v3l-3-1-1 2-2 1-2-1c0-2-1-2-2-2l-2-1c-1-1-3-3-3-5l-1-2c0-1-1-2-2-1h-4l-2-1-2 1v-2c3 0 3-3 4-4-2-2-3 0-4 0v-5l-5 3c-1 2-1 2-4 2l-3-1-1 9-3 1c-1-1-2 0-3 1l-1 1-4-2h-2l-5 1c-1 1-4 0-6-1l-1-3c1-2 0-3-1-5l-5 2-4-2c-2-1-3-2-3-4-1-2 1-2 2-3-2-1-1-3-2-5l2 1 2 3a6 6 0 0 1 6-3c2 0 2 0 2-2v-3c3-1 5-1 7 1v-4h-3l1-3c-2 0-3 1-3 2 0 2-1 3-3 2l-1-1-2-1-2-3v-4c0-2-1-2-3-1l-3-1-1-1c-1 2-3 2-3 5l3-1 1 1c1 2 2 5 1 8-2 2-2 2-1 5l-2 1c0 2-1 2-2 3v2l-5-2-3-2Zm135 3-3 1-2-1c-2 1-3 2-2 5l6-1 1-4Zm-13-2 4 2 3-2c-3-2-5-2-7 0Zm-119-20c-1 2-2 3-1 5l3-2-2-3Zm145 26-2-2c0 1-2 2 0 3 1 1 1 0 2-1Zm6-4-1-2c-1 1-1 2 1 2Zm-48 7-1-1-1 1 1 1 1-1Zm27-11v1-1Zm23 0h-1c-1 0 0 0 0 0v1l1-1Zm-9 4h-1l1 1v-1Z"/><path fill="#F7FAFD" d="M384 119v1l-2-1h-2l-2-1-4-2-1 4-1 2-2-2-2-3-4 2c-1 0-2 1-2 3v5h3l1-1v4l-1 2c1 2 0 4-1 6-1 1-2 3-1 4 1 2 0 3-2 4a7 7 0 0 0-3 4l-1 2h-3l-2-1-1-3 2 1h1l2-7v-4l1-2v-8l-1-1-2-9 1-2 3-3h5l-2 4h4c2 0 2-2 2-5l4 2 5-3c3-1 4 0 3 3l1 3 4 2Zm-21 13-2 1c-1 2 0 2 1 3l1-4Z"/><path fill="#F8FBFD" d="m352 151 2 1h3l1-2a7 7 0 0 1 3-4c2-1 2-2 2-4v-4c2-2 3-4 2-6l1-2v-4l-1 1h-3a17 17 0 0 1 0-5c0-2 1-2 2-3l4-2 2 3 2 2 1-2 1-4 4 2 2 1 2 1h2l1 3h-1l1 1 1 5 1 2-4-3-3-2-1 1-2 2-4-1-4-2-1 6v3c-2 1-3 3-2 5v1l-1 4-1 3-2 3-1 1a6 6 0 0 0-2 5l-1 1h-4v-3l-1-1-1-3Z"/><path fill="#FAFCFE" d="m351 148-10 1-3 1h-4l-4-8-2 1-1-3-2-1-4 2-1 1 2 2c-1 2-1 2-3 2-1-1-2-2-1-4l-1-2 5-1 2-2 3-1 2 1-1 3 2-1h2l1 2c2 1 2 2 4 1l5-3h3l2 2a4 4 0 0 0 2 3c1 1 0 2 2 3v1Z"/><path fill="#FAFBFD" d="m87 145 1 3v4c3-2 3-4 3-6v-3l3 1 2 2-1 4-1 1c-2 0-2 1-2 2h4c2 0 3-1 3-3 2-1 3 2 4 4l1-2v-1c2 1 2 2 2 4l-2 1c-4 1-7 1-9-1h-4l-1-2h-4l1-8Z"/><path fill="#F8FBFD" d="M498 111h-5c-1 0-2 0-2 2l-1 1-1-1v-1c-2-2-1-3 0-5 1-1 1-3 3-3l6 3v4Z"/><path fill="#FDFEFE" d="M265 165c-3 0-3 1-4 3 0 2 1 3 3 4l-1 1-3 1c-2 1-3 0-3-2v-4c0-2 0-3 2-3l3-2c1 0 2 0 3 2Zm-179-4 1 1c1 1 2 3 0 4h-3l-3-2 2-4 3 1Z"/><path fill="#FAFBFD" d="m109 163 2-2h3l2 1v3c-1 1-3 2-4 1v-2l-3-1Z"/><path fill="#FDFEFE" d="m525 149-5 3c-1 1-2 0-1-1v-7l6 5Z"/><path fill="#FAFCFE" d="m195 169 2-3 2 1v4c0 1-1 2-3 2l1-3-3-1Z"/><path fill="#FDFEFE" d="m76 172-3 1-2-2v-3a2 2 0 0 1 4 1l1 3Z"/><path fill="#FAFBFD" d="m103 160 1 2c1 1 3-1 4 1l-4 2-3-2c-1-1 0-1 1-2l1-1Z"/><path fill="#FAFCFE" d="M194 161h5l-3 1v2c-2 0-3 3-5 2l1-4 2-1Z"/><path fill="#FDFEFE" d="M209 156c-1 2-2 4 0 5l-1 1h-2l-1-1 3-5h1Z"/><path fill="#FAFCFE" d="M204 165c2 2 2 4 0 5l-2 1v-2l2-4Z"/><path fill="#FAFBFD" d="m322 144-2-2 1-1 4-2 2 2-3 1-2 2ZM86 161v-2l1-1a2 2 0 0 1 2 0l1 3h-4Z"/><path fill="#F8FBFD" d="M104 151v1l-1 2c-1-2-2-5-4-4v-2l5 2v1Z"/><path fill="#FAFBFD" d="m71 158 1 5c-2 0-3-1-3-2-1-2 0-2 2-3Zm12-7c-1-3 0-5 1-7 1-1 2 0 3 1-3 0-3 1-3 3l-1 3Z"/><path fill="#FAFCFE" d="M288 156c-2 1-3 0-3-1v-2h2l1 3Z"/><path fill="#FDFEFE" d="m262 149-1 4-1 1-1-1 1-3c0-1 1-2 2-1Zm-70 23c2 0 2 1 2 2l-4 1 2-3Zm43-9c2 1 2 2 1 4-2-1-2-2-1-4Z"/><path fill="#FAFCFE" d="M188 164c0-3 2-3 5-3l-1 1-2 1-2 1Zm331-79c-2 1-3 0-4-1l4 1Z"/><path fill="#FDFEFE" d="m529 152-1-1h1v1Z"/><path fill="#FAFBFD" d="m353 154 1 1-1-1Z"/><path fill="#ECF2F9" d="m95 89 3 2 1-2 1-3-4-2c1-2 0-4-1-6l-1-1-1 2c-1 2-1 2-4 1h-1l-1 2c-2 0-2 1-2 2l-1 2-1 4 1-1 2-5c2-1 3 0 4 1-1 3 0 6 1 9-2 0-5 1-7-1h-2l-3 1c-1-1-1 0-1 1-2 1-3 3-5 3l-3 3-4-1-1 2-3 4c-1 1-2 2-4 1h-2v-6c1-1 2-1 2-3h-2l-2-2-3 3c-1-2-2-3-1-4s0-2-1-3l-1-1h-3c0-2 0-2 2-3 3 0 5 0 7 2h2l-1-3v-2l2-1 1 1 1 2 1 1 2-1-1-5c0-3-1-3 2-5l4 3a5 5 0 0 1-2 5c-1 1-2 3-1 4l1 3c-1 2 1 5 3 5h1l4-4v-1c-2-2-2-2-1-4 1-1 2-4 4-3s2-1 4-2l1 1 2-2v-3l1-10 4-1h1l2-1a7 7 0 0 1 7 2v1l5 1 3-1h1c1-1 3 0 2 1v2l3 3c3-2 3-7 6-9 1 2 1 3-1 4 1 0 3 1 2 2l-1 1v2c0 1 0 3-3 3 2 1 4 1 3 3l-5-1v1l4 3h2l5 1c2 0 3 2 4 3l-1 2-2 1h-2l-5-1v-2l-4-4-1 1v5l3 7-2 2-5-4-2-2-1-1h-9c-3 1-3 1-5-2l2-2h1Zm6-13 3 3c2 0 2 1 2 3-3 0-4 1-5 2 1 3 3 3 5 2l3 2c2-3 1-5-1-7-1-2 2-2 3-4-3-1-6-2-10-1ZM79 87c-2-1-2 0-3 1l2 2 1-3Zm-21 9h3l-3-3v3Zm67-7-2-1h-1l1 1h1Z"/><path fill="#F8FAFD" d="M236 138h-4l-2 1c-4-3-4-3-6 0v1c1 1 1 2-1 3l-4 1c-2 1-3 0-4-2a5 5 0 0 0-4-3v7l-1 1c-3 0-4 2-5 4 0 2-1 2-2 1v-1a11 11 0 0 0-3 6c-1 2-1 3-3 3h-11c1-2 2-2 4-1h2l4-1 2-1 2-6v-1h4c2-2 2-4 2-6l-1-1-1-2c0-2 0-3-2-3v-1l1-1h3v-5c1 0 3 1 3-1-1-2-3-1-4-1l-2-2v-1c2 0 1-1 1-2l1-1h4c2 1 5 0 6-2l2-1 1-1h1l1 1 1 3 1 2v1l-1 2-2-3-2 1 3 5 6-4c2 2 2 2 0 3a8 8 0 0 1-4 4v2l2 1 2-1c1-1 2 0 4 1l4-1h3c1-3 0-5-3-6v1l-2 2-3-1c-1-1 0-2 1-3l2-1 1-1c1-2 1-2 2-1h3c0-2-2-2-3-2v-5h4c2 0 2 1 1 3v2l1 2c0 2 0 3 2 4l3 1 3-2 3 1 3-3c1-2 3-1 4-1l2 2a3 3 0 0 0 3 1l-1-5v-2l1-2v-1c2 0 2 2 2 3 3 1 3-2 6-2l-3 3c4 0 5-1 5-3v-3l2-2-1 2v2l3 1c1-1 3 0 4-2l-4-4-2 1c1-3 2-3 4-1 2 3 2 3 5 1h2v3l-1 1h-3l-2 1c-1 1-2 2-1 3l2 3v7l3-1c-1 2-3 2-3 1l-4-2a4 4 0 0 1-4 1l-1-1c-2-1-4-2-4-4-1-1-2-2-3-1v5c-1 2 0 3 1 5l-3 1a6 6 0 0 0-5-1l-1-4-3-1-5 1c0 3 0 3 2 4l2 1-1 1-3 2a6 6 0 0 0-5 3l-1 2-1 1c-2 0-4 2-6 1v-1h1c2-1 2-3 3-5-2-2-3-3-5-3Zm37-12c-1 3-1 3 1 4h3l1-2v-2l-1-4s1-1-1-1l-1 1c0 2 0 3-2 4Zm-58 12 2-2-2-2c3-1 0-3 1-5l-2-1h-1c0 3 0 5-4 6v2c0 2 1 1 2 1l2-1 2 2Zm24-1 3 3h3v-3c-2-2-4-2-6 0Zm-19 4v-1l-1 1h1Z"/><path fill="#EBF1F8" d="M15 75c-3 0-5 0-6-2l-2-1v-2c2-3 2-5 0-8l3-2-1-3-2 2-3-2 1-1c0-2 1-3 3-3v-1l3-3c0-1-2-1-1-3h4l1 2 2-1h3l-2 2-3 2c-1 0-2-1-3 1 1 1 2 2 4 0h3l-1-1h1l3-2 1 2c1-2 1-2-1-3l-1-2-1-4h1l1 1 3 3 2 1c0 3 1 4 3 4l1 1 2 2h2v3c-2 2-1 5 1 7l1-1 1 1 1 3v1l-3-2v2l4 2 2 1-2 5-5-4-1 7 2 1 4 1v5h1l2-6v-2l1-1c-1-2 0-3 1-4 2 0 3-2 3-4v-1l3 2-1 1c0 3-1 4-4 5v2c3 1 2 4 2 5h-3l-1 3-2 3c-3 0-4 2-4 4h-1c-2 1-3 3-3 5-3 0-3 0-3-3v-1c-3-2-3 1-5 2l-3-2-1-1-2-2c1-2 3-3 4-1v2l2-1h3l-1-1 2-5c1-2 1-2-1-3l-1-3 1-2c2 0 2-1 1-2l-1-3-1-1-2 2c-1-1 0-2 1-3v-1h1l1-1-1-1-1 2h-2l-1-2c1-1 0-2-2-2s-2 0-2 3l-1 1v-1l-1-5-1 1v2h-2v-3l3-1 2-2 2-1a4 4 0 0 1 0-4v-3c-2 0-1 1-1 2l-1 5c-1-2-2-3-4-3l-2 3c0 1 2 1 1 2h-3l-3 3 1 2v3l1 2 2-3 1 1 3-2 2 1v3l3-2c1 1 2 2 1 3h-3l-1 2h-4Zm17 11 5-1-5-2v3ZM11 56c1 2 2 2 3 1v-2c-1-1-2-1-3 1Zm14 6 1 2h1v-1a3 3 0 0 0-2-1Zm7 28-1 1h2l-1-1ZM17 72l-1-1v1h1Z"/><path fill="#ECF2F9" d="m96 38-2-3-1-1c0-2 1-2 2-1l1 1c4 0 5 1 6 3l3-2-1-3c2 1 4 0 6-1l-1 5h-1l-1-1-1 2-1 1 1-1h2v3l1-1 1 1 1 3 1 2c-1 1-1 3-4 3l-1 4 2 2c1 1 1 0 2-1l3-1v5h-1l-2 1 1 1 2 2 1-4 3 1 2-1v-1c-2-1-1-3-1-5l1-1 2-2 1-2h1l2 4 2 3 1 3-3 4h-4c-1 1-2 2-1 4v2l-6-1-3 6-1-1c1-2-2-3-2-5 0-1-1-2-2-1l-2 1c0 2-2 3-3 3h-3l2-2 2-2-3-3h-1c-1 2-4 1-5 3h-3l-2-3c-2 1-2 3-2 4 0 2 0 2-2 1h-1v-2l2-7h3v3c3 1 4 1 3-2l-1-4 1-6 1-1 3-1-1-2v-2l1-1 2-3v-1l-2 1Zm1-2h-1 1Z"/><path fill="#F6F9FC" d="m217 81 1-1 2 1v2l2 2c2 1 2 2 2 3l5 8 4-3v2l-2 2-2 4v3c1 2 2 3 4 3l1 3-1 3c-2 1-4 2-7 1l-1 2c-2 0-3-2-4-4l4 1v-4l-1-2c-3 0-3-2-3-4-3 1-3 2-2 4v1c2 2 2 3-1 4h-1v3h-3l-2-2c-1 0-2 0-2-2l-2-2-1-1 1-1 3-2 2-2c1-3 2-6-1-8l2-1 1-2-2-2h-4l-2-1 2-3 2-1c1 2 1 3 3 3l1-6 2-1Z"/><path fill="#F8FAFD" d="M139 145v-2h3l3-1h2v5l2-1 2-2a12 12 0 0 1 0-4c0-3 1-6 4-7 2-1 2-2 2-3l1 1c0 1 0 2 2 2-1 1 0 2 1 2h1v3l-1 2 2 2 1 2 1 3 2 5h1v2l1 3 5 2h5l-1 2-3 1-2 2c1 1 2 2 3 1l3-1c-1 3-4 4-6 2a5 5 0 0 1-1-3c0-2-1-4-3-5l-1-1-1-2c0-3-2-5-5-6l1-3-1-3c-2 0-4 1-4 3l-1 1a74 74 0 0 1-5 4l-3 1c-2 1-3 0-4-1l-1-1c-1-1-2 0-3 1v2h-2l-7-1v-2c2 0 3 2 4 0l-2-4h4l1-1Z"/><path fill="#EFF4FA" d="M38 93c0-2 1-4 4-4l2-3c0-1 0-2 2-3h2c0-1 1-4-2-5v-2c3-1 4-2 4-5l1-1 1 3 1 1c1-1 0-2 2-3l3-1 4 1c-2 1-1 2 0 3l1 3c-3 2-3 2-2 5v5l-1 1-1-1-1-2-1-1-2 1v5h-1a12 12 0 0 0-7-2c-2 1-2 1-2 3l-1 1h-2l-2 1-2-1Zm20-18-3 1 2 2 1-3Z"/><path fill="#E8EFF7" d="m28 79 1 3c2 1 2 1 1 3l-2 5-2 1-2 1v-2c-1-2-3-1-4 1h-3l-1 2 1 5-3 2v-4l1-6-3 1v-1l1-2 1-6 1-1h3v3l3 1-1-3 2-2-2-2-1-3 1-3h3c1-1 0-2-1-3l-3 2v-2l1-1c0-2 0-2 2-3v1h1l1 1c0 1 0 2 1 1h2v2c-2 1-2 2-1 3l-1 6h3Z"/><path fill="#F2F6FB" d="M121 64c-1-2 0-3 1-4h4l3-4-1-2-1-3v-3l4 1 3-1c0 2 2 3 0 5l2 2c-2 2-3 3-3 5l-2 3-1 2 2 1c1 0 2 0 2 2h-3l-5 1c0-2 0-3-2-3l-2-2h-1Z"/><path fill="#F5F8FC" d="M168 154v-2l-1-4-3-4-1-2v-5l1-2 1-2 1 1-1 1 1 1c-2 2-2 4-1 7s2 4 6 4l1 1v1c0 2 1 3 3 2l1-4c2-1 2-3 1-5v-1h1l2 2h3l3-1v5c0 2-1 2-2 1l-2-1-2 3-1 1-2 2c0 1 2 2 1 4l-7-1c-1-1-1-2-3-2Zm32-4v1c-2 1-2 3-3 5l-3-1c1-1 3 0 3-2h-4l1-4-4-1v-4l-1-3v-1l2-1c2 1 3 2 3 4-3 0-3 0-3 3h4l1-1-1-1v-1l1-1a8 8 0 0 0 5-4l1-1v1c1 1 0 2 2 2l1 3-1 5c-2 0-4 0-4 2Zm1-7-1-1-1 1 1 1 1-1Z"/><path fill="#F2F6FB" d="m99 69 3-1c1 0 3-1 3-3l2-1c2-1 2 0 2 1 1 2 3 3 2 5l1 1 3-6 6 1 4 4-2 1c-1 0-2 0-1 1l-1 3-3 1v-2l1-1c1-1-1-1-2-2 2-1 2-2 1-4-3 2-3 7-6 9l-3-3 1-2c0-1-1-2-3-1h-1l-3 1-5-1v-1h1Z"/><path fill="#F5F8FC" d="m161 135-1-2-2-2-1-1v-1l-3-2 3-7h-2l-2-1c-1-1-1 0-1 1l-1 1h-3c-2 0-4 0-5-2h-2c-3 1-4 0-6-1l-1-3c1-2 1-2 4-1v1l-1 1 2 1 3-2 4 1 3 1h7l2-1c1 3-1 4-1 6 3 4 4 9 4 13Zm16 0 1-2h3l-1-3c-1-1 0-2 1-2l4-1h2c2-2 3-1 6 0l-1 3a6 6 0 0 0 0 5v2l-1-2-2-2-2 2 1-4c-2-1-3 0-3 1 0 2 0 2 2 2v1l-2 2c-1 0-1 2-3 1l-1-1v-3l-2 2-2-2Z"/><path fill="#F6F9FC" d="M182 138c2 1 2-1 3-1 0 3 0 3 2 3l1-5h-1l2-2 2 2 1 2-1 2-2 1v1l1 3v3l-2 1c0 1-1 2-3 2h-5l2-3 2 1c1 1 3 1 3-1l-1-5-3 1-1-5Z"/><path fill="#F2F6FB" d="M85 84c0-1 0-2 2-3l1-1h1c3 1 3 1 4-1l1-2 1 1c1 2 2 4 1 5l4 3-1 3c-2 0-2-2-3-4h-6c-1-1-2-2-4-1h-1Z"/><path fill="#EFF4FA" d="M44 104a4 4 0 0 0-3-3c-1-1-2-2 0-4l3-3c2-1 1 1 2 2v4l1 1-3 3Z"/><path fill="#F5F8FC" d="M113 121h6l2 2 1-2c0-1 1-2 3-2l7-3 2-1-2 3-3 1-2 1 1 1v1h-2l-1-2-3 3-3 1-6-3Z"/><path fill="#ECF2F9" d="M135 87c0-2-1-3 1-4v-1c-1-2 0-3 2-3l1 2c-1 2-1 5-3 7l-4 4c-1-1 0-3 3-5Z"/><path fill="#F7F9FC" d="m113 121 6 3 3-1 3-3 1 2h2l1 2-1 1c-2-2-4-2-6 0h-1c-3 2-6 1-8-1l-2-1c0-2 1-1 2-2Z"/><path fill="#F5F8FC" d="M135 98v4c0 3 0 5-2 6l-3 4c-1 0-2 1-2-1l3-4-1-5c2 0 1 2 3 3v-3l2-4Z"/><path fill="#ECF2F9" d="M126 73v4h1l1 2-2 1h-1l-2 3h-1l-1-1v-1l2-6c0-2 1-2 2-2Z"/><path fill="#EFF4FA" d="m65 114 3 1c2 1 1 2 1 3l-1 2h-3l-3-1 3-5Zm-18-1 3 4c-1 2-2 3-4 3s-3 0-2-2c0-2 1-4 3-5Z"/><path fill="#ECF2F9" d="m127 69 4-1-1 2c-1 1 0 2 1 3v2l-6-2 1-4Z"/><path fill="#F7F9FC" d="m182 138 1 5h-3a4 4 0 0 0-2-4l-1-1-1-3h1l2 1c0 2 2 1 3 1v1Z"/><path fill="#EFF4FA" d="M48 107c-4 2-4 6-4 9-2-1-2-2-2-3l2-6h4Z"/><path fill="#F3F7FB" d="M198 41c3 1 5 0 7-2l3 6c-4 1-3-2-5-3l-4 2c-2-1-1-2-1-3Z"/><path fill="#F5F8FC" d="m176 135 1 3h-4c-2 0-3-1-2-3l1-3 3 3Zm-59-25c3 0 3 1 3 2a24 24 0 0 0 2 4l-1 2-1 1v-4l-3-5Z"/><path fill="#F2F6FB" d="M119 85h-2l-4-3v-1l5 1 2 1-1 2Z"/><path fill="#EFF4FA" d="M131 73c-1-1-2-2-1-3l1-2h2c-1 2 1 4 1 6l-1 1-2-2Z"/><path fill="#F7F9FC" d="m206 94 1-1 2 1v2l-2 2-1-2v-2Z"/><path fill="#EEF3F9" d="M36 109c-3 1-5 1-5-1l2-1c2-1 2-1 3 2Z"/><path fill="#F2F6FB" d="M195 143v1l-1 2h-3c0-3 0-3 3-3h1Z"/><path fill="#ECF2F9" d="M195 36a5 5 0 0 0 0 4l-1 3v-1l-1-4c-1-1 0-2 2-2Z"/><path fill="#F5F8FC" d="m128 104-3 1h-2l1-1 3-3 1 3Zm75 23 2 2c0 2 0 5-2 7v-9Z"/><path fill="#F1F5FA" d="m164 54-3 4c-1-3-1-4 2-5l1 1Z"/><path fill="#F5F8FC" d="m110 123-2 1-1-2 1-3 2 3Z"/><path fill="#EFF4FA" d="m65 102 1-2 4 1-2 2-3-1Z"/><path fill="#F1F5FA" d="m3 114 4 1v1c0 2-1 2-2 1l-2-3Z"/><path fill="#EDF2F9" d="M16 121c-1 2-2 2-3 0h3Z"/><path fill="#F5F8FC" d="M110 117c0-2 1-2 3-2l2-1v2h-1c-2-1-3 1-4 1Z"/><path fill="#ECF2F9" d="M185 19h1l1 1h-3l1-1Z"/><path fill="#F1F5FA" d="m19 136 1-4c2 3 1 4-1 4Zm-12 5-3 1v-2l3 1Z"/><path fill="#ECF2F9" d="m163 59 3 1 1 1h-1l-3-2Z"/><path fill="#EFF4FA" d="M56 98h2c0 2-1 2-2 3l-1-1 1-2Z"/><path fill="#F6F9FC" d="M178 139a4 4 0 0 1 2 4l-2-2h-1l1-2Z"/><path fill="#F1F5FA" d="M11 128c-2-1-1-2-1-4 1 1 2 2 1 4Z"/><path fill="#F5F8FC" d="M172 15h3v1h-3v-2Z"/><path fill="#F1F5FA" d="m58 112 1 4c-2-1-2-1-1-4Z"/><path fill="#F5F8FC" d="M126 112v1l-2 1-1-1 3-1Z"/><path fill="#EFF4FA" d="M56 104v3c-2-1-2-1 0-3Z"/><path fill="#F1F5FA" d="M41 128c1 2 0 2-1 3l-1-1 2-2Z"/><path fill="#F2F6FB" d="M172 16h3l-1 1h-2v-1Z"/><path fill="#F1F5FA" d="M4 132c1 0 2 1 1 2H4v-2Z"/><path fill="#ECF2F9" d="M122 72c-1-1 0-1 1-1 0 1 0 2-1 1Zm45-20 1 1-1 1-1-1 1-1Z"/><path fill="#F2F6FB" d="M95 89h-1l-1-1 2 1Z"/><path fill="#F6F9FC" d="M164 135c-1 1 0 2-2 2v-2h2Z"/><path fill="#F2F6FB" d="M215 81v-2l1 1-1 1Z"/><path fill="#F1F5FA" d="M187 24v1h-1v-1h1Z"/><path fill="#EFF4FA" d="M77 95c1-1 1-2 2-1l-1 1Z"/><path fill="#F6F9FC" d="m166 136-1-1h1v1Z"/><path fill="#F1F5FA" d="M12 133h-1 1Zm0 11h-1v-1l1 1Zm5-8h-1 1Z"/><path fill="#fff" d="M221 186c0-2 2-2 3-2l7-1a6 6 0 0 1-3 5l-2-3c-1 2-3 2-5 1Z"/><path fill="#FCFDFE" d="M216 185v1c-3 1-5 3-8 2l-1-1 1-1 3-1a5 5 0 0 1 5 0Zm-19 8c-1 2-3 1-4 0l-2-2c0-2 2-3 5-3l-1 4 2 1Z"/><path fill="#fff" d="M200 182c-2 4-3 5-6 4 1-3 3-4 6-4Zm44 4v4h-3v-2c0-1 1-2 3-2Zm285-23c0 2-1 2-2 2l-2-1 2-2c1-1 2 0 2 1Zm31-13 5-4c-1 4-3 5-5 4Zm-336 30c-2 2-3 2-5 1l1-2 4 1Z"/><path fill="#FCFDFE" d="M228 179c0-2 2-3 3-3l1 1v1c-1 1-2 2-4 1Zm61-13 1 3-3 1 2-4Z"/><path fill="#fff" d="m245 185-2-4 3 1 1 2-2 1Z"/><path fill="#FCFDFE" d="m211 182-1-2 2-1 1 1-2 2Z"/><path fill="#fff" d="M91 174c-1 1-1 3-2 2l-1-2c1-2 2 0 3 0Zm111 9 1-1h2v1l-2 1-1-1Zm287-21h2l2 2c-2 0-3 0-4-2Zm-270 8c-1-2 0-3 2-4l-2 4Z"/><path fill="#FCFDFE" d="m283 169 1-3h2v1c0 1-1 2-3 2Z"/><path fill="#fff" d="M48 179c-2 2-3 2-3-1l3 1Z"/><path fill="#FCFDFE" d="m315 160 2 1-2 1v-2Zm135 40 2-1 1 1v1h-2l-1-1Zm116-50v-2l1-1v2l-1 1Z"/><path fill="#fff" d="m28 185 3-1c1 2 0 2-3 1Zm180-5-1 1v-1l1-1 1 1Zm6-11 1 2h-1l-1-1 1-1Z"/><path fill="#FCFDFE" d="M282 165v-1l1 1h-1ZM38 179h-1v-1l1 1Z"/><path fill="#fff" d="M187 188h-1 1Z"/><path fill="#FCFDFE" d="M376 193h-1v-1l1 1Z"/><path fill="#fff" d="M522 160h1-1Zm-293 6h1-1Z"/><path fill="#FCFDFE" d="M42 176Z"/><path fill="#fff" d="M131 181h-1 1Zm-5 0h1v1l-1-1Zm89 1h-1 1Z"/><path fill="#F8FBFD" d="m25 153-1 3v2c2-2 4-2 6-1h2l2 1-1 1h-4v3c-2 1-3 1-4-3-1 0-3 0-4-2l2-2-1-3v-1h1l2 2Z"/><path fill="#FCFDFE" d="M63 137c0-3-1-5 1-6 2 1 2 1 1 3l-2 3Z"/><path fill="#F8FAFD" d="M99 148v2h-4l1-4h1c0 1 2 0 2 2Z"/><path fill="#F8FBFD" d="m58 138-3 2c1-2 1-2 3-2Zm-3 3-1 1-1-1h2Z"/><path fill="#FCFDFE" d="m35 161 5-3c0-2 1-2 2-2l1 6c-3 1-5 1-8-1Z"/><path fill="#F8FAFD" d="M58 146c2-1 3 0 5 1l-1 3h1v2l-1 1c-2 0-4-1-4-3v-5Z"/><path fill="#FDFEFE" d="m74 142 1 4c1 3 0 3-2 3h-2l1-4 1-3h1Zm-7 5-4-1-2-2 1-1c2 0 5 1 5 4Z"/><path fill="#F8FBFD" d="M54 146c-2-1-2-1 0-3v3Z"/><path fill="#F7F9FC" d="M47 145v1-1ZM20 40a7 7 0 0 1-6 0c-1 0-2-1-1-3 0-1 0-4 2-5l1-5c-1-1-1-1 1-2 0 3 1 4 3 5h1c1 1-1 2 1 2v2h-1l-1 2 1 3-1 1Z"/><path fill="#E8EFF7" d="M21 34h1l3 2 1 1v3c0 2 1 2 2 3h1v3l-2 1-2-1a16 16 0 0 0-3-4h-1l-1-1v-1l1-1c1 0 2 0 2-2-1 0-2-1-2-3Z"/><path fill="#F8FAFD" d="M19 18v2l-2 2-3 2c-2-2-2-4-1-6h1l2-2 2 1 1 1Z"/><path fill="#E8EFF7" d="M14 46h-4v-1c0-2 1-3 2-2l3 1-1 2Zm6 1h-3v-2c0-2 1-3 3-3l1 4-1 1Z"/><path fill="#EBF1F8" d="M21 30h-1c0-2 2-2 3-2v2h-2Z"/><path fill="#EAF1F8" d="M20 42v-1l1 1h-1Z"/><path fill="#EBF1F8" d="m8 52-1-1h1v1Z"/><path fill="#F1F5FA" d="M12 106c1 4 0 4-3 4-1-2-1-3 1-5l3-3c1 2 1 3-1 4ZM7 72l2 1-1 1-1-2Zm12 2 1 4 2 2-2 2-2-1-1-2-2-4h4Z"/><path fill="#EEF3F9" d="M17 12v2l-3 1c-2-1-2-1-1-3h4Z"/><path fill="#F5F8FC" d="m14 15 3-1 2 2-1 1-2-1-2 2v-3Z"/><path fill="#F8FBFD" d="M15 12h-2V9l1-2h1v5Z"/><path fill="#EEF3F9" d="m2 5 3 1v1C4 7 2 7 1 5h1Z"/><path fill="#F5F8FC" d="m14 8-1 1h-2c0-2 1-2 3-2Z"/><path fill="#F1F5FA" d="m285 74 2 1 1 2c2 1 2 1 1 3l-2 2h3v4h3a4 4 0 0 1 3 5c-1 1-1 1 1 2 1-1 3-1 3-4 0-2 2-3 5-2 1 1-2 4 1 5 3-2 1-4 0-5l3-4v3c2 1 3 3 5 3l2 1 2 1 3 1 2 1h1c1 2 2 1 4 1l4 1h1c4-1 8 0 12-2h2c1 0 3-1 3-3v-1l9-3 1-1-1-2a11 11 0 0 0 5-6l2-1h3v2l5-1v-1l1-3c2 0 3 2 4 0v-1c-1-2-1-2 1-3l2-3c-2-5-1-6 3-7l1 1h1l2 2c0 2 1 3-1 4l-1 1c1 1 4 1 4 3l-6 3-4 4-2 4c0 3-2 4-4 4l-2-1 2-2-2-2c-1-1-2-1-3 1v2c-1 2-1 2-3 2l-2 1 1 2c1 1 1 2-1 2a8 8 0 0 1-4 0c-4-2-7-1-10 2l-3 3-5 2h-2l-6-1a7 7 0 0 1-3 0l-3 1h-1l-5-1-5 1-5-2c-2 0-2-1-1-3v-1c-2-1-2 0-3 1s-2 3 0 4v1l-2 1-2-1-2 2c-2 2-3 1-5 0-2 0-3-1-3-3 1-2 0-4-3-4-3-1-5-4-6-6l-2-3-2 1-1-1 1-2v-3l3-3v-1Zm3 4h-3l1 2 2-2Zm78 4c-1-1-2-1-2 1l2-1Zm-71 7-2-1v2l2-1Zm81-9h1v-1l-1 1Z"/><path fill="#F3F7FB" d="m230 20 1-1 3-3c2 1 2 1 1 3l1 3 3-3c2 2-1 5 1 6s2 1 3-1l1-1c1 2 0 4-1 6h-4v7a3 3 0 0 1-2-3l1-8v-2a15 15 0 0 0-6 3v12h-1v-3c-2 1-4 1-4 3l1 5-2 4-2-3c-1-1-2 2-3-1 2 0 2-1 2-3h3v-2c-2-2 0-4 1-6l1-1h2l1-1c0-2 0-2-2-2h-2a5 5 0 0 1 4-3l2-6-3 1Zm129 76c-3 3-3 4-9 4-1 2-1 2-3 2a3 3 0 0 0-4 0l-5 1-2-1a9 9 0 0 1-6 1l-2 1-3 1h-4l-1 1a6 6 0 0 0-4-1l-3-2-1 2-1 2c0-1 0-2-2-1h-3c-1-2 1-4-1-6 3 0 4 2 4 4l2-1c1-2 3-2 4-1h12c3-2 6-1 9-1a7 7 0 0 1 3 0 8 8 0 0 0 5-1h2l4-2c2-2 3-4 6-4h1l2 2Zm-7 1v2h1l-1-1ZM210 65l-2-6v-1l-1-7 1-2c0 1 1 3 2 2 1-2 2-1 3-1l1-2v-1l1-1 2 1 1-2h1v2l1 2-3 1-2-1c-1 0-1 2 1 5-1 1-3 2-1 5l2-3-1 4a3 3 0 0 0-1 3c1 2 2 2 4 2l2-1v4l-5-1-4-2h-2Zm3-9c-2-1-3 0-3 1v2h2l1-3Zm1 5-1-1v1h1Z"/><path fill="#F3F7FB" d="M310 108c-2 3-2 3-4 3h-3l-1 2-1-2c-1-2-1-3-4-3h-3l-2-4c0-1 1-3-1-4l-3 3c-2-1-2-2 1-4l-1-2c3-2 2-2 5-1v5l2 1 2 1c2 1 3 2 3 4l3 2h5l2-1Zm-15-3 2 2-2-2Z"/><path fill="#F1F5FA" d="M293 43c0 2-1 3-3 3l-1-1c-3 2-1 4-1 6l-2 1a3 3 0 0 0-1-3l-4 5v-3l1-4h1c2 1 2 0 2-2v-2l2 1 1-4a5 5 0 0 0 5 3Z"/><path fill="#F3F7FB" d="M222 61c-1-1-2-2-1-3v-5l-2 1 1-5h3l-1 2v2a3 3 0 0 0 3 0l1-2 4 1c0 3-3 2-4 4l-1-2c-2 2-1 5-3 7Z"/><path fill="#F5F8FC" d="M262 38h2l1 1 3 1 1 3-1 2c-3 0-6-4-6-7Z"/><path fill="#F1F5FA" d="M279 80c-1 3-4 3-6 5v-2l1-3c0-2 2-2 3-1l2 1Zm-7-9c0-4 0-4 4-5 0 2 2 4-1 6l-3-1Z"/><path fill="#F5F8FC" d="M396 53v5h-2l-2-4 4-1Z"/><path fill="#F1F5FA" d="m406 60 1-1a5 5 0 0 1 4-2l1 2c-2 0-3 0-3 2l-2 2-1-3Z"/><path fill="#EEF4FA" d="M285 43v2c0 2 0 3-2 2h-1v-5l3 1Z"/><path fill="#F1F5FA" d="M412 59c2-1 3 1 4 2v2h-2l-2-4Z"/><path fill="#F5F8FC" d="M227 39c0-3 2-3 4-4v3h-4Z"/><path fill="#F3F7FB" d="M402 60c-4 1-4 1-5-1 1 0 3-1 4 1Z"/><path fill="#F1F5FA" d="M278 57h-3c0-2 1-2 3-2v2Z"/><path fill="#F3F7FB" d="m412 65-1-2v-1l2 1-1 2Z"/><path fill="#F5F8FC" d="M397 67h-2l-1-1h1l2 1Z"/><path fill="#F3F7FB" d="M229 39h2l-1 1-1-1Z"/><path fill="#F1F5FA" d="M218 77h-1 1Z"/><path fill="#F2F6FB" d="M293 43a5 5 0 0 1-5-3l-1 4-2-1-2-4v-4h1l2-2h4l-1-5-2-1-2-1c0-2 0-4 2-6 2 1 3 2 3 4 0 1 0 4 2 4l3 1h7c1 2 3 1 5 2-1 1-2 2-1 4a4 4 0 0 1-7 1l-2-3h-1l1 5c-2 0-2-2-3-3l-2 1 3 6-2 1Z"/><path fill="#F1F5FA" d="M290 51v-4c1 1 2 2 0 4Z"/><path fill="#F6F9FC" d="M285 115c-2 2-3 1-5-1-1-2-3-2-4 1l-2 2v3c-1 2-1 3-5 3l3-3c-3 0-3 3-5 2-1-1 0-3-2-3l-1 1-1 2v2l1 5a3 3 0 0 1-3-1l-2-2c-1 0-3-1-4 1l-3 3-3-1-3 2-3-1c-2-1-2-2-2-4v-2a3 3 0 0 1 0-2c0-2 0-3-2-3h-2c0-2 1-1 2-1h5l2 2 1 5 2 1c1 0 3 1 4-1l3-1c1-2 3-3 5-2 2-1 1-2 1-3s0-2 2-3l1-1 1-1a3 3 0 0 1 2 2v3l2-2 3-2 2-2-3-2h-8v-1l6-7a2 2 0 0 1 1 0l4 1h4l-2-2-1-3 3-1h3l2 1-3 1c-1 3 2 3 4 5l-1 2 1 2-2 1 1 2 2 1-1 2Z"/><path fill="#F6F9FC" d="m250 97 2 1v2c-2 2-3 3-2 6h3v-3h2c2 0 2-1 2-2v-2l2-2 2 5-3 3c0 1 1 3-2 3l-1 1 2 1 2 1-1 2c-1 2-1 2-3 1-2-2-3-2-4 1l-2-1 1-1 2-2v-3l-3-1c-3-1-4 0-4 2l-1 2-10-8 4-1 1-5h2l1 7c3 0 3 0 5-3-1 0-2 1-3-1l2-2c3 1 3 1 4-1Zm-15 22h-3l-1 3 1 3c0 2-1 2-2 2-1 1-2 0-3-1s0-2 1-2v-1l1-2c-1-2-2-2-4-2 0-2 1-2 2-2 2 1 5 2 7 0l1 2ZM222 126v-1l-1-2-1-3-1-1 1-2h2c1 2 2 2 3 2 0 2-2 4 1 6l-4 1Zm-7-5c-1 2-4 3-6 2h-4l-1 1 2-4c2-1 4-2 5 0l2 1h2Zm9-37-2-2-2-3 1-1c1-1 2-2 3-1l1 3-1 4Zm176 21c-2 2 0 5-2 7-3-1-3-3-3-5 1-2 2-2 5-2Zm37-42-3 3-3-3h6Z"/><path fill="#F7FAFD" d="m285 115 1-2-2-1-1-2 2-1 2 1v5h-2Z"/><path fill="#F6F9FC" d="M439 75v-3l2 1-2 2Z"/><path fill="#F3F7FB" d="m235 106 2 2-1 1c-1-1-2-1-2-3Z"/><path fill="#F6F9FC" d="m250 98-3-1 2-2 1 2Zm-38-16v1l-1-1h1Zm6 37-1 1 1-1Z"/><path fill="#F2F6FB" d="m230 20 3-1-2 6a5 5 0 0 0-4 3l-1 1c-2 1-2 1-3-1s-2-2-3 0h-1l-1-2 3-3c2-1 4-2 6-1 2 0 3 0 3-2Z"/><path fill="#F3F7FB" d="M206 35c-2 0-3-1-3-2l-1-3-1-4c1-2 4 0 5-3h-3v-2l3-1 2 2c0 3 0 5-2 8v5Z"/><path fill="#F1F5FA" d="m184 4 2-1h1l3 3v4c-3 0-3 0-4-2l-3-1 1-3Z"/><path fill="#F3F7FB" d="m260 74 1-4h2l1 1 2 2-1 4h-2v-1c0-1-1-2-3-2Z"/><path fill="#F2F6FB" d="m221 32-1 2c-1 2 0 3 1 4v1h-2a7 7 0 0 1-3-2 2 2 0 0 1 1-3l3-3 1 1Z"/><path fill="#F3F7FB" d="M230 20c0 2-1 2-3 2l-6 1 2-3c1-1 2-2 3-1 2 2 3 1 4 1Zm26 7h-4l-1-1 1-2 3-1 1 4Z"/><path fill="#F2F6FB" d="M214 46v1l-1 2c-1 0-2-1-3 1-1 1-2-1-2-2h1l3-2h2Zm29-17c1-2 2-4 1-6l2 1 1 2-1 1-1 2h-2Z"/><path fill="#F3F7FB" d="m218 26 1 2-2 1-3-2 4-1Zm-4-3c1-2 2-2 3-1s1 2-1 3l-2-2Zm33 3-1-2-2-1 1-2 1 1 1 4Zm2-4v-4h1v3h-1Zm-37 24-3 2c0-2 1-2 3-2Zm8-18c1-2 2-2 3 0h-3Zm25 1 1-2-1 2Z"/><path fill="#F7FAFD" d="M351 148v-3c0-1 0-3-2-3l-1-3 1-1h-1l-2-2-2-6-1-2-1-6a5 5 0 0 0 0-4c-1-2-2-2-3 0l-3 1a3 3 0 0 0-3 1h-2v-4c-2 1-2 3-2 4l-3 1c0 1-2 1-2 3 2 1 5 0 4 4h-1l-6 1c-1 1-2 0-3-1v-2h-2l-1 1-2 1-1-2-1-1h-1v2l-3 1-1 5-3-1-1-1v-1l-1 1h-3l-1-1h-3v-1l5-1 2-1c2 1 2 1 3-2l3-2h3l4 1h2c2 1 3 0 5-1l-1-1c-1-2 0-4 2-4l7-2 2-1c3 1 6 0 8-1l5-1v2l-1 2h3l1-1v-3l3 1 2-1c2-2 4-3 7-3h1c3-3 6-3 10-3 2 1 1 2 2 3 2 1 4 0 7-3a8 8 0 0 1 3 5 8 8 0 0 0 1 4l1 3-4-2-1-3c1-3 0-4-3-3l-5 3-4-2c0 3 0 5-2 5h-4l2-3-5-1-3 3-1 2 2 9v1l1 8-1 3v3l-2 7h-1l-2-1Z"/><path fill="#F8FBFD" d="M294 129v1l1 4-1 1v5l-3-1-2-1v2l1 3h-3v-7l2-1c-2-2-3-2-4 0v2h-5l-1 2 2 2a3 3 0 0 1-1 3 26 26 0 0 1-6 3c-2 1-4 0-3-3l-1-2c-2-1-2-2-2-3l2-1 3-3 1-3a4 4 0 0 0 4-1l4 2c0 1 2 1 3-1h1l3 1h3l1-1c-1-2-4-1-5-1l-2-4-1-1v-1h2v1c0 1 0 2 2 2 1 1 2 0 2-2l1 1 1 1 1 1Z"/><path fill="#F8FAFD" d="m293 128-1-1-1-1v-1l-1-1v-2c-2-1-4-1-4-3l3-1 1-3c3-1 4 1 6 3l-2 1c0-1-1-2-2-1l-1 2 1 2 1 3v3Z"/><path fill="#F7FAFD" d="M293 128v-3l-1-3-1-2 1-2c1-1 2 0 2 1-2 1-2 2 0 4v4l-1 1Zm143-43 2 1-1 1-2 3-2 1 3-6Zm1 13v-2h3l-3 2Zm36-22 2-2-2 2Zm-184 42-3 1 1-1h2Zm96 6-1-1h1v1Z"/><path fill="#F2F6FB" d="M140 48c1-1 1-3 3-2l1 1 3 1c2 0 4 0 6-2 0 1 1 3 2 2 2 2 0 3-1 4-2 2-2 3-1 5l1 2-4 2c-2 1-3 2-2 5h-3c1-2 0-3-1-3l-3-3-1-3 1-7-1-1v-1Z"/><path fill="#F1F5FA" d="M167 36c-1 2-2 2-3 1s-2 0-3 1h-2c1-2 2-3 4-3h5l3-2 2-1h3c1 1 2 1 4-1l-1 2-1 3c0 2-2 3-3 4h-4c0-2 2-2 3-2 2-1 2-2 0-4l-5 8v3a5 5 0 0 1-3-4l3-3-2-2Z"/><path fill="#F3F7FB" d="m124 46-1-2v2l-1 2-2 2-1 1c0 2-1 4 1 5v1l-2 1-3-1 2-2-3-3 1-1 4-4c2-2 3-4 2-7l3 1 3-1v2l-1 1v3h-2Zm4-7c0-2-1-2-3-3l2-4-1-5h4c0 2-1 5 3 5l-1 3c-1 0-2 1-2 3l-2 1Z"/><path fill="#EFF4FA" d="m128 39 2-1c0-2 1-3 2-3v-2l1-2c1 2 2 4 0 7l2 4-1 1-3 1 1-3-3 1-3 2 1-2-1-2 2-1Z"/><path fill="#F3F7FB" d="M166 21c0 2 2 4-1 5l-2-1 3-4Z"/><path fill="#F1F5FA" d="M140 48v3l-1 2-1-1-2-1c1-1 2-3 4-3Z"/><path fill="#F5F8FC" d="m123 14-2 3-2-1 1-3c1 1 1 2 2 1h1Z"/><path fill="#F2F6FB" d="m165 32 4-2c-1 2-1 2-4 2Z"/><path fill="#F1F5FA" d="M172 16v1h-2l1-1 1-2v2Z"/><path fill="#EFF4FA" d="M124 46h2v5-1l-2-4Z"/><path fill="#F1F5FA" d="M174 27h2l-1 2-1-2Z"/><path fill="#F3F7FB" d="m131 44 3-1-1 2-2-1Z"/><path fill="#F2F6FB" d="M170 30h2-2v-1Z"/><path fill="#F1F5FA" d="M122 14c-1 1-1 0-2-1l2 1Z"/><path fill="#FCFDFE" d="m597 134-4 2c-2 1-3-1-3-3l2-6h-3l1-2c2 0 5 1 7 3v6Z"/><path fill="#fff" d="m659 141 3-2h6c2 2 1 4-2 4s-5 0-7-2Zm-82-15-1-1c-1-3-1-3 2-4l2 3c1 1 0 3-1 4l-1 1c-2 3-2 3-5 1l4-4Z"/><path fill="#FCFDFE" d="m607 122 1 3-1 2h-2l-1-3a3 3 0 0 0-2-2l-2-2 2-1h2l3 3Z"/><path fill="#fff" d="m646 142-3-3-1-1v-1h1c2 2 4 2 6 2l3-1 2 3c-3 2-3 2-4 0h-3l-1 1Z"/><path fill="#FCFDFE" d="M594 141c1 1 0 2-1 3h-2c-1 0-3 0-3-2l-2-1 2-2 1 3 5-1Zm5-12 2-3 2 3v3h-3l-2-3Z"/><path fill="#fff" d="m630 139 1-2 5 1v1l-1 1-5-1Z"/><path fill="#FCFDFE" d="M599 147c-2 1-3 1-4-2l2-2 2 4Z"/><path fill="#fff" d="m598 150 2 1a6 6 0 0 1-2 4c-2-1-1-3-1-4l1-1Zm13-11-1 4-2-4 1-1 2 1Zm-36-24h5l-1 3-4-3Zm69 14 3 1v1l-1 1c-1 0-2-1-2-3Z"/><path fill="#FCFDFE" d="m602 115-1 1-2-1c-1-1 0-2 1-2l2 2Z"/><path fill="#fff" d="m590 119 2 3v1h-1c-1 0-2-1-1-4Zm31 17 1 2-1 1-2-1 2-2Z"/><path fill="#FCFDFE" d="M607 119c-1-2-2-2-1-4h1c2 2 0 2 0 3Z"/><path fill="#fff" d="m618 124 1 2h-4l2-2h1Zm-28 27c0-2 1-2 3-2 0 2-2 1-3 2Zm22-19c0-1-1-2 1-2h1l-2 2Zm22 13h2l-1 1c-1 1-1 0-1-1Z"/><path fill="#FCFDFE" d="M605 136v1l-1-1h1Z"/><path fill="#fff" d="M611 127v1-1Zm-39 5v-1 1Zm39 18Zm-1 3h1-1Z"/><path fill="#FAFBFD" d="M457 123h2l4 2c1 3 0 6-2 8 0 3 3 2 4 2l-1 3c1 3 3 0 4 1l-2 4c-3 2-5 4-5 7l-1 2-2-2v-1c0-2-1-3-2-2-1 0-2 1-1 3v1l1 2-2 4v7c0 3-1 3-3 3l-3 2-2 2-3-3-1 3-3 1h-4l-2-4-1-1-1 1c0 3-2 3-4 3a8 8 0 0 0-6 3 5 5 0 0 1-2 1l-7 2h-4l-2-1-2 1h-4c-1 1-2 0-3-1l-1-3-2-4v-2c2 1 2 3 2 5 3 1 3 0 5-2l5-1c0 2 1 4 3 4l1 2 1 1 7-2 2-2 2-1 1-1c1-2 3-3 5-1l3-5-4-1 4-2 3-1 1-2h-5l-2 2c0-2 0-4 3-4v-1c1-3 4-2 6-1v7l6 1 2 2 2 2 2-2 3-4 1-4v-2a4 4 0 0 0 0-3c-1-4 1-7 5-8h2c-1-3-4-5 1-7l-1-2v-5a9 9 0 0 0-3-7Zm-53 52 2-2-1-2c-2 1-2 3-1 4Zm59-37-2 1c0 1 0 2 2 3l1-4Zm-25 31 2-1-1-1-1 2Zm2-5h-3l1 1 2-1Z"/><path fill="#F7FAFD" d="M419 156c3-4 2-8 1-13a11 11 0 0 1 3-7l2-3c1-2 2-2 4-2l4 1 3 1a4 4 0 0 0 4-1l1-1c2-1 2-2 2-4l-1-2v-9a6 6 0 0 0-2-4c-2-3-2-3 0-5v-1l2-1a3 3 0 0 1 2 1c2 2 4 0 7-1l7-5 3-1v1l-2 3-2 5 3 2c-1 1-1 2-3 2 0-2-1-3-3-2v-4l-1-1-1 1c-2 2-3 3-1 6l-3 2c-1-2-1-2 1-6l-4 1-2 1c1 2 0 4 2 6v9l1 5v1l-1 5 1 4c-1 3-1 4 3 6l-1 1c-2 1-3 3-3 5v1c-3 1-5-1-6-4l1-4c0-1 0-3-2-4l-2 1v-1c0-2 0-3-2-3s-2-1-1-3h1v-1h-1c-2 1-4 0-5-1h-2c0 2 2 3 1 5 0 2 0 4-3 4v1c2 3 1 5-1 7l-1 4c-1 2-2 3-3 2Zm-27-3h4l-2 3v2h3l1-2-1-2 2-1h1a9 9 0 0 1 2 4l2 4c2 2 4 2 5-1l-2-3 1-1 1 1h4c1-1 3-2 4 0-1 1 0 2 1 4s-3 2-3 4h2c1 1 0 2-1 3s-2 0-2-1h-1l-7-2-3-3c-2-1-2-1-3 1l-2 2-1-2-2-3a7 7 0 0 1-2-4l-1-4Zm24 9-1-2-2 2h3Zm57-64 1-1 6-2h2c0-2 1-1 2-2l-2-2c3-1 5 1 7-1v1-5l-1-2v-2h2l2 1c1-1 3-3 2-5l2 1-1 3a6 6 0 0 0-3 6v1l-1 4h3l2 3-4 2c-3 0-4-2-3-4v-1l-5 4c-1 1-2 2-3 0s-3-1-5 0l-3 1Zm27-17 5 1c1 0 2 1 1 2v2c0 2 0 4-3 4l-1 2-1 3-3-1c0-2 0-5 2-6v-3c-2-2-2-2 0-4Z"/><path fill="#F7FAFD" d="M454 110c2-1 3 0 3 2v3c0 2-1 3-3 4h-2l-2-1v-3h1c1 0 3 2 4 0l-2-3 1-2Z"/><path fill="#FAFCFE" d="m428 160 2-2h5l-1 2-3 1-4 2c-2 0-3 0-3-3h4Z"/><path fill="#F7FAFD" d="M463 97c1-1 2-2 3 0 1 0 1 2 3 1 0-1-1-2 1-3l1 3-1 1c-2 2-4 1-6-1l-1-1Zm-13 21c0 1 1 2 2 1h2c-1 2-4 1-5 2l-1-1 2-2Zm3-6 1 3c-1 2-2 0-3 0l2-3Zm39-34-1 1-2-3 3 2Z"/><path fill="#FAFCFE" d="m516 96 1 2-1 1-1-1 1-2Z"/><path fill="#FAFBFD" d="m458 120-1 2-1-1 2-1Z"/><path fill="#F7FAFD" d="M450 115v2-2Z"/><path fill="#F8FBFD" d="m388 137-1-2 1 2Zm-1-4v-1 1Z"/><path fill="#EEF3F9" d="m25 36-3-2v-2h1c2 2 2 2 3 0l3-1 4 1c1 1 1 0 1-1l-1-1h-1v-1l1-1v-2l2 2 2 1h1l-1-1c0-2 1-2 2-3l1 2h4c0 1 0 3-2 3h-1v3l1 2-1 1c0-2-1-3-3-4l1 5h-2l-1-1-3-1-1 2h-2l-1-1v3l1 1 2 3v3l-3-1v-1l1-1-1-1-1 1a3 3 0 0 1-2-3v-3l-1-1Z"/><path fill="#F3F7FB" d="M42 27h-2c0-2 0-2-1-1-2 0-2 0-3 2v1l-1-1-2-2-1-3 3 1c2 0 2-1 3-2l2-3 5 3 2-4c2 2 3 3 5 1l2 3c1 1 2 1 1 3h-2c0 1 1 2-1 3a8 8 0 0 1-4-3l-3-1c-2 1-1 2-1 3h-2Zm0-4-2 1 2-1Zm-14 1-2 2v-7l3 2c1 0 2-2 4-1v3l-2-2-1 1-2 2Z"/><path fill="#EBF1F8" d="m29 31-3 1c-2 2-2 2-3 0h-1v-1l1-1 3-1h1l2 1v1Z"/><path fill="#F5F8FC" d="M26 19v2h-1l-3-2c1-2 2-2 4 0Z"/><path fill="#F6F9FC" d="M15 12v-2l4-1-2 3h-2Z"/><path fill="#F8FAFD" d="m19 9-4 1V7l3 1v1Z"/><path fill="#EEF3F9" d="m29 30-2-1 2-1v2Z"/><path fill="#EBF1F8" d="m28 24 2-2 2 1-4 1Z"/><path fill="#EFF4FA" d="m40 5 2-2c0 2-1 2-2 2Z"/><path fill="#EBF1F8" d="M29 30v-2l2 1v1h-2Z"/><path fill="#EEF3F9" d="M25 21h1v2l-1-2Z"/><path fill="#F1F5FA" d="m18 17 1-1v2l-1-1Z"/><path fill="#EEF3F9" d="m23 30-1 1v-1h1Z"/><path fill="#EFF4FA" d="M31 30v-1h1v1h-1Zm2-2c1 1 0 1-1 1l1-1Z"/><path fill="#F3F7FB" d="M45 18h-1 1Z"/><path fill="#F2F6FB" d="m348 39-3-4 2-5a2 2 0 0 1 3 2c0 2 0 5-2 7Zm-9-1c-1-2 1-2 1-3v-4h1c2 0 2 1 2 3v1c1 3 0 4-3 4l-1-1Zm21 0c-1 2-2 2-4 2l-3-2c-1-1 0-2 1-2h2l4 2Z"/><path fill="#EEF4FA" d="m381 49-1-2v-2h1v2l-1 2Zm-36 0c1 1 0 2-1 3l1-3Zm37 2 1-1 1 1-1 1-1-1Zm-32-1v1h-1l1-1Zm-10-22v-1h1l-1 1Z"/><path fill="#EAF1F8" d="m109 36 1-5c1 0 1-2 3-2s3 1 4 3l-3 3h-2v2c2 1 1 3 1 5l-2-1-1-1-1-1v-3Z"/><path fill="#EBF1F8" d="M121 40c1 3 0 5-2 7l-4 4c-2-1-3-2-1-3 1-2 1-4 3-4l-1-3 4-1Z"/><path fill="#EAF1F8" d="M119 22v4l-6 1v-5h6Z"/><path fill="#EFF4FA" d="m115 52 2 3-2 2-1 4-2-2-1-1c0-1 1-2 2-1h1v-5Z"/><path fill="#EAF1F8" d="M104 27v-2l3-1h2c1 1 0 2-1 2l-4 1Z"/><path fill="#EBF1F8" d="m107 15 1-1h1v2h-2l-1-1Zm4-3h-3l1-2 2 2Z"/><path fill="#EDF2F9" d="m112 17 1 1-1 1v-2Z"/><path fill="#E8EFF7" d="M32 46v-1h1c1 2 3 2 3 4h4c1 0 2 0 2-2l2-1-1 3 3 1 2 2v1c-3 2-3 3-1 6v1c0 3 2 5 5 5v1h3v-1l-1-2h2l4 2h5l3-4c0-2 2-3 3-3l5-2 3 1 2 1h1l1-1-1-2c2 0 4 0 5-2a7 7 0 0 1 3-4v-1l-1-1c-1 0-3-1-5 2l-3-1c-1 0-1-2 1-3l4-2 3 2 2-1h1l2 1-1 2-1 1-1 7 1 3c1 3 0 3-3 2v-3h-3l-2 7-1 1c-2 1-1 2 0 2l1 2-1 10v3l-2 2-1-1c-2 0-2 3-4 2s-3 2-4 3v4l1 1-4 4h-1c-2-1-4-4-3-5a4 4 0 0 0-1-3c-1-1 0-3 1-4a5 5 0 0 0 2-5l-4-3a2 2 0 0 0-1-3c-1-1-2-2 0-3l-4-1-3 1c-2 1-1 2-2 3l-1-1-1-3-3-2-1 2c1 1 0 3-2 4-1 0-2 1-1 3l-2 1-2-2 2-5-2-1-4-2v-2l3 2v-2l-1-2-1-1h-1c-2-2-3-4-2-7l1-2h-2l-2-2v-1l1-5Z"/><path fill="#F5F8FC" d="m65 12 2-3 1-2 3 1 2 2s-2 2 0 2h1v2h-5l1 2v3l1-1 3 1c0 1-1 2 1 2l1 1c2 2 2 2 3-1v-1h5l1 2 1 1-1 3c2 0 1-1 2-2l4-1 1-1-1-1-1-1-1 1h-2v-2c2 0 1-1 1-2l3-1 1-2 2-1c2 0 0 2 1 3l1-1h3v7c-2 1-3-2-4-3a4 4 0 0 0 0 5l-3 4-1-2-3-1 1 1v1c1 1 0 3-1 2l-4 1h-1l-4-4-2 1h-2c-2 0-3-1-2-3v-1c-1-3-2-3-4-1h-1l-3-2 1-2h2v-4l-2-1-1-1Z"/><path fill="#EDF2F9" d="M83 30h1l1 1v1l-1 1h-2l1 3 1 1c-1 1 0 2 1 3l1 2v1a236 236 0 0 0-5 2v3l3 1c1-3 4-2 5-2h1v3c-2 0-3 2-3 3-1 2-3 2-5 2l1 2-1 1h-2l-1-1a3 3 0 0 0-3-1l1-2-1-2v-2l1-2c3-2 3-3 3-6v-2l1-1h-2l2-4-2-2h-2l1-2c2 1 4 0 5-1Z"/><path fill="#EEF3F9" d="M88 17c0 1 1 2-1 2h-1v1l1 1v2h-1l-1-1-1-2h-5v1c-1 3-1 3-3 1l-1-1-1-2-3-1h-1v-2l3-1 1-1v-1l2 1h2v-1l-1-2 4-2 2 2 4-3-1-2 2-1v3c1 2 1 4-2 4h-5l-1 2c3 0 6 2 8 3Z"/><path fill="#EFF4FA" d="m86 42-1-2c-1-1-2-1-1-3l-1-1-2-3h3l1-1v-1l-1-1 4-1c1 1 2-1 1-2v-1l-1-1 3 1 1 2-1 2c-3 0-4 1-5 5l4 5c-1 0-2 3-4 2Z"/><path fill="#F1F5FA" d="m96 38 3-1-1 1-2 3-1 1h-1v-2l2-2Zm-4 6h-3c1-2 2-3 4-3v1l-1 2Z"/><path fill="#ECF2F9" d="M93 42v-1l1-1v2h-1Zm66-37 1 3c2-1 2 1 3 2 0 1 1 3-1 5v-1c0-2-2-3-4-4-3-1-3-1-1-4l2-1Z"/><path fill="#EFF4FA" d="M80 40v2c0 3 0 4-3 6l-1 2-1-1h-1c-1-1-2-2-4-1l1 2-1 4v1l2 1 2-4h2l1 2-1 2a10 10 0 0 1-5 2c-2 0-3 0-4 3l-2 4h-5l-4-2h-2l1 2v1l-2-1h-1c-3-1-5-2-5-5v-1c-2-3-1-4 1-6v-1l-2-2-3-1 1-3c-1-1-2 0-2 1 0 2-1 2-2 2h-4c0-2-2-3-3-4l2-1 2-1 1-1c2-1 2-2 2-4l1-2 1-1-1-2v-3h1v1l1 1v2l2-1 2-2c1-2 2-2 3-2 2 1 2 0 2-1 2-1 1-2 1-3h2v-3h4v-3c-1-2-1-2 1-2v2l4 1v-1h2v2l-2 1h-4c0 2-1 2-3 2l4 2 3-1v3c-2-1-2 1-3 2l-1-1-2 3c-1 2 0 4 2 5l1 2-5 1v-1l-2-1h-2l-2 2-1 4c4 0 5 1 6 5l-1 2-2-3-2-1h-4l2 1c1 2 1 2 3 1v3l3 1v3c1 1 4 2 5 1 2-1 4-2 3-4l1-1c2-2 2-5 2-8h5l-2-3c1 0 3 1 3-1l-1-2 2-3c1 3 2 4 5 4l1-3 1-3 2 2-2 3 1 2ZM57 59h-2l-1 1 1 1 2-2Zm-1-31-1 1 1 1h1l-1-2Z"/><path fill="#F3F7FB" d="M64 19v1l-4-1v-2l4-1v3Zm1-7 1 1 2 1v4l-1-2c-1-2-1-2-3-2v-2h1Z"/><path fill="#EFF4FA" d="M64 14c2 0 2 0 3 2l1 2h-2l-2-2v-2Z"/><path fill="#EEF4FA" d="m285 26 2 1 1 3c0 1-1 2-2 1-2 0-3-3-2-5h1Zm-1 9c-2 0-3-1-2-3l2 3Z"/><path fill="#F2F6FB" d="m402 47 1 2-2 2-1-2 1-2h1Z"/><path fill="#EFF4FA" d="m73 10-2-2h3l-1 2Zm-5-3v1l-1 1V6l1 1Z"/><path fill="#ECF2F9" d="M64 5h-1l-1-1 1-1 1 2Z"/><path fill="#EBF1F8" d="m86 6 1 2-4 3-2-2-1-1-2-1v1h-2l1-3 2-1 2 1 5 1Z"/><path fill="#F1F5FA" d="m81 5-2-1 1-1 1 2Z"/><path fill="#F3F7FB" d="m79 7 1 1 1 1-4 2 1 2v1h-2l-2-1v-1l1-1-1-1-1 2c-2-1 0-2 0-2l1-2 2-1h3Z"/><path fill="#FCFDFE" d="M520 114c-1-1 0-2 1-2h7c0 2-1 3-3 4-1-2-3-3-5-2Zm-148 48 2-4 2-1v2l-1 3h-3Zm198-50h-2l-1-3c-1-1 0-2 1-2l1 1 1 4Z"/><path fill="#F8FBFD" d="M522 109c0 1 0 2-2 2l-2 1-2-1 1-1 1-1h4Z"/><path fill="#FCFDFE" d="M468 129h-1a4 4 0 0 1-1-1s0-1 0 0l2 1Zm99-23h-3v-1c1 0 2-1 3 1Z"/><path fill="#F8FBFD" d="m302 131 1 1v1l1 3 3-2c0-2 2-2 3-3h14c-1 3-5 2-6 5h3l4-1v-2l1-3 1-1 1-1h1c0 1-1 2 1 3l2-3h-2c0-1 1-2 2-1 2 0 2-1 2-2s-3 0-2-2l4-2c2 0 3-3 5-2 1 1 0 2-1 3l-3 1c-1 1-2 2 0 3l1 1c1 1 2 2 1 4l-2-1-3-1c-1-1-2 1-2 2-1 1 0 2 1 2l2 1c1 1 2 1 3-1l1-1 5-2 2 6 2 2v1l1 3v2a4 4 0 0 1-2-4l-2-1c-1-2-2-2-3 0l-5 3c-2 1-2 0-4-1l-2-2 1-3a2 2 0 0 0-1-1c-1-1-3 0-4 1l-3 1-5 1c-2 0-3-1-3-3v-1c-2-2-4-2-7-1-1 3-3 3-4 5l-2-1-2-1-4-2 4-2 1-1Z"/><path fill="#F6F9FC" d="m190 148 4 1-1 4h4c0 2-2 1-3 2l3 2c1-3 1-5 3-6l-2 6-2 1-3 1a4 4 0 0 1-3-1c-2 0-3 0-4 2l-1 2h-2c-2-1-2-1-3 1l-1 1-3 1c-1 1-2 1-3-1l2-2 3-1 1-1c-1-1-1-2-2-1h-3l-5-2-1-3c2 0 2 1 2 2l8 1c1-2-1-3-1-4l2-2v1c0 2 1 3 3 2l4 1c0-3 1-4 3-5l1-2Zm-55-30c2 1 3 2 6 1h2c1 2 3 2 5 2 0 3 3 4 4 5 2-2 4-3 3-6h2l-3 7 3 2c-2 0-3 0-4 2l-1 1-4 2h-5l-3 1-1 5c-2-2-3-3-3-5v-1c2 0 1-1 1-2v-1l1-1c1-1 2-1 1-2l-1-1v-1c2-3 0-4-1-5h-3c-1-2 0-3 1-3Zm10 9-3 1-2 3c1 2 2 1 3 1h3c0-2 1-4-1-5Z"/><path fill="#F7F9FC" d="M121 140v3c0 2-1 2-3 2a6 6 0 0 0-6 3l-2-3-1-1c-1-3-2-3 0-5 1-3 0-6-1-8l-1-1-3 1c0-3 2-3 3-5l1 1 3 1c2-1 3-1 3 2v3l2 3 2 1 1 2 2 1Z"/><path fill="#F8FBFD" d="m254 137-2-1c-2-1-2-1-2-4l5-2 3 2 1 4c2-1 4 0 5 1v1h-2l2 2c1 0 2-1 1-2l1 1v7l-6-2c0-2 0-4-2-5v-3l-1-3-2 2-1 2Z"/><path fill="#F8FAFD" d="m130 144 1 1v2l-2 2 1 2c0 2-1 2-2 2h-6v-4l1-2c1-3 1-3 4-4l3 1Z"/><path fill="#F8FBFD" d="M236 138c2 0 3 1 5 3-1 2-1 4-3 5h-1v1c2 1 4-1 6-1l-2 3c-1 0-3 1-3 3 0 1-1 2-2 1h-1c-2-1-2-1-1-3v-1l-2-2h2c2 0 2-1 3-2v-4l-1-3Z"/><path fill="#F8FAFD" d="M137 131v1c0 1 1 2-1 2v1c0 2 1 4 3 5l1-5 3-1h5c0 2-2 2-3 3-2 0-4 0-4 3l-1 1h-1l-3-2-1-2c0-2 0-3-2-4a4 4 0 0 1 4-2Z"/><path fill="#F8FBFD" d="m132 152 7 1h2l1 2c1 1 0 2-1 3h-2v-2l1-1c-1-1-2-2-3-1s1 1 1 2c-1 1-3 2-4 1s0-2 1-3l-3-2Zm-2-1-1-2 2-2v-2h8l-1 1h-4l2 4c-1 2-2 0-4 0v1h-2Z"/><path fill="#FCFDFE" d="m232 149-1 4-6 1c0-3 0-4 2-5l2 1 3-1Z"/><path fill="#F8FBFD" d="m121 140-2-1-1-2 1 1c2 1 3 0 3-2 0-1 1-2 3-2l-1 3h3v4c-2-2-4-2-7-1Z"/><path fill="#F8FAFD" d="m267 139-1-1h2v-2c1-3 3-4 6-4l-1 3-3 3-2 1h-1Z"/><path fill="#F8FBFD" d="M122 151v2c2 0 4-2 6 0l-4 1 2 3c-2 1-3 0-3-1-1-2-3-3-5-2l-1-1c1 0 3 1 3-2h2Z"/><path fill="#FCFDFE" d="M219 147c2-2 4-2 7 0l-3 2a4 4 0 0 1-4-2Z"/><path fill="#F6F9FC" d="m134 128-1-2v-1l1-3c2 1 3 2 3 4h-2l2 1v1l-2 1-1-1Z"/><path fill="#F7FAFD" d="m301 132-4 2h-1l-2-4h1c0 1 1 2 3 1h3v1Z"/><path fill="#F8FAFD" d="m100 127 2 3-3 2c-1-2 0-3 1-5Z"/><path fill="#F8FBFD" d="M245 143a6 6 0 0 1 5-3l-1 1c0 2-1 2-2 2h-2Zm-115 1-3-1 2-1c1-2 1-1 2 0l-1 2Z"/><path fill="#F8FAFD" d="M180 163c1-2 1-2 3-1h2c0 1 0 2-2 1h-3Zm-60-12c0 3-2 2-3 2v-1c1-2 1-2 3-1Z"/><path fill="#FCFDFE" d="M245 153c0 1-1 2-2 1-2-1 0-2 1-3l1 2Z"/><path fill="#F8FBFD" d="M139 141h1l2 2h-3v-2Z"/><path fill="#F5F8FC" d="m128 125 1-1h1l-1 2-1-1Z"/><path fill="#F8FAFD" d="M137 128v-1h1l1 1c1 1 0 1-1 2l-1-2Z"/><path fill="#FCFDFE" d="M251 149c-2 0-2-1-1-2l1 2Z"/><path fill="#F8FAFD" d="M133 125v1h-2v-2l2 1Z"/><path fill="#F7F9FC" d="M131 124v2h-2l1-2h1Z"/><path fill="#FCFDFE" d="m203 156-1 1h-1l1-2 1 1Z"/><path fill="#F8FBFD" d="m118 137-2-1 2 1Z"/><path fill="#FCFDFE" d="M230 145v1-1Z"/><path fill="#F8FBFD" d="M253 145v1l-1-1h1Z"/><path fill="#FCFDFE" d="M192 162v-1h2l-2 1Z"/><path fill="#F8FAFD" d="m134 128 1 1-1-1Z"/><path fill="#FCFDFE" d="M244 149v1l-1-1h1Z"/><path fill="#F8FBFD" d="m243 146 1-1-1 1Z"/><path fill="#F7FAFD" d="m363 132-1 4c-1-1-2-1-2-3l3-1Z"/><path fill="#FAFBFD" d="M327 136c1-1 3-2 4-1l1 1v3h-2l-3 1 2-3-2-1Zm15 3c1-2 2-2 3 0h-3Z"/><path fill="#F7FAFD" d="M349 144v-2c2 0 1 2 1 3v-1Z"/><path fill="#F8FBFD" d="m349 144 1 1v1-2Zm-254 6h4c-1 2-1 3-3 3h-4c0-1 0-2 2-2l1-1Z"/><path fill="#F2F6FB" d="M101 76c4-1 7 0 10 1-1 2-4 2-4 5 3 2 4 3 2 6l-3-2c-2 1-4 1-5-2l4-2c1-2 1-3-1-3l-3-3Z"/><path fill="#E8EFF7" d="M99 69h-1a7 7 0 0 0-7-2h-2c0-1 0-2-2-2 0-1 0-3 2-4l2 3h3c1-2 4-1 5-3l1-1 3 4-2 2c0 2-2 1-2 3Z"/><path fill="#EAF1F8" d="M87 65c2 0 2 1 2 2h-1c-1 2-2 2-4 2l-1-2 2-1c2 1 2 1 2-1Z"/><path fill="#EFF4FA" d="M85 84h1l-2 5-1 1 1-4v-2Z"/><path fill="#E8EFF7" d="M79 87v3c-2 0-3-1-3-2 1-1 1-2 3-1Z"/><path fill="#EAF1F8" d="M58 96v-3c3 1 3 1 3 3h-3Z"/><path fill="#F1F5FA" d="m125 89-2 1-1-2h1l2 1Z"/><path fill="#F7F9FC" d="m222 126 4-1c-3-2-1-4-1-6 2 0 3 0 4 2l-1 2v1c-1 0-2 1-1 2l3 1c1 0 2 0 2-2l-1-3 1-3h3v2l-2 1c0 2 1 2 3 2 0 0 2 0 2 2h-3c-1-1-1-1-2 1l-1 1-2 1c-1 1-2 2-1 3l3 1 2-2v-1c3 1 4 3 3 7l-3-1-4 1h-1c0-1-2-2-3-1l-2 1-2-1v-2l4-4c2-1 2-1 0-3l-6 4-3-5 2-1 2 3 1-2Zm14 6-1 1 1 1v-2Zm-8 0h-1l-1 1h1l1-1Zm-1-10h-1 1Zm-12 16-2-3-2 2c-1 0-2 1-2-1v-2c4-1 4-3 4-6h1l2 1c-1 2 2 4-1 5l2 2-2 2Z"/><path fill="#F8FBFD" d="M274 132c-3 0-5 1-6 4h-1c-1-2-2-3-1-5v-5c1-1 2 0 2 1l4 4 2 1Z"/><path fill="#F7FAFD" d="M286 119c0 2 2 2 4 3l-1 2h-3c0-1 0-2-2-2l1 3v1h-3l-2-3 3-1v-3h3Zm-4 7h3l1 1 2 4c1 0 4-1 5 1l-1 1h-3l-3-1v-2h-4v-4Zm-9 0v-1c2 0 2-1 2-2l1-2 1 1 1 4v2l-1 2h-3l-1-4Z"/><path fill="#F8FBFD" d="m276 115 2-1 4 4c-1 2-3 1-4 2l-3-1v-2l1-2Z"/><path fill="#F6F9FC" d="M203 136c2-3 2-5 2-8 2 1 3 0 4 2 0 2-2 1-3 1v5h-3Z"/><path fill="#F7F9FC" d="M239 137c2-2 4-2 6 0v3h-3l-3-3Z"/><path fill="#F6F9FC" d="M200 150c0-2 2-2 4-2l1-5 1 1c1 2 0 4-1 6h-5Z"/><path fill="#F7F9FC" d="M284 119v3l-4 1c-1-1-1-2 1-3l2-1Z"/><path fill="#F7FAFD" d="M286 130v2h-1l-3 1v-3h4Zm-19 6h1v2h-4v-1l3-1Z"/><path fill="#F6F9FC" d="M236 124c-2 0-2 0-3-2l2-1 1 3Z"/><path fill="#F7F9FC" d="M273 126c2 1 2 1 1 4-2-1-2-1-1-4Z"/><path fill="#F6F9FC" d="M204 141c-2-1-1-2-2-3 2 0 2 1 2 3Z"/><path fill="#F7F9FC" d="m221 123 1 2-1-2Z"/><path fill="#FAFBFD" d="M220 141h-1l1-1v1Z"/><path fill="#F7F9FC" d="m219 119 1 1-1-1Z"/><path fill="#EFF4FA" d="m40 76 2 2 1 1-2 7h-1v-5l-4-1-2-2 1-6c2 0 4 2 5 4Z"/><path fill="#E8EFF7" d="m13 69-2 2-1-2v-3l-1-2 3-3h3v5l-2 2Z"/><path fill="#EFF4FA" d="M15 63v-2c1-1-1-1-1-2l2-3 4 3v1l-2 2a3 3 0 0 1-3 1Z"/><path fill="#F1F5FA" d="M28 79h-3c2-2 1-4 1-6l2-2 1 1 1 3c1 1 1 2-1 3l-1 1Z"/><path fill="#E8EFF7" d="M19 51h-1l-1 1h-1c-2 2-3 1-4 0 1-2 2-1 3-1l3-2v1Zm1 9v-1l1-5c0-1-1-2 1-2v3a4 4 0 0 0 0 4c0 1-1 2-2 1Z"/><path fill="#EEF3F9" d="m27 47 2-1 2 1c-2 1-1 3-1 4-2 0-3-1-3-4Zm5 39v-3l5 2-5 1Z"/><path fill="#EFF4FA" d="M13 69c0-2 1-3 2-3h2v1l-3 2-1-1Z"/><path fill="#EEF3F9" d="M19 51v-1l1-3 1-1 1 2v1l-4 2Z"/><path fill="#E8EFF7" d="M11 56c1-2 2-2 3-1v2c-1 1-2 1-3-1Zm11-7v-1c2 1 2 1 1 3l-1-2Zm3 14a3 3 0 0 1 3 0v1h-2l-1-2Z"/><path fill="#F1F5FA" d="M17 67v-3l1-1v4Z"/><path fill="#EEF3F9" d="m27 69 1-2 1 1-1 1-1-1Zm-1 23c0-2 1-2 2-2l1 1h-3Zm-2-25-1-1h-1v-1c2 0 2 1 2 2Zm-7-15 1-1 1 1h-2Zm15 38v1c1 0 0 0 0 0a1 1 0 0 1-1-1h1Z"/><path fill="#EFF4FA" d="M17 67h1v2-1Z"/><path fill="#EEF3F9" d="M17 75h-1v-1l1 1Z"/><path fill="#EDF2F9" d="M17 72h-1v-1l1 1Z"/><path fill="#EFF4FA" d="m18 63-1 1 1-1Z"/><path fill="#EEF3F9" d="M31 51v1l-1-1h1Z"/><path fill="#EBF1F8" d="M93 42h2v2l1 2-3 1 1-1-2-2 1-2Z"/><path fill="#F1F5FA" d="M109 36v3h-1v-3h1Z"/><path fill="#EAF1F8" d="M108 36v1h-2l1-2 1 1Z"/><path fill="#EFF4FA" d="m120 50 2-2-2 2Z"/><path fill="#F8FAFD" d="M123 46v-2l1 2h-1Z"/><path fill="#EAF1F8" d="m83 65 2-1v2l-2-1Z"/><path fill="#F1F5FA" d="m106 37-1 1 1-1Zm-9-1h-1 1Z"/><path fill="#FAFBFD" d="m142 143-2-2 1-1 3-1 1-2c1-1 3-1 3-3l4-2 1-1c1-2 2-2 4-2v1c0 1 0 2-2 3-3 1-4 3-4 7v4l-2 2-2 1v-5h-2l-3 1Z"/><path fill="#F6F9FC" d="m164 144 3 4 1 4h-1l-2-5-1-3Zm-2-6 1 4-2-2c0-1 0-2 2-2Zm-4-7 2 2c-2 0-2-1-2-2Z"/><path fill="#EAF1F8" d="m58 75-1 3-2-3h3Z"/><path fill="#EEF3F9" d="m19 81 1 1v3l-2-2v-2Z"/><path fill="#F8FAFD" d="m190 148-1 2c-2 1-3 2-3 5l-4-1c-2 1-3 0-3-2v-1l1-1h5c2 0 3-1 3-2l2-1v1Z"/><path fill="#F6F9FC" d="m201 143-1 1-1-1 1-1 1 1Z"/><path fill="#F1F5FA" d="m194 146 1-2 1 1-1 1h-1Z"/><path fill="#F8FAFD" d="M155 120c1 3-1 4-3 6-1-2-4-2-4-5h3l2 1-1-2c0-1 0-2 1-1l2 1Z"/><path fill="#F7F9FC" d="M135 118c-1 1-2 1-1 3h-2l-1-1 1-2 2-3 1 3Z"/><path fill="#F6F9FC" d="m152 120 1 2-2-1 1-1Z"/><path fill="#F7F9FC" d="M187 135h1l-1 5c-2 0-2 0-2-3l2-2Z"/><path fill="#F2F6FB" d="M187 135c-2-1-2-1-2-3 0-1 1-2 3-2l-1 5Z"/><path fill="#F6F9FC" d="M182 137c-1 0-3 1-3-1l2-2 1 3Z"/><path fill="#F8FAFD" d="m132 118-1 2v4h-2l-1-2v-1l1-2 3-1Z"/><path fill="#F7F9FC" d="m129 119-1 2-1-1 2-1Z"/><path fill="#EAF1F8" d="M21 34c0 2 1 3 2 3 0 2-1 2-2 2l-1-3 1-2Z"/><path fill="#EFF4FA" d="M22 30v2c-2 0 0-1-1-2h1Z"/><path fill="#EBF1F8" d="M31 51h-1c0-1-1-3 1-4l-2-1v-1l3 1-1 5Z"/><path fill="#EAF1F8" d="m25 36 1 1-1-1Z"/><path fill="#EBF1F8" d="m28 43 1-1 1 1h-2Z"/><path fill="#F2F6FB" d="m288 78-2 2-1-2h3Zm78 4-2 1c0-2 1-2 2-1Zm-71 7-2 1v-2l2 1Zm81-9 1-1v1h-1Zm-24 17 1 2h-1v-2ZM213 56l-1 2-2 1v-2c1-1 1-2 3-1Zm1 5h-1v-1l1 1Zm81 45 2 2-2-2Z"/><path fill="#F7FAFD" d="m344 130-5 2-1 2h-3l-2-1c-1 0-2-1-1-2 0-1 1-3 2-2l3 1 2 1c1-2-1-3-1-4h-1c-2-2-2-2 0-3l3-2c1-1 2-2 1-3-2-1-3 2-5 2l-4 2c-1 2 1 1 2 2 0 1 0 2-2 2-1-1-2 0-2 1h-2c1-3-2-3-4-4 0-2 1-2 2-2l3-2h4a3 3 0 0 1 2-1l4-1c1-2 1-2 3 0a5 5 0 0 1 0 4l1 6 1 2Zm-14-8-1 1 1 1v-2Zm-3 7-1 1-1 3v2h-4c-1 1-2 2-3 1 1-3 5-2 6-5h-14c-1 1-3 1-3 3l-3 2-1-3 1 1 2-1 1-5 3-1v-2h1l1 1 1 2 2-1 1-1 2 1v1c1 1 2 2 3 1h6Zm-12 0h-1l1 1v-1Z"/><path fill="#F8FAFD" d="M331 120h-2c0-1 0-3 2-4v4Zm-33 11c-2 1-3 0-3-1h2l1 1Zm8 2-2 1-1-1v-1l3 1Zm-5-1v-1l1-1v1l-1 1Z"/><path fill="#F7FAFD" d="M348 139v-1h1l-1 1Z"/><path fill="#F8FAFD" d="M311 125h-1 1Z"/><path fill="#FAFBFD" d="M291 125v1c0 2-1 3-2 2-2 0-2-1-2-2v-1h4Z"/><path fill="#F8FAFD" d="m285 125-1-3c2 0 2 1 2 2v1h-1Z"/><path fill="#F7FAFD" d="M286 125v-1h2v1h-2Z"/><path fill="#F8FBFD" d="M288 125v-1h1l2 1h-3Z"/><path fill="#FAFCFE" d="M404 175c-1-2-1-3 1-4l1 2-2 2Zm59-37v4c-2-1-2-2-2-3l3-1Zm-25 31 1-2 1 1-2 1Zm2-5-2 1-1-1h3Z"/><path fill="#F7FAFD" d="M416 162h-3l2-2 1 2Z"/><path fill="#E8EFF7" d="m41 36-1 2c0 1 0 3-2 4l-1 1-2 1c0-2-2-1-3-1l-3-3 1-3h2l1-2 2 1 2 1h2l-1-5c2 1 3 2 3 4Z"/><path fill="#ECF2F9" d="M42 31v-1c2-1 2-2 2-3v-1s-1-1 1-2l3 1a9 9 0 0 0 4 3c0 1 0 2-2 1-1 0-2 0-3 2l-2 2-2 1v-2l-1-1Z"/><path fill="#E8EFF7" d="M31 30h2l1 1-1 2-4-1v-2h2Z"/><path fill="#EAF1F8" d="M32 43c1 0 3-1 3 1l-2 1h-1v-2Zm-2-6-1 3-1-1 1-3 1 1Z"/><path fill="#EFF4FA" d="m39 25 1 1h-1Zm-2 4v-1l1 1h-1Z"/><path fill="#EAF1F8" d="m33 35-1 2 1-2Z"/><path fill="#EFF4FA" d="M44 27h-2 2Z"/><path fill="#EAF1F8" d="m34 31-1-1 1 1Z"/><path fill="#EFF4FA" d="m42 23-2 1 2-1Z"/><path fill="#ECF2F9" d="m83 65 2 1c0 1-1 2-2 1-1 0-2-1 0-2Z"/><path fill="#F3F7FB" d="m79 33-1 4-1 2c-3 0-4-1-5-4l-2 3 1 2c0 2-2 1-4 1l3 3h-7l1-2c-3-2-3-2-1-4l2-2-2-1-1-1 2-3 2 3h2v-1h2c2-1 2-1 2-3l-2-1-1-2c3-2 3-4 0-5 2-2 3-2 5 1l-1 1c-1 2 0 3 2 3l2-1-1 2-1 1v6l-1 2c2 0 2-1 2-2l1-3 2 1Z"/><path fill="#F1F5FA" d="m77 33-1 2h-1v-5l1-2 1-1 2-1 4 4c-1 1-3 2-5 1l-1 2Z"/><path fill="#F3F7FB" d="m64 25-3 1-4-2 3-2h3s-1 1 1 1v-1l1-1 3 1-2 2-2 1Z"/><path fill="#F1F5FA" d="m64 25 2-1 2-2h1c3 1 3 3 0 5 0-1 0-3-2-3l-2 3-1-1v-1Z"/><path fill="#EBF1F8" d="M87 23v-2h4l1 1-1 1-4 1v-1Zm-23-7 2 2-1 1h-1v-3Z"/><path fill="#F3F7FB" d="m74 14-1 1-3 1-1-2h5Z"/><path fill="#F1F5FA" d="M87 23v1c-1 1 0 2-2 3l1-4h1Z"/><path fill="#EFF4FA" d="m73 12 1-1h1l-1 1h-1Z"/><path fill="#F6F9FC" d="m74 19 1 1v1c-2 0-1-1-1-2Z"/><path fill="#EBF1F8" d="M87 21v-1l-1-1h1v2Z"/><path fill="#F3F7FB" d="m75 21 1 1-1-1Z"/><path fill="#F2F6FB" d="M91 21h-2l1-1 1 1Z"/><path fill="#F3F7FB" d="M70 18h1l-1 1v-1Zm-3-9 1-1-1 1Z"/><path fill="#F6F9FC" d="M76 52h-2v-1h2v1Z"/><path fill="#F3F7FB" d="M76 51h-1v-2l1 1v1Z"/><path fill="#EFF4FA" d="M80 39h1l-1 1v-1Z"/><path fill="#F3F7FB" d="M80 39v1l-1-1h1Z"/><path fill="#E8EFF7" d="m63 44 2 1c0 2 0 5-2 7l-1 1c1 2-1 3-3 4-1 1-4 0-5-1l1-1-1-1v-1h-3v-5h1l2 3 1-2c-1-3-2-5-6-5l1-4 3 2c1-1 0-3 3-3v1l1 4h6Z"/><path fill="#ECF2F9" d="M63 44h-6l-1-4 5-1-1-2c-2-1-3-3-2-5l2-3 1 1c1-1 1-3 3-2l1-1 2-2c2-1 2 1 2 2l1 2 1 1-1 1-1-1-1-2c-2 1-2 2-1 3l1 2v1h-2l-2-2-2 2h-2v1h3l2 1-2 2c-2 2-2 2 1 4l-1 2Z"/><path fill="#EAF1F8" d="M74 51v1l-2 4-2-1v-2l1-2h3Z"/><path fill="#ECF2F9" d="M56 39c-2 0-2 2-3 3l-3-2c0-1 1-2 2-1l2-1 2 1Z"/><path fill="#EAF1F8" d="M52 48h-4l-2-1h4l2 1Z"/><path fill="#F6F9FC" d="M73 51h-2l-1-3c2-1 3 0 4 1-1 0-2 0-1 2Z"/><path fill="#EAF1F8" d="m57 59-2 2-1-1 1-1h2Z"/><path fill="#FAFBFD" d="M73 51c-1-2 0-2 1-2h1v2h-3Z"/><path fill="#F2F6FB" d="M48 48h3v1c-2 1-2 1-3-1Z"/><path fill="#ECF2F9" d="m56 28 1 2h-1l-1-1 1-1Z"/><path fill="#F7F9FC" d="M64 22v1c-2 0-1-1-1-1h1Z"/><path fill="#F3F7FB" d="m65 27-1 1v-1h1Z"/><path fill="#EEF3F9" d="m42 31 1 1-1-1Z"/><path fill="#EFF4FA" d="M79 7h-1 1Z"/><path fill="#FAFBFD" d="M329 128h3l-2 3c-2-1-1-2-1-3Z"/><path fill="#F5F8FC" d="M145 127c2 1 2 3 1 5h-3c-1 0-2 1-3-1l2-3 3-1Zm-7 0h-1l-2-1h2c0-2-1-3-3-4v-1h3c1 1 3 3 2 5l-1 1Z"/><path fill="#F8FAFD" d="M134 121v1l-2-1h2Z"/><path fill="#FAFBFD" d="M264 138h1c1 1 0 2-1 2-1 1-1 0-2-2h2Z"/><path fill="#F8FBFD" d="m145 137-1 2-3 1c0-3 2-3 4-3Z"/><path fill="#FAFBFD" d="m133 121 1 1-1 3-2-1v-2l1-1h1Z"/><path fill="#F6F9FC" d="M236 132v2l-1-1 1-1Zm-8 0-1 1h-1l1-1h1Zm-1-10h-1 1Z"/><path fill="#F8FAFD" d="M286 130h-1 1Z"/><path fill="#F6F9FC" d="m132 121-1 1v-2l1 1Z"/><path fill="#F8FBFD" d="M330 123v1l-1-1 1-1Z"/><path fill="#F8FAFD" d="M315 129v1l-1-1h1Z"/><path fill="#EFF4FA" d="m68 33-1-2c-1-2-1-2 1-3l1 2 1 1 1-1c1 2 1 2-2 3h-1Z"/><path fill="#EEF3F9" d="M75 35h1c0 1 0 2-2 2l1-2Z"/><path fill="#EFF4FA" d="M66 34h2v1l-2-1Zm-3 1h-3v-1h2l1 1Z"/><path fill="#F1F5FA" d="m71 30-1-1 2 1Z"/></svg>