<svg xmlns="http://www.w3.org/2000/svg" viewBox="0 0 200.18 160.36"><defs><style>.cls-2{fill:#5b453e}.cls-4{fill:#0a0807}.cls-5{fill:#161312}.cls-6{fill:#4b3a37}.cls-7{fill:#110d0c}.cls-8{fill:#a7785f}.cls-9{fill:#e9bda6}.cls-10{fill:#292320}.cls-11{fill:#403935}.cls-12{fill:#5c463f}.cls-13{fill:#040303}.cls-14{fill:#a67d67}.cls-15{fill:#666}.cls-17{fill:#3f2d28}.cls-18{fill:#86706a}.cls-19{fill:#c5c5c5}.cls-20{fill:#292625}.cls-21{fill:#2d2926}.cls-22{fill:#3d3330}.cls-23{fill:#211a19}.cls-24{fill:#464646}.cls-27{fill:#fdfdfd}</style></defs><g id="Layer_1"><path d="M158.24 160.36H39.49c0-.15 0-.31-.02-.47 1.63-.02 3.26-.06 4.9-.06h112.29c.53 0 1.06.1 1.6.15l-.02.38Zm13.63-3.5-5.6 2.7c-.5.24-1 .53-1.5.8h-1.63l-.28-.52 4.94-1.32.8-.3 3.27-1.35Z" class="cls-19"/><path d="m39.47 159.89.02.47h-4.36l.29-.5 4.05.03Z" class="cls-27"/><path d="m27.78 160.36-.02-.7 3.02.17-.55.53h-2.45Z" class="cls-19"/><path d="m162.86 159.84.28.52h-4.9l.01-.38 4.61-.14Z" class="cls-27"/><path d="m35.42 159.86-.29.5h-1.36l-.27-.54 1.92.04Z" class="cls-19"/><path d="m30.23 160.36.55-.53 1.27.02.09.51h-1.9Zm3.27-.54.27.54h-1.36l-.35-.5c.48 0 .96-.02 1.44-.04Z" class="cls-27"/><path d="m32.06 159.87.35.5h-.27l-.09-.52v.02Z" class="cls-19"/><path d="m26.76 118.9-.1-1.63.3-.27 9.8-.09 2.75-.07 3.53-.02c.2.06.41.19.62.19 5.6 0 11.19-.03 16.78-.04l.57.02.96.04v-.59H61l-.49-.04-1.14-.5c-.41-.71-2.86-1.88-3.67-1.73-.06.01-.1.14-.15.21l-.87-.06-.68-.3-.33-.4c-.56-1.18-2.13-1.84-3.22-1.35l-1.03-.52c-.13-1-1.86-2.11-2.83-1.82-.05.01-.06.15-.1.24l-.71-.33-.3-.48-.3-1.06.02-.03 1.13-.02c1.63 1 3.2 2.14 4.91 3a80.76 80.76 0 0 0 6.66 2.87c1.73.68 3.51 1.2 5.27 1.8l.26.42c.06-.04.19-.12.18-.13l-.19-.31v-.27h.3l1.36.85.55.25c.66.07 1.32.16 1.98.2.96.04 1.93.04 2.9.06.37-.2.75-.38 1.13-.57.62.2 1.24.54 1.87.57 3.24.14 6.5.3 9.74.27 5.78-.05 11.56-.23 17.34-.35a3129 3129 0 0 0 3.06-.06l.92.14.5.02-.51-.55c-1.06-1.05-2.59-1.76-2.7-3.54l1.28.82.62.81.62.5 1 .62.55.25c2.67.44 4.08-1.36 4.95-3.28.17-.75.31-1.52.51-2.26.14-.53.36-1.04.54-1.56l.43.3.13 1.06-.18 2.3-.86 2.12c-.94.12-1.42.65-1.4 1.61l-.22.3-.49.12.07.24.4-.25 9.05.15c1.67.03 3.33.1 5 .16.2 1.5-.92 1.17-1.7 1.17-18.77.01-37.53 0-56.3.02-.54 0-1.08.22-1.62.34h-2.13c-.44-.12-.9-.34-1.34-.34-6.36-.02-12.73-.02-19.1 0-.46 0-.92.2-1.38.3l-.78.06-3.03-.1-4.86-.01c-2.15 0-3.25 1.09-3.3 3.27l1.09.28c1.95.03 3.9.1 5.84.1 7.45-.03 14.89-.1 22.33-.1 41.08-.02 82.16-.02 123.23-.02l.57.01.28.55-.02.81-.54.3c-.44-.1-.87-.28-1.3-.29-2.45-.03-4.9-.02-7.35 0-.38 0-.76.18-1.15.27h-8.15c-.44-.1-.87-.27-1.31-.27l-38.98.02-1.18.01c-1.89 0-3.78-.03-5.66.01-.4 0-.78.26-1.17.4-.15.61-.44 1.22-.43 1.82.03 1.33.2 2.65.31 3.98v23.18l-.18.44.38-.13 5.16.08.28.29v.96c-.63.02-1.27.05-1.9.05-17.63 0-35.25 0-52.88.02-.54 0-1.08.21-1.62.33h-1.03c-.45-.12-.9-.33-1.36-.33-6.53-.03-13.06-.03-19.6 0-.47 0-.94.16-1.4.26H28.92l-.6.24-1.3-.01a.3.3 0 0 0-.26 0v-.79l.65-.68 2.3-.27.48-.03h1.16l1.58.05 1.13.03h2.14c1.17 0 2.35.02 3.52.04.53.08 1.07.24 1.6.24 6.64.02 13.28.02 19.92 0 .38 0 .76-.27 1.15-.4.1-.57.3-1.13.3-1.68.02-8.43 0-16.85.02-25.27 0-.49.06-.98.1-1.48.84-.12.92.37.94 1.05.04 1.28.18 2.56.28 3.84l-.03 3v17.18l.25 3.34c.15.15.3.42.45.43 2.04.01 4.08.01 6.11-.02.55-.01 1.1-.15 1.65-.23l.51-.16c.46 0 .9-.03 1.36-.03h38.7c.88.2.76-.46.76-.93l.01-27.37c0-1.04-.44-1.47-1.47-1.47-13.2.03-26.39.03-39.58.04l-10.35.2-.87.18H42.2l-2.14-.08h-.59l-11.95-.1a.3.3 0 0 0-.05-.19c-.09-1.12-.14-2.23-.27-3.34-.05-.38-.3-.73-.44-1.1h-.01Zm5.3 40.97-.01-.02-1.27-.02-3.02-.18-.63-.26-.45-.42.1-.84 1.57.04h.52l4.65-.01 6.53.02c29.82 0 59.65.02 89.47-.01 11.75-.02 23.5-.17 35.25-.26l.84-.17.52-.11 1.65-.5 3.64-1.8.7-.44 2.14-1.5.3 1.2v.31l-2.69 1.97-3.27 1.35-.8.3-4.94 1.32-4.6.14c-.54-.05-1.07-.14-1.6-.14H44.36c-1.63 0-3.26.03-4.88.05-1.36 0-2.71-.02-4.06-.03l-1.92-.03c-.48 0-.96.02-1.44.04Z" class="cls-13"/><path d="m181.67 122.46-.28-.55c.18-.96.4-1.91.5-2.88.01-.2-.5-.45-.77-.68-5.09 0-10.18 0-15.26-.02h-.53c-3.75.03-7.5.07-11.26.06-5.87 0-11.75-.03-17.63-.05h-1.62l-4.36-.05-.3-1.9 2.4-1.09 1.18-.72.29-.3 1.02-3.05v-.51l.91-2.14.55-1.53.23-.13.44-.64 1.21-2.08.2-.33c.04-.8.1-1.59.15-2.38.13-.25.37-.5.38-.76a95.7 95.7 0 0 0 0-4.55c0-.25-.25-.5-.38-.76l-.22-2.13.94-.02.7 1.39.04.78-.3.11.31.19.17 5.2-.22.49-.16.91.8-.62.34-.72 1.01-.53 1.63.72c.08.03.14.1.16.18l-.09.63.12.6.1.06.12-.03.07.75-.17 1.07v2.47l-.03 2.17-.22 1.1.14.8-.1.48-.5 1.53-1 1.78-.46.61-.65.75c-.24.1-.47.22-.7.33l-.46.7.7.06h22.73c.43 0 .86-.27 1.3-.4l.04-.03c1.03-1.13.95-2.5.83-3.88l.1-1.1.44-3.27c.23.33.67.67.67 1a40.63 40.63 0 0 1-.27 4.56c-.4 3.18-.44 3.21 2.83 3.15.8-.01 1.58-.35 2.36-.54l1.1-.25.2.41c.22.12.44.34.65.34 2.35.02 4.69.02 7.03 0 .21 0 .42-.24.63-.36l.35-.88.27-.03.56-.25-.46-.33-.14-1.9.08-1.3.13.03.1-.07.1-.59-.15-2.99v-4.37l-.16-2.45-.04-.44-.43-.6-.06-.72.27-1.46-.18-1.96.02-1.34 5.44 1.16-.6.46-.52.2c-.81-.25-1.63-.49-2.44-.72l-.4-.22v.43l.3 4.64-.3.12.32.2.06 9.52-.03.54-.03.53-.32.2.3.12-.69 7.02c-1 .84-.55 1.91-.44 2.93.03.07.01.12-.05.16l-.64-.04ZM142.72 108v-5.46l-.02-.65-.55.3-3.5 5.25-.32.74c-1.71 1.14-2.19 3.02-2.63 4.8-.24.99.02 2.18.3 3.22.22.79 1.01 1.02 1.79.6 3.15-1.7 4.92-4.26 4.88-7.94l.05-.86Zm-10.9 8.82.1.57c.8.04 1.61.15 2.4.1.33-.03.82-.4.88-.68.08-.3-.17-.81-.44-1.03-.23-.2-.76-.24-1.04-.11-.67.3-1.27.76-1.9 1.15Z" class="cls-4"/><path d="m71.38 10.66 2.64-2.27 1.7-.48 1.9.02.9.17.47.12 1.1.49 1.02.67c.38 1.2 1.03 1.21 2.05.64 2.26-1.27 4.58-2.42 6.87-3.61l.44.45-3.37 2-.77.41-1.13.72a.51.51 0 0 1-.2.12l-.61.44-.51.35-.75.9.83 2.4-1.67-.06c-.4-.84-.73-1.73-1.21-2.52-1.54-2.5-5.6-2.97-7.71-.95-4.2 4.03-1.16 9.35 2.34 10.35l.82.23.53.33 1.1.21-.01.09.24.22-.01.52-.5.48-.79-.05-1.55-.57-1.2-.15-.4-.1.12.4-.36.8-.18.26-.1.28-.18.27-.1.28-.17.26-.1.27-.72 1.65-.96 3.28-.1.56c-.25 1.45-.5 2.9-.73 4.35l-.05.58-.21 3.5v.87l.4 4.47c.01.24.04.47.06.7L72 49.42l.46 1.02.68 1.16c.06.06.1.13.12.22l.49.58 1.14-.08.08.44a.17.17 0 0 1-.1.13l-.5.34.45.54 1.4 1.4.86.73 1.03.69 1.77.88.73.36c1.12.53 2.2 1.16 3.37 1.56.82.28 1.75.24 2.63.34l.53.08.82.22.57-.11.24.16.92 1.04-2.03-.17c-.71-.06-1.42-.1-2.14-.15l-.52-.1-3.96-1.43c-1.03-.3-1.35.26-1.38 1.16l-.48.9c-.33.47-.75.89-.96 1.4a78.94 78.94 0 0 0-1.96 5.2C73.64 75.96 71.01 84 68.5 92.06c-.41 1.32-.31 2.8-.45 4.2l-.06.54-.44.84h-.82v-.56c1.3-9.5 4.72-18.4 7.9-27.35 1.22-3.4 2.6-6.76 3.83-10.16.15-.41.1-1.17-.17-1.41-1.71-1.53-3.52-2.96-5.3-4.42-.17-.37-.36-.73-.54-1.1l-1.7-3.45-.4-.66-.36-1.04-.18-.31-.62-1.9-.15-.56-.13-.27-.01-.52-.24-2.2-.05-1.05v-2.26l.06-1.33c.1-.42.25-.84.3-1.26.51-4.91 1.39-9.7 4.13-13.95l.04-.66c-.07-.07-.15-.08-.24-.02l-1.5-1.6c-.15-.18-.3-.37-.44-.57a.34.34 0 0 1-.13-.2l-.8-1.92-.1-.46.28-3.7.77-1.5.4-.59Z" class="cls-7"/><path d="m139.46 93.27-.94.02-.39-1.66-.1-.55-.06-.42-.8-2.58-.61-1.94-.21-.67-1.64-3.98-.5-1.2c-.17-.6-.28-1.22-.52-1.8-2.1-5.23-4.25-10.45-6.3-15.71-.44-1.11-.85-1.45-2.08-1.08-1.52.47-3.15.6-4.74.87l-.13-.59c.33-.11.66-.3 1-.33a18.4 18.4 0 0 0 7.56-2.33c1.24-.73 2.26-1.84 3.38-2.78l2.53-2.77.45-.6a.53.53 0 0 1 .12-.22l.4-.61 1.05-2.1.61-.6h.79c-.23.62-.4 1.28-.7 1.87-.62 1.22-1.31 2.4-1.98 3.6l-2.51 2.61-1.08.9-.57.43a.3.3 0 0 1-.2.14l-1.52.79.1.49 2.21.18.49.1c.18.11.35.27.54.33 2.98.93 6 1.74 8.92 2.8 1.93.7 3.74 1.75 5.6 2.65.09.01.16.05.21.12l.62.42a326.63 326.63 0 0 1 .81.55.3.3 0 0 1 .2.13l.6.43c.08.02.15.07.2.15l.9.66.48.38.87.71 1.63 1.65.87 1.63-.01 1.09v1.43l.15.76.37 1.36v.81l-.27.58-.53.54c-.77.27-1.53.63-2.33.78-2.85.52-5.7.97-8.55 1.45l-3.6-.04-1.06-.13-1.11-.15c-.37 0-.73-.02-1.09-.03l-.69.13.67 1.24.22.56c.12.64.13 1.34.4 1.92 1.1 2.42 1.52 5 1.87 7.6Zm-11.02-31.61c.25.85.34 1.29.5 1.7 1.9 4.71 3.9 9.38 5.65 14.14.7 1.88 1.98 2.6 3.7 2.88 1.08.18 2.18.17 3.24.36 2.11.37 3.64-.57 4.99-2.03.21-.23.43-.47.68-.66 3.06-2.26 3.7-1.8 5.15.5.16.25.79.5.93.4.3-.23.6-.7.57-1.05-.06-.94-.52-1.9-.42-2.8.2-1.74-.6-2.83-1.83-3.83a41.48 41.48 0 0 0-17.79-8.67c-1.66-.35-3.35-.6-5.36-.94Zm23.45 17.92.2-.49c-.59-.55-1.1-1.35-1.8-1.6-1.17-.43-3.89 1.68-4.2 3.2l5.8-1.11Z" class="cls-5"/><path d="M47.82 69.6c.06.05.1.13.12.21l.7 1.15c.07.06.1.13.12.21l.7 1.16c.06.05.1.12.12.2l.7 1.16c.07.05.1.12.12.2l.4.62.43.73.4.63c.06.06.1.13.12.22l.4.6c.14.25.3.49.45.73l.41.63c.06.05.1.12.12.2l.4.62a.4.4 0 0 1 .13.21l.4.61c.08.06.12.13.14.21l.4.61c.08.06.12.13.14.22l.42.6c.07.05.11.13.13.21l.4.61a.4.4 0 0 1 .14.22l.41.6c.07.05.12.12.14.2l.42.61c.07.06.11.12.13.2l.43.62c.06.05.1.11.12.2l.42.61c.07.05.11.12.13.2l.64.91c.08.06.13.13.15.22l.42.59a.4.4 0 0 1 .14.2l.43.61a.3.3 0 0 1 .13.2l.65.9c.07.06.12.13.15.21V90l.25 2.21c-.38-.42-.77-.82-1.13-1.25l-2.41-2.84-.22-.79c-1-1.5-2-2.99-2.97-4.5-2.4-3.8-4.75-7.6-7.16-11.38-.28-.43-.38-1.4-1.33-.8l-.3-.31c.88-1.57-.7-1.9-1.35-2.7l.13-.81c-2.26-3.1-4.36-6.33-6.86-9.21-1.13-1.32-2.96-2.2-4.64-2.85-2.43-.93-6.05.5-7.15 2.5-.1 0-.21 0-.32-.02l.03-.49-.25-.01-.28.53v-.01l-4.33 4.38.02.24.77-.02v.3c-.58.37-1.4.59-1.7 1.11-2.23 3.83-3.5 7.93-2.73 12.41.36 2.06.98 4.08 1.48 6.12l-1.12-.03c-.15-.1-.3-.18-.46-.27l-.18-.5-.99-3.28-.1-.47-.2-1.24-.1-.77-.01-3.78.1-.76 1.6-5.6.55-1.21.33-.62.43-.76.38-.61 1.77-2.39.71-.83 1.08-1.13L23.74 56l.5-.38 1.41-.97c.06-.07.13-.1.22-.12 1.5-.44 2.99-.96 4.52-1.28 2.1-.44 3.95.56 5.83 1.28.09.02.16.07.21.14l.9.67 1.03.9 1.31 1.34.9 1.06.68.87c.07.05.12.11.15.2l.46.6.36.5.43.6c.07.04.1.11.13.2l.43.6c.06.05.1.12.12.2l.98 1.44.65 1.02.39.63c.07.06.11.13.13.22l.71 1.14.93 1.58.7 1.15Z" class="cls-7"/><path d="M90.03 6.4c-2.3 1.2-4.61 2.35-6.87 3.62-1.02.57-1.67.55-2.05-.64.86.6 1.54.35 2.37-.23a34.44 34.44 0 0 1 18.05-6.12c7.11-.41 13.92.69 20.28 4.02 1.36.7 2.62 1.62 3.88 2.5.55.4.92.48 1.55.07 2.54-1.7 4.86-1.45 7.19.6 2.72 2.37 4.55 7.55 2.06 11.1-.2.3-.23.9-.06 1.24a37.13 37.13 0 0 1 4 16.4c0 .07.07.15.16.37 2.66.05 5.34-.85 8.06-.67l.05.59-8.2 1.08-.17-.16.16-.2.12-.06-.12.01-.6-2.8-.15-1.12-.13-1.6-.13-.58c-.32-3.76-1.92-7.1-3.47-10.42-.43-.94-.4-1.7.03-2.47 1.82-3.15 1.19-6.07-.76-8.86-1.75-2.51-4.65-3.47-6.96-2.47-1.05.45-2.15.76-3.23 1.14a.55.55 0 0 0-.18-.11c.05-1.6-1.19-1.93-2.33-2.35l-.42-.11-.62-.6-2.99-1.35c-.31-.16-.61-.37-.95-.5A40.36 40.36 0 0 0 96.36 4.2c-2.17.41-4.22 1.45-6.32 2.2Z" class="cls-15"/><path d="m174.56 154.59-.3-1.2 3.6-3.93.73-.94c0-.08.03-.12.1-.15l2.07-3.13c-.01-.07.02-.12.08-.15.23-.19.55-.33.66-.57.84-1.69 1.64-3.4 2.42-5.11.1-.24-.01-.57-.02-.85l1.27-4.1c.55-2.26 1.14-4.52 1.63-6.79.16-.7.06-1.47.08-2.2l.07-.53.2-1.39.06-.52.48-4.11.04-.53.24-3.29.03-.8c.15-.25.42-.49.42-.73.04-2.26.04-4.52 0-6.77 0-.25-.27-.49-.42-.73l-.02-.53a13.1 13.1 0 0 0-.63-6.8l-.14-1.1 1.16.02.37.8.16 1.38.12 1.14.17 1.58.09 1.08.2 4.37v4.07l-.2 4.92-.09 1.08-.17 1.92-.12 1.08-.13 1.03-.2 1.52-.1.73-.19 1.18-.1.74-.2 1.15-.07.48-.16.9-.13.74-.13.64-.39 1.74-.15.72-2.2 7.9-.3.74c-.1.2-.18.41-.27.62-.4.78-.78 1.57-1.17 2.36l-.66 1.21-.73 1.23c-.07.01-.1.06-.1.13l-.43.7c-.07.01-.1.06-.1.13-.14.23-.3.45-.45.68-.07.02-.1.06-.09.13l-.48.67-.32.43-.5.66-.83 1.01-.54.62-1.87 1.9-1.35.82Z" class="cls-7"/><path d="M64.03 129.55c-.1-1.28-.24-2.56-.28-3.84-.02-.69-.1-1.18-.94-1.05l-.21-.55-.2-.58 10.36-.2-.06.44c-.02.54-.05 1.08-.06 1.63l-.04 27.36-.13.49c-.55.08-1.1.21-1.65.22-2.04.04-4.08.04-6.12.02-.15 0-.3-.28-.45-.43l.33-.12c1.85.02 3.7.02 5.56.07.74.02.92-.32.92-.99L71 129.6c.02-1.63.02-3.26.06-4.89.02-.7-.27-.96-.96-.94-1.54.02-3.08.05-4.61-.01-.96-.04-1.24.3-1.24 1.24 0 1.52-.14 3.04-.22 4.56Zm107.81-12.83c-.79.19-1.57.52-2.36.54-3.27.06-3.23.03-2.84-3.15.2-1.51.26-3.04.28-4.56 0-.33-.44-.67-.68-1h-.28l-.02-1.26-.05-.89.13-.26.04-3.65-.11-2.4-.17-4.43.01-.02 2.33.3.47.06.61.21 2.88.74 1.18 1.24.05.43.24 2.84.04.43.45 2.85a.99.99 0 0 1-.18.2l-.16 6.05-.14 1.32-.37.61-1.21.82v-8.22c-1.33.4-2.64.74-3.9 1.18-.25.09-.5.54-.52.84-.24 3.01-.43 6.03-.66 9.24.95 0 1.99-.08 3 .02.92.1 1.45-.23 1.76-1.05l.18.97ZM167.66 106c1.34-.4 2.4-.74 3.48-1 .74-.19 1.06-.57 1-1.35-.12-1.44-.16-2.9-.33-4.33-.04-.38-.36-.93-.67-1.05-1.13-.4-2.32-.65-3.48-.96V106Z" class="cls-10"/><path d="M17.17 81.78c.38 0 .75.02 1.12.03l2.68 4.33.01.33c.36.66.65 1.36 1.08 1.96.24.34.72.5 1.09.75l.52.28c.25.56.37 1.25.78 1.65 1.88 1.86 3.83 3.64 5.76 5.45l.58.52c1.29 1.1 2.57 2.22 3.87 3.32 1.6 1.35 3.23 2.68 4.85 4.02l-.03.04-1.36.31-.74-.46-.57-.43-.52-.38-.58-.43-.51-.38-.58-.44-.5-.4-.57-.43-2.17-1.72-.55-.46-1.09-.89-.54-.48-2.18-1.97-1.6-1.58-2.24-2.45-.7-.85-2.03-2.7-.39-.58-.15-.23-.38-.59-2.41-4.51.05-.63ZM61 92.21 60.73 90l.43.05.65 1.04-.42.23.61.34.52.3c.06.06.1.12.13.2l.67.9a.4.4 0 0 1 .13.2l.45.6.25.45-.3.37.45.2c.13.04.27.06.4.09l.37.5.45.59.05.07.57 1.05.57.45h.82l.23 1.36-.06 1.62c-.15.25-.4.5-.42.75-.39 5.08.9 9.7 3.81 13.88.24.35.37.78.54 1.18l-1.12.56c-.05-.26-.01-.58-.15-.77-2.95-3.8-4.15-8.2-4.48-12.9-.02-.34-.33-.93-.54-.94-1.62-.1-3.25-.08-4.88-.1l-.37.05-3.99-.08v-.51h1.48c1.6 0 2.46-.81 2.61-2.45h.37c.15.8-.65 2.02.97 2.15l4.48.36c.63-2.71-1.04-4.1-2.48-5.57l-.89-1.61-.83-.52-.83-1.88Z" class="cls-4"/><path d="m66.15 97.18-.57-1.05c.3-.2.85-.34.89-.58 2.28-12.23 6.9-23.7 11.34-35.23.48-1.25.4-1.86-.82-2.58a17.08 17.08 0 0 1-3.4-2.9c-.67-.68-1.17-.73-2-.32-2.18 1.1-4.41 2.12-6.63 3.15-.38.18-.78.28-1.35.49.5-1.09 4.67-3.3 8.18-4.53l.16.13.5-.04v.01h.54c1.77 1.47 3.58 2.9 5.29 4.42.27.25.32 1 .17 1.42-1.23 3.4-2.6 6.75-3.82 10.16-3.2 8.95-6.62 17.84-7.91 27.35l-.57.1Zm99.63-1.52.17 4.43-.45-1.26-.99.2c-3.37.56-4.74-.02-6.28-3.1-.97-1.94-1.66-4.03-2.4-6.08-.92-2.56-1.73-5.16-2.65-7.73-.13-.38-.66-.95-.93-.9-2.9.42-5.8.96-8.7 1.46l.3-.52c2.85-.47 5.7-.92 8.55-1.45.8-.14 1.56-.5 2.33-.77l-1 1c1.38 4.1 2.73 8.18 4.14 12.25.36 1.02.88 2 1.43 2.93 1.28 2.21 2.54 2.7 5 2.1.82-.2 1.3-.54 1.18-1.5-.04-.33.2-.7.3-1.06ZM135.65 55.1c.67-1.19 1.36-2.37 1.98-3.59.3-.59.47-1.25.7-1.88l.83-1.94c1.13-.33-.16-.94.15-1.36l.42-2.96.11-.59.5-2.6.16.15c-.23 2.02-.52 4.03-.66 6.05-.03.4.48.84.74 1.26l-.12.18.17-.14c2.33.71 6.3 3.23 6.71 4.5l-7.7-4.27c-.69 1.59-1.19 3-1.9 4.3-.56 1.04-1.38 1.94-2.1 2.9Z" class="cls-15"/><path d="M62.39 153.08c-.38.14-.76.4-1.14.4-6.64.03-13.29.03-19.93 0-.53 0-1.06-.15-1.6-.24a.4.4 0 0 0 .05-.2l21.28-.05c.45 0 .9.05 1.34.09Z" class="cls-11"/><path d="m60.44 116.97-16.78.04c-.2 0-.41-.13-.62-.2.48-.06.96-.17 1.44-.17 4.4-.02 8.8 0 13.2-.04.37 0 1.24.47 1.07-.62l.63-.08 1.14.5-.08.57Zm12.65-95.09c-2.75 4.24-3.62 9.04-4.14 13.94-.05.43-.2.85-.3 1.27.3-2.68.29-5.44.98-8 .74-2.73 2.15-5.27 3.26-7.9.09-.05.16-.05.23.03l-.03.66Zm-6.35 23.75-8.31 1.53c.74-1.11 4.93-2 8.31-2.12v.58Zm107.3 59.11-.45-2.85.55 2.15 6.29-3.03.18.62-6.57 3.11Zm-26.41-38.21c-1.86-.9-3.67-1.95-5.6-2.65-2.93-1.06-5.95-1.87-8.92-2.8-.2-.06-.36-.22-.54-.33.7.08 1.42.1 2.11.26a44.1 44.1 0 0 1 11.7 4.56c.46.25.84.64 1.25.96Z" class="cls-15"/><path d="m40.47 106.43-.98-.6.07-.28-.08-1.09.03-.03 1.87.64.56.48 3.28 2.44v.28l-.03.03c-.47-.13-.93-.27-1.4-.37-.25-.05-.52-.04-.78-.05l-.26.13-1.4-.98c.16-.87-.18-1-.88-.6Z" class="cls-13"/><path d="m70.73 49.2 1.71 3.44v1.1l.01-.02-.5.04-.16-.13c.06-.2.23-.46.17-.6-1.08-2.56-2.18-5.1-3.28-7.63l.5-.13.62 1.9.18.31.36 1.04.39.67Zm-34.51 5.35c-1.88-.73-3.73-1.72-5.83-1.29-1.53.32-3.02.85-4.52 1.28 2.65-2.32 7.87-2.32 10.35 0Z" class="cls-15"/><path d="m28.35 158.17-1.57-.04c-.07-.06-.08-.13-.03-.2l.27-3.04 1.3.02c.02 1.09.03 2.17.03 3.26Z" class="cls-7"/><path d="m187.15 96.37-5.44-1.16c.3-.18.67-.58.9-.51 1.67.47 3.32 1.04 4.97 1.57l-.43.1Z" class="cls-15"/><path d="m59.38 115.9-.63.08-1.5-.56c-.22-.1-.45-.18-.67-.27l-.68-.28-.34-.49c.05-.07.09-.2.15-.2.81-.16 3.26 1 3.67 1.72Z" class="cls-20"/><path d="m16.83 65.12-1.6 5.6 1.6-5.6Z" class="cls-15"/><path d="M50.46 112.27c1.1-.5 2.66.17 3.22 1.36l-.34.13-2.88-1.5Z" class="cls-20"/><path d="M26.76 118.9c.15.36.4.71.44 1.09.13 1.1.18 2.23.27 3.34l-.8-.6.08-3.84Z" class="cls-22"/><path d="M46.5 110.17c.03-.09.05-.23.1-.24.97-.3 2.7.83 2.83 1.82L48 111.1c-.4-.2-.78-.42-1.17-.63l-.32-.3Z" class="cls-20"/><path d="M189.48 112.08v-4.07 4.07ZM15.13 71.47v3.78-3.78Z" class="cls-15"/><path d="M43.01 107.88c.26.02.53 0 .78.06.47.1.93.24 1.4.36l.3 1.06-.57.02-.75-.44-1.16-1.06Z" class="cls-20"/><path d="m133.14 57.72 2.51-2.61-2.51 2.61Z" class="cls-15"/><path d="m29.72 153.15-2.3.27-.7.13.06-.62c.98.05 1.96.14 2.94.22Zm10.05-.12a.4.4 0 0 1-.04.21l-3.53-.04 3.57-.17Z" class="cls-19"/><path d="m70.2 12.75-.29 3.7a3.69 3.69 0 0 1 .29-3.7Zm61.88 47.9-2.21-.18-.1-.49 1.52-.78-.51.88 1.3.57ZM15.54 77.73l.99 3.29-.99-3.3Z" class="cls-15"/><path d="m27.02 154.9-.27 3.02.01-3.03a.3.3 0 0 1 .26 0Z" class="cls-11"/><path d="m187.15 96.37.43-.1.58.38.21 1-1.16-.01c-.1-.02-.15-.08-.14-.18l-.51-.63.6-.46Z" class="cls-10"/><path d="m173.56 101.46-.25-2.84.25 2.84Z" class="cls-15"/><path d="m39.5 116.84-2.75.07 2.76-.07Z" class="cls-11"/><path d="m39.48 104.47.08 1.08-.9-.27-.54-.5 1.36-.32Z" class="cls-20"/><path d="m69.18 45.27-.5.13-1.94.23v-.59l1.2-.16 1.1-.16.14.55Z" class="cls-11"/><path d="m68.64 41.73.25 2.2-.25-2.2ZM23.74 56l-1.66 1.56L23.74 56Zm1.68 38.31 1.6 1.59-1.6-1.59Zm142.71 1.62-2.34-.29 2.34.3Zm13.56.62.19 1.96-.2-1.96Z" class="cls-15"/><path d="m183.01 144.27 1.17-2.37-1.17 2.37Z" class="cls-19"/><path d="M68.6 38.42v2.26-2.26Zm104.67 59.77-1.19-1.24c.67.15 1.45.2 1.19 1.24Zm-18.25-24.82-.87-1.64.87 1.64ZM70.01 16.91l.8 1.9-.8-1.9ZM39.67 57.6l-1.3-1.35 1.3 1.34ZM75.72 7.91l-1.7.48 1.7-.48Zm112.65 89.74-.21-1 .58 1.8-.37-.8Z" class="cls-15"/><path d="m180.6 101.63-.17-.62 1.17-1.04.06.71-.28.47c-.04.07-.1.1-.17.12l-.34.23-.26.13Z" class="cls-10"/><path d="m44.3 63.86-.97-1.44.98 1.44Z" class="cls-15"/><path d="m174.56 154.59 1.35-.83-1.35 1.14v-.32Z" class="cls-19"/><path d="m25.65 54.66-1.42.97 1.42-.97Z" class="cls-15"/><path d="m26.66 122.73.8.6a.3.3 0 0 1 .06.19h-.9l.04-.79Z" class="cls-19"/><path d="M155.01 75.88v-1.43 1.43Zm-112 32 1.16 1.06-1.42-.93.26-.13Zm145.55 15.75.21-1.52-.2 1.52Zm-133-9.25.33.5c-.4-.2-.8-.37-1.2-.56l.87.06ZM155.53 78l-.36-1.35.36 1.35Z" class="cls-15"/><path d="m34.06 153.2-1.13-.02 1.13.02Z" class="cls-19"/><path d="m80.1 8.7-1.11-.48 1.1.49ZM48.65 70.96l-.7-1.15.7 1.15Zm.8 1.37-.69-1.16.7 1.16Zm.83 1.36-.7-1.15.7 1.15Z" class="cls-15"/><path d="M40.47 106.43c.7-.4 1.04-.27.87.6l-.87-.6Z" class="cls-20"/><path d="m46.83 110.47 1.16.64-1.16-.64Zm142.19-9.49-.12-1.15.12 1.15ZM15.24 76.02l.2 1.24-.2-1.24Zm174.04 27.62-.1-1.08.1 1.08Z" class="cls-15"/><path d="M59.9 123.7h1.12-1.12Z" class="cls-19"/><path d="m47.82 69.6-.7-1.15.7 1.15Zm141.08 51.48.12-1.08-.12 1.08ZM46.2 66.87Z" class="cls-15"/><path d="M42.2 123.7h1.12-1.12Zm3.27 0h1.12-1.12Zm1.9 0h1.13-1.13Zm1.91 0h1.12-1.12Zm1.91 0h1.12-1.12Zm6.81 0h1.12-1.13Z" class="cls-19"/><path d="m188.28 125.54.19-1.18-.19 1.18Zm-.3 1.88.2-1.15-.2 1.16Zm1.22-9.34.08-1.08-.09 1.08Z" class="cls-15"/><path d="m181.62 146.7.73-1.22-.73 1.23Zm-150.26 6.42H30.2h1.15Z" class="cls-19"/><path d="m152.52 70.09-.87-.72.87.72ZM63.33 93.06l-.67-.9.67.9ZM21 58.69l-.7.83.7-.83Zm1.49 32.33.69.85-.7-.85Z" class="cls-15"/><path d="m62.4 123.53.2.58-1.07-.4.87-.18Z" class="cls-19"/><path d="m58.68 86.52-.65-.91.65.91ZM37.33 55.35l-.9-.67.9.67ZM151.16 69l-.88-.67.88.67ZM60.6 89.24l-.66-.9.65.9ZM41.25 59.52l-.68-.87.68.87Z" class="cls-15"/><path d="m62.01 91.66-.6-.34.4-.23.3.25-.1.32Z" class="cls-20"/><path d="m26.71 153.55.7-.13-.65.69-.05-.56Z" class="cls-11"/><path d="m78.52 8.1-.9-.17.9.17Zm109.23 120.72.16-.9-.16.9ZM17.17 81.78l-.05.63-.4-.9.45.27Zm51.86-37.06-1.09.16.96-.43.13.27Zm-24.11 64.66.57-.02.3.49-.87-.47Zm-6.26-4.1.9.27-.07.27-.83-.54Zm111.4-37.09-.59-.43.6.42Zm-.79-.57-.61-.42.61.42ZM71.38 10.66l-.42.59.42-.59Zm-.43 8.37.43.57-.43-.57Zm77.51 48.04-.62-.42.62.42ZM45.35 65.51l-.4-.62.4.62ZM17.7 63.28c-.1.2-.2.41-.32.62l.33-.62Z" class="cls-15"/><path d="M39.47 123.62h.59-.59Zm4.91.08h.58-.58Z" class="cls-19"/><path d="m169.2 96.21-.61-.21.62.21Zm-103.67-.15-.45-.6.45.6Zm-34.7 3.18.55.46-.55-.46Zm33.88-4.27-.4-.08-.02-.54.42.62Z" class="cls-15"/><path d="m64.28 94.35.03.54-.46-.21.3-.37.08-.03.06.07Z" class="cls-20"/><path d="m63.9 93.87-.44-.6.45.6ZM18.52 61.9l-.38.62.38-.61Zm24.68.33-.42-.61.43.6Zm-9.65 39.19.56.44-.56-.44Zm9.1-40-.43-.6.43.6Zm19.36 30.24.1-.31.42.62-.52-.3ZM41.86 60.32l-.46-.6.46.6Zm89.64-1.27.56-.43-.57.43Zm-96.87 43.2.57.44-.58-.44Zm1.07.82.59.43-.58-.43Zm1.1.81.58.43-.57-.43Zm24.37-13.83-.43-.05v-.55l.43.6ZM187.5 130.2l.12-.65-.12.64Zm-.54 2.45.15-.72-.15.72Zm-166.9-44.9.4.58-.4-.59Zm39.75.39-.43-.6.43.6Zm-40.28-1.22Z" class="cls-15"/><path d="m184.45 141.3.3-.75-.3.74Z" class="cls-19"/><path d="m56.8 83.78-.42-.6.42.6Zm2.45 3.55-.43-.6.43.6Zm-1.35-1.92-.42-.61.43.61Zm-.54-.81-.43-.61.43.6Zm-1.12-1.63-.41-.6.41.6Z" class="cls-15"/><path d="m181.1 147.53.43-.7-.44.7Z" class="cls-19"/><path d="m55.69 82.15-.4-.6.4.6Z" class="cls-15"/><path d="m180.55 148.35.45-.68-.45.68Z" class="cls-19"/><path d="m55.16 81.33-.42-.6.42.6Z" class="cls-15"/><path d="m179.98 149.15.47-.67-.47.67Zm-.83 1.09.5-.66-.5.66Zm-1.37 1.63.54-.62-.54.62Z" class="cls-19"/><path d="m54.61 80.51-.4-.6.4.6Zm-.54-.81-.4-.62.4.61Zm101.19-.3.27-.58-.27.57ZM53.34 113.76l.34-.13.33.4-.67-.27Zm.19-34.89-.4-.62.4.62Zm3.05 36.28.67.27c-.22-.1-.45-.18-.67-.27Zm-3.57-37.1-.41-.63.41.63Zm-.87-1.35-.39-.62.4.62ZM29.2 97.87l.54.48-.54-.48Z" class="cls-15"/><path d="m26.68 158.97.45.42-.55-.01.1-.41Z" class="cls-19"/><path d="m51.62 75.87-.4-.63.4.63Z" class="cls-15"/><path d="m26.96 117-.3.27-.08-.38.38.1Z" class="cls-19"/><path d="m50.8 74.51-.4-.62.4.62Z" class="cls-15"/><path d="M167.8 158.51Z" class="cls-21"/><path d="m67.7 100.61.07-1.62.21-2.19.06-.54c.07-.12.18-.22.2-.35 1.34-8.08 4.11-15.75 6.84-23.43 1.33-3.73 2.73-7.43 4.1-11.14l.48-.9c3.8 1.08 7.56 2.3 11.4 3.22 2.88.7 5.84 1.1 8.78 1.48 2.72.37 5.35-.41 8-.92 1.68-.32 3.36-.7 5.04-1.05l-.02-.48c-7.6.33-15.1-.42-22.5-2.11l-1.58-.5-.24-.16-.58-.16-.82.05-.53-.08-6-1.9-.73-.36-1.77-.88-1.03-.68-.86-.74-1.4-1.4.05-.88a.16.16 0 0 0 .1-.13l.8-.3c.35-.1.7-.17 1.05-.28l10.83-3.82c.4-.14.77-.33 1.15-.5l-.07-.38c-.3-.03-.63-.12-.91-.06a48.97 48.97 0 0 0-12.14 4.47l-.78.44-1.15.07-.48-.58a699.64 699.64 0 0 0-.8-1.38L72 49.43l-.35-1.54-.54-2.87 1.56-.2c5.18-.22 10.36-.43 15.53-.68.2 0 .39-.22.86-.51-.63-.15-.95-.29-1.28-.29-3.47.05-6.95.06-10.41.21-1.74.08-3.46.45-5.18.68l-1.7.08-.4-4.47v-.86l.22-3.51.39-.27-.34-.31.72-4.35.43-.22-.32-.34.96-3.28.72-1.65.1-.27.18-.26.1-.28.17-.27.1-.27.19-.27.35-.8.29-.3 1.2.15 1.54.57.8.06.5.03.32.04c.28.03.68.2.8.07 1.02-.99 2-2.03 2.97-3.06.18-.19.27-.53.48-.6 1.5-.52 2.42-1.17 2.53-3.11.07-1.35-.16-1.78-1.26-2.06l-.27-.22-.82-2.4.74-.9.51-.35.6-.44a.51.51 0 0 0 .22-.12l1.13-.72.76-.4 2.74-1.04 5.89-2.28.4-.05.7-.2.39-.05L98.43 5l.42-.01 2.04-.26 2.05-.05 3.3.01 1.23.04c.32.13.62.32.94.38 1.5.27 3.02.44 4.5.77 1.96.43 3.9.98 5.85 1.47.06.04.13.07.2.07l3.28 1.7.27.2 1.71 1.24c.06.06.13.1.2.11l.91.7c.06.05.12.1.2.12.42.51.8 1.08 1.28 1.53 5.22 5 8.94 10.88 10.75 17.93.08.28.3.52.44.78l.09.46.19.9.1.74.16.9.1 1 .12 1.62-.2 2.64-4.85 1.45c-.72.14-1.43.28-1.29 1.48l1.72-1.07 4.48-1.19.17.98-.16 1.74-.16 1.1-.1.8-.11.72-.76.32c-1.44-.49-2.86-1.09-4.4-.96l-.07.37.83.2.7.2 2.96.82c.04.08.1.14.17.18l.16.6-.11.48-.81 2.04-1.04 2.1-.4.62a.54.54 0 0 0-.13.22l-.45.6-2.53 2.77c-1.24.8-2.45 1.65-3.72 2.4-2.3 1.39-4.87 1.91-7.5 2.24-.71.1-1.64.12-1.45 1.13.06.31 1.05.66 1.6.62 1.3-.08 2.63-.26 3.87-.64 1.18-.36 1.63.05 1.99 1.09.9 2.61 1.8 5.23 2.87 7.78 1.3 3.08 2.77 6.1 4.17 9.13l.5 1.2 1.64 3.97.2.68.17 1.94c-5.27 2.24-10.7 2.42-16.27 1.4A22.9 22.9 0 0 1 109 83.94l-3.36-5.1-.5-.57-1.4-1.6-.79-.84a76.17 76.17 0 0 0-13.03-11.36c-.4-.28-1.14-.08-1.72-.1-.66.24-.67.52-.06.86.26.25.5.54.78.75 2.34 1.77 4.89 3.31 7 5.32 3.5 3.33 6.76 6.92 10.03 10.48.86.94 1.61 2.1 1.26 3.57l-.33.7c-1 1.2-1.97 2.42-3.01 3.58-.24.26-.72.39-1.1.43-3.4.34-6.83.3-10.04-.93-2.81-1.07-5.47-2.53-8.2-3.83l-1.24-.12.25 1.11 1.1.78.64.4 2.63 1.5.65.37 3.65 1.33.67.22.41.08.72.23.51.11.85.16.79.11 1.11.15 5.37-.01.84-.13c1.3-.1 1.93-1.06 2.55-2.03.33-.53.6-1.2 1.44-.79 1.59 2.87 3.94 5.07 6.46 7.05 6.4 5.01 13.16 9.42 21.11 11.68.38.11.62.72.93 1.09l-.92 2.14-.44.64-.64 2.36c-4.18-.5-8.37-.98-12.54-1.5-2.9-.38-5.78-.81-8.66-1.22-.1-.27-.18-.54-.27-.82l-.12-1.05c-.4-2.54-.6-5.12-1.26-7.59-.49-1.85-2.04-2.07-3.27-.6a27.96 27.96 0 0 0-2.94 4.23c-1.02 1.8-1.8 3.71-2.7 5.58l-.36 1.07-.48.85c-1.08.08-2.15.23-3.23.24-2.83.03-5.66.03-8.5-.01-1.88-.03-3.77-.23-5.66-.24-.96 0-1.51-.34-1.92-1.18-.3-.62-.75-1.17-1.13-1.75l-.27.14.48 2.28-.18.07-1.53-2.36-.35.2.46 1.98A15.81 15.81 0 0 1 72 109.3c-1.46-.95-2.76-2.14-4.13-3.22l-.16-5.46Zm45.33-59.4.3.24.5 1.1c-.25.18-.58.31-.74.56-1.45 2.2-3.4 2.48-5.7 1.56-.31-.12-.67-.13-1.01-.19l-.15.58c.93.3 1.9.51 2.8.9.54.24 1.11.66 1.42 1.15.85 1.34 1.49 2.81 2.35 4.13.94 1.42 2.13 1.4 3-.05a23.34 23.34 0 0 0 1.86-4.06c.36-1 .64-1.86 1.85-2.05.3-.04.57-.4.85-.61-1.17-.18-2.28.2-3.2-.07-1-.3-1.83-1.2-2.73-1.84.91-.74 1.94-1.4 2.7-2.27.3-.35.25-1.41-.07-1.8-1.15-1.4-5-.83-5.9.79-.2 1.43.8 1.72 1.87 1.92Zm-16.88-4.84c.02 1.9.98 3.02 2.3 3 1.24-.04 2.12-1.12 2.07-2.69-.01-.53-.03-1.17-.32-1.56-.44-.6-1.13-1.43-1.7-1.41-.68.02-1.43.73-1.96 1.32-.34.4-.33 1.1-.39 1.34Zm34.28-.55c-.56-.93-1.06-1.9-1.73-2.74-.15-.17-1.04.06-1.43.33-1.04.73-1.23 1.86-1.04 3.04.2 1.25 1.11 2.03 2.1 1.92 1.04-.12 1.82-1.15 2.1-2.55Z" style="fill:#b48a83"/><path d="M187.07 97.46c0 .1.04.16.14.18l.14 1.1c.2 2.27.42 4.53.63 6.8l.02.53v8.22l-.03.81-.24 3.29-.04.53-.48 4.1-.06.53-.2 1.39-.07.52c-.47 2.23-.96 4.44-1.4 6.67-.16.76-.2 1.55-.3 2.33l-1.28 4.1-3.06 6.53c-.06.03-.09.08-.08.15-.7 1.04-1.38 2.09-2.07 3.13-.07.03-.1.07-.1.15l-.73.94-3.6 3.94-2.14 1.49-.7.44-3.64 1.8-1.65.5-.52.1-.84.17c-11.75.1-23.5.25-35.25.26-29.83.04-59.65.02-89.47.02l-6.53-.02h-4.65l.05-3.49h11.66c.12.04.24.13.37.13l21.74.04c.09 0 .17-.07.25-.1h1.03c.59.04 1.17.13 1.75.13l66.83-.1h23.14c.48 0 .96-.11 1.45-.17 6.48.04 12.02-2.02 16.12-7.27l.84-1.1c.2-.25.38-.5.56-.76l.74-1.2c.06-.03.1-.08.09-.15.24-.32.56-.6.7-.96 1.3-3.1 2.76-6.13 3.76-9.32.94-3 1.37-6.16 2.02-9.25l.22-1.31.12-.78c.06-.04.08-.1.05-.16l.45-2.93.69-7.02v-.32l.04-.53.03-.54-.06-9.52-.02-.32-.3-4.64.4-.21 2.44.71 1.04.44Z" style="fill:#e1b7a0"/><path d="m130.46 118.3 4.36.03h1.62c5.88.03 11.76.06 17.63.06 3.75 0 7.5-.03 11.26-.06h.53l15.26.02-.3 3.55-123.23.01c-7.44 0-14.88.08-22.33.1-1.95 0-3.9-.06-5.85-.1l-1.09-.28c.06-2.18 1.16-3.27 3.31-3.26h4.86l3.02.1.79-.06c.4.06.79.17 1.18.17 6.53.02 13.05.01 19.58 0 .35 0 .7-.08 1.06-.12h2.13c.4.04.8.13 1.2.13 18.96 0 37.92.01 56.88-.01 2.43 0 4.86-.16 7.3-.25l.83-.04Z" style="fill:#e0b69f"/><path d="m120.1 153.09-5.17-.08-.2-.31v-23.2l.1.06.09-.04 6.78.04.11-.05.04 1.95v18.55l-.25 2.83-1.5.23Z" class="cls-9"/><path d="M67.87 106.07c1.37 1.08 2.67 2.27 4.12 3.23a15.8 15.8 0 0 0 7.55 2.73l-.47-1.98.35-.2 1.54 2.37.17-.08-.47-2.28.27-.13c.38.58.83 1.13 1.13 1.75.4.83.96 1.17 1.91 1.17 1.9.01 3.78.21 5.68.24 2.83.05 5.66.04 8.49.01 1.07 0 2.15-.15 3.22-.23a3.7 3.7 0 0 0 1.61 3.24c.3.2.47.62.7.94a3129 3129 0 0 0-3.07.06c-.55-.12-1.09-.35-1.63-.35-8.33-.03-16.66-.01-24.98-.04-.57 0-1.35-.17-1.67-.55a20.42 20.42 0 0 1-4.45-9.9Z" class="cls-18"/><path d="M121.85 143.98v-3.78c.63-.88.63-5.98 0-6.86v-1.87c.68-.66.72-1.32-.04-1.96l-.11.06.04-5.74-.05-.52 1.18-.02c-.02 9.21-.03 18.42-.02 27.63 0 .34.29.67.44 1l.01.8c-.8.66-.32.83.35.84 1.7.02 3.4.02 5.1.02 1.66 0 3.33.13 4.97-.06 1.54-.17 3.12-.5 4.55-1.08 2.29-.95 4.45-2.18 6.68-3.27.3-.15.68-.18 1.03-.26l-7.5 4.5c.19.04.34.12.5.13 2.4 0 4.8.02 7.21-.01.3 0 .6-.27.9-.4.18-.04.35-.08.53-.1.45-.07.99.02 1.35-.2a115.4 115.4 0 0 0 5.84-3.66c1.04-.7 1.94-1.6 2.9-2.42l.22.28c-2.03 2.74-5.2 4.15-8.15 6.41 1.76.15 3.05.37 4.34.33.83-.02 1.66-.4 2.5-.62l.53-.13 1.11-.1 1.62-.16.83-.17c5.4-.87 9.6-3.62 12.78-8.04l.8-.29.62.04-.25 1.17-.56.76-.84 1.1c-4.1 5.25-9.64 7.31-16.12 7.27-.52-.08-1.04-.23-1.56-.23-11.73-.02-23.47-.02-35.2-.03v-.96l1.22-.53.25-2.83c.69-.56.69-1.12 0-1.67v-3.24c.67-.37.66-.75 0-1.13Z" class="cls-4"/><path d="M145.98 148.9c-.34.1-.72.12-1.03.27-2.23 1.09-4.4 2.32-6.68 3.27-1.43.59-3 .9-4.55 1.08-1.64.19-3.31.06-4.97.06-1.7 0-3.4 0-5.1-.03-.67 0-1.16-.17-.35-.83.36.13.7.38 1.06.39 3.04.03 6.08.06 9.12-.01a8 8 0 0 0 3.2-.57c3.21-1.54 6.55-2.97 9.5-4.96 8.35-5.67 13.1-14.01 16.39-23.32.04-.11 0-.26-.02-.46H123.3v28.13c-.15-.33-.44-.67-.44-1-.01-9.2 0-18.42.02-27.63 13 0 25.98-.02 38.98-.01.43 0 .87.17 1.3.26l-1.96 6.42c.4-.41.65-.91.88-1.42l2.14-4.74.14.13c-4.08 12.65-11.17 22.86-23.55 28.77l.13.42h6.16c-.3.14-.6.4-.9.4-2.4.04-4.8.02-7.2.01-.17 0-.32-.08-.5-.13l7.5-4.49.81-.54 1.94-1.22-.4-.49-1.54 1.7-.82.55Zm10.9-10.9c.46-.6 1-1.16 1.37-1.8.95-1.66 1.84-3.35 2.76-5.03l-.32-.19c-.13.15-.3.28-.39.44-1.06 1.85-2.13 3.69-3.16 5.54-.17.3-.18.69-.27 1.04-1.3.63-1.7 1.91-2.48 2.93l.43.31 2.06-3.24Zm-7.8 8.2c.1.13.22.25.34.38l1.64-1.52-.32-.36-1.67 1.5Zm3.2-3.33.47.49 1.4-1.52-.33-.31-1.55 1.34Z" class="cls-21"/><path d="m41.94 105.55-.56-.48 1.65-.63 1.17-.2c-2.05-6.1-3-12.15-2.8-18.36.05-1.08-.5-1.34-1.4-1.31-3.57.08-7.15.07-10.71.3-2.05.14-4.06.68-6.17 1.06l.55 3.53-.52-.28-.68-2.98-1.48.27-.02-.33c.44-.51 1.58-.33 1.37-1.53-.2-1.1-.2-2.25-.31-3.37-.5-5.1-.3-10.19.53-15.25l.6-3.81h-1.91l-.01-.31c.46-.16.94-.29 1.39-.47.35-.14.87-.28.98-.55.46-1.16.8-2.38 1.18-3.58h-.01c.17 0 .34 0 .5-.02l.33.02-1.44 4.05a42.5 42.5 0 0 1 13.29 2.79c2.28.86 4.53 1.8 6.79 2.71l-.13.82c-1.9-.82-3.8-1.66-5.73-2.46a36 36 0 0 0-11.77-2.96c-3.36-.2-2.64-.34-3.16 2.6-.5 2.79-.64 5.64-.97 8.46-.47 3.95.17 7.82.5 11.92 6.13-1.11 12.15-1.88 17.97-1.17.91-3.66 1.67-7.09 2.65-10.45.34-1.17 1.23-2.17 1.86-3.24l.3.3c-2.09 3.47-3.04 7.3-3.53 11.27-.27 2.2-.22 2.2 1.94 2.38.59.05 1.17.13 1.74.26 3.3.8 6.6 1.63 9.91 2.45v.53l-12.27-2.59c-1.35-.28-1.65-.08-1.59 1.32.12 2.61.17 5.25.57 7.82.5 3.28 1.33 6.52 1.94 9.4l11.63-1.76v.51c-3.3.65-6.6 1.28-9.89 1.94-.71.15-1.36.44-.73 1.37l.85 2.7-1.13.03v-.28c-.23-.94-.4-1.91-.76-2.8-.06-.14-1.04.1-1.6.18l-.91.18Z" class="cls-5"/><path d="M112.76 111c2.89.4 5.77.84 8.66 1.2 4.18.54 8.37 1.02 12.55 1.52l.06.56-.3.3-1.18.72-2.4 1.1-5.36.54-.93-.01c-1.66-.06-3.32-.13-4.99-.16-3.02-.07-6.04-.1-9.06-.15l.03-.11.21-.3 1.41-1.62.86-2.11.44-1.48Z" class="cls-18"/><path d="M60.47 102.27c1.63.02 3.26 0 4.88.1.2.01.52.6.54.93.33 4.71 1.53 9.1 4.48 12.91.14.19.1.51.15.77-.97-.02-1.94-.01-2.9-.06-.66-.03-1.32-.13-1.98-.2l-.55-.24-1.35-.85c-.1-.33-.2-.67-.32-1-.72-2.13-1.58-4.21-2.1-6.38-.48-1.95-.59-3.98-.86-5.98Z" class="cls-10"/><path d="m105.4 115.67-1.01-.62-.62-.5-.62-.81.57-3.02 1.45-3.2.48-.61 2.46-3.84c.2-.26.38-.53.56-.8l.27-.28 1.05.36.12 1 .2.56.04.54.54 8.2c-.87 1.91-2.29 3.7-4.95 3.27l-.55-.25Z" class="cls-2"/><path d="m174.29 144.26-.8.29c3.98-6.33 5.89-13.36 7.13-20.86-2.65 0-5.14.05-7.62-.02-.97-.02-1.36.32-1.74 1.23-1.83 4.45-3.59 8.93-5.74 13.22-2.97 5.93-7.48 10.56-13.09 14.1-.27.17-.5.41-.78.65.2.13.27.22.34.22l4.62.05c-.83.22-1.66.6-2.5.63-1.28.03-2.57-.18-4.33-.33 2.96-2.26 6.12-3.67 8.15-6.42l-.21-.27c-.97.81-1.87 1.71-2.9 2.42-1.9 1.29-3.87 2.49-5.85 3.66-.36.21-.9.13-1.35.19.3-.18.6-.38.92-.53a34.2 34.2 0 0 0 10-7.35c3.96-4.1 6.52-9.1 8.76-14.27.96-2.23 1.8-4.52 2.7-6.78.02.29.14.61.05.86-.62 1.79-1.25 3.58-1.96 5.34-2.15 5.3-4.7 10.38-8.68 14.6-.14.15-.15.4-.23.61.5-.14.86-.35 1.07-.66 2-2.95 4.27-5.76 5.87-8.92 2.02-3.97 3.49-8.24 5.2-12.38.37-.09.76-.26 1.14-.26 2.45-.03 4.9-.03 7.35 0 .43 0 .86.19 1.3.29a51.06 51.06 0 0 1-3.21 13.11c-1.02 2.6-2.4 5.06-3.61 7.57Z" class="cls-21"/><path d="m46.33 108.25-.84-2.71 1.73.74c3.32 1.38 6.64 2.8 9.98 4.12 1.48.6 1.56.43 1.92-1.15.23-1 .69-1.94 1.04-2.9.2.86.28 1.77.6 2.6.84 2.24 1.77 4.45 2.67 6.68v.27c-.08 0-.17 0-.25.02-1.76-.6-3.55-1.12-5.27-1.8-2.25-.88-4.5-1.8-6.66-2.87-1.7-.86-3.28-2-4.92-3Z" class="cls-17"/><path d="M120.38 154.34c11.73 0 23.47 0 35.2.02.52 0 1.04.16 1.56.24-.49.06-.97.17-1.46.17h-23.14l-66.82.1c-.58 0-1.17-.09-1.75-.14.54-.11 1.09-.33 1.63-.33 17.62-.02 35.25-.01 52.87-.02.64 0 1.27-.03 1.9-.04Z" class="cls-21"/><path d="M113.04 153.05c.04-.4.13-.81.13-1.21v-27.12c0-.26-.04-.53-.08-.96h-40.4l.07-.43 39.57-.04c1.03 0 1.48.42 1.48 1.46-.01 9.13 0 18.25-.02 27.37 0 .48.12 1.13-.75.93Z" class="cls-24"/><path d="M64.03 129.55c.08-1.52.23-3.04.22-4.56 0-.94.28-1.28 1.24-1.24 1.53.06 3.07.03 4.61 0 .7 0 .98.24.96.95-.05 1.63-.04 3.26-.06 4.89-1.85-.03-3.7-.04-5.54-.09-.7-.02-.95.26-.96.96 0 .7-.15 1.39-.23 2.09h-.26l.02-3Z" class="cls-14"/><path d="M123.86 116.93h.93c-.17.94.35 1.16 1.16 1.18 1.23.04 2.45.14 3.68.22-2.43.09-4.87.25-7.3.25-18.96.02-37.92.02-56.88.01-.4 0-.8-.09-1.2-.13.54-.12 1.08-.34 1.62-.34 18.77-.02 37.53-.01 56.29-.02.78 0 1.9.34 1.7-1.17Z" class="cls-10"/><path d="M67.87 106.07a20.42 20.42 0 0 0 4.45 9.9c.32.38 1.1.54 1.67.55 8.32.03 16.65.01 24.98.04.54 0 1.08.23 1.63.35-5.78.12-11.56.3-17.34.35-3.25.02-6.5-.13-9.75-.27-.63-.03-1.24-.37-1.87-.57-.17-.4-.3-.83-.54-1.18a20.84 20.84 0 0 1-3.81-13.88c.02-.26.27-.5.42-.75l.16 5.46Z" class="cls-20"/><path d="M171.31 123.55c-1.7 4.14-3.17 8.4-5.19 12.38-1.6 3.15-3.87 5.96-5.87 8.91-.21.32-.58.53-1.07.66.08-.2.1-.46.23-.6 3.98-4.22 6.53-9.3 8.68-14.61a126.4 126.4 0 0 0 1.97-5.34c.08-.25-.04-.57-.06-.86l-.04-.28.07-.27h1.29Z" class="cls-4"/><path d="M174.29 144.26c1.21-2.52 2.6-4.97 3.61-7.57a51.14 51.14 0 0 0 3.2-13.12l.55-.3h.54l-.22 1.32c-.18.24-.46.46-.52.73-.32 1.5-.45 3.05-.9 4.5a284.7 284.7 0 0 1-3.36 10.12c-.49 1.42-1.13 2.79-1.7 4.18 0 .07-.03.12-.09.15l-.48.03-.63-.04Z" class="cls-7"/><path d="M102.2 110.75c.9-1.87 1.7-3.79 2.7-5.59a28.1 28.1 0 0 1 2.95-4.23c1.23-1.46 2.78-1.24 3.27.6.65 2.47.86 5.06 1.25 7.6l-.43-.31-.29-3c-.2-1.11-.27-2.26-.64-3.31-.24-.7-.81-1.63-1.39-1.75-.55-.11-1.53.53-1.9 1.1-1.7 2.7-3.26 5.5-4.89 8.25-.15.25-.41.43-.62.64Z" class="cls-20"/><path d="M62.94 154.74c-.08.03-.16.1-.25.1l-21.74-.04c-.13 0-.25-.1-.37-.14.47-.1.94-.26 1.4-.26 6.54-.02 13.07-.02 19.6 0 .46 0 .91.22 1.36.33Z" class="cls-21"/><path d="M62.12 118.46c-.35.05-.7.13-1.06.13H41.48c-.4 0-.79-.12-1.18-.18.46-.1.92-.29 1.39-.29 6.36-.02 12.72-.02 19.09 0 .45 0 .9.22 1.34.34Z" class="cls-10"/><path d="M63.43 115.63c-.9-2.23-1.83-4.44-2.67-6.68-.31-.83-.4-1.74-.6-2.6l-.06-4.03.36-.05c.27 2 .38 4.04.85 5.98.53 2.17 1.4 4.25 2.11 6.38l.32 1h-.31Zm48.22-9.82.3 3c-.19.52-.4 1.03-.55 1.56-.2.75-.34 1.51-.5 2.27-.19-2.73-.36-5.46-.54-8.2.16.27.3.55.5.77.23.24.53.4.8.6Z" class="cls-7"/><path d="M103.66 116.85c-.22-.32-.38-.73-.69-.94a3.7 3.7 0 0 1-1.6-3.24c.15-.29.32-.57.48-.86l.26.55-.24.56c.11 1.78 1.64 2.49 2.7 3.54v.53l-.9-.14Z" class="cls-20"/><path d="m164.21 123.8-2.14 4.74c-.23.5-.48 1-.88 1.42l1.97-6.42h1.07c0 .1 0 .18-.02.26Z" class="cls-4"/><path d="m121.69 123.3.05.53h-6.8l-.09-.1c.4-.15.78-.4 1.17-.42 1.9-.03 3.78 0 5.67 0Z" class="cls-17"/><path d="m164.21 123.8.02-.25 5.8-.01-.08.27-5.6.12-.14-.13Z" class="cls-21"/><path d="M114.74 129.51c-.11-1.32-.29-2.64-.31-3.97-.01-.6.27-1.21.42-1.82l.09.1-.02 5.71-.1.04-.08-.06Z" class="cls-17"/><path d="m180.82 121.9.3-3.54c.27.22.78.47.76.67-.08.97-.31 1.92-.5 2.88l-.56-.01Z" class="cls-10"/><path d="m28.93 154.67-.06 3.5h-.52l-.02-3.26.6-.24Z" class="cls-17"/><path d="m101.87 112.92.24-.56c.32-.24.66-.46.93-.74.26-.26.46-.6.68-.9-.2 1-.38 2.01-.57 3.02l-1.28-.83Z" class="cls-7"/><path d="M64 137.45v-3.27h.27v3.27h-.26Zm0 5.73v-3.27h.27v3.27h-.26Zm.58 9.76-.33.12-.24-3.33h.26l.3 3.21Zm-.58-5.12v-3h.27v3h-.26Z" class="cls-14"/><path d="m39.52 118.48-3.03-.1 3.02.1Zm24.75 21.43h-.26v-2.46h.26v2.46Z" class="cls-10"/><path d="m112.76 111-.44 1.48.18-2.3.26.82ZM61 116.44h.97v.6l-.96-.05v-.55Z" class="cls-20"/><path d="m111.46 114.6-1.4 1.61c-.03-.96.45-1.5 1.4-1.62ZM64 147.82h.27v1.9h-.26v-1.9Zm.27-13.64h-.26v-1.64h.26v1.64Zm0 10.64h-.26v-1.64h.26v1.64Z" class="cls-10"/><path d="m121.6 152.85-1.22.52-.28-.29 1.5-.23Z" class="cls-14"/><path d="m28.32 121.64 1.1.28-1.1-.28Z" class="cls-10"/><path d="m104.58 116.99-.01-.53.5.55-.49-.02Z" class="cls-4"/><path d="M182.19 123.28h-.54l.02-.82c.21 0 .43.02.64.04l-.12.78Z" class="cls-10"/><path d="m63.18 115.92.25-.02c.07.1.14.2.19.31l-.19.13-.25-.42Z" class="cls-7"/><path d="m72.6 152.76.38.33-.51.16.14-.5Z" class="cls-24"/><path d="m114.73 152.7.2.31-.37.13.17-.44Z" class="cls-17"/><path d="m103.77 114.55.62.5-.62-.5Zm1.63 1.12.54.25-.54-.25Z" class="cls-7"/><path d="M61 116.44v.55l-.56-.02.08-.57.49.04Z" class="cls-11"/><path d="M65.09 116.48Z" class="cls-4"/><path d="m109.84 116.51-.03.11-.4.25-.06-.24.5-.12Z" class="cls-10"/><path d="M166.13 157.63Zm-1.35.27.84-.16-.84.16Zm6.63-2.57.71-.45-.7.45Z" class="cls-21"/><path d="m138.13 91.63.4 1.66.21 2.13v6.07l-.16 2.38-.19.33-1.21 2.08-.44.64-.23.13a53.67 53.67 0 0 1-12.9-5.6c-4.49-2.73-8.85-5.63-12.54-9.43-1.06-1.1-2.04-2.26-3.06-3.4.02-.41 0-.85.1-1.24.17-.65.44-1.27.67-1.9.43.1.92.12 1.29.34.65.4 1.18 1 1.84 1.37a28.99 28.99 0 0 0 19 3.38c2.11-.31 4.17-1.01 6.29-1.55l.77 1.64.07.43.1.54Z" style="fill:#b38a83"/><path d="M142.67 108.88c.04 3.67-1.73 6.24-4.88 7.93-.78.42-1.57.19-1.79-.6-.28-1.04-.54-2.23-.3-3.22.44-1.78.92-3.66 2.63-4.8l4.34.69Z" class="cls-2"/><path d="M108 88.62c1.02 1.14 2 2.3 3.07 3.4 3.69 3.8 8.06 6.7 12.54 9.44a53.7 53.7 0 0 0 12.9 5.59l-.55 1.52c-.3-.37-.54-.97-.92-1.08-7.95-2.26-14.7-6.67-21.11-11.69-2.53-1.98-4.87-4.18-6.46-7.04l.54-.14Z" class="cls-6"/><path d="m157.94 108.5-12.22.78-1.46.07-.2-.26.03-2.18h.29l.34 1.66 10.84-.58 1.87-.1.51.6Z" class="cls-18"/><path d="M142.71 102.55V108l-4.06-.56 3.5-5.24.56.34Z" class="cls-2"/><path d="M141.27 116.13c.46.21.91.6 1.37.6 6.9.04 13.8.03 20.7.03.5 0 1 .04 1.5.06-.44.14-.87.4-1.3.4-7.58.02-15.15 0-22.72 0l-.26-.75.7-.34Z" class="cls-15"/><path d="m142.73 83.18-.8 1.48a.86.86 0 0 1-.27.3c-2.72 1.72-3.06 4.06-1.92 6.9.33.86.29 1.86.42 2.8l-.7-1.4c-.35-2.6-.76-5.18-1.88-7.6-.26-.57-.27-1.27-.39-1.91l1.4 3.08c.3-.2.55-.31.73-.5.8-.8 1.56-1.63 2.37-2.42.3-.29.69-.5 1.04-.73Z" class="cls-22"/><path d="M129.63 118.33c-1.23-.08-2.45-.19-3.68-.22-.81-.02-1.33-.24-1.16-1.17l5.37-.54.3 1.9c-.28 0-.56.02-.83.03Z" class="cls-13"/><path d="M131.82 116.83c.63-.4 1.23-.84 1.9-1.15.28-.13.8-.08 1.03.1.27.23.52.73.45 1.04-.06.29-.55.65-.87.67-.8.06-1.6-.05-2.41-.1l-.1-.56Z" class="cls-10"/><path d="m173.4 113.45-.46 3.01-1.1.26-.17-.97.31-2 1.21-.83.2.53Z" class="cls-13"/><path d="m173.14 116.88 8.31-.02c-.2.12-.42.35-.63.36-2.34.02-4.69.02-7.03 0-.22 0-.43-.22-.65-.34Z" class="cls-15"/><path d="m138.65 107.45 4.07.56-.05.87-4.34-.69.32-.74Z" class="cls-23"/><path d="M138.74 101.5v-6.08c.13.25.38.5.38.76a93.1 93.1 0 0 1 0 4.55c0 .26-.25.5-.38.76Z" class="cls-22"/><path d="m164.88 116.8.83-3.88c.12 1.37.2 2.74-.83 3.87Zm17.22-4.63.19-3.62.15 2.99-.1.59-.1.07-.13-.03Zm-16.29-.35.15-3.28h.28l-.43 3.28Z" class="cls-15"/><path d="m134.03 114.28-.06-.56.64-2.37.45-.12-1.03 3.05Z" class="cls-20"/><path d="m182.8 119.4-.44 2.94c-.11-1.02-.56-2.09.44-2.94Z" class="cls-11"/><path d="m144.38 106.9-.29.01v-2.46h.28v2.46Z" class="cls-22"/><path d="m182.3 104.17-.17-2.44.16 2.44Zm-.5 11.81.22-2.52.15 1.9-.1.6-.27.02Z" class="cls-15"/><path d="M142.15 100.47c.82-.39 1.39-.21 1.63.72l-1.63-.72Z" class="cls-22"/><path d="M136.44 118.34h-1.62 1.62Z" class="cls-10"/><path d="m140.8 101.72-.8.62.16-.91.64.28Z" class="cls-22"/><path d="m144.06 109.09.2.26-.11.76-.3.08.21-1.1Z" class="cls-10"/><path d="m143.88 111.47-.5 1.52.5-1.52Z" class="cls-18"/><path d="m140.56 116.47.26.76-.72-.06.46-.7Z" class="cls-10"/><path d="m132.55 115.3 1.19-.72-1.19.72Z" class="cls-20"/><path d="m140.8 101.72-.64-.3.22-.5.76.08-.34.71Zm3.57 2.73h-.28l.17-1.08.11 1.08Z" class="cls-18"/><path d="m142.71 102.55-.56-.34.55-.31.01.65Z" class="cls-23"/><path d="m182.06 115.95.1-.59.47.33-.57.26Z" class="cls-10"/><path d="m187.07 97.46-1.04-.44.53-.19.51.63Z" class="cls-11"/><path d="m143.94 101.37.25 1.26-.12.03-.1-.07-.12-.6.09-.62Zm-.1 8.82.3-.08-.16.88-.14-.8Z" class="cls-18"/><path d="m182.09 101.28-.71-.13.28-.47.43.6Z" class="cls-15"/><path d="M183.59 96.3c-.13.08-.26.15-.4.21v-.42l.4.22Z" class="cls-10"/><path d="m143.85 102 .12.59-.12-.6Z" class="cls-22"/><path d="M136.74 106.92Z" class="cls-6"/><path d="m135.06 111.23-.45.12.43-.63.02.5Z" class="cls-18"/><path d="m183.57 111-.03.54.03-.54Z" class="cls-11"/><path d="m182.35 112.13.09-.59-.1.59Z" class="cls-10"/><path d="m142.38 114.78-.46.6.46-.6Z" class="cls-15"/><path d="M165.86 118.33h-.53.53Z" class="cls-10"/><path d="m183.49 101.16.02.31-.33-.19.3-.12Z" class="cls-11"/><path d="m140.2 95.44.01.3-.32-.19.3-.1Z" class="cls-22"/><path d="M183.5 112.07v.32l-.31-.12.32-.2Z" class="cls-11"/><path d="m138.4 104.2.18-.33-.19.33Z" class="cls-6"/><path d="M75.71 21.02c-3.5-1-6.55-6.32-2.34-10.35 2.11-2.02 6.17-1.55 7.7.95.5.79.83 1.68 1.23 2.52l-1.42 2.5c-.67-.72-1.31-1.48-2.02-2.16-.54-.52-1.13-1.54-1.96-.7-.8.8.28 1.3.71 1.85.63.8 1.3 1.58 1.94 2.37l-3.46 1.38-.38 1.64Z" class="cls-2"/><path d="M90.37 60.58a84.16 84.16 0 0 0 22.5 2.1l.01.5c-1.68.34-3.36.72-5.04 1.04-2.65.5-5.28 1.28-8 .92a85.4 85.4 0 0 1-8.79-1.48c-3.83-.92-7.6-2.14-11.39-3.23.03-.9.35-1.45 1.38-1.16L85 60.7l.52.1c1.13.27 2.24.6 3.38.8.75.13 1.34-.15 1.47-1.02Z" class="cls-18"/><path d="m98.85 4.97-.42.02-1.21.26-.4.04-.69.2-.4.06c-.44.08-.87.12-1.3.23l-3.96 1.08-.44-.45c2.1-.76 4.16-1.8 6.33-2.21a40.37 40.37 0 0 1 21.24 1.53c.34.12.64.32.95.5l-.89.32h-.26c-.39-.11-.77-.26-1.17-.33l-8.76-1.5-1.24-.04h-3.29c-.68 0-1.37.03-2.05.04l-2.04.25Z" class="cls-10"/><path d="M79.18 61.34c-1.37 3.71-2.77 7.41-4.1 11.14-2.73 7.68-5.5 15.35-6.84 23.43-.02.13-.13.23-.2.35.14-1.4.04-2.88.45-4.2 2.53-8.07 5.15-16.1 7.78-24.13a79.5 79.5 0 0 1 1.95-5.2c.21-.51.64-.93.96-1.4Z" class="cls-20"/><path d="m75.71 21.02.38-1.64L79.55 18l.65 1c-1.63.72-2.28 1.62-2.03 2.8l-1.11-.22c-.18-.1-.35-.22-.53-.33l-.82-.23Zm5.16-4.38 1.42-2.5 1.67.06.26.22c-.22.57-.36 1.19-.68 1.68-.5.77-1.13 1.46-1.7 2.18l-.97-1.64Z" class="cls-15"/><path d="M78.17 21.8c-.26-1.18.4-2.08 2.03-2.8l.94.86c-.29.52-.53 1.08-.88 1.55-.47.63-1.03 1.19-1.55 1.77l-.33-.04V22.1l-.23-.22.02-.09Z" class="cls-18"/><path d="M90.47 6.86c1.32-.36 2.64-.73 3.97-1.08.42-.1.86-.15 1.29-.23l-5.89 2.28-2.74 1.03 3.37-2Z" class="cls-6"/><path d="M90.37 60.58c-.13.87-.72 1.15-1.47 1.02-1.14-.2-2.25-.53-3.38-.8l2.14.15c.6.04 1.18.1 2.03.17l-.92-1.04 1.6.5Zm-9.76-2.75 6 1.9c-.88-.1-1.8-.06-2.63-.34-1.16-.4-2.25-1.03-3.37-1.56Z" class="cls-20"/><path d="M71.11 45.02c.18.95.35 1.91.54 2.86.1.52.23 1.03.35 1.54l-1.44-4.4h.55Z" class="cls-6"/><path d="M85 60.7ZM71.11 45.02h-.55l-.07-.7 1.7-.09.48.6-1.56.19ZM67.98 96.8l-.21 2.19-.23-1.35.44-.84Z" class="cls-20"/><path d="m78.11 56.59 1.77.88-1.77-.88Zm-5.24-31.54-.72 1.65.72-1.65Z" class="cls-6"/><path d="M77.1 23.05Z" class="cls-10"/><path d="M86.33 9.27 85.2 10l1.13-.72Zm-2.45 1.63-.74.9.74-.9Z" class="cls-6"/><path d="M72.44 53.73v-1.09l.55 1.1h-.55Z" class="cls-20"/><path d="M72.46 50.44Zm3.76 4.73.86.74-.86-.74Zm-1.35-2.27-.05.87-.44-.54.5-.34Z" class="cls-6"/><path d="m87.14 59.81.82-.05v.27l-.82-.22Z" class="cls-20"/><path d="M70.1 38.98v.86-.86Z" class="cls-18"/><path d="m75.78 52.45-.81.3-.08-.43.78-.43.1.56Z" class="cls-20"/><path d="M85 10.1c-.2.16-.4.3-.61.45l.6-.44Z" class="cls-6"/><path d="m76.53 21.25.53.33c-.18-.1-.35-.22-.53-.33Z" class="cls-2"/><path d="m73.09 21.88.03-.66-.03.66Z" class="cls-11"/><path d="m74.35 22.33-.29.3-.11-.4.4.1Z" class="cls-6"/><path d="M78.38 22.62v.52l-.5-.04.5-.48Z" class="cls-10"/><path d="m71.2 29.98.3.33-.42.23.11-.56Z" class="cls-18"/><path d="m66.15 97.18.57-.1v.55l-.57-.45Z" class="cls-20"/><path d="M87.97 60.03v-.27l.57.16-.57.1Z" class="cls-18"/><path d="m73.26 51.82.49.58-.49-.58Z" class="cls-6"/><path d="m70.73 49.2-.4-.68.4.67Z" class="cls-20"/><path d="m70.36 34.89.34.31-.4.27.06-.58Z" class="cls-18"/><path d="m73.15 24.52-.18.26.18-.26Z" class="cls-6"/><path d="m69.98 47.48-.18-.3.18.3Z" class="cls-20"/><path d="m73.42 23.97-.18.27.18-.27Zm.28-.54-.18.26.19-.26Z" class="cls-6"/><path d="m78.15 21.88.24.22-.24-.23Z" class="cls-10"/><path d="M128.44 61.66c2.02.35 3.7.59 5.37.94a41.49 41.49 0 0 1 17.79 8.67c1.22 1 2.02 2.1 1.83 3.83-.1.9.36 1.86.42 2.8.03.35-.27.82-.57 1.04-.14.11-.77-.14-.93-.4-1.45-2.3-2.09-2.75-5.15-.49a5.3 5.3 0 0 0-.68.66c-1.35 1.46-2.88 2.4-4.99 2.03-1.06-.19-2.16-.18-3.23-.36-1.74-.28-3.01-1-3.7-2.88-1.77-4.76-3.76-9.43-5.65-14.14-.17-.41-.26-.85-.5-1.7Z" class="cls-18"/><path d="m138.56 39.97.2-2.64-.13-1.6-.09-1-.16-.9-.1-.75-.2-.9-.08-.46c-.04-.44-.02-.9-.13-1.32-2-7.38-6-13.52-11.63-18.62-.18-.17-.47-.2-.71-.3a.47.47 0 0 1-.2-.13l-.24-.61c1.08-.38 2.18-.7 3.23-1.15 2.3-1 5.21-.03 6.96 2.48 1.95 2.78 2.58 5.71.76 8.86-.44.76-.46 1.53-.03 2.47 1.55 3.33 3.15 6.66 3.47 10.41l.13.59.13 1.6.15 1.12.6 2.8v.04c-.05.07-.1.15-.16.21l-.49 2.61-.1.59-.43 2.96-.15 1.36-.83 1.95h-.79l.2-1.44.1-.48-.15-.6a.36.36 0 0 1-.17-.18.73.73 0 0 0 .03-.26l.71-.69.1-.72.11-.8.16-1.1.16-1.74c-.05-.33-.1-.65-.17-.97l-.06-.68Zm-2.65-22.64a7.59 7.59 0 0 0-2.45-5.68c-1.21-1.13-2.62-2.02-4.4-1.22-1.14.51-1.22 1.13-.4 2.06 1.74 2 3.44 4.04 5.19 6.05.4.47.9.87 1.35 1.3.24-.65.49-1.3.7-1.97.06-.16.01-.36.01-.54Z" class="cls-7"/><path d="m137.97 90.67-.77-1.65c-2.12.54-4.18 1.24-6.3 1.55-6.68 1-13.06-.03-18.99-3.38-.66-.37-1.2-.97-1.85-1.36-.36-.23-.85-.24-1.28-.35l.22-1.56a22.89 22.89 0 0 0 11.45 5.56c5.56 1.02 11 .85 16.27-1.39h.45l.8 2.58Z" class="cls-11"/><path d="M134.2 80.3c-1.39-3.04-2.86-6.05-4.16-9.13-1.07-2.55-1.96-5.17-2.87-7.79-.36-1.03-.8-1.44-1.99-1.08-1.24.38-2.57.55-3.87.64-.55.03-1.54-.31-1.6-.63-.2-1 .74-1.03 1.45-1.12 2.63-.33 5.2-.86 7.5-2.24 1.27-.76 2.48-1.6 3.72-2.4-1.12.93-2.14 2.04-3.38 2.77a18.48 18.48 0 0 1-7.57 2.33c-.34.04-.66.22-.99.33l.13.59c1.59-.27 3.22-.4 4.74-.87 1.23-.37 1.64-.03 2.07 1.08 2.06 5.26 4.21 10.48 6.31 15.72.23.57.35 1.2.52 1.8Z" class="cls-21"/><path d="m151.9 79.58-5.82 1.11c.32-1.52 3.04-3.63 4.22-3.2.7.25 1.2 1.05 1.8 1.6l-.2.48Z" class="cls-15"/><path d="M142.72 83.19c-.05-.64-.3-.96-1.03-.89-.46.05-.95-.1-1.43-.17 1.2 0 2.4.02 3.59.03l-.3.52-.83.5Z" class="cls-22"/><path d="m136.35 85.47-1.64-3.98 1.64 3.98Zm1.39-37.27-.2 1.44-.62.6.82-2.05Zm-.57 39.88-.45.01-.17-1.95.62 1.94Z" class="cls-6"/><path d="m137 81.81-.03 1.38-.66-1.25.68-.13Zm2.19.19-1.11-.15 1.1.15Z" class="cls-22"/><path d="m138.13 91.63-.1-.55.1.55Z" class="cls-11"/><path d="m134.91 53.77.45-.6-.45.6Zm.57-.82.4-.61-.4.61Z" class="cls-6"/><path d="M45.47 70.34c-.64 1.07-1.52 2.08-1.86 3.24-.98 3.36-1.74 6.8-2.65 10.46-5.82-.72-11.84.05-17.96 1.16-.34-4.1-.98-7.97-.51-11.92.33-2.82.48-5.67.97-8.46.51-2.94-.2-2.8 3.16-2.6 4.09.23 8 1.39 11.77 2.96 1.92.8 3.82 1.64 5.73 2.46.66.8 2.24 1.13 1.35 2.7Zm10.63 31.39-11.62 1.75c-.61-2.88-1.44-6.11-1.95-9.4-.4-2.57-.44-5.2-.56-7.82-.07-1.4.24-1.6 1.6-1.31l12.26 2.59.82.28.8.3 2.4 2.84c.37.43.76.84 1.14 1.25l.83 1.88c-1.27 1.5-1.5 3.33-1.62 5.19-.15 1.64-1.02 2.46-2.6 2.45h-1.5Z" class="cls-22"/><path d="M55.83 87c-3.3-.82-6.6-1.64-9.91-2.44a11.5 11.5 0 0 0-1.74-.26c-2.16-.19-2.21-.18-1.94-2.38.5-3.97 1.44-7.8 3.53-11.28.95-.6 1.06.38 1.33.8 2.4 3.78 4.77 7.6 7.16 11.38.96 1.52 1.98 3.01 2.97 4.51l-.58-.04-.82-.29ZM44.25 66.83c-2.27-.91-4.51-1.86-6.8-2.72a42.5 42.5 0 0 0-13.28-2.8l1.44-4.04c1.1-2 4.7-3.43 7.14-2.5 1.68.64 3.5 1.53 4.65 2.84 2.5 2.9 4.59 6.12 6.85 9.22Zm-23.01-4.65h1.92l-.6 3.81a58.88 58.88 0 0 0-.53 15.25c.1 1.12.1 2.26.3 3.37.22 1.2-.92 1.02-1.36 1.53l-2.68-4.33c-.5-2.04-1.12-4.05-1.48-6.12-.78-4.48.5-8.58 2.73-12.4.3-.53 1.12-.75 1.7-1.11Z" class="cls-2"/><path d="M24.79 57.27c-.38 1.2-.72 2.41-1.18 3.58-.11.27-.63.4-.98.55-.46.18-.93.31-1.4.47l-.76.02c-.02-.08-.02-.16-.02-.25l4.34-4.38Z" class="cls-22"/><path d="m56.65 87.29.58.04.22.8-.8-.31v-.53Z" class="cls-5"/><path d="m25.28 57.25-.5.03.28-.53.25.01c0 .17-.02.33-.03.5Z" class="cls-22"/><path d="M25.31 56.76a1.82 1.82 0 0 0-.25-.01l.25.01Zm-4.86 4.89Z" class="cls-5"/><path d="m117.66 6.55.9-.33 2.98 1.35-.34.62-2.24-.78a.46.46 0 0 1-.2-.07l-.56-.51-.54-.29Z" class="cls-7"/><path d="M124.43 10.66a.38.38 0 0 1-.21-.11c-.2-.94-.9-1.16-1.7-1.25l-.29-.2-.28-.59.63-.24c1.14.43 2.38.75 2.33 2.36l-.48.03Z" class="cls-10"/><path d="m122.58 8.27-.63.25c.1.2.2.4.28.6-1.09-.58-2.18-1.14-3.27-1.7l2.24.77.96-.02.42.1Z" class="cls-6"/><path d="m139.88 37.12-.14-1.12.14 1.12Z" class="cls-21"/><path d="m124.43 10.66.48-.03c.07.02.13.06.18.11l.24.61-.9-.69Z" class="cls-6"/><path d="m122.16 8.17-.96.02.34-.62.61.6Z" class="cls-10"/><path d="m139.61 34.4-.13-.59.13.59Zm.89 5.56v-.04l.1-.01-.1.05Z" class="cls-21"/><path d="M185.18 134.46c.1-.78.14-1.57.3-2.33.44-2.23.93-4.45 1.4-6.67-.02.74.08 1.5-.07 2.2-.5 2.28-1.08 4.54-1.63 6.8ZM188 114.3v-8.23c.14.24.42.48.42.73.03 2.25.03 4.5 0 6.77 0 .24-.28.48-.42.72Z" class="cls-11"/><path d="m180.84 145.09 3.06-6.53c.01.28.12.61.02.85a183.4 183.4 0 0 1-2.41 5.11c-.12.24-.44.38-.67.57Z" class="cls-22"/><path d="m187.98 105.53-.63-6.79c.75 2.22 1.08 4.47.63 6.8Zm-.76 17.5.47-4.11-.47 4.1Z" class="cls-11"/><path d="m178.69 148.37 2.07-3.13-2.07 3.13Z" class="cls-22"/><path d="m187.73 118.39.24-3.29-.24 3.29Zm-.77 6.55.19-1.39-.2 1.39Z" class="cls-11"/><path d="m177.86 149.46.73-.94-.73.94Z" class="cls-22"/><path d="M64.27 144.82v-12.28c.08-.7.23-1.39.23-2.09.01-.69.26-.97.96-.95 1.85.05 3.7.06 5.54.09l.06 22.43c0 .67-.18 1-.92.99-1.85-.05-3.7-.05-5.56-.07l-.3-3.21v-4.91Z" class="cls-9"/><path d="m171.98 113.74-.31 2c-.31.83-.85 1.15-1.76 1.06-1.02-.1-2.05-.02-3-.02.22-3.21.41-6.23.65-9.24.03-.3.27-.75.52-.84 1.27-.44 2.57-.79 3.9-1.18v8.22Zm-4.32-7.74v-8.7c1.16.31 2.35.56 3.48.96.31.12.63.67.67 1.05.17 1.44.2 2.89.33 4.34.06.77-.26 1.15-1 1.34-1.08.26-2.14.6-3.48 1Z" class="cls-8"/><path d="m157.94 108.5-.5-.6 1.1-.12.53-.12 6.82-1.25.05.88-8 1.2Zm15.93-3.55-.16 6.04.16-6.04Zm-7.85 1.19.04-3.65-.04 3.65Zm7.38 7.31-.21-.53.37-.61c-.05.38-.1.76-.17 1.14Z" class="cls-15"/><path d="m23.66 89.46-.54-3.53c2.1-.38 4.12-.92 6.17-1.06 3.56-.23 7.14-.22 10.71-.3.9-.03 1.44.23 1.4 1.31a51.7 51.7 0 0 0 2.8 18.36l-1.17.2c-.29-.28-.55-.61-.88-.82a597.9 597.9 0 0 0-8.7-5.28c-.84-.5-1.77-.84-2.67-1.26l-.57-.52c-1.93-1.8-3.89-3.59-5.76-5.45-.4-.4-.53-1.1-.79-1.65Z" class="cls-12"/><path d="M30.79 97.08c.89.42 1.82.76 2.66 1.26 2.92 1.73 5.81 3.5 8.7 5.28.33.21.59.54.88.82l-1.65.63-1.87-.64-4.85-4.03c-1.3-1.1-2.59-2.21-3.87-3.32Z" class="cls-17"/><path d="m20.98 86.47 1.48-.27.69 2.98c-.37-.24-.85-.41-1.1-.75-.42-.6-.72-1.3-1.07-1.96Z" class="cls-21"/><path d="m30.2 96.56.59.52-.58-.52Z" class="cls-17"/><path d="m60.1 102.32.06 4.03c-.35.96-.8 1.9-1.03 2.9-.37 1.58-.45 1.74-1.93 1.15-3.34-1.32-6.65-2.74-9.98-4.12l-1.73-.74c-.63-.93.02-1.22.74-1.36 3.29-.67 6.59-1.3 9.89-1.94l3.98.08Z" class="cls-12"/><path d="M63.53 96.22c1.45 1.48 3.12 2.86 2.5 5.57l-4.49-.36c.1-.38.18-.78.32-1.14.55-1.36 1.12-2.72 1.68-4.07Z" class="cls-17"/><path d="M63.53 96.22c-.55 1.35-1.12 2.7-1.67 4.07-.14.36-.21.76-.32 1.14-1.62-.13-.82-1.36-.97-2.15.15-.56.24-1.14.45-1.67.43-1.06.2-2.5 1.63-3l.88 1.6Z" class="cls-2"/><path d="M62.65 94.6c-1.43.52-1.2 1.95-1.63 3.01-.21.53-.3 1.11-.45 1.67h-.37c.12-1.86.35-3.69 1.62-5.19l.83.52Z" class="cls-5"/><path d="m71.95 53.77.5-.05-.5.05Z" class="cls-20"/><path d="m139.16 47.7.15-1.37c-.31.42.98 1.03-.15 1.36Zm.57-4.33.11-.6-.1.6Zm.9 4.3-.17.15.12-.18.06.03Z" class="cls-21"/><path d="M41.94 105.55c.3-.06.6-.13.92-.18.55-.08 1.53-.32 1.59-.18.37.9.53 1.86.77 2.8l-3.28-2.44Z" class="cls-23"/><path d="m181.21 101.27-.34.23.34-.23Z" class="cls-15"/><path d="m109 83.92-.22 1.56c-.23.63-.5 1.25-.67 1.9-.1.4-.08.83-.1 1.24l-.54.14c-.85-.42-1.1.26-1.45.78-.61.97-1.24 1.92-2.54 2.04l-.84.12-5.37.01-1.11-.15-.8-.1-.84-.16-.52-.11-.71-.24-.4-.08-.68-.21-3.66-1.34-.64-.37-2.63-1.5-.65-.4-1.09-.78.98-.98c2.73 1.29 5.4 2.75 8.2 3.83 3.22 1.23 6.64 1.27 10.05.92.38-.04.86-.17 1.1-.43 1.04-1.16 2.01-2.38 3.01-3.57.1-.24.22-.47.33-.7.35-1.47-.4-2.63-1.27-3.58-3.27-3.56-6.53-7.14-10.03-10.47-2.1-2.01-4.65-3.56-7-5.32-.28-.22-.51-.5-.77-.76l.06-.86c.58.02 1.32-.18 1.72.1a76.08 76.08 0 0 1 13.03 11.37l.78.83 1.4 1.6.51.58 3.36 5.09Z" class="cls-23"/><path d="M114.42 42.56c.91.64 1.74 1.53 2.74 1.83.92.28 2.03-.1 3.2.07-.28.22-.54.58-.85.62-1.2.2-1.5 1.05-1.85 2.04-.5 1.4-1.1 2.8-1.87 4.07-.86 1.46-2.05 1.47-2.99.05-.87-1.32-1.5-2.8-2.35-4.13a3.3 3.3 0 0 0-1.42-1.15c-.9-.39-1.87-.6-2.8-.9l.14-.58c.34.06.7.07 1.02.2 2.3.91 4.25.63 5.7-1.58.16-.24.49-.37.74-.56l.6.02Zm-.46 1.08c-.85.68-1.72 1.31-2.52 2.02-.2.19-.38.7-.27.91.8 1.52 1.64 3.01 2.56 4.45.12.2 1.05.19 1.14.03a57.8 57.8 0 0 0 2.22-4.78c.1-.26-.17-.87-.45-1.06-.83-.58-1.76-1.05-2.67-1.57Z" class="cls-22"/><path d="M96.15 36.37c.06-.24.05-.95.4-1.33.52-.6 1.28-1.31 1.95-1.33.57-.02 1.26.81 1.7 1.4.3.4.31 1.04.33 1.57.04 1.57-.83 2.65-2.08 2.68-1.31.03-2.28-1.09-2.3-2.99Z" class="cls-4"/><path d="M103.72 110.72c-.22.3-.42.64-.68.9-.27.28-.61.5-.93.74l-.26-.55.36-1.06c.21-.22.47-.4.62-.64 1.63-2.75 3.19-5.55 4.9-8.25.36-.58 1.35-1.21 1.9-1.1.57.12 1.14 1.05 1.38 1.75.37 1.05.44 2.2.64 3.3-.26-.2-.56-.36-.79-.6-.2-.22-.34-.5-.5-.76l-.05-.54-.2-.56-.12-1-.45-.83-.6.47-.27.28-.55.8-2.47 3.84-.48.62-1.45 3.2Z" class="cls-13"/><path d="M130.43 35.82c-.28 1.4-1.06 2.43-2.1 2.55-.99.11-1.9-.67-2.1-1.92-.2-1.18 0-2.3 1.04-3.04.4-.27 1.28-.5 1.43-.32.67.83 1.17 1.8 1.73 2.73Z" class="cls-7"/><path d="M78.71 23.18c.52-.58 1.08-1.14 1.55-1.77.35-.47.6-1.03.88-1.55l.7-1.58c.57-.72 1.2-1.4 1.7-2.18.32-.5.46-1.11.68-1.68 1.11.28 1.34.7 1.27 2.06-.11 1.94-1.04 2.59-2.54 3.1-.2.08-.3.42-.47.6-.98 1.04-1.95 2.08-2.97 3.07-.12.12-.52-.04-.8-.07Z" class="cls-14"/><path d="m72.67 44.83-.48-.6c1.72-.23 3.44-.6 5.18-.68 3.47-.15 6.94-.16 10.41-.2.32-.01.65.13 1.27.28-.46.29-.65.5-.85.51-5.17.24-10.35.46-15.53.69Zm3.11 7.62-.1-.56a48.93 48.93 0 0 1 12.13-4.47c.3-.07.61.03.92.05l.06.4c-.38.16-.75.35-1.14.49-3.6 1.28-7.22 2.55-10.84 3.82-.33.11-.69.18-1.03.28Zm49.75-40.97c.24.1.53.13.71.3 5.63 5.1 9.63 11.24 11.63 18.62.11.42.09.88.13 1.32-.15-.26-.37-.5-.44-.78-1.8-7.05-5.53-12.94-10.76-17.93-.47-.46-.85-1.02-1.28-1.53Z" class="cls-6"/><path d="m114.42 42.56-.59-.02-.5-1.09c1.22.17 2.27-.17 2.9-1.23.2-.33.16-1.08-.08-1.34-.47-.5-3.39-.1-4.04.4h-.95c.9-1.62 4.75-2.2 5.9-.8.31.4.36 1.46.07 1.8-.76.89-1.79 1.54-2.7 2.28Z" class="cls-10"/><path d="M112.1 39.29c.66-.52 3.58-.91 4.05-.41.24.26.29 1.01.09 1.34-.64 1.06-1.7 1.4-2.9 1.23l-.31-.25-.92-1.91Z" class="cls-2"/><path d="m118.2 6.83.56.51c-1.95-.5-3.89-1.04-5.85-1.47-1.48-.33-3-.5-4.5-.77-.33-.06-.63-.25-.94-.38l8.76 1.5c.4.07.78.22 1.17.33l.22.18.58.1Z" class="cls-6"/><path d="m138.56 39.97.06.68-4.48 1.19-.43-.41 4.85-1.46Zm-1.02 6.71c.01.09 0 .17-.02.26l-2.97-.82-.69-.2-.83-.2.07-.38c1.54-.12 2.96.48 4.4.96l.05.38Z" class="cls-21"/><path d="m112.1 39.29.93 1.91c-1.08-.2-2.07-.49-1.87-1.93l.95.02Z" class="cls-23"/><path d="M102.94 4.67Z" class="cls-6"/><path d="m133.7 41.43.44.4-1.72 1.08c-.15-1.2.57-1.34 1.29-1.48Z" class="cls-11"/><path d="m84.53 85.29-.99.98-.25-1.1 1.24.12ZM98.85 4.97l2.04-.25-2.04.26Zm23.66 4.33c.8.09 1.52.31 1.71 1.25l-1.7-1.25Zm16.29 32.33-.17 1.73.16-1.73Zm-.17-5.9ZM97.22 5.25l1.21-.26-1.21.26Zm-1.06 86.31 1.11.15-1.11-.15Z" class="cls-6"/><path d="m103.73 76.65-.78-.83.79.83Z" class="cls-11"/><path d="m102.64 91.7.84-.12-.84.12Z" class="cls-6"/><path d="m88.2 64.35-.06.86c-.61-.33-.6-.62.06-.86Z" class="cls-18"/><path d="M138.08 32.18Zm-.54 14.5-.04-.38.76-.31-.72.69Zm.93-2.2-.1.8.1-.8Zm-.09-10.66.16.9-.16-.9ZM94.52 91.3l.85.16-.85-.16Zm1.61-85.8.69-.21-.69.2Zm-2.84 85.45.71.24-.71-.24Zm-1.09-.29.68.21-.67-.21Zm-4.3-1.71.65.37-.64-.36Zm-3.26-1.9.64.41-.64-.41Z" class="cls-6"/><path d="m107.2 85.34-.32.7.33-.7Z" class="cls-18"/><path d="m137.69 47.12.16.6-.16-.6Z" class="cls-6"/><path d="m105.64 78.83-.5-.57.5.57Z" class="cls-11"/><path d="m133.86 45.92.7.2-.7-.2Z" class="cls-6"/><path d="M175.49 144.12c.57-1.4 1.21-2.76 1.7-4.18 1.17-3.36 2.33-6.72 3.37-10.12.44-1.45.57-3 .9-4.5.05-.26.33-.49.51-.73-.65 3.09-1.08 6.25-2.02 9.25-1 3.19-2.47 6.23-3.76 9.32-.15.36-.47.64-.7.96Zm-2.23 3.21.84-1.1-.84 1.1Zm1.66-3.03.48-.03-.74 1.2.26-1.17Z" class="cls-11"/><path d="m114.92 129.53.02-5.7h6.8l-.04 5.74-6.78-.04Z" class="cls-14"/><path d="M121.85 133.34c.63.88.63 5.98 0 6.86v-6.86Zm-.04-3.83c.76.64.72 1.3.04 1.96l-.04-1.96Zm.04 18.83c.69.56.69 1.12 0 1.68v-1.68Zm0-4.36c.67.38.67.75 0 1.13v-1.13Z" class="cls-21"/><path d="m164.35 123.93 5.6-.12.05.28c-.9 2.26-1.74 4.55-2.7 6.78-2.24 5.17-4.8 10.17-8.76 14.27-2.9 3-6.18 5.55-10 7.35-.32.15-.61.35-.92.53l-.53.1h-6.16l-.13-.42c12.38-5.9 19.46-16.12 23.55-28.77Z" class="cls-8"/><path d="m157.15 153.02 1.11-.1-1.1.1Zm2.73-.27.83-.16-.83.16Z" class="cls-21"/><path d="M156.87 138c.09-.35.1-.74.27-1.04 1.03-1.85 2.1-3.7 3.16-5.54.1-.16.26-.3.4-.44l.3.2c-.9 1.67-1.8 3.36-2.75 5.02-.38.65-.91 1.2-1.37 1.8Z" class="cls-4"/><path d="m156.88 138-2.06 3.24-.43-.3c.77-1.03 1.19-2.31 2.48-2.94h.01Zm-7.81 8.2 1.67-1.5.32.36-1.64 1.52-.35-.38Zm3.2-3.33 1.55-1.34.33.31-1.4 1.52-.48-.49Zm-5.47 5.49 1.53-1.7.4.49-1.93 1.22v-.01Zm-.82.54.81-.54h.01l-.82.55Z" class="cls-4"/><path d="M56.65 87.29v.52l-.81-.27V87l.8.29ZM108.94 102l.6-.48.45.83-1.05-.36Zm-.82 1.07.55-.8-.55.8Zm1.98.28.2.56-.2-.56Zm-4.93 4.18.48-.62-.48.62Z" class="cls-7"/><path d="M159.06 107.66Z" class="cls-18"/><path d="m81.84 18.28-.7 1.58-.94-.87-.65-1c-.65-.78-1.3-1.56-1.94-2.36-.43-.55-1.5-1.05-.71-1.85.83-.84 1.42.18 1.95.7.72.68 1.35 1.44 2.02 2.16l.97 1.64Z" class="cls-5"/><path d="m117.62 6.73-.22-.18h.26l-.04.19Z" class="cls-7"/><path d="M135.91 17.33c0 .18.05.38 0 .54-.23.66-.48 1.32-.72 1.97-.45-.43-.94-.83-1.35-1.3-1.74-2-3.44-4.05-5.19-6.05-.8-.93-.73-1.55.4-2.06 1.8-.8 3.2.1 4.4 1.22a7.59 7.59 0 0 1 2.46 5.68Z" class="cls-2"/><path d="M117.62 6.73a.58.58 0 0 0 .03-.19l.55.29-.58-.1Z" class="cls-10"/><path d="M113.96 43.64c.92.53 1.84.99 2.68 1.57.28.2.55.8.45 1.06a57.8 57.8 0 0 1-2.23 4.78c-.08.16-1.01.17-1.13-.02a61.52 61.52 0 0 1-2.56-4.46c-.11-.2.06-.72.27-.9.8-.72 1.67-1.35 2.52-2.03Z" style="fill:#c3836f"/></g></svg>