<svg xmlns="http://www.w3.org/2000/svg" width="515" height="94" fill="none" viewBox="0 0 515 94"><g clip-path="url(#clip0_515_29)"><mask id="mask0_515_29" style="mask-type:luminance" width="515" height="94" x="0" y="0" maskUnits="userSpaceOnUse"><path fill="#fff" d="M514.215 0H0V94H514.215V0Z"/></mask><g mask="url(#mask0_515_29)"><path fill="#29AAE1" d="M163.578 78.0999C149.979 78.0999 135.621 69.2155 128.574 62.7709C120.866 55.7194 99.6933 32.7679 99.5997 32.6655C85.7149 17.1846 67.0458 0 48.4214 0C25.99 0 6.42386 15.5254 1.33594 36.0908C1.72423 34.7349 8.85623 15.8956 35.6259 15.8956C49.2249 15.8956 63.5826 24.78 70.6296 31.2249C78.3375 38.2761 99.5103 61.2276 99.6042 61.3301C113.489 76.8109 132.158 93.9955 150.787 93.9955C173.218 93.9955 192.78 78.47 197.872 57.9049C197.484 59.2607 190.352 78.0999 163.582 78.0999H163.578Z"/><path fill="url(#paint0_linear_515_29)" d="M99.5975 61.3344C99.5486 61.2766 93.4518 54.6712 86.6146 47.4638C82.919 51.8479 77.5945 57.82 71.4757 63.1766C60.0681 73.1669 52.6549 75.2633 48.415 75.2633C32.4194 75.2633 19.3692 62.5832 19.3692 46.9999C19.3692 31.4166 32.4015 18.8347 48.415 18.7366C48.9951 18.7366 49.7003 18.7945 50.5483 18.9462C45.7372 17.0997 40.6269 15.8955 35.6192 15.8955C8.85865 15.8955 1.72666 34.7258 1.3339 36.0907C0.468067 39.5962 0.00390625 43.2446 0.00390625 46.9999C0.00390625 72.9173 21.3954 93.9999 48.0714 93.9999C59.1933 93.9999 71.6497 88.3044 84.4767 77.0651C90.542 71.7531 95.7994 66.0711 99.7494 61.5041C99.7003 61.446 99.6466 61.3925 99.5975 61.3344Z"/><path fill="url(#paint1_linear_515_29)" d="M99.5989 32.6655C99.6481 32.7233 105.745 39.3287 112.582 46.5361C116.277 42.152 121.602 36.1799 127.721 30.8233C139.128 20.8329 146.542 18.7367 150.781 18.7367C166.777 18.7367 179.827 31.4167 179.827 47C179.827 62.4943 166.795 75.1652 150.781 75.2635C150.201 75.2635 149.496 75.2054 148.648 75.0536C153.459 76.9002 158.57 78.1044 163.577 78.1044C190.342 78.1044 197.474 59.2741 197.867 57.9092C198.733 54.4037 199.197 50.7553 199.197 47C199.197 21.0827 177.457 0 150.781 0C139.66 0 127.551 5.69548 114.72 16.9348C108.654 22.2467 103.397 27.9288 99.4473 32.496C99.4962 32.5538 99.5498 32.6074 99.5989 32.6655Z"/><path fill="#fff" d="M220.838 41.3534V1.21289H231.661V41.3534H220.838Z"/><path fill="#fff" d="M261.63 41.3534L247.692 17.5188V41.3534H237.213V1.21289H249.451L261.971 23.0092V1.21289H272.508V41.3534H261.63Z"/><path fill="#fff" d="M296.982 11.2346V41.3534H286.332V11.2346H274.773V1.21289H308.594V11.2346H296.982Z"/><path fill="#fff" d="M310.863 41.3534V1.21289H336.585V10.3827H321.401V16.7249H335.224V25.5558H321.401V32.0096H336.696V41.3489H310.863V41.3534Z"/><path fill="#fff" d="M340.832 41.3534V1.21289H357.771C365.929 1.21289 371.253 6.6497 371.253 14.1203C371.253 19.5571 368.25 23.5756 363.831 25.3283L371.424 41.3489H359.923L353.576 26.8003H351.365V41.3489H340.83L340.832 41.3534ZM355.789 18.6517C358.963 18.6517 360.605 16.8409 360.605 14.2942C360.605 11.7475 358.963 9.99027 355.789 9.99027H351.37V18.6517H355.789Z"/><path fill="#fff" d="M398.733 41.3534L384.795 17.5188V41.3534H374.316V1.21289H386.554L399.072 23.0092V1.21289H409.609V41.3534H398.733Z"/><path fill="#fff" d="M414.248 41.3534V1.21289H439.97V10.3827H424.786V16.7249H438.608V25.5558H424.786V32.0096H440.08V41.3489H414.248V41.3534Z"/><path fill="#fff" d="M464.054 11.2346V41.3534H453.406V11.2346H441.848V1.21289H475.668V11.2346H464.054Z"/><path fill="#fff" d="M227.836 72.1416C227.836 78.8229 232.593 82.672 237.467 82.672C243.019 82.672 245.399 79.2198 246.25 76.3876L256.221 79.2734C254.636 85.2187 249.307 93.0327 237.413 93.0327C226.251 93.0327 216.848 84.9376 216.848 72.1997C216.848 59.4617 226.421 51.1973 237.302 51.1973C248.86 51.1973 254.128 58.2174 255.769 64.2207L245.97 67.5613C245.232 64.8985 243.082 61.3885 237.413 61.3885C232.879 61.3885 227.84 64.8407 227.84 72.1461L227.836 72.1416Z"/><path fill="#fff" d="M276.842 51.1973C287.89 51.1973 297.466 59.1229 297.466 72.1461C297.466 85.1696 287.892 93.0949 276.842 93.0949C265.792 93.0949 256.219 85.1696 256.219 72.1461C256.219 59.1229 265.792 51.1973 276.842 51.1973ZM276.842 82.8459C281.548 82.8459 286.533 79.5051 286.533 72.0883C286.533 64.6712 281.548 61.4466 276.842 61.4466C272.139 61.4466 267.154 64.7871 267.154 72.0883C267.154 79.3893 272.139 82.8459 276.842 82.8459Z"/><path fill="#fff" d="M336.326 92.1845V67.3286L327.542 92.1845H319.154L310.43 67.6141V92.1845H300.344V52.0439H314.451L323.458 76.503L332.067 52.0439H346.571V92.1845H336.316H336.326Z"/><path fill="#fff" d="M361.756 78.4831V92.1845H351.221V52.0439H367.252C375.637 52.0439 381.359 57.5343 381.359 65.2904C381.359 73.0464 375.637 78.4831 367.252 78.4831H361.756ZM365.895 69.7058C368.67 69.7058 370.711 68.0644 370.711 65.3482C370.711 62.6321 368.67 60.9328 365.895 60.9328H361.815V69.7103H365.895V69.7058Z"/><path fill="#fff" d="M383.455 77.4662V52.0439H394.051V77.1229C394.051 81.0878 396.09 83.1796 399.604 83.1796C403.117 83.1796 405.097 81.0834 405.097 77.1229V52.0439H415.693V77.4662C415.693 87.5414 408.949 93.0942 399.604 93.0942C390.258 93.0942 383.455 87.5459 383.455 77.4662Z"/><path fill="#fff" d="M439.771 62.0658V92.1845H429.123V62.0658H417.562V52.0439H451.386V62.0658H439.771Z"/><path fill="#fff" d="M453.65 92.1845V52.0439H479.372V61.2139H464.188V67.5561H478.011V76.3869H464.188V82.8407H479.483V92.1801H453.65V92.1845Z"/><path fill="#fff" d="M483.624 92.1845V52.0439H500.562C508.72 52.0439 514.044 57.4807 514.044 64.9513C514.044 70.3883 511.041 74.4068 506.622 76.1594L514.213 92.1801H502.712L496.367 77.6312H494.157V92.1801H483.619L483.624 92.1845ZM498.58 69.4828C501.752 69.4828 503.396 67.6719 503.396 65.1252C503.396 62.5785 501.752 60.8214 498.58 60.8214H494.161V69.4828H498.58Z"/></g></g><defs><linearGradient id="paint0_linear_515_29" x1="73.515" x2="8.052" y1="87.85" y2="20.012" gradientUnits="userSpaceOnUse"><stop offset=".22" stop-color="#EC1E79"/><stop offset=".89" stop-color="#522784"/></linearGradient><linearGradient id="paint1_linear_515_29" x1="125.641" x2="191.104" y1="6.191" y2="74.028" gradientUnits="userSpaceOnUse"><stop offset=".21" stop-color="#F05A24"/><stop offset=".68" stop-color="#FAAF3B"/></linearGradient><clipPath id="clip0_515_29"><rect width="515" height="94" fill="#fff"/></clipPath></defs></svg>