<svg width="474" height="268" viewBox="0 0 474 268" fill="none" xmlns="http://www.w3.org/2000/svg">
<path d="M193.571 83.3889C173.335 118.761 153.451 153.513 133.362 188.649C132.681 187.928 132.052 187.16 131.479 186.35C122.508 170.964 113.596 155.223 104.566 139.66C103.783 138.47 103.365 137.076 103.365 135.651C103.365 134.226 103.783 132.832 104.566 131.642C112.949 117.139 121.361 102.637 129.626 88.0462C130.363 86.5293 131.542 85.2721 133.008 84.4406C134.473 83.6091 136.155 83.2424 137.832 83.3889C154.892 83.5363 171.982 83.3889 189.042 83.3889H193.571Z" fill="#F4783B"/>
<path d="M327.256 82.6816C328.286 84.1849 328.962 85.0103 329.492 85.9535C338.316 101.045 346.816 116.196 355.582 131.288C356.417 132.578 356.862 134.083 356.862 135.621C356.862 137.159 356.417 138.664 355.582 139.954L330.521 183.963C329.98 185.168 329.105 186.193 327.999 186.914C326.894 187.635 325.605 188.023 324.285 188.031C306.078 188.031 287.901 188.031 269.723 187.854C269.106 187.854 268.458 187.854 267.105 187.559L327.256 82.6816Z" fill="#1E2E3F"/>
<path d="M203.982 194.103H324.578C321.637 199.143 319.107 203.8 316.431 208.399C309.783 219.894 303.047 231.302 296.459 242.798C295.889 243.982 294.988 244.975 293.865 245.655C292.742 246.336 291.446 246.674 290.135 246.63L237.926 246.954C236.659 247.032 235.396 246.749 234.282 246.139C233.169 245.529 232.25 244.616 231.631 243.505C222.827 228.079 214.003 212.643 205.159 197.198C204.701 196.192 204.308 195.158 203.982 194.103Z" fill="#F4783B"/>
<path d="M233.426 24.8776C235.279 24.8776 236.367 24.6713 237.367 24.6713C254.545 24.6713 271.752 24.6713 288.929 24.6713C290.505 24.5486 292.08 24.9013 293.454 25.6841C294.827 26.4669 295.935 27.6438 296.636 29.0633C304.911 43.5264 313.215 57.9699 321.549 72.3937C322.343 73.5878 322.783 74.9826 322.82 76.4169C322.856 77.8513 322.487 79.2667 321.755 80.4997C312.578 96.5939 303.391 112.668 294.194 128.723C293.912 129.003 293.607 129.26 293.282 129.49L233.426 24.8776Z" fill="#F4783B"/>
<path d="M136.273 77.2287C136.979 75.7549 137.391 74.6643 137.95 73.6621C146.509 58.9238 155.128 44.1856 163.599 29.241C164.314 27.7663 165.451 26.5386 166.866 25.7144C168.28 24.8901 169.908 24.5068 171.54 24.6132C188.071 24.6132 204.601 24.6132 221.132 24.6132C222.715 24.4736 224.304 24.8046 225.701 25.5647C227.098 26.3248 228.24 27.4805 228.985 28.8873C238.133 44.8636 247.339 60.7808 256.81 77.2287H136.273Z" fill="#1E2E3F"/>
<path d="M226.896 246.806H220.278C203.63 246.806 187.011 246.806 170.275 246.806C169.027 246.891 167.783 246.606 166.695 245.988C165.607 245.369 164.725 244.444 164.157 243.328C155.686 228.59 147.244 213.851 138.655 199.113C137.837 197.893 137.4 196.456 137.4 194.986C137.4 193.516 137.837 192.08 138.655 190.86C147.48 175.591 156.127 160.234 164.863 144.906C165.334 144.051 165.892 143.226 166.804 141.752C186.894 176.858 206.66 211.346 226.896 246.806Z" fill="#1E2E3F"/>
<path d="M238.396 237.817L239.044 237.08C239.653 237.71 240.385 238.208 241.195 238.543C242.004 238.878 242.874 239.042 243.75 239.025C245.72 239.025 247.073 237.934 247.073 236.431C247.073 235.046 246.338 234.25 243.367 233.484C240.397 232.717 238.926 231.774 238.926 229.799C238.97 229.289 239.115 228.794 239.353 228.341C239.591 227.889 239.917 227.489 240.312 227.165C240.707 226.841 241.162 226.599 241.652 226.454C242.141 226.309 242.654 226.264 243.161 226.321C244.813 226.268 246.422 226.848 247.662 227.942L247.015 228.708C245.956 227.715 244.552 227.176 243.103 227.205C241.191 227.205 239.897 228.325 239.897 229.681C239.897 231.066 240.602 231.921 243.72 232.629C246.838 233.336 248.044 234.338 248.044 236.254C248.044 238.377 246.22 239.821 243.691 239.821C241.733 239.871 239.832 239.152 238.396 237.817Z" fill="#1E2E3F" stroke="#1E2E3F" stroke-width="0.25" stroke-miterlimit="10"/>
<path d="M251.25 226.586H255.897C258.839 226.586 260.78 228.06 260.78 230.595C260.78 233.366 258.398 234.81 255.662 234.81H252.221V239.703H251.25V226.586ZM255.897 233.926C258.339 233.926 259.986 232.658 259.986 230.683C259.986 228.59 258.398 227.5 256.015 227.5H252.221V233.955L255.897 233.926Z" fill="#1E2E3F" stroke="#1E2E3F" stroke-width="0.25" stroke-miterlimit="10"/>
<path d="M263.574 234.25V226.586H264.545V234.161C264.458 234.787 264.509 235.423 264.695 236.026C264.882 236.629 265.198 237.184 265.621 237.651C266.045 238.118 266.566 238.486 267.148 238.728C267.729 238.971 268.357 239.082 268.986 239.054C271.663 239.054 273.369 237.433 273.369 234.25V226.586H274.34V234.161C274.34 234.87 274.2 235.571 273.93 236.226C273.659 236.88 273.263 237.475 272.763 237.976C272.263 238.477 271.67 238.874 271.017 239.145C270.364 239.416 269.664 239.556 268.957 239.556C268.25 239.556 267.55 239.416 266.897 239.145C266.244 238.874 265.651 238.477 265.151 237.976C264.651 237.475 264.254 236.88 263.984 236.226C263.713 235.571 263.574 234.87 263.574 234.161V234.25Z" fill="#1E2E3F" stroke="#1E2E3F" stroke-width="0.25" stroke-miterlimit="10"/>
<path d="M278.018 226.585H283.547C284.215 226.547 284.884 226.642 285.515 226.865C286.146 227.087 286.727 227.433 287.224 227.882C287.866 228.534 288.225 229.413 288.224 230.329C288.224 232.51 286.606 233.778 284.371 234.072L288.724 239.702H287.489L283.283 234.249H278.988V239.702H278.018V226.585ZM283.43 233.394C285.606 233.394 287.253 232.304 287.253 230.447C287.253 228.678 285.871 227.499 283.489 227.499H278.988V233.394H283.43Z" fill="#1E2E3F" stroke="#1E2E3F" stroke-width="0.25" stroke-miterlimit="10"/>
</svg>
