<svg xmlns="http://www.w3.org/2000/svg" id="Layer_1" viewBox="0 0 147.4 171.4">
  <defs>
    <style>
      .cls-1{fill:#8e6366}.cls-3{fill:#b58b84}.cls-4{fill:#5d3c3e}.cls-8{fill:#36201e}.cls-9{fill:#fdfdfd}
    </style>
  </defs>
  <path d="m129.4 99-.8-.3-1.4-.8v7.4l-.3.7-.3 7c-.2 3-.7 6-2.6 8.4-.3.4-.4.9-.6 1.3l-1 1-.8.6-.2.1c-.9 1-.3 1.5.5 2 2.5 1.5 4.9 3.2 6.5 5.6.6.9.5 1.6-.4 2l-3.3 1.3-3 1h-.6c-1.9-.5-2.5-.2-2.8 1.6-.5 2-.5 2 1.6 2 1.7 0 3.4-.3 5-.4-.3.4-.8.6-1.2.7l-4.2.3c-1 0-1.8.3-2 1.5l-1.5 8.3a6 6 0 0 0 2.1 6l1 1.2-1 .2-.2-.1-1.2-1-1-1.2-1-3.6v-.6l.2-1.2v-.5c.2-.3.2-.7.3-1v-.5l.3-1v-.4l1-5.2.2-1.2.2-.5v-.6l.3-.9v-.6l.3-1.3v-.5c.6-2.3 1-4.7 1.5-7l.4-2.6.2-.5.7-4 .1-.6.1-1 .2-.6.1-.8.2-.7.7-4 1.7-8.2v-.8l1.3-6.3.2-1.2.1-.6.2-.9.1-.5.1-1 .2-.8.1-.6.2-1 .2-.8.1-.5.1-.9.2-.5.1-1 .2-.8.1-.6.2-1 .1-.8.2-.6.1-.8.2-.5v-1l.3-.8V81l.3-1 .1-.8.2-.6v-.8c0-.4 0-1-.2-1.1-1-.3-1.9-.5-2.8-.5-.2 0-.4 1-.6 1.5l-.1.6-.2 1c0 .2 0 .5-.2.8v.6l-.2.8-.1.6-.2.9-.1.9-.2.5-.1 1-.2.5-.8 4.3v1.3l.5 3.3c-.2 0-.4.2-.5.4l-.7.5-.6 1.6v.8l-.2.6-.2.6-.1.6-.2.8-.1.6-.2.9v.6l-.2.8-.2.6-.4 2.6-.2.6-1.7 8.1-.7 5-.2.6-.1.8-.1.6-.2.9c0 .3 0 .6-.2.9v.6l-.5 2.3-.5 2.3v.6c-.3.6-.4 1.3-.6 2v.9l-.3 1.4v.6c-.2.3-.5.5-.6.8l-1.3 7c-.8 5-2.8 9.7-1.4 15.2-1.4-1.8-1.3-3.4-1-5l1.8-10.2a15 15 0 0 0 .1-3.6 32.4 32.4 0 0 0-1.3-6.6c-.4-1.1-1-2.2-1.2-3.4-.2-1.4-.8-1.7-2-1.7-2.8 0-5.6 0-8.3-.4-5.6-1-11.2 0-16.8-.2-.3 0-.8.8-.7 1l1.7 3.8c1.6 3.4 1.4 4.3-.8 5.8L80 137c-1.7-.2-3.4-.1-5-.5-2.7-.5-5.3-1.3-7.9-2-.3 0-.6-.6-.8-1l-.4-1.1a10 10 0 0 1-2.2-6.9c0-1.3-.6-2-1.5-2.8-1.8-1.5-3.4-3.3-5.2-5-.8-.7-1.6-1.6-2.6-1.9-1.9-.6-4-.6-5.8-1.4-7.5-3-14.4-7.2-20.6-12.4-3.5-2.9-6.7-6-10-9-.4-.4-1-.5-1.5-.7L16 92l-.5-1.1-2.7-3.6.3-.3 1.1.3c-.5-4.2-1-8.4-1.7-12.9l-6.2 2.4 6.3 9.1-.4.3c-.4-.4-1-.7-1.4-1.2-3.7-5-7.3-10.2-9.1-16.3-.7-2-1.3-4.3-1.2-6.5.3-4 2.4-7.6 4.5-11 2-3.3 5-5.7 7.9-8.1 1.7-1.4 3.7-2.4 5.6-3.5 1-.6 2.1-.3 3 .6 1.3 1.4 2.7 2.8 3.8 4.5 3 4.3 5.8 8.7 8.6 13l16.8 26.7c.7 1.2 1 1.1 1.8 0 .4-.7.7-1.5 1.2-2.1l1.6-2.3-1 2.7-2 5-1.4 4.2-.2.6-.3.6-.3 1.7v.6c-.8 1-.8 3.5 0 4.4 0 1 .2 2 .4 2.9l.2.6v.6l.2.6v.5l.9 2.4.1.8 2.2 4.1.1.3.8 1.2v.2l.6.6 2.7 3.5.8.9 3.8 3.2.6.5c4 1.9 8.2 3 12.7 3l15.5-.3h.8l4.5.1a51 51 0 0 0 14.6.5c2.9-.3 3-.5 3.3-3.5v-.6l.3-.9v-.8l.2-.6.2-.9.1-.6.1-.8.2-.7.2-1.4 1-4.1.7-4.9.2-.6.1-.8.2-.7v-.8l.3-.9v-.6l.3-.9v-.5l.1-.8-.7.1h-7l-5.9-1c-2.8-.6-5.5-1.5-8.3-2.2l-2.4-1-4.3-1.6-.6-.5c-.6-.2-1.1-.3-1.6-.6l-5-2.4-.3-.5-.3-.6.8-.8.6.2 1 .7a76 76 0 0 0 17.3 7c5 1.3 10 2 15.2 1.7 1.2 0 2-.4 2-1.8.1-.6.5-1.5 1-1.8 1.3-.8 1.1-1.6.5-2.5l-.9-1.4c-4.1-6-9.9-10.3-16-14.2l-6.6-4c-.4-.2-.5-.8-.8-1.2.5 0 1-.3 1.5-.2.6 0 1 .5 1.6.8a72.7 72.7 0 0 1 20.5 16.1l.6 1 .4-.2.1-1.1.2-.9.1-.6.1-.8.2-1 .1-.5.2-.9v-.6l.3-.9.1-.8.2-.9v-.6l.3-1.1.1-.9c.7-2 1.3-2.7 2.9-2.5 1 .2 2 .6 3 1s1.1 1.2 1 2.1l-3.4 17c0 .3 0 1 .3 1.1 1.9 1 3.8 2 5.8 2.7 1 .4 2 0 2.5-1.3.2-.6 1-1.2 1.7-1.4 1-.2 1.2-.6 1-1.4a73 73 0 0 0-1.7-6.7 76.8 76.8 0 0 0-10.9-20c-1.2-1.6-2.3-4-5.2-3l-4-.2v-.2l1.2-.6 1.4-.6h2.6l1.5-.2c.3 0 .5 0 .8-.2h.6l2.6-.6c2.2-.4 4-1.5 5.5-3l2-2 .4-.6 1-.6 1-.3c-1 2.2-3.1 3.4-4.9 5l-1.2 1.3-5.2 2.1-1.5.2 3.2 4c3.1 4.5 6 9.2 8.2 14.3 1.8 4.2 4 8.3 3.8 13.1 0 1-.2 1.1-1 1.3-.7 0-1.6.3-1.9.8-1.1 1.9-2.3 2.5-4.4 1.9l-2.7-.7Zm-53 37 .5.1c1.9.5 3.8.6 5.6-.4l.3-.1c.2-.2.5-.5.5-.7l-1.9-4.4-.1-.5c-.6-2-1.7-2.8-4-2.7-2.3 0-4.8-.4-7.1-.8l-5.6-1.2c.2 2.6.4 5 2.3 6.8l1.2 1.2.7.5 1 .4.7.4.8.2.7.2.5.1.6.2.6.1 1 .4h.5l1.2.3ZM40 69.8c-2.8-4.7-5.8-9.3-8.5-14a6 6 0 0 0-4.6-3.4l-4-.7c-1.5-.3-2.5.2-3.3 1.5a31 31 0 0 0-5.6 13l-.8 7.3 8.4-1c4.8-.8 9.7-.6 14.5 0 .5.2 1.2 0 1.6-.4.8-.7 1.4-1.5 2.2-2.4Zm-5.8 26.9h4c1-.1 1.8-.5 2.1-1.7.1-.7.5-1.4.8-2 1.7-3.4 3.4-6.7 6-9.4.3-.4.7-1.3.5-1.6-2.1-3.3-3.7-7.2-8.4-8-1.1-.1-1.7-.2-2.2 1a42 42 0 0 0-2.8 21.7Zm-8-49.5c-1.4-1.8-3-3.8-4.7-5.7-1-1.1-2.3-1.3-3.5-.6A38 38 0 0 0 5.5 52.2c-.2.3-.2.6-.3 1h.5a34 34 0 0 1 13.8-2.3c.6 0 1.2-.3 1.7-.6l5-3.2Zm.7 52-.2.8 9 6.7.3-.3-2.2-8.2c0-.3-.6-.6-.8-.5L26.8 99Zm92.4 35.9c2.8-.2 5.3-.5 7.7-1.7.2-.1.2-1 0-1.2-1.7-1.6-3.4-3-5.3-4.4-.1-.2-1 .2-1 .4-.6 2.2-1 4.4-1.4 6.9Zm6.5-31-.6-.1-3.3 17.2.4.2a7 7 0 0 0 2.5-4.4l1-13Zm-13 29.4.7-3.5c.5-2.6 0-3-2.5-2.2-.3.1-.7.6-.7.8.3 1.8.8 3.4 2.4 4.9Zm-.5 1.6-.7.2.6 1.4.6-.3-.5-1.3Z" class="cls-8"/>
  <path d="m118 157.7 1.1-.3-1-1a6.2 6.2 0 0 1-2-6.2l1.4-8.2c.2-1.2.9-1.5 2-1.5a65 65 0 0 0 4.2-.4 2 2 0 0 0 1.3-.6l-5.1.4c-2 0-2 0-1.6-2 .3-1.8 1-2.1 2.8-1.6-2.5 1-2.5 1-2.3 3h.7c1.2 0 2.4 0 3.6-.2 2-.3 2.4-1 1.8-3.2l-3.3.3 3-1c1.2-.4 2.3-.7 3.4-1.2 1-.4 1-1.1.4-2-1.7-2.4-4-4.1-6.5-5.6-.8-.5-1.4-1-.5-2-.2 1 .3 1.3 1 1.7l5 3.8c.5.5 1 1.1 1.4 1.8.8 1.3.6 2.2-.7 2.9-1 .5-1.3 1-1.3 2.1 0 3.2-.5 3.7-3.6 4l-3.7.4c-.9 0-1.4.2-1.5 1.1l-1.5 7.9c-.5 2.6.3 5 2.6 6.4l5.4 3c2 1.2 4 2.4 5.6 3.8 1.7 1.4 1.6 3.6.2 5.3-2.4 2.7-6 3.7-9.3 2a20.7 20.7 0 0 1-11.8-16c-.3-2.3.6-5 1-7.4l1.1-6.5c.1-.5 0-1.2-.2-1.8l-.2-.8c0-3.2-1.4-6-2.3-9 0-.5-.7-1-1.2-1-4.1-.4-8.3-.9-12.4-1-4-.1-8.1.1-12.2.2l-.7.3 1.7 4.5.9 2.7c0 .7-.1 1.7-.5 2-1 .6-1.1 1.5-1.3 2.4-.4 2.5-.8 3-3.3 3.2a23 23 0 0 1-11.4-2c-.8-.4-1.2-1.4-1.7-2.1l-.2-.8a15 15 0 0 0-2.2-6.6c-.9-1.7-.9-3.9-1.4-5.8a3 3 0 0 0-.8-1.6l-6.5-6.4c-.3-.3-.7-.7-1-.7a36 36 0 0 1-13.8-5.1A97 97 0 0 1 16.9 93l-.5-.7c.5.2 1 .3 1.4.7 3.4 3 6.6 6.1 10 9a77.8 77.8 0 0 0 20.7 12.4c1.8.8 3.9.8 5.7 1.4 1 .4 1.9 1.2 2.7 2l5.2 5c1 .7 1.5 1.4 1.5 2.7 0 2.5.4 4.9 2.1 6.9.3.3.3.8.5 1.2.2.3.5.8.8 1l7.8 2 5 .4c.9 0 1.6.2 2.6.4 2.2-1.5 2.4-2.4.8-5.8-.6-1.2-1.3-2.5-1.8-3.8 0-.2.5-1 .8-1 5.6.1 11.1-.8 16.7.2 2.7.4 5.5.3 8.3.4 1.3 0 1.9.3 2 1.7.2 1.2.9 2.3 1.2 3.4l.8 2.7c.3 1.3.5 2.6.6 4v3.5l-2 10.2c-.2 1.6-.3 3.2 1 5-1.3-5.5.7-10.3 1.5-15.2l1.3-7c0-.3.4-.5.7-.8-1.1 5.7-2.3 11.4-3.2 17.1a12 12 0 0 0 .4 5.4 20 20 0 0 0 8.2 10.4c1 .7 2.4 1.1 3.6 1.5 1.9.6 3.5 0 4.9-1.4 1.5-1.5 1.4-3-.3-4.1-1.9-1.3-4-2.3-5.9-3.5l-4-2.6Zm-50-22.1c-.3 2.2.1 3.2 2.1 3.7 2.9.6 5.8 1 8.7 1.4.4.1 1.2.1 1.4-.1.5-.6.7-1.4 1-2.2l-1.4-.5c-2-.3-4.2-.4-6.3-.8-1.8-.3-3.5-1-5.4-1.5Zm11.6 6.2v-.2h-2.8v.2h2.8Zm-11.8-2.4.4-.3-1-1.7-.3.2 1 1.8Zm58.5-3.3h-.5v2h.2l.3-2ZM82.4 139l-.4-.1-.4 1.4.4.1.4-1.4ZM70 140l-.2.3 1.2.4v-.3l-1-.4Zm10.6 1.2v.3h.8v-.4h-.8ZM67 136.7l.2-.4-.1-.3-.3.3.2.4Zm6.4 4-.5.3.3.3.3-.3-.1-.3Zm1.2 1 .4-.3-.3-.3-.3.2.2.3Zm-2.6-.8.1-.2s-.2-.1-.2 0l-.1.1.2.1ZM55.4 80l-1.7 2.3-1.2 2.1c-.7 1.1-1 1.2-1.8 0L34 57.8a488 488 0 0 0-8.5-13.1c-1.1-1.7-2.6-3-4-4.5-.7-1-1.8-1.2-2.9-.6-1.9 1-3.9 2-5.6 3.5-2.8 2.4-5.8 4.8-7.8 8C3 54.6 1 58.1.7 62.2c-.2 2.2.4 4.4 1.1 6.5A51.3 51.3 0 0 0 10.9 85c.3.5.9.8 1.4 1.2l.3-.3-6.3-9 6.3-2.5 1.7 13L13 87l-.2.3 2.6 3.6c.3.3.4.7.6 1.1A62.2 62.2 0 0 1 .5 67a13 13 0 0 1 0-7.3A30.5 30.5 0 0 1 11.7 43c1.5-1.2 3-2.3 4.6-3.3 2.6-1.7 4.3-1.5 6.5.6 1.4 1.4 2.6 3 3.7 4.5L42.1 70l8.4 13 1.1 1.6A176.5 176.5 0 0 1 72 55.5l-1.4-.7a56.7 56.7 0 0 1-3.9-4.5c-.5-.7-1-1-1.8-.6L56.3 53c-.2.1-.4.2-.7 0 3-2.2 6.5-3 9.6-4.1l-1.6-8.3c-.2-1-.6-1-1.3-1L54 40l-1.5-.2v-.4l1.8-.2h7.9c1 0 1.2-.4 1.2-1.3.2-7.9 2.4-15 6.8-21.6.2-.4.1-1.2-.2-1.5C66.4 10 67.2 4.4 72.1 1c2.4-1.6 6-1.4 7.8.4l-1.4-.3c-1.9-.6-3.8-1-5.7 0a9.5 9.5 0 0 0-4.6 7.5c-.3 2.2.7 4 2.1 5.5.8 1 .9 1.8.2 3a70 70 0 0 0-4.1 7.7c-2 4.7-2.6 9.7-2.4 14.6.2 3 1.2 6.1 2.2 9 .4 1.2 1.7 2 2.5 3a3.2 3.2 0 0 0 2.6 2.6c.4.6.8 1.2 1 1.8l-2 2.5c-1.8 2.3-3.6 4.5-5.2 6.8-1 1.3-1.7 2.7-2.5 4l-.8.7c-2 2.7-3.8 5.5-5.6 8.3-.4.5-.6 1.2-.8 1.8ZM137 55.6l-1 .3 3.1-5c1 .6 1.2-.3 1.3-.7.6-2.4 1.4-4.8 1.5-7.2.4-5.9 0-11.8-2.3-17.3-.3-.8-.2-1.2.7-1.6a5 5 0 0 0 3.3-3.8c.4-3.1-.3-6-2.3-8.4-.6-.7-1.4-1.4-2.2-1.5a7.3 7.3 0 0 0-6 1.3c-1 .8-1.7.7-2.6-.2-2.7-2.8-5.8-5-9.4-6.8-4.1-2-8.6-3-13.1-3.7l-5.6-.3V1l1 .2a42 42 0 0 1 15 3c1.7.7 3.3 1.8 5 2.8l-1.6-.7c-2.9-1-5.7-2.4-8.7-3.2a39.4 39.4 0 0 0-13.7-1.4c-2.9.3-5.7.8-8.6 1.2.9-.4 1.7-.9 2.7-1 1.8-.5 3.7-.7 5.6-1-.3-.2-.6-.3-1-.2a30 30 0 0 0-14 3.9c-.4.2-1.3.3-1.5 0C82 4 81.5 3.1 81 2.3l2.4 2.2h.3c7-4.2 14.7-5 22.7-4.2A39 39 0 0 1 131 11.2c.6.6 1.1.6 1.7 0l1-.6c4.1-2.3 7.6-1.2 9.5 3.2.3.8.7 1.8.8 2.7.7 3.6.2 6.2-3.5 8.2.8 4.2 1.7 8.3 2.1 12.4.4 4.2 0 8.4-1.5 12.6l6.3 2.1-.2.5-4.9-1.5c-1-.4-1.6-.1-2.2 1-1 2-2.3 3.8-3.4 5.7l3.9 3.4-.4.4-1.6-1.3c-2.4-2.1-2.3-2.1-4.7-.2l-3 2.1 1.3-1.3c1.7-1.5 3.8-2.7 4.8-5l.6-1.1.6-.6.8-1.2-.4-.2-.4 1.4-.6.6-.6 1.1ZM101.4 1V.7h-1.1V1h1Z" class="cls-4"/>
  <path d="M81 2.3c.5.8 1 1.7 1.6 2.4.3.3 1.1.2 1.5 0 4.4-2.5 9-3.7 14-4 .4 0 .7.1 1 .3-1.9.3-3.8.5-5.6.9-1 .2-1.8.7-2.7 1l-.4.2c-2.2.3-4.2.7-5.7 2.4-.2.5-.4 1-.4 1.4 0 .5.3 1 .4 1.6l.2.7v.8c-.4-.3-1-.4-1.1-.8-.7-1.2-1.2-2.6-2-3.8-2.5-4.3-7.2-5-10.4-1.3-3.5 4-3.2 7.2.7 10.2l1.4 1.4-1 .8c-.4.2-1 .3-1 .6l-4.9 10-.2.6-.1.6-.2.6-.1.5-.2.6v.6l-.3.9v.5l-.3 1.5v.6c-.2.8-.5 1.7-.5 2.5 0 1.6.3 3.2.4 4.8l.1.9 1.1 4 .2.8 2.2 3.6.1.2v.7c-.9-1-2.2-1.8-2.6-3-1-3-2-6-2.1-9-.3-5 .3-10 2.3-14.6 1.2-2.7 2.6-5.2 4.1-7.7.7-1.2.7-2-.2-3-1.3-1.6-2.4-3.3-2-5.5a9.7 9.7 0 0 1 4.5-7.5c2-1 3.8-.6 5.8 0l1.4.3 1 .7Z" class="cls-8"/>
  <path d="m129.4 99 2.7.6c2.1.6 3.3 0 4.5-1.9.3-.5 1.2-.7 1.8-.8.8-.1 1-.2 1-1.2.2-4.9-2-9-3.8-13.2-2.2-5-5-9.7-8.2-14.2l-3.2-4 1.5-.3.1 1.4a80 80 0 0 1 13 23.7c.7 2.2.8 4.7 1.1 7 .2 1-.3 1.3-1.2 1.2-1 0-1.6.2-2 1.3-.4.7-1.5 1.3-2.3 1.5-1.8.4-3.5-.2-5-1.1Zm-6 23.7c.2-.4.3-1 .6-1.3 1.9-2.5 2.4-5.4 2.6-8.4 0-2.3.1-4.7.3-7l.3-.7c0 4.3.2 8.6-1 12.8-.6 1.6-1.9 3-2.8 4.6Zm3.8-18.1V98l1.4.7c-.7 0-1 .2-1 1l-.4 5Zm-5.6 19.7.9-.7-1 .7Z" class="cls-4"/>
  <path d="m66.6 27.1 4.8-10c.2-.3.7-.4 1.1-.6l1.2.1.7.4 5.5-1.5c.2-.1.3-.4.4-.6l1.6-2.1 2-2 1-.8v-.8l-.2-.7c-.1-.5-.4-1-.4-1.6 0-.4.3-1 .4-1.3L90.4 3l.4-.1c2.9-.4 5.7-1 8.6-1.2 4.7-.3 9.3 0 13.8 1.4 3 .8 5.7 2 8.6 3.2l1.6.6.2.1 1 1A38 38 0 0 1 140 30.6c.8 3.2.9 6.6 1.3 10v2l-.3 1.7v.9l-1 2.8c-.1 1-.6 1.4-1.7 1.2-1.7-.3-3.5-.6-5.3-.7-1.3-.1-2.7-.4-3.8.5.9.2 1.8.1 2.7.2l7.5 1.2-.3.6-3.1 5-1 .6c-2.6-2.2-6-3.7-7-3.1l6.6 3.6-2 2-3.3 1.8-2.2 1.3-2.5.5-.6.1-.9.2h-1.4l-1.5.1-1.2.1-1.7-.1c-.6-.7-1.2-.8-1.8 0l.3 1.3.6.2h4l1.7 6.8 1.3 5.7v.9l-.3 1.2v.5l-.3 1v.8a29 29 0 0 0-.3 1.4l-.2 1-.1.5-.2.9-.1.8-.2.7-.1.8-1.2.4A72.6 72.6 0 0 0 100 71.8c-.5-.3-1-.7-1.5-.8l-1.5.3c.2.4.4 1 .8 1.2l6.6 3.9a53.5 53.5 0 0 1 16 14.3l.8 1.3c.7 1 .9 1.8-.4 2.5-.5.4-1 1.2-1 1.8-.1 1.4-.8 1.8-2 1.9-5.2.2-10.3-.4-15.3-1.8-6-1.6-11.8-4-17.3-7l-1-.6-.5-.3-.9.9.3.5.4.5v.7c1.9 1.6 3.4 3.6 5.5 4.8 6.8 4 14.5 3.6 22 4.2l.6-.3h7l.6.6v.6l-.3.9v.6l-.3.8v.9l-.3.6v.9l-.2.6-.8 4.8-1 4.2c0 .4 0 1-.2 1.4l-.1.6-.1.8-.2.7-.1.8-.2.6v.8c-.2.3-.2.6-.3 1v.5c-.8 1-1.3 2.3-2.7 2.3l-9.3-.1c-3.7-.2-7.5-.7-11.2-.6-5 0-9.8.5-14.7.7-.7 0-1.5 0-2.2-.3-4.1-1-7.7-2.8-11-5.6-5-4.4-9.7-9-12.6-15.1 0-.2-.3-.3-.5-.5l-.3-.5-.4-3V95l.6-1.7v-.6l.3-.6 1.3-4.2 4.2-8.3.1-.2.8-1.3v-.2l4.6-6.7.1-.2 2.3-3 2.7-3.7.5-.7 2.8-3 1.3.7 14.1 4c1.7.5 3.5 1.1 5.2 1.2 5.5 0 11 .3 16.5-.7h1.9V65l-5-.9L93 62.5l-6-1.3-2.4-1.4-7.3-2.5-2-1-.6-.3-.7-.4-.7-.5h-.2l-.7-.6-.5-.3-1.2-1-1.2-1.3-.8-1-.1-.1L68 49l12.4-2.8v-.6l-1.2.1c-3.4.7-6.8 1.4-10 2.3-1.3.3-2 .1-2.7-.9l-.2-.7-1-4-.2-1 .3-1.7c5.5.4 11 .4 16.4 1.9-.4-.5-1-1-1.5-1L66.8 39c-1.3 0-1.7-.4-1.6-1.6v-3.9l.2-1.5.1-.6.2-.9.1-.5.2-.6v-.6l.3-.6.1-.5.2-.6Zm40.8 15.1c-1 .1-1.6 0-2.1.2-1 .3-1.4 1-.9 1.8 1.6 2.5 4 4 6.7 1.4 1.2-1.2 1-2.2-.6-2.7l-3.1-.7Zm-6.5 7.3c.4.3.7.6.9.6 1.4 0 1.5 1.1 1.8 2.2.4 1.5.8 3 1.4 4.5.8 1.7 1.8 1.8 3 .3l1.5-2.3c1-1.5 1-3.7 3-4.5V50c-1 0-2.4.1-3.2-.4-1.4-1.1-2.5-.8-4-.5-1.3.4-2.7.2-4.3.3Zm-9.8-11.3c0 1 0 2.2 1.4 2.3 1.2.1 1.6-1 1.9-2v-.4c.3-1.5-.2-2.6-1.3-2.8-1.2-.2-1.9.7-2 2.4v.5Zm29.6 4c.4.6.6 1.3 1.2 1.7.2.3 1.3 0 1.4-.3.6-.8 1-1.8 1-2.7 0-.7-.8-1.3-1.2-2-.6.5-1.3.9-1.8 1.5-.3.4-.4 1-.6 1.9Z" class="cls-3"/>
  <path d="M40 69.7 37.8 72c-.4.3-1 .6-1.6.5a47 47 0 0 0-14.5-.2l-8.4 1.1c.3-2.5.4-4.9.8-7.3A31 31 0 0 1 19.5 53c1-1.3 2-1.8 3.3-1.5l4.1.7c2 .4 3.5 1.5 4.6 3.4 2.7 4.7 5.6 9.3 8.5 14Z" class="cls-4"/>
  <path d="m118 157.7 4 2.6c2 1.2 4 2.2 5.9 3.5 1.7 1.1 1.7 2.6.2 4.1-1.3 1.4-3 2-4.8 1.4-1.3-.4-2.5-.8-3.6-1.5a20 20 0 0 1-8.2-10.4c-.5-1.7-.7-3.7-.4-5.4.9-5.7 2-11.4 3.1-17v-.7l.2-1.4v-1l.6-2 .1-.5.5-2.3.4-2.3v-.6c.2-.3.2-.6.3-1l.1-.8.2-.6v-.8l.2-.6 1.5-6.9 1-6.2.1-.6.5-2.6.1-.6.2-.8v-.6l.2-.9.2-.6.1-.8.2-.6.1-.6.2-.6v-.8l.7-1.6.6-.5.5-.4c.8-1 .7-1.7-.4-3.3v-1.3l.8-4.3.1-.6.2-.8.1-.6.2-1 .1-.8.1-.6.2-.8V80l.3-.9.1-.9.1-.5c.5-.5.9-1.2 1.4-1.2.9-.1 2 0 2.3 1.2v.8l-.2.6-.1.9-.3 1v.6l-.3.8v.9l-.2.5-.1.8-.2.6-.1.8-.2 1-.1.7-.2.8-.1.9-.2.5-.1 1-.2.4-.1.8-.2 1-.1.7-.2.8-.1.9-.2.5-.1 1-.2.5-.2 1.2-1.2 6.3v.8l-1.7 8.2-.7 4-.2.7-.1.8-.2.7-.1.9-.2.5-.7 4.1-.1.5-.4 2.6-1.5 7v.5l-.3 1.3v.6l-.3.9v.6l-.2.5-.2 1.2a7.8 7.8 0 0 0-1 5.2v.5l-.3 1v.4l-.3 1v.5l-.3 1.2v.6c-.4 1.5.2 2.6 1.2 3.6l.8 1a133.5 133.5 0 0 1 1.4 1.3Z" style="fill:#c2bfcc"/>
  <path d="m123.4 77.1-1.3-5.8-1.6-6.7c2.8-.8 4 1.5 5.2 3.2a77.1 77.1 0 0 1 10.8 20c.8 2 1.2 4.4 1.8 6.6.1.8-.1 1.3-1.1 1.5-.7 0-1.5.7-1.7 1.3-.5 1.4-1.5 1.8-2.5 1.4-2-.7-4-1.8-5.8-2.8-.2 0-.3-.8-.2-1.1 1-5.7 2.1-11.3 3.3-17 .2-.9 0-1.7-1-2-1-.4-2-.9-3-1-1.5-.3-2.2.4-2.9 2.4Z" class="cls-1"/>
  <path d="M34.2 96.6A41 41 0 0 1 37 74.9c.5-1.2 1.1-1.1 2.2-1 4.6.8 6.3 4.7 8.4 8 .2.3-.2 1.2-.5 1.6-2.6 2.8-4.3 6-6 9.4-.3.6-.7 1.3-.8 2-.3 1.2-1.1 1.6-2.2 1.7h-4ZM26.3 47l-5 3.3c-.6.4-1.2.6-1.8.6-4.7 0-9.4.4-13.8 2.3h-.5c0-.4.1-.7.3-1A39 39 0 0 1 18 40.8c1.2-.7 2.6-.5 3.5.6l4.8 5.7Z" class="cls-4"/>
  <path d="M50.8 103.3c.2 0 .4.2.5.4 3 6 7.5 10.7 12.6 15.1a25.7 25.7 0 0 0 13.1 6c5-.3 9.9-.7 14.8-.8 3.7 0 7.4.5 11.2.6 3 .1 6.2.2 9.3.1 1.4 0 1.9-1.3 2.6-2.3-.2 3-.4 3.2-3.3 3.6-4.9.6-9.7.3-14.6-.5-1.4-.2-3 0-4.4-.1h-.9c-5.2 0-10.3.2-15.5.3a30 30 0 0 1-12.7-3l-.6-.5-3.8-3.3-.8-.9-2.7-3.4-.5-.6v-.3l-.9-1.2v-.2l-2.3-4.2v-.7l-1-2.4v-.5l-.2-.7v-.6Z" class="cls-1"/>
  <path d="m71.3 134.8-.8-.1-.7-.5-1-.4-.7-.5-1.2-1.2c.3-1.6 1.2-2.3 3-2.1h11.3l.2.6 1.4 5-.4.1-5.5.4h-.6l-1.2-.2h-.5l-1-.5h-.5l-.7-.2-.5-.1-.6-.3Z" style="fill:#b1495b"/>
  <path d="M81.3 130H69.9c-1.8-.2-2.7.5-3 2.1-2-1.8-2.1-4.1-2.3-6.8 2 .4 3.8 1 5.6 1.2 2.3.4 4.7.9 7.1.8 2.2-.1 3.4.6 4 2.7Z" class="cls-4"/>
  <path d="M111.5 99.7c-.2.1-.4.4-.6.3-7.5-.5-15.3-.2-22-4.2-2-1.2-3.7-3.1-5.4-4.8v-.6l4.8 2.4c.5.3 1 .4 1.6.6l.7.5 4.3 1.6 2.4 1c2.8.8 5.5 1.6 8.3 2.2 2 .5 4 .7 5.9 1Z" class="cls-1"/>
  <path d="m26.9 99.1 6-1.5c.3 0 .8.2.9.5l2.2 8.2-.2.3-9.1-6.7.2-.8Z" class="cls-4"/>
  <path d="m119.3 135 1.3-6.9c0-.2 1-.6 1.1-.4 1.9 1.4 3.6 2.8 5.3 4.4.2.1.2 1 0 1.2a18.4 18.4 0 0 1-7.7 1.7Z" style="fill:#ab4758"/>
  <path d="m125.8 104-1 12.9a7 7 0 0 1-2.4 4.4l-.5-.1c1-5.8 2.2-11.5 3.3-17.3h.6Z" class="cls-3"/>
  <path d="m121.6 136.3 3.3-.4c.6 2.3.3 3-1.8 3.2l-3.6.3-.7-.2c-.2-1.9-.2-2 2.3-2.8l.5-.1Z" class="cls-9"/>
  <path d="M112.7 133.4a7.5 7.5 0 0 1-2.4-4.9c0-.2.4-.7.7-.8 2.5-.9 3-.4 2.5 2.2l-.8 3.5Zm6.6-26.1-1 6.2-1.5 6.9.8-5 1.7-8ZM134.6 57l-6.5-3.5c1-.6 4.3.9 7 3l-.5.6ZM56.5 79.4l-4.2 8.3 2-5 1-2.7 1.2-.6Zm65.2 34.6 1.6-8.1-1.6 8.1Zm-4.1 21.8 1.4-7-1.4 7Zm-2.1 10.8c-.2-1.9.1-3.6 1-5.2l-1 5.2Z" class="cls-4"/>
  <path d="m127.1 62.2 2.2-1.4 3.4-1.7a10.4 10.4 0 0 1-5.6 3Z" class="cls-1"/>
  <path d="m123.4 105 1.3-6.3-1.3 6.3Zm-46.5 31.1 5.6-.4c-1.8 1-3.7 1-5.6.4Zm51.8-58.4c-.4-1.1-1.5-1.3-2.4-1.2-.5 0-.9.7-1.3 1.2.2-.6.3-1.6.5-1.6 1 0 2 .2 2.9.5.2 0 .2.7.2 1ZM117.3 63l1.7.2-1.3.6-1.3.5-.6.1-.3-1.3h1.9Zm-34.5 72.6-1.4-5 1.9 4.4-.5.6ZM50 95.4v4.4c-.6-1-.6-3.5 0-4.4Zm2 12.8 2.2 4.1-2.2-4.1Zm71.4-22.4-.8 4.3.8-4.3Zm-7.2 29.4 1-4.1-1 4.1Zm-.4 40.2c-1-1-1.6-2.1-1.1-3.6l1 3.6Zm6.9-64c1 1.6 1 2.3.3 3.3l-.3-3.3ZM112.3 135l.5 1.3-.6.3-.5-1.4.6-.2Zm7.6-30.9-.5 2.6.5-2.6Zm-4.4 22.9-.4 2.4.5-2.3ZM97.3 96.5l-2.4-1 2.4 1ZM51 105l.8 2.4-.8-2.4Zm64 25-.5 2 .5-2Z" class="cls-4"/>
  <path d="m50.7 93.1-.6 1.8.3-1.8h.3Zm69.7-5.1 1.2-.4-.2 1-.3.2-.7-.9Z" class="cls-1"/>
  <path d="m114.4 132.9-.2 1.4.2-1.4Z" class="cls-4"/>
  <path d="m120.2 63 1.4-.1v.3l-1.4-.1Z" class="cls-1"/>
  <path d="M117.9 157.6Zm-63.6-45.1.8 1.2-.9-1.2Zm20.8 23.3 1.2.3-1.2-.2Zm42.2 1.8.2-1.3-.2 1.3Z" class="cls-4"/>
  <path d="m123.1 79.2.3-1.2-.3 1.2Z" class="cls-1"/>
  <path d="m114.7 151.2.2-1.2-.2 1.2Z" class="cls-4"/>
  <path d="m119 100.4-.6-.7h.8l-.1.7Z" class="cls-1"/>
  <path d="M121.7 63.2v-.3h1.4l-1.4.3ZM58.3 118l.9 1-.9-1Zm69.5-35.6.2-.8-.2.8Z" class="cls-4"/>
  <path d="m122 85.3.2-1-.2 1Z" class="cls-1"/>
  <path d="M124.8 78.3v.8-.8Z" class="cls-4"/>
  <path d="m122.8 80.6.2-.9c0 .3 0 .6-.2 1Z" class="cls-1"/>
  <path d="m128 81 .3-1-.2 1Z" class="cls-4"/>
  <path d="M122.5 82.4Z" class="cls-1"/>
  <path d="m120.8 99.8-.2.8c0-.3 0-.6.2-.8Z" class="cls-4"/>
  <path d="m118.8 101.8.2-.9-.2 1Z" class="cls-1"/>
  <path d="m120.5 101.2-.2.9.2-.9Z" class="cls-4"/>
  <path d="m118.5 103.3.2-.9-.2.9Z" class="cls-1"/>
  <path d="m120.2 102.7-.2.8.2-.8Zm1.1-5.5v.8-.8Z" class="cls-4"/>
  <path d="M115 121.9Z" class="cls-1"/>
  <path d="m116.7 121-.1.8.1-.8Zm-.3 1.4-.1.9.1-.9Zm-24.7 3h.9-.9Zm34-32.3.2-1-.2 1Zm-52.1 42.3 1 .4-1-.4ZM117 139l.1-.8-.1.9Zm9.6-50.5.2-.8-.2.8ZM115.3 148l.2-1-.2 1Zm-.3 1.5.2-1-.2 1ZM126.9 87l.2-1-.2 1Zm-3.2-2.6-.2.8.2-.8Zm1.7 10.2.2-.8c0 .2 0 .5-.2.8ZM124 82.9l-.2.9.2-.9Z" class="cls-4"/>
  <path d="M122.3 83.8c0-.3 0-.6.2-.9l-.3 1Z" class="cls-1"/>
  <path d="m122.6 95-.7.6.7-.5Zm3.7-5 .2-.6-.2.5Zm-10.2 34.2Z" class="cls-4"/>
  <path d="m83 89.9-.3-.6.3.6Zm.6-1.4.5.2-.5-.2Z" class="cls-1"/>
  <path d="m120.8 118.7.2-.7-.2.7Z" class="cls-4"/>
  <path d="m115.6 118.7.1-.6-.1.6Zm.3-1.5.1-.6-.1.6Z" class="cls-1"/>
  <path d="m55.1 114 .6.6-.6-.6Zm-4.4-20.9h-.3l.3-.6v.6Zm66 47.1.2-.5-.2.5Zm8.5-44.2.1-.5-.1.5Zm-34.6-2-.7-.6.7.5Z" class="cls-4"/>
  <path d="m51 92-.2.5.2-.6Zm67 14.2.1-.6-.1.6Z" class="cls-1"/>
  <path d="m124.9 97.5.1-.6-.1.6Z" class="cls-4"/>
  <path d="m118.2 104.7.2-.6-.2.6Z" class="cls-1"/>
  <path d="m63 122.2.5.5-.6-.5Zm57.3-.6.1-.5-.1.5Zm-69.6-17.7.2.6-.2-.6Zm69.8 16.3Zm-70-17.5.2.6-.2-.6Zm70.5-4.1-.1.6.2-.6Z" class="cls-4"/>
  <path d="m121.7 86.7.2-.6-.2.6Z" class="cls-1"/>
  <path d="M124.5 80v.6-.6Zm3.9-.9.2-.6-.2.6Z" class="cls-4"/>
  <path d="M115.8 64.4h.6v.1h-.6Z" class="cls-1"/>
  <path d="m127.2 85.2.2-.6-.2.6Zm-59.1 48.1.6.5-.6-.5Zm1.8.9.6.5-.6-.5Z" class="cls-4"/>
  <path d="M124 62.8Z" class="cls-1"/>
  <path d="m127.5 83.8.1-.5-.1.5Zm-56.2 51 .6.3-.6-.3Zm1.2.3.6.3-.6-.3ZM126 91.3l.2-.5-.1.5Zm-6.6 34.9.1-.5-.1.5Zm4.9-44.7-.1.5v-.5Z" class="cls-4"/>
  <path d="m115.3 120.1.2-.6-.2.6Z" class="cls-1"/>
  <path d="M68 135.6c2 .5 3.7 1.2 5.5 1.5 2.1.4 4.2.5 6.3.8.5 0 1 .3 1.4.5-.3.8-.5 1.6-1 2.2-.2.2-1 .2-1.4.2l-8.7-1.5c-2-.5-2.4-1.5-2-3.7Z" class="cls-9"/>
  <path d="M79.6 141.8h-2.8v-.2h2.8v.2Zm-11.8-2.4-.9-1.8.4-.2 1 1.7-.4.3Zm58.5-3.3-.3 2h-.2v-2h.5ZM82.4 139l-.4 1.4h-.4l.4-1.5h.4Zm-12.5 1 1 .4v.3l-1.2-.4.2-.3Zm10.6 1.2.8-.1v.3l-.8.1v-.3ZM67 136.7l-.2-.4.3-.3.1.3-.2.4Zm6.4 4 .1.3-.3.3-.2-.3.4-.3Zm1.2.9-.2-.3.3-.2.3.4-.4.1ZM72 141l-.2-.2v-.2l.3.1v.3Zm3.4-84.7 2 .9 7.3 2.5 2.3 1.4h-.2l-1.2.3h-.5c-.2-.2-.4-.2-.7-.3-3-1.2-6-2.2-9-3.5-1.6-.6-2.8-.7-3.8.9l-.8.9-.4 1-2.8 3-.5.7-2.8 3.7-1.7 1.5c.8-1.4 1.6-2.8 2.5-4 1.6-2.4 3.4-4.6 5.2-6.9l2.1-2.5-1-1.7h.6l.5.3.6.5h.3l.6.6c.3 0 .5.2.8.4l.6.2ZM56.5 79.4l-1.1.6.7-1.8 5.7-8.3c.2-.3.5-.4.8-.6A90.5 90.5 0 0 0 62 71l-1.6 1.8-3 5v.2l-.8 1.2-.1.2Zm13.1-27.5 1.1 1.2.7 1a3.2 3.2 0 0 1-2.7-2.6l.9.4Zm71.6-9.3v-2c.2-.5.5-1 .5-1.3-.2-2.4-.3-4.8-.7-7.2a39 39 0 0 0-12.2-21.4c-1.5-1.4-3.4-2.4-5.2-3.6h-.2c-1.7-1-3.3-2.1-5-2.9-4.8-2-9.9-2.8-15-3h-1V.5l5.6.4c4.6.6 9 1.7 13.2 3.7a32 32 0 0 1 9.3 6.8c.9.9 1.6 1 2.6.2a7.4 7.4 0 0 1 6-1.4c.8.2 1.7.9 2.2 1.5 2 2.5 2.8 5.3 2.3 8.4-.2 2-1.5 3.2-3.3 4-.9.3-1 .7-.7 1.4A37.4 37.4 0 0 1 142 43c-.1 2.4-.9 4.8-1.5 7.2 0 .4-.3 1.3-1.3.8l.3-.6c1-1.6 1.8-3.3 1.5-5.2l.1-.9.2-1.8Zm-1.5-19.2c1.4-.8 2.7-1.8 2.9-3.6.1-2-.2-4-1.1-5.9a4.8 4.8 0 0 0-8.3-.8l6.5 10.3Zm-1.5 30.5.4-1.4.5.2-.9 1.2Zm-.6.6-.5 1.1.5-1.2ZM101.3 1h-1.1V.7h1v.1Zm36.9 52.9-.6.5.6-.5Z" class="cls-8"/>
  <path d="m73.7 16.6-1.2-.1 1-.8-1.4-1.4c-3.9-3-4.2-6.2-.7-10.2 3.2-3.7 7.9-3 10.4 1.3.8 1.2 1.3 2.6 2 3.8.2.4.8.5 1.1.8l-1 .8-.6-.6-1.2 1c-.9.7-2.1 1.2-2.4 2.1C79 14.8 78 14.6 77 15c-1.2.4-2.2 1.1-3.3 1.7Zm3.6-3.4.4-.2c.1-2-.7-3.7-1.6-5.4 0-.2-.7-.2-.9 0-.2.1-.3.6-.2.8a46 46 0 0 0 1.4 3.6c.2.5.6.8.9 1.2ZM65.1 34c0 1.2.2 2.3 0 3.4 0 1.3.4 1.6 1.7 1.7 4.5.3 9 .9 13.5 1.4.5.1 1 .6 1.5 1-5.4-1.4-10.9-1.5-16.4-1.8l-.3 1.7c-.1-1.6-.4-3.2-.4-4.8 0-.8.3-1.7.4-2.5Zm1.4 13c.7 1 1.4 1.2 2.6.9l10-2.2 1.2-.1.1.6L68 48.9l.7 1.8-2.2-3.6ZM90.4 3.1l-5.7 2.4c1.5-1.7 3.6-2.1 5.7-2.4ZM65.2 42.3l1.1 4-1.1-4Zm.2-10.3-.2 1.5.2-1.5Zm4.2 19.9-.9-.4V51l.9 1Zm-3.9-21.3-.2.9.2-1Zm19-22.1.2.6-.2-.6ZM66.6 27.1l-.2.6.2-.6Zm-.6 2.3-.2.6.2-.6Zm.3-1.1-.2.6.2-.6Z" class="cls-4"/>
  <path d="m85 61.3.6.1 1.2-.2h.2l6 1.2 11.3 1.7c1.8.2 3.5.6 5.2.9l-.1.6h-2c-5.4 1-10.9.8-16.4.7-1.7 0-3.5-.6-5.2-1.1l-14-4-1.4-.7.4-1 .9-1c.9-1.6 2.1-1.5 3.7-.9 3 1.3 6 2.4 9 3.5l.7.2Z" class="cls-1"/>
  <path d="m107.4 42.2 3.1.7c1.6.5 1.8 1.6.6 2.7-2.8 2.7-5.1 1.1-6.6-1.4-.6-.8 0-1.5.8-1.8.6-.1 1.1 0 2-.2Z" class="cls-8"/>
  <path d="M101 49.5c1.6 0 3 0 4.3-.3 1.4-.3 2.6-.6 4 .4.8.6 2.1.4 3.3.5v.1c-2 1-2.2 3-3.1 4.6l-1.6 2.3c-1.1 1.4-2.1 1.4-2.9-.3-.6-1.4-1-3-1.4-4.5-.3-1-.4-2.1-1.8-2.2-.2 0-.5-.3-.9-.6Zm9.4 1.8-1.9-1c-1-.5-3.2-.5-4 .1l-.3.7 1.6 5.3c.3 1 1 .8 1.5.1l3-5.2Zm13.2-44.2c1.8 1.2 3.7 2.2 5.2 3.6A39 39 0 0 1 140.9 32c.5 2.3.6 4.8.8 7.2 0 .4-.3.8-.4 1.2-.5-3.3-.5-6.7-1.3-10A37.7 37.7 0 0 0 124.6 8l-1-1Z" class="cls-4"/>
  <path d="M91.1 38.2v-.4c.1-1.8.8-2.7 2-2.5 1 .2 1.6 1.3 1.4 2.8l-.1.4c-.3 1-.7 2.2-2 2-1.3 0-1.3-1.2-1.3-2.3Zm29.6 4.1c.3-.9.3-1.5.6-2 .5-.5 1.2-.9 1.8-1.3.4.6 1.3 1.2 1.3 1.9 0 1-.5 1.9-1 2.7-.2.4-1.2.6-1.5.3-.6-.4-.8-1.1-1.2-1.6Z" class="cls-8"/>
  <path d="M73.7 16.6c1-.6 2.1-1.3 3.3-1.7 1.1-.3 2.1 0 2.7-1.6.3-.9 1.5-1.4 2.4-2.1l1.2-1 .6.6-2 2c-.6.6-1 1.4-1.6 2.1-.1.2-.2.5-.4.5-1.8.6-3.7 1-5.5 1.5l-.7-.3Z" class="cls-1"/>
  <path d="M141 45.2c.1 2-.6 3.6-1.6 5.2l-7.5-1.2c-1-.1-1.8 0-2.8-.2 1.2-.9 2.6-.6 4-.5 1.7 0 3.5.4 5.2.7 1 .2 1.5-.1 1.7-1.2.2-1 .6-1.9 1-2.8ZM57.5 77.8l3-5c.4-.7 1-1.2 1.5-1.8l-4.5 6.8Zm27.2-18-7.3-2.6 7.3 2.5Zm-22.6 11 .5-1.5 1.7-1.5-2.2 3Zm79.1-28.2-.2 1.7.2-1.7Z" class="cls-4"/>
  <path d="m117.3 63-1.8.1c.6-.8 1.2-.7 1.8 0Z" class="cls-1"/>
  <path d="m71.4 54.2-.7-1.2 1.3 1.1h-.6Zm-14.8 25 .8-1.2-.8 1.2ZM67 64.1l.6-.6-.5.6Zm8.4-7.8-.6-.3.6.2Zm-1.4-.7-.6-.5.6.5Zm-.8-.6-.7-.5.7.5Zm13.6 6.2-1.2.2 1.2-.2Zm-15.2-2.7-.8 1 .8-1ZM85 61.3l-.6-.2.7.2Zm54.7-37.9L133.2 13c2.2-3 6.6-2.6 8.3.8a10 10 0 0 1 1 5.9c-.1 1.8-1.4 2.8-2.8 3.6Z" class="cls-4"/>
  <path d="m77.3 13.3-1-1.3A46 46 0 0 1 75 8.4c0-.2 0-.7.2-.8.2-.2.8-.2.9 0 .9 1.7 1.7 3.4 1.6 5.4l-.4.2Z" class="cls-8"/>
  <path d="M110.4 51.3c-1.1 1.8-2 3.6-3.2 5.2-.4.7-1.1.9-1.4 0l-1.6-5.4.3-.7c.8-.6 3-.6 4-.1l1.9 1Z" style="fill:#c67d71"/>
</svg>