<svg xmlns="http://www.w3.org/2000/svg" id="Layer_1" viewBox="0 0 583.2 255.3">
  <defs>
    <style>
      .cls-4{fill:#aedff6}.cls-7{fill:#5c7d99}.cls-8{fill:#7bb3d3}.cls-10{fill:#90cbe3}.cls-11{fill:#d9f0fa}.cls-12{fill:#7fb2cd}
    </style>
  </defs>
  <path d="m53.1 77.5 9.7-3.7c21.7 9.8 35.5.9 44.5-19 .8-1.2 1.9-1.6 3.3-1.4 13.3-.2 27.5 2.6 39.7-1.2 16.3-5 37.3-10.5 27.1-36.7 0-1.4.4-2.7 1-4C257.8.5 337 6.4 416 16.6l26.6 10.2 3 8.6c-11 6.4-22.3 12.3-32.9 19.4-8.9 5.8-24.5 13.4-24.1 19.4 1.5 28.4-17.6 38-37.7 41.7-33.5 6.2-62.6 25.6-99.5 24.2-33.4-1.3-67.1 11.5-101 15.5-14.3 1.6-29.4-3.8-44.2-5.4-14.2-1.5-28.4-2.1-42.7-3.2l-10.2-3.3-2.2-5.9-15.6-34.2L53 77.5Z" style="fill:#eaf5fc"/>
  <path d="M63.6 147c14.3 1 28.5 1.7 42.7 3.2 14.8 1.6 29.9 7 44.2 5.4 33.9-4 67.6-16.8 101-15.5 36.9 1.5 66-18 99.5-24.2 20.1-3.7 39.2-13.3 37.6-41.7-.3-6 15.3-13.6 24.2-19.4 10.6-7 22-13 33-19.4l-3.1-8.6L416 16.6l21.7-1.1 66.3 11c-5.7 6.3-10.4 13.8-17.2 18.4-28.2 18.8-28.6 23.8-1.5 44.9l21.8 9c38 16.5 56.8 49.9 74.2 84.5l.7 7c-1.1 1.4-2.1 3-3 4.4l-206.3-5.1-195.3 8.7c-3.3-2.5-6.6-5-11-8.1l60.4-16.6 101.3-21.4-1.3-5.5-100.5 16.2-113.7 21.3-10.6-10.8L63.6 147Z" class="cls-11"/>
  <path d="M408.4 251c-59.1 2.4-118.5 11.3-176.7-7.1 1.4-14.4-4.2-34.4 17.7-35.5 10.3-.5 21.1 10.3 28.6 14.4 8.4-5.1 19-15.5 31.4-18.2 20.7-4.4 42.6-4 64-5.5 22 .3 33 10.6 31.6 33.5-.4 6 2.2 12.3 3.4 18.4Z" class="cls-4"/>
  <path d="M408.4 251c-1.2-6.1-3.7-12.3-3.4-18.4 1.5-22.9-9.5-33.2-31.6-33.5l-.6-9.5 206.2 5.1c1 23.7-5 41.7-33.6 40.8-7.8-36-8.5-36.4-59.2-40-41-3-47.8 5-39.2 45.2.5 2.6 1.4 5.1 2 7.7l-40.6 2.6Z" class="cls-8"/>
  <path d="M449 248.4c-.6-2.6-1.5-5.1-2-7.7-8.6-40.2-1.7-48.1 39.2-45.2 50.8 3.6 51.4 4 59.2 40L449 248.4Z" style="fill:#8ccae6"/>
  <path d="m372.8 189.6.6 9.5c-21.4 1.6-43.3 1.1-64 5.5-12.4 2.7-23 13-31.4 18.2-7.5-4-18.3-14.9-28.5-14.4-22 1-16.4 21.2-17.8 35.5l-43.3-6-11.3-31.5.4-8.1 195.3-8.7Z" style="fill:#89c2dc"/>
  <path d="m177.1 206.4 11.3 31.5c-33 2.8-65.6 5-89-25.5l2.7-39 10.6 10.8 64.4 22.2Z" style="fill:#b3e3f8"/>
  <path d="M437.9 15.4 416 16.6C337.1 6.4 258 .4 178.3 11.5 186 7.7 193.4.7 201 .6c62-.7 123.9-1.1 185.7.8 17.2.5 34.1 9.1 51.2 14Z" class="cls-7"/>
  <path d="m53.1 77.5-17.5 26.2 15.6 34.1L0 118.4c4-7.6 6.1-18 12.4-22 12.3-8.2 27-12.8 40.7-18.9Z" class="cls-11"/>
  <path d="m102 173.4-2.5 39-19.6-19.8-26.5-49 10.2 3.4 38.5 26.4Z" class="cls-12"/>
  <path d="M53.4 143.7 80 192.6 47.2 171C46 140.8 25 133.5.2 130.4l-.2-12 51.2 19.4 2.2 5.9Z" class="cls-10"/>
  <path d="M.2 130.4c24.8 3 45.8 10.4 47 40.6-19.3-9.3-49.4-6-47-40.6Z" class="cls-4"/>
  <path d="M485.4 89.8c-27.1-21.1-26.7-26.1 1.5-45 6.8-4.5 11.5-12 17.2-18.2l3.7 22.5-22.4 40.7Z" class="cls-12"/>
  <path d="M177.4 15.5c10.2 26.1-10.8 31.7-27 36.7-12.3 3.7-26.5 1-39.8 1.1l51.4-25 15.4-12.8Z" class="cls-11"/>
  <path d="M485.4 89.8 507.8 49l-.6 49.6-21.8-9Z" class="cls-10"/>
  <path d="M107.3 54.8c-9 19.9-22.8 28.8-44.5 19l44.5-19Z" class="cls-11"/>
  <path d="M177.4 15.5 162 28.3l16.4-16.8c-.6 1.3-1 2.6-1 4Z" class="cls-7"/>
  <path d="m582 190.3-.6-7c.6 1.5 1.4 3 1.8 4.6.1.7-.7 1.6-1.1 2.4Z" class="cls-8"/>
  <path d="m177.1 206.4-64.4-22.2L226.4 163l.6 10.6-60.5 16.6 11 8.1c0 2.7-.2 5.4-.4 8.1Z" style="fill:#99cde2"/>
  <path d="m227 173.6-.6-10.7L327 146.7l1.3 5.5L227 173.6Z" style="fill:#a5d5ec"/>
</svg>