<svg xmlns="http://www.w3.org/2000/svg" fill="none" viewBox="0 0 584 256">
    <g clip-path="url(#a)">
        <path fill="#EAF5FC" d="m53 78 10-4c22 10 35 1 44-19l4-2c13 0 27 3 39-1 17-5 38-10 28-36-1-2 7-4 7-4 79-11 152-6 231 5l27 10 3 8-33 20c-9 6-25 13-24 19 1 29-18 38-38 42-34 6-63 26-100 24-33-1-67 12-101 16-14 1-29-4-44-6l-42-3-11-3-2-6-15-34 17-26Z"/>
        <path fill="#D9F0FA" d="m64 147 42 3c15 2 30 7 45 6 33-4 67-17 101-16 36 2 66-18 99-24 20-4 39-13 38-42-1-6 15-13 24-19l33-20-3-8-27-10 22-1 66 11c-6 6-10 13-17 18-28 19-29 24-2 45l22 9c38 16 57 50 74 84l1 7-3 5-206-5-196 8-11-8 61-16 101-22-1-5-101 16-113 21-11-11-38-26Z"/>
        <path fill="#AEDFF6" d="M408 251c-59 2-118 11-176-7 1-14-4-34 17-36 11 0 22 11 29 15 8-5 19-16 31-18 21-5 43-4 64-6 22 0 33 11 32 34l3 18Z"/>
        <path fill="#7BB3D3" d="m408 251-3-18c2-23-9-34-32-34v-9l206 5c1 23-5 41-34 41-7-36-8-37-59-40-41-3-48 5-39 45l2 7-41 3Z"/>
        <path fill="#8CCAE6" d="m449 248-2-7c-9-40-2-48 39-45 51 3 52 4 59 40l-96 12Z"/>
        <path fill="#89C2DC" d="M373 190v9c-21 2-43 1-64 6-12 2-23 13-31 18-7-4-18-15-28-15-22 1-17 22-18 36l-44-6-11-32 1-8 195-8Z"/>
        <path fill="#B3E3F8" d="m177 206 11 32c-33 3-65 5-89-26l3-39 11 11 64 22Z"/>
        <path fill="#D9F0FA" d="m53 78-17 26 15 34-51-20c4-7 6-18 12-22 13-8 27-12 41-18Z"/>
        <path fill="#7FB2CD" d="m102 173-2 39-20-19-27-49 11 3 38 26Z"/>
        <path fill="#90CBE3" d="m53 144 27 49-33-22c-1-30-22-37-47-41v-12l51 20 2 6Z"/>
        <path fill="#AEDFF6" d="M0 130c25 3 46 11 47 41-19-9-49-6-47-41Z"/>
        <path fill="#7FB2CD" d="M485 90c-27-21-26-26 2-45 7-5 11-12 17-18l4 22-23 41Z"/>
        <path fill="#D9F0FA" d="M177 16c11 26-10 31-27 36-12 4-26 1-39 1l51-25 15-12Z"/>
        <path fill="#90CBE3" d="m485 90 23-41-1 50-22-9Z"/>
        <path fill="#D9F0FA" d="M107 55c-9 20-22 29-44 19l44-19Z"/>
        <path fill="#7BB3D3" d="m582 190-1-7 2 5-1 2Z"/>
        <path fill="#99CDE2" d="m177 206-64-22 113-21 1 11-60 16 11 8-1 8Z"/>
        <path fill="#A5D5EC" d="m227 174-1-11 101-16 1 5-101 22Z"/>
    </g>
    <defs>
        <clipPath id="a">
            <path fill="#fff" d="M0 0h583v255H0z"/>
        </clipPath>
    </defs>
</svg>