<svg width="584" height="256" viewBox="0 0 584 256" fill="none" xmlns="http://www.w3.org/2000/svg">
<g clip-path="url(#clip0_12_2)">
<path d="M53.1 77.5L62.8 73.8C84.5 83.6 98.3 74.7 107.3 54.8C108.1 53.6 109.2 53.2 110.6 53.4C123.9 53.2 138.1 56 150.3 52.2C166.6 47.2 187.7 41.7 177.5 15.5C177.067 14.3866 185 12 185 12C264.4 1 337 6.4 416 16.6L442.6 26.8L445.6 35.4C434.6 41.8 423.3 47.7 412.7 54.8C403.8 60.6 388.2 68.2 388.6 74.2C390.1 102.6 371 112.2 350.9 115.9C317.4 122.1 288.3 141.5 251.4 140.1C218 138.8 184.3 151.6 150.4 155.6C136.1 157.2 121 151.8 106.2 150.2C92 148.7 77.8 148.1 63.5 147L53.3 143.7L51.1 137.8L35.5 103.6L53 77.5H53.1Z" fill="#EAF5FC"/>
<path d="M63.6 147C77.9 148 92.1 148.7 106.3 150.2C121.1 151.8 136.2 157.2 150.5 155.6C184.4 151.6 218.1 138.8 251.5 140.1C288.4 141.6 317.5 122.1 351 115.9C371.1 112.2 390.2 102.6 388.6 74.2C388.3 68.2 403.9 60.6 412.8 54.8C423.4 47.8 434.8 41.8 445.8 35.4L442.7 26.8L416 16.6L437.7 15.5L504 26.5C498.3 32.8 493.6 40.3 486.8 44.9C458.6 63.7 458.2 68.7 485.3 89.8L507.1 98.8C545.1 115.3 563.9 148.7 581.3 183.3L582 190.3C580.9 191.7 579.9 193.3 579 194.7L372.7 189.6L177.4 198.3C174.1 195.8 170.8 193.3 166.4 190.2L226.8 173.6L328.1 152.2L326.8 146.7L226.3 162.9L112.6 184.2L102 173.4L63.6 147Z" fill="#D9F0FA"/>
<path d="M408.4 251C349.3 253.4 289.9 262.3 231.7 243.9C233.1 229.5 227.5 209.5 249.4 208.4C259.7 207.9 270.5 218.7 278 222.8C286.4 217.7 297 207.3 309.4 204.6C330.1 200.2 352 200.6 373.4 199.1C395.4 199.4 406.4 209.7 405 232.6C404.6 238.6 407.2 244.9 408.4 251Z" fill="#AEDFF6"/>
<path d="M408.4 251C407.2 244.9 404.7 238.7 405 232.6C406.5 209.7 395.5 199.4 373.4 199.1L372.8 189.6L579 194.7C580 218.4 574 236.4 545.4 235.5C537.6 199.5 536.9 199.1 486.2 195.5C445.2 192.5 438.4 200.5 447 240.7C447.5 243.3 448.4 245.8 449 248.4L408.4 251Z" fill="#7BB3D3"/>
<path d="M449 248.4C448.4 245.8 447.5 243.3 447 240.7C438.4 200.5 445.3 192.6 486.2 195.5C537 199.1 537.6 199.5 545.4 235.5L449 248.4Z" fill="#8CCAE6"/>
<path d="M372.8 189.6L373.4 199.1C352 200.7 330.1 200.2 309.4 204.6C297 207.3 286.4 217.6 278 222.8C270.5 218.8 259.7 207.9 249.5 208.4C227.5 209.4 233.1 229.6 231.7 243.9L188.4 237.9L177.1 206.4L177.5 198.3L372.8 189.6Z" fill="#89C2DC"/>
<path d="M177.1 206.4L188.4 237.9C155.4 240.7 122.8 242.9 99.4 212.4L102.1 173.4L112.7 184.2L177.1 206.4Z" fill="#B3E3F8"/>
<path d="M53.1 77.5L35.6 103.7L51.2 137.8L0 118.4C4 110.8 6.1 100.4 12.4 96.4C24.7 88.2 39.4 83.6 53.1 77.5Z" fill="#D9F0FA"/>
<path d="M102 173.4L99.5 212.4L79.9 192.6L53.4 143.6L63.6 147L102.1 173.4H102Z" fill="#7FB2CD"/>
<path d="M53.4 143.7L80 192.6L47.2 171C46 140.8 25 133.5 0.2 130.4L0 118.4L51.2 137.8L53.4 143.7Z" fill="#90CBE3"/>
<path d="M0.200007 130.4C25 133.4 46 140.8 47.2 171C27.9 161.7 -2.19999 165 0.200007 130.4Z" fill="#AEDFF6"/>
<path d="M485.4 89.8C458.3 68.7 458.7 63.7 486.9 44.8C493.7 40.3 498.4 32.8 504.1 26.6L507.8 49.1L485.4 89.8Z" fill="#7FB2CD"/>
<path d="M177.4 15.5C187.6 41.6 166.6 47.2 150.4 52.2C138.1 55.9 123.9 53.2 110.6 53.3L162 28.3L177.4 15.5Z" fill="#D9F0FA"/>
<path d="M485.4 89.8L507.8 49L507.2 98.6L485.4 89.6V89.8Z" fill="#90CBE3"/>
<path d="M107.3 54.8C98.3 74.7 84.5 83.6 62.8 73.8L107.3 54.8Z" fill="#D9F0FA"/>
<path d="M582 190.3L581.4 183.3C582 184.8 582.8 186.3 583.2 187.9C583.3 188.6 582.5 189.5 582.1 190.3H582Z" fill="#7BB3D3"/>
<path d="M177.1 206.4L112.7 184.2L226.4 163L227 173.6L166.5 190.2L177.5 198.3C177.5 201 177.3 203.7 177.1 206.4Z" fill="#99CDE2"/>
<path d="M227 173.6L226.4 162.9L327 146.7L328.3 152.2L227 173.6Z" fill="#A5D5EC"/>
</g>
<defs>
<clipPath id="clip0_12_2">
<rect width="583.2" height="255.3" fill="white"/>
</clipPath>
</defs>
</svg>
