<svg xmlns="http://www.w3.org/2000/svg" id="Layer_1" viewBox="0 0 140.8 152.1">
  <defs>
    <style>
      .cls-5{fill:#3d2e2b}.cls-6{fill:#443331}.cls-7{fill:#453532}.cls-9{fill:#9b8a88}.cls-20{fill:#d97e75}.cls-21{fill:#6f6564}.cls-24{fill:#b85d66}.cls-31{fill:#706665}.cls-36{fill:#d57a73}.cls-38{fill:#423330}.cls-43{fill:#f4f2f2}.cls-48{fill:#faf9f9}.cls-50{fill:#453633}.cls-51{fill:#c76c6d}.cls-52{fill:#968484}.cls-54{fill:#f8f7f7}.cls-63{fill:#cc716f}.cls-66{fill:#cbc3c2}.cls-70{fill:#c9c1c0}.cls-73{fill:#9b8987}.cls-76{fill:#c96e6e}.cls-79{fill:#736766}.cls-81{fill:#443431}.cls-84{fill:#c46a6c}.cls-86{fill:#cbc4c3}.cls-87{fill:#fafafa}.cls-89{fill:#453330}.cls-92{fill:#d27772}.cls-95{fill:#cb726f}.cls-99{fill:#372a27}
    </style>
  </defs>
  <path d="m58.4 150.6-.2-1.2V98.8H7l1.9-.5-.1-.3-2.2-.4h1.9l47.6.1q2.1 0 2.1-2.1 0-1.5-1.5-1.5H6.5l2-.4-1.5-.8h51.2V46.7l-.2-3.5-.3-1.2c-.1-.8-.1-1.6-.3-2.3-.9-3-3.6-4-5.8-5.6L51 34l-8.8-5.5-.7-.4-9.5-6c-.1 0-.3 0-.4-.2l-1.9-1.2-8.8-5.4-.4-.3c-1.8-1-3.5-2.2-5.3-3.3L9.4 8.1C8 7.4 7.1 8 6.8 9.6c-.2 1.2-.2 2.4-.3 3.7v71.8l.1 7.8-1.3-.4c.9 2.4 1 4.7 0 6.8V10.4c.3-.6.4-1.3.6-2 .6-1.3 1.5-2 2.7-1.7 1 .2 2 .5 2.8 1l4.9 3.1 38.5 24c3 1.7 4.3 4.3 4.4 7.7l.2 5.9v101.8l-.2-1.4V97.4h-.4l-.3.7.2 6.6v43c0 1 .3 2-.3 2.9Z" class="cls-5"/>
  <path d="M58.4 150.6c.7-1 .3-1.9.3-2.9v-43l-.2-6.6.3-.8h.4v51.5c0 .5.2 1 .3 1.4 1.4 1 2.8 1 4.2 0l.2-1 .2-40.5V69h.4v5.8l-.1 17c0 .4.3.9.4 1.3v1l-.2.6-.2 9.5v15.6l.1 2-.1 7.8.2 5.1-.2 7.4c0 .6.3 1.2.5 1.7h1.4l7-.2 2.2.2h1.2l1.7-.1h18.8l1.4.2h5.3l1.3-.2h16c.8 0 1.5 0 2.2.2h6l2.4-.2c2-.3 4.2.5 6.3-.6l-2.3-2.8-.4-.4v-.3l.2-.4 1.4.9.4.5.7 1c.6 1 1.4 1.7 1.8 2.7 1 2.3.3 5.2-3 5.3H66c-.7 0-1 .2-1 1l-4.6 1.4-1.9-1.4Zm80.4-2.3c1-2 1-3 .2-4l-3.7.5H66c-.9 0-1.2.4-1.1 1.3v2.7l1.4.3H137c.5-.1 1.1-.5 1.7-.8Z" style="fill:#3b2c2a"/>
  <path d="M137 140c-.5-.2-1-.5-1.4-.9l-.1.5-1.9-1.9-5.2-7.6-.1-.9c-1.1-2-2.4-4-3.5-6.2-3-6-6-12-8.7-18.2A251.8 251.8 0 0 1 102 64.3c-1.4-5.7-2.5-11.4-3.6-17.2l-1.5-9.6c.7-2.4 0-4.5-1.3-6.4-.6-1-1.5-1.7-2.2-2.6 2.8 1.5 3.8 4 4.1 7a184 184 0 0 0 5.1 28 256 256 0 0 0 26 64.3c2.3 4.1 5.4 7.8 8 11.7l.5.6Z" style="fill:#3c312e"/>
  <path d="m93.3 28.5 2.3 2.6c1.3 1.9 2 4 1.3 6.3l-.4-1.1c-1 1-2 1.8-3 2.6L90 39l-2.2-.4v-.2l1.3-.3 3.7-.3a3 3 0 0 0 2.9-2.6v-2.6L93.3 30l-1.2-.8-4.7-3-2.9-1.7-1.4-.7L67 14.2l-13.8-8 .3-1 11.3 6.4L90 26.2l3.4 2.3Z" class="cls-5"/>
  <path d="m.1 10.1.5-4.2.8-1.1L3 2h.2l-.4 1.2L1.4 7v3.5L1 13.7l-.2 1.5v82.6c0 .4.3.9.4 1.3 1.1 1 2.4.7 3.6.4l.4.5c-.3 0-.7.2-1 .1-1.2-.1-2.5-.1-3.5-.6-.4-.3-.4-1.6-.4-2.4V18.7C.4 15.8.2 13 0 10Z" class="cls-99"/>
  <path d="M.1 10.1c.1 2.9.3 5.7.3 8.6v78.4c0 .8 0 2.1.4 2.4 1 .5 2.3.5 3.5.7l1-.2.3.3H1.4c-1-.1-1.4-.9-1.4-2V15.5l.1-5.3Z" class="cls-7"/>
  <path d="M64.9 150.5c-.1-.7.2-1 1-1h71c3.3 0 4-3 3-5.2-.4-1-1.2-1.8-1.8-2.7l-.7-1c1 1 2 2 2.8 3.3 1.6 3-.1 6-3.5 6.1l-22 .1H66.4c-.5 0-1 .3-1.4.5Z" class="cls-6"/>
  <path d="M9.4.5H39c.2 0 .3 0 .5.2-.3 0-.6.2-.8.3H10.6L9.4.4Z" class="cls-50"/>
  <path d="m53.5 5.2-.3 1-8.5-3.9h1.4v-.4l1.3.5 1.4.1c1.5 1 3.1 1.8 4.7 2.7Z" class="cls-99"/>
  <path d="m5.6 100.3-.2-.3-.5-.4.5-.3c1-2.1.8-4.4 0-6.8l1.2.4H7l1.5.8-2 .4v3.5l2.3.5v.2l-1.8.5-.5.7-.9.8Z" style="fill:#372927"/>
  <path d="M46.1 1.9v.3l-1.4.1-3.3-.7-2.1-.2-.5-.5.8-.2h2.5l4 1.2ZM9.4.5l1.2.5-.3 1.2-1.6-.8C8 1.2 7.4.7 6.9.8 5.7 1 4.5 1.7 3.2 2H3c.5-.4 1-1 1.5-1.1l4-.7.9.3Z" class="cls-99"/>
  <path d="M8.5.2c-1.3.3-2.7.4-4 .8-.5 0-1 .7-1.5 1L1.3 4.8.6 5.9c1-4.4 4-6.7 7.9-5.7Z" class="cls-81"/>
  <path d="m46.1 1.9-4-1.2c1 .1 2 .1 2.9.4 1.3.3 2.5 1 3.8 1.4l-1.4-.1-1.3-.5Z" style="fill:#453734"/>
  <path d="m60.3 152 4.6-1.5c-.8 1.3-2.8 2-4.6 1.4Z" class="cls-6"/>
  <path d="m31.7 21.8.5.2-.4.8-1.6 1-4.4 2.5c2.7 2 5.2 4 7.8 5.7.2.2.8 0 1.2-.2l6.8-3.8.8.4-.8.8L35 33l.6.6 6.2 4.7c.6.5 1.2.3 1.8 0l7.5-4.4.5.2c-.1.3-.1.8-.4 1l-6.6 3.8-.8.6.2.4 7.1 5.2c.3.2 1 .1 1.2 0l5.5-3.1.2 1.1-5.4 3.2c.8.6 1.5 1 2 1.6l3.4 2.8-.1 1-5.5-4c-.6-.6-1.1-.7-1.9-.2l-7 4-3.1 1.9.6.5 7 5.2c.3.2 1 .3 1.3.1l3-1.6 5.6-3.3.1 1-3 2-5.2 3 .7.8 6 4.4c1.2.8 1.8 1.8 1.5 3.2a6217 6217 0 0 1-11.3 6.6c2 1.5 4.1 2.8 5.8 4.4 2 1.8 3.6 2 5.5.3v1c-.5.5-1 1-1.5 1.3l1.5 1.6v1.2c-.9-.6-1.6-1-2.2-1.6-.5-.4-1-.4-1.5 0L44.5 89l-3 1.8c1 .6 1.6 1.2 2.4 1.8l-1.2.1a3.9 3.9 0 0 0-4.8 0h-.4l-1.5-.1 3.6-2.2-.9-.3-6.8-5.2c-.7-.5-1.2-.5-2 0l-5.1 3c-2 1-3.8 2.1-5.8 3.3l1.7 1.4-1.2.1c-1.4-.8-2.8 0-4.2 0l-.1-.4 1.6-1.4-.5-.2L8.9 85c-.8-.6-1.4-.3-2 0v-3c.9 1.1 1.6.9 2.5.3l7.1-4 3.6-2.2-8-6c-.2 0-.7 0-1 .2l-3 1.7c-.8.4-1.3.4-1.3-.6l3.9-2.3-4-3v-1.4l4 3c.8.5 1.3.7 2.2.1l8.3-4.8 3.8-2.2-.1-.4-7.2-5.4h-1l-4.9 2.8c-1.5 1-3.1 1.8-5 2.8v-1.1l9.4-5.6-7-5.2c-.3-.3-.9-.2-1.3 0-.4 0-.8.4-1.1.6 0-.7.2-1.3.3-2l-.4-1.6c.5 0 .7.1 1 .3.6.8 1.4.7 2.2.2l6-3.5 4.5-2.7-6.9-5.2c-.9-.7-1.5-.7-2.4-.1l-4.3 2.5V36l4.4-2.8-4.5-3.6.1-1.2 4.7 3.5c.6.5 1.1.6 1.9.2l7.5-4.4 2.6-1.6-8-6c-.7-.6-1.3-.4-2 0l-6.7 3.8c-.2-1 0-1.5 1-1.8l1.7-1 4-2.4-1-1-5.8-4.4.1-1.2 7 5.2c.7.6 1.3.6 2.2.1 1.5-1 3-1.7 4.5-2.5l.5.2c-.2.4-.3.9-.7 1-1.4 1-2.8 1.8-4.6 2.8l1 .6 6.7 5c1 .8 1.8 1 2.8.2l1.7-1 3.7-2ZM44.6 75l-8.1-6c-.7-.5-1.1-.5-1.7-.1l-9.6 5.5-3 1.8 8.3 6c.3.3 1 .3 1.3.2L41 77l3.5-2Zm-12.3 8.5.4.4 7.3 5.5c.3.2 1 .1 1.4 0l8.9-5.2 3.7-2.1-7.7-5.8c-.4-.2-1.2-.2-1.6 0l-7.3 4.2-5 3Zm2.2-15.8-.3-.4L27 62c-.6-.5-1.2-.3-1.8 0l-8.5 5-3.8 2.2 7.7 5.8c.3.2 1 .2 1.4 0l6.9-4 5.6-3.2ZM30 83.5l-8.4-6.2c-.3-.2-.9-.2-1.2 0l-8.8 5-2.4 1.5c2.9 2.2 5.5 4.2 8.3 6.1.3.3 1 .2 1.3 0l3.3-1.8 7.9-4.6Zm6.8-15.7 8 6c.6.5 1 .6 1.7.2l6.8-3.9 3.9-2.3c0-.2-.1-.3-.2-.3l-8-6c-.3-.2-.9-.2-1.2 0-2 1-3.8 2.1-5.7 3.2l-5.3 3.1Zm10.7-7.5c-2.6-2-5-3.6-7.2-5.4-.9-.8-1.5-.7-2.4-.2l-6.2 3.6-4.2 2.5 7.3 5.5c.7.6 1.3.6 2.1.1l4-2.3 6.6-3.8Zm-29-6.3 1 .8 5.9 4.5c.8.7 1.4.6 2.2.1l5.8-3.4 4.7-2.8-7.3-5.4c-.3-.2-1-.2-1.4 0l-3.3 1.8-7.6 4.4Zm14.1-21-.2-.4-6.8-5c-.7-.7-1.3-.5-2 0L17.5 31l-4 2.3L21 39c.5.5 1 .4 1.5 0l4.1-2.3 6.1-3.6Zm-1.4 13.7 7.5 5.5c.3.2 1 .2 1.3 0l4-2.3 6.4-3.7-1-.8c-2-1.5-4-2.9-5.9-4.5-.9-.7-1.5-.5-2.3 0l-5.7 3.3-4.2 2.5Zm-21.4.9 6.6 5c.9.7 1.5.4 2.3 0l6-3.5 4.3-2.6-1-.8-5.6-4.2c-.7-.5-1.2-.6-1.9-.1L9.8 47.6Zm12.7-7.4.7.5 6.2 4.6c.6.5 1.1.5 1.8 0 2-1 3.9-2.2 5.8-3.3l4.4-2.6c-2.4-1.8-4.6-3.3-6.6-5-.8-.6-1.3-.5-2-.1L28 37l-5.6 3.2Z" class="cls-87"/>
  <path d="m8.7 1.4 1.6.8 1.2.7L14 4.4l3.2 2 16 9.8L57.3 31c3 1.9 5.2 4.4 5.8 8 0 2 .7 4-.2 6l.1.5c.7 1.1.5 1.6-.5 2.5-.3.3-.4 1.1-.2 1.6.2.8.9 1.4 1 2.2.2 1.3 0 2.6 0 4V59c0 .5-.3 1-.5 1.5l.5 3.4v2.8c0 1 .3 2.2-1 2.7l-.1.4 1 .4c-.2.3-.6.6-.5.8.2.9-.7 2 .6 2.7v9.6l-2.1.2V86c0 .2-.4.6-.6.7h-1l.1-3.2c0-3 0-6-.2-8.9 0-.5 0-1 .8-1.2.5-.1.6-.7 0-.9-.8-.3-.8-.8-.8-1.5V49.7l-.2-1.3-.2-6c0-3.3-1.5-5.9-4.4-7.7L16.3 10.8l-5-3.1a8 8 0 0 0-2.7-1c-1.1-.2-2.1.4-2.6 1.7l-.6 2-.3 1.3V19l-.6 1.6c-1.2-.4-.7-1.1-.3-1.8L1.6 17v-6.2l-.1-4 1.3-3.6c1.5-1.9 3.5-2.6 6-1.9Z" class="cls-20"/>
  <path d="m6.8 59.5.1 1.1 5-2.8 4.8-2.7c.3-.2.8-.2 1 0 2.5 1.7 4.8 3.5 7.2 5.3l.1.4-3.7 2.2-8.3 4.8c-1 .6-1.5.4-2.2-.2l-4-3v1.5h-.2v-6.6h.2Zm0-35.5 6.8-3.9c.7-.4 1.2-.6 2 0l8 6-2.6 1.7-7.6 4.3c-.7.5-1.2.3-1.8-.1l-4.8-3.6v1.2h-.2v-1.4l.2-4.3ZM58 55.2l-.1-.9-5.7 3.3-2.9 1.6c-.4.2-1 .1-1.3-.1l-7-5.2c-.2 0-.3-.3-.6-.6l3.2-1.8 6.9-4c.7-.5 1.3-.4 1.9.1l5.4 4.1.2-1h.2v4.5H58Z" class="cls-66"/>
  <path d="M6.6 66.1h.2c-.3 1.8 1.8 1.7 2.3 3-.4.3-.9.8-1.4 1-.8.1-1 .6-.9 1.3 0 1 .6 1 1.3.6l3-1.7c.3-.2.8-.3 1-.1l8 5.9-3.6 2.1-7 4c-1 .7-1.7.9-2.7-.2v3l-.2.1v-19Zm36.2 26.6 1.2-.1-2.3-1.8 2.8-1.8 9.7-5.6c.6-.3 1.1-.4 1.6.1l2.1 1.6.1-1.2h.2v9H42.8v-.2ZM6.8 36v1.2c1.6-.9 3-1.6 4.3-2.5.9-.6 1.6-.6 2.4.1 2.2 1.8 4.5 3.4 7 5.3L16 42.7l-6 3.5c-.9.5-1.6.6-2.4-.2-.1-.2-.4-.2-.9-.2l.5 1.6-.4 1.9h-.3V36h.3Zm12.8 56.7 1.2-.1c-.6-.5-1-1-1.7-1.4l5.7-3.4 5.3-3c.6-.4 1.1-.4 1.8.1l7 5.2.8.3-3.6 2.2 1.5.1v.2h-18v-.2Z" class="cls-66"/>
  <path d="M63.7 150.3c-1.4.8-2.8 1-4.2 0l-.1-10.1v-36.6h.2v9.3c0 .5.3 1 .4 1.4 0 .3-.3.7-.4 1.1v6c.2 1.2-.4 2.6.7 3.7-1.4.3-.3 1.4-.7 2l1.2.4c-.3 1-1.7 1.8-.5 3l-.3.8-.4.7.3.4 1.2-.9 2.3 1.2V127c.1-1.2-.2-2-1.4-2.3l1.2-1.5v-1.1l-.2-.9c0-.9.3-1.8.4-2.7l.2-.5v32.3Z" style="fill:#ae5361"/>
  <path d="m57.7 42-5.4 3c-.3.3-1 .3-1.2.1L44 40l-.2-.4.8-.6 6.6-3.8c.3-.1.3-.6.4-1 2.2 1.6 5 2.6 5.8 5.6.2.7.2 1.5.3 2.2Zm-6.6-8.1-7.5 4.3c-.7.4-1.2.6-1.9 0l-6.2-4.6-.5-.6 6.6-3.8.7-.8 8.8 5.5Z" class="cls-66"/>
  <path d="m1.1 13.8.2-3.4v67.8q0 1.9 1.6 1s.2 0 .5.2l-.7.8c-.4.6-1.2 1.2-1.2 1.8v5.8c0 1 .8 1 1.4 1 .5 0 1-.2 1.5-.4-.5-1-.7-1.7.4-2.2l.2-.5.1-4.9v-5c-.1-.7-.4-1.5-.4-2.3 0-1.5.3-3 .4-4.5V33.4h.3v65.7h-4L1.1 86V57.2L1 13.8Z" style="fill:#b45964"/>
  <path d="m41.6 28-6.8 3.8c-.4.2-1 .4-1.3.2l-7.7-5.7 4.4-2.6 1.6-1c.2 0 .2-.4.3-.7l9.5 6Zm-9.9-6.2-3.8 1.9-1.7 1c-1 .8-1.8.6-2.8-.1-2.1-1.8-4.4-3.4-6.6-5l-1-.7 4.6-2.7c.3-.2.4-.7.6-1l8.9 5.4 1.8 1.2Zm-11.1-6.9L16 17.4c-.8.5-1.4.5-2.3-.1L7 12.1l-.1 1.2h-.2c0-1.3 0-2.6.2-3.8C7.1 8 8 7.4 9.4 8.1c2 1 4 2.3 6 3.5l5.2 3.3Z" class="cls-66"/>
  <path d="M6.6 97.6v-3.5h50q1.6 0 1.6 1.5 0 2-2.1 2H6.5Zm13.7-3.3h-1.8l.6 1.2-2 .4-.1.5c.9.3 1.7.8 2.6 1H56c2.3 0 2 .4 2-2 .1-1-.2-1.1-1-1H20.3Z" style="fill:#b25863"/>
  <path d="M6.5 49.3h.3c.4-.2.7-.5 1.1-.6.4-.2 1-.2 1.3 0l7 5.2-9.4 5.6h-.2V49.3Zm13.1 43.4v.2h-13V85h.2c.7-.4 1.3-.7 2 0l7.6 5.6.5.2-1.6 1.3v.4c1.5 0 3-.7 4.3 0ZM58 55.2h.2v25.9H58V68.7c.3-1.5-.3-2.4-1.5-3.2-2.1-1.4-4-3-6-4.5l-.7-.7 5.1-3 3.1-2ZM6.6 13.3h.2l5.7 4.5 1 1-4 2.3c-.5.4-1 .8-1.7 1-.9.3-1.2 1-1 1.8l-.2 4.3v-15Z" class="cls-66"/>
  <path d="M58.2 50.7H58L54.6 48l-2-1.6L58 43l.2 3.5v4.1Z" class="cls-70"/>
  <path d="M59.6 103.6h-.2V48.3l.2 1.4V71c0 .7 0 1.2.8 1.5.6.2.5.8 0 .9-.8.1-.8.6-.8 1.2l.2 8.9-.2 3.3v2.4c0 .6-.1 1.3.1 1.7.3.3 1 .4 1.5.6l-.6.9-.8-.7-.1.5v6.2c0 .3.3.6.4.8l-.4 1.3v3Z" class="cls-76"/>
  <path d="M6.8 36h-.3v-6.4h.3l4.5 3.7L6.8 36Z" class="cls-66"/>
  <path d="M5.4 33.4H5V11.6l.3-1.2v23Z" class="cls-24"/>
  <path d="M37.6 93v-.3h.3c1.7-1.1 3.3-1.1 4.9 0v.2h-5.2Z" style="fill:#c2bbb9"/>
  <path d="M58 81h.2v3H58l-1.5-1.6L58 81Z" style="fill:#c7bfbe"/>
  <path d="M1.3 99h4v.3l-.4.2c-1.3.3-2.5.6-3.6-.4Z" class="cls-7"/>
  <path d="m78.4 143.7-1.7.1c.4-.4.7-.9 1.2-1.2l8.3-5.5 1.1-.8-.6-.4-9.2-6.4c-2.5-1.7-2.5-1.7-5 0l-7 4.6-.4-.4 1-1.4 5.2-3.5 2.7-1.7-6.4-4.5c-.9-.7-1.6-1.5-2.4-2.3v-.5l2.3 1c0 .2.1.4.3.4 2.2 1.6 4.4 3.3 6.7 4.8.3.2 1 0 1.4-.2l5.2-3.4c1.7-1 3.4-2.2 5.3-3.5l-8.3-5.6-2.9-2.2h-1l-1.5 1.2-7.2 4.5c-.4-1 0-1.4.7-1.8l7.5-4.9-1-.7-6.3-4.5c-.6-.5-1.3-1-1-2l1 .6 5.1 3.4c1 .8 2 1.8 3.1 2.2.7.2 1.7-.7 2.5-1.2l.6-.3 5.2-3.6.5-.2 3.3-2.2.9-.7-1.4-1.1-1.8-1.2-7.4-5.3c-.8-.6-1.5-.8-2.5 0l-3 2-1 .7-4.7 3-.9.3v-1l4.8-3.2h.2l4.7-3.3-.8-.7-6.5-4.6c-1.5-.9-2.6-1.9-2.2-3.8l.1-.6 9.3-6-9.3-6.5v-1.3l1.3.7 8 5.7c.4.2 1 .5 1.3.4l3.1-1.8c1.2-1 2.5-1.8 3.7-2.7l.8-.4 4.7-3-5.9-4.4-1.2-1.2.3-.5 1.4.8c1.7 1.1 3.4 2.2 5 3.5 1.1.9 1.9.8 3 0l8-5.2c.4.2 1.4-.9 1 .5l-.5.5-7.6 5-1.2.9.8.7 8 5.6c2 1.4 1.4 1.3 3.4 0l1.2-.6.3.9-1.9 1.5 3.3 3.2-.2.7-3.7-2.6c-.5-.4-1-.4-1.5 0l-7.2 4.7-4.5 3 .5.6 10.8 7.5c.3.2 1 0 1.2-.1l6.5-4.2c.3-.2.7-.2 1.1-.3v.2c-.2.4-.3.9-.6 1.1l-2.6 1.7-4 2.7 10.8 7.7c.6.4 1.1.3 1.6-.1l.3.2.2.4.7 2.7-.8-.5c-1-1-1.7-.6-2.7 0l-7.8 5.3-1 .7a407 407 0 0 0 11.6 8.1c.3.3 1 .1 1.5-.1l3.5-2.3c.3-.2.8 0 1.1 0-.2.4-.4.9-.7 1.1l-3.7 2.5 10.6 8 1 1.6-.8.8-3.2 2-5.5 3.8h-.2l-3 2 8.3 6v.2l-1.8.1-7.3-5.3-.8.1-8 5.2-1.8-.1 9.2-6.2-10.5-7.4c-.9-.6-1.6-.9-2.5-.1-.6.5-1.4.9-2.1 1.3l-8 5.4 10 7h-1.8c-2.8-1.8-5.6-3.7-8.3-5.7-.8-.5-1.2-.5-2 0l-9 5.8Zm.7-66 1.1 1 5.5 3.8 1.2 1h.6l7.6-5.2 4.6-3-10-7c-.3-.2-.8-.3-1-.2l-5.9 3.7-3.8 2.6-.6.5-2 1.2 2.7 1.6Zm3.8 8.6 3.3-2-4.8-3.2-1.2-1-.1-.2-4-2.6c-.3-.2-1-.3-1.3 0l-3.6 2.3-.2.3c-2 1.1-3.8 2.3-6 3.7l9.4 6.5c1.5 1 1.6 1 3-.3l5-3 .5-.5Zm4.2 16.3-3.3 2.2c-1.7 1-3.3 2.2-5 3.3l-2.8 2 .5.5 10.4 7.2c.2.2.8.2 1 0 1-.4 1.7-1 2.6-1.4l5.2-3.6.4-.2 4.2-2.8-6.8-4.8-.7-.5c-.8-.6-1.7-1.1-2.5-1.8-1-1-2.1-1-3.2-.1ZM85.7 98l.4.3c2.6 2 2.7 2 4.6.4l.2-.1c.1 0 .3.1.4 0l7.2-4.9.7-.3-6.8-4.8-4.3-2.9c-.4-.3-.7-1-1.4-.5L83 87.7h-.2l-4.2 2.9-1.9 1.3 5.1 3.5 3.8 2.7Zm19 28.3-3 2 9.8 6.8c2 1.5 2 1.5 4 .3l1-.6 5.4-3.6 4.3-3-.1-.3-10.9-7.7c-.2-.2-.8-.3-1-.1l-4.1 2.5-4.8 3.4-.6.3Zm-1.2-.6c.2 0 .3-.2.5-.4l5.2-3.3.4-.3 3.8-2.6-.2-.4-11.3-7.8c-.2-.2-.8-.3-1-.2l-4.3 2.7-5.3 3.6-.2.2-2.7 1.7c3.5 2.4 6.9 4.7 10 7.1 1.6 1.1 2.9 1.8 4.4.1l.7-.4Zm-11.1-23c2.7 2 5.4 3.8 8.2 5.7.6.5 1 .5 1.6 0l7.4-4.8 2-1.4-.5-.4-10.4-7.3c-.3-.2-1-.2-1.3 0l-8 5.2c-1.3 1-1.3 1-.2 2l1.2 1ZM76.2 127l.7.6c3.4 2.4 7 4.8 10.3 7.3 1 .6 1.5.6 2.4 0l9-6 1-.8-11.5-8c-.6-.4-1-.4-1.5 0l-4 2.6-6.4 4.3Z" class="cls-87"/>
  <path d="M64.9 148.8v-2.7c-.1-1 .2-1.3 1.2-1.3h69.2c1.2 0 2.4-.3 3.7-.5.8 1 .8 2-.2 4-1 .2-2 .5-2.9.5H65Z" style="fill:#ac5160"/>
  <path d="M97.6 143.6h1.9l-10-7.1 8-5.4 2-1.3c1-.8 1.6-.5 2.5 0 3.4 2.6 7 5 10.5 7.5l-9.2 6.2 1.9.1-1.3.2h-5.3l-1.4-.1.4-.1Zm-32.5-23.3 2.5 2.3L74 127l-2.7 1.7-5.2 3.5c-.4.4-.7 1-1 1.5l.4.3 7-4.6c2.4-1.7 2.5-1.7 5 0l9.1 6.4.7.4-1.1.9-8.3 5.4c-.5.3-.8.8-1.2 1.3h-1.2l-.7-1-5-3.6-4.4-3c-.3 1 0 1.5.8 2l7.1 5.1c-1.8.1-3-1.2-4.2-2-.9-.7-1.5-.7-2.4-.2l-1.5.8v-6.8c.7.6 1.3 1.2 1.9 1.5.4.3 1.2.5 1.5.3 1.6-.7 3-1.7 4.5-2.5-1.6-2.3-3.1-2.7-5-1.5l-.5.4-2.3 1.7c-1-2.6.5-3.8 2.5-4.8-.8-.7-1.5-1.2-2-1.8-.4-.3-.7-.7-.7-1v-7.2Zm5.5 18.7 3.7 2.9c.6.4 1.5.6 2.2.5 1.1-.3 2.1-1 3.1-1.5 1-.6 1.1-1.1.2-1.8a28 28 0 0 0-3.5-2.5c-.3-.3-1-.3-1.3-.1l-4.4 2.5Zm7.8-4.4a29 29 0 0 0 3.1 2.4c1.8 1.3 1.8 1.3 3.5 0 .5-.4.6-.7 0-1a27 27 0 0 0-3.4-2.5c-.2-.2-.7-.3-1-.2l-2.3 1.3Zm0-3.3c-1-.8-1.7-1.5-2.6-2-.3-.3-1-.3-1.5 0-.5.1-.9.6-1.3 1 1.5 2.5 3.4 3 5.4 1Z" class="cls-66"/>
  <path d="M65.1 120.3v7.1c0 .4.3.8.6 1.1l2.1 1.8c-2 1-3.5 2.2-2.5 4.8l2.3-1.7.5-.4c1.9-1.2 3.5-.8 5 1.5-1.4.8-2.9 1.8-4.4 2.5-.4.2-1.1 0-1.6-.3-.6-.3-1.1-.8-2-1.5v6.8l1.7-.8c.8-.5 1.5-.5 2.3.1 1.3 1 2.5 2.2 4.3 2.1v.2l-7 .1-1.5.2v-41.5h.2c.1 1.3-.5 3 1.8 3.7-2.2.5-1.8 2-1.8 3.1v1c.2.5.4.9.7 1.2l2 1.6c-1 .7-2.1 1.1-2.5 1.9-.4.7 0 1.9 0 3.1l4-2.7c.5-.2 1.1-.3 1.5-.1 1 .6 1.9 1.4 3 2.2l-5.1 3-1.5-.6-2-1.2v1.7Z" class="cls-66"/>
  <path d="m117.9 135.3 5.5-3.8.2.1-.5.7 11.5 7.8-4.7 3.3.1.2h1.6l.1.1-2.3.1c.2-.6 0-1-.6-1.3l-6.7-4.7c-1.4-1-2.8-1.7-4.2-2.5Z" class="cls-52"/>
  <path d="M97.6 143.6H78.4l9-5.8c.7-.5 1.2-.5 2 0 2.6 2 5.5 3.9 8.2 5.8Z" class="cls-66"/>
  <path d="M63.7 150.3V67l.2-19.1.2 1.3v17.9h.4v-7.6l-.1-4.6.1-1.7-.1-4.6c0-.3.3-.6.4-1v45.5c-.1-.4-.4-.9-.4-1.4V69h-.3v39.7l-.2 40.5-.2 1Z" class="cls-38"/>
  <path d="m105.2 143.7 7.9-5.3c.2-.1.7-.1.8 0l7.3 5.2-11 .1h-5Z" class="cls-66"/>
  <path d="M121.3 143.6h1.7v-.3l-8.3-5.9c1-.8 2-1.4 3-2-.5.5 0 .8.5 1.1l7 5 3 2-4.8.3-2.2-.2Z" class="cls-66"/>
  <path d="M64.9 102.4v41.4c-.2-.5-.5-1.1-.5-1.7l.2-7.4-.2-5.1.1-7.9-.1-2v-15.5l.2-9.5.2-.6v8.2Z" class="cls-38"/>
  <path d="m123.4 143.8 4.7-.3-3-2c-2.2-1.7-4.6-3.4-7-5-.4-.3-.9-.5-.4-1.2h.2l4.2 2.5 6.7 4.7c.6.4.8.7.5 1.3h-6Z" class="cls-31"/>
  <path d="M64.9 148.8h71c1 0 2-.3 2.9-.5-.6.3-1.2.7-1.8.8H66.3c-.5 0-1-.2-1.4-.3Z" class="cls-6"/>
  <path d="m134.6 140.1-11.5-7.8.6-.7.9.3 7.6 5.2c.4.3 1 .4 1.4.6l1.9 2v.2l-1 .2Z" class="cls-21"/>
  <path d="M73.4 143.6v-.2l-7.2-5.1c-.7-.5-1-1-.8-2a616.8 616.8 0 0 1 9.4 6.7l.7.8c-.7 0-1.4 0-2.1-.2Z" class="cls-54"/>
  <path d="m135.7 140.3 2.4 2.8c-2.1 1-4.3.3-6.4.6v-.1c1-.8 2.2-1.5 3.4-2.3l.6-1Z" class="cls-52"/>
  <path d="M135.7 140.3c-.2.3-.3.8-.6 1l-3.5 2.3H130l-.1-.2 4.7-3.3.8-.2.3.4Z" style="fill:#efecec"/>
  <path d="M64.9 97.7V94a29.5 29.5 0 0 1 0-1.4l1 .2 3.6 1.2c.5.2.7.5.3 1h-.2l-3.5-1c-.7-.1-1 0-1 1l-.2 2.6Z" style="fill:#6d6362"/>
  <path d="m104 73.7-.3-1-1.2-4.5-2.3-9.4-.3-1-.5-2.5-1.8-9.3-1-6.4-.3-2.7-1.4 1.5-.2.2-1.2.3 3-2.6.3 1.1c.5 3.3.9 6.5 1.5 9.7 1.1 5.7 2.2 11.5 3.6 17.2a250.5 250.5 0 0 0 14.2 40.5c2.7 6.1 5.8 12.2 8.7 18.2 1 2.1 2.3 4.1 3.5 6.2l.1 1-1-1.5-1-1.7-6-11.9-6.3-13.4c0-.2 0-.4-.2-.5l-1.4-3.3-.5-1.2-2.8-7.3-.7-1.5v-.5l-3.1-9-1.4-4.7Z" style="fill:#3f312e"/>
  <path d="m127.4 128.7 1 1.4 5.2 7.6c-.5-.2-1-.3-1.4-.6l-7.6-5.2c-.3-.2-.6-.2-1-.3h-.2l3.2-2 .8-.8Z" class="cls-66"/>
  <path d="m41.4 1.6 3.3.7 8.5 3.9 13.8 8 16 9.5.1.5c-1.3.1-1 1.3-1.3 2.1l-.4.5H80l-1.3-.7L51 9.9l-7-4-2.7-.7-.9-.2H16.8l-4.2-2.5-.6-.9h29.4Z" style="fill:#d97e76"/>
  <path d="m93.5 38.9 1.2-.3v1l1.8 1.2.1-1.2 1 6.4c-.4-.5-.8-.5-1.3-.1l-6 3.9c-.4.2-1.2.4-1.6.1l-9.2-6.4 1-.7 4.4-3 .3-.5v-.2H90l3.5-.2Z" class="cls-66"/>
  <path d="m92.1 29.1 1.2.7-.3 1.5-1 1.2.8 1.7.7-2.4c1-.3 1.3.6 2 1l-1.6 3c-.8-.5-2.4-.2-3 .5-.7 0-1.4.2-2.3.4l-.2-.3a6.7 6.7 0 0 1-4.4 1.3l.7-.5-1.6-1.4c.3-.2.5-.7.8-.7.7 0 1-.3.9-1l.4.5-.4 1.4 2-1 .5-.5-.5-.4c-.4-.1-.8-.3-1.3-.3l-.8.3-2.6.7.3 1-.6.1-1.5.5c.2.4-1 .6 0 1-1.5.1-3 .3-4.4.2-.8 0-.8-.8-.2-1.5l2.1-2.9c0-.2.3-.3.5-.2 1.5 0 3 .3 4.4.3L85 33c.4 0 .9 0 1.3.2.2 0 .5.2.7.1.8 0 1.6-.2 2.4-.4.2-.3.5-.7.5-1.1 0-.6-.2-1.1-.3-1.7l.8.6L92 29Z" style="fill:#d87d75"/>
  <path d="m89.5 33-2.4.3-.7-.1L85 33c-.8 0-1.6.4-2.4.3-1.5 0-3-.2-4.4-.3-.2 0-.5 0-.5.2l-2.1 2.9c-.6.7-.6 1.5.2 1.5l4.3-.1 3.8.2c1.6 0 3-.3 4.4-1.3l.1.3 2.4-.4 1.4 1c.2-.1.6-.5 1-.5 1-.1 1.4-.5 1.4-1.4 0-.3.2-.5.4-.7l.5.6a3 3 0 0 1-2.8 2.6c-1.3 0-2.5.2-3.8.3L86 38H64v-.5l4 .2h6.5l.2-3 .8-1.2 1.2-.2V33H62.1v.7l-.7-.7.1-.3h27.8v.2Z" style="fill:#c76e6d"/>
  <path d="M64.1 38h22c1 0 2 0 3 .2-.5 0-1 .2-1.3.3v.2l2.2.4H76.7c-1 0-2 .4-3 .5h-.5v-.2L73 39l10.6-.7h-2.3l-4-.2-4.8.2-3-.2-4.4.2c-.3 0-.7-.3-1-.5Z" class="cls-89"/>
  <path d="m92.1 29.1-1.6 1.6-.8-.6.4-.8-.2-.2-1.2.6-1.8 1.4-2.2-1.5h1c-.2 0-.2-.1-.3-.2l1.6-1.7.4-1.4v-.2l4.7 3Z" style="fill:#b55a64"/>
  <path d="m95.7 35.3-.6-.7c-.1.3-.4.5-.4.8 0 .9-.4 1.3-1.3 1.4-.4 0-.8.4-1 .5l-1.5-1c.6-.7 2.2-1 3-.6l1.5-3h.3v2.6Z" style="fill:#b95f67"/>
  <path d="M82 26.3c.2-.8-.1-2 1.2-2v-.6l1.3.7c-1 .4-1.3 1-.3 1.7v.2l-1.1.9c-.3 0-.7 0-1-.2l-.2-.7Z" class="cls-51"/>
  <path d="M84.3 26.3v-.2c-1-.8-.7-1.3.2-1.7l2.9 1.7v.2l-1.7.8-.8.4-.1-.4.8-1-.1-.3-1.2.5Z" style="fill:#ba6067"/>
  <path d="M95.7 32.7h-.3c-.6-.3-1-1.2-1.9-1l-.4-.4.2-1.5 2.4 3Z" style="fill:#b15862"/>
  <path d="M5.1 35.8v4.7c-1.1-.3-2-.9-2.5-2.2-.1-.4-.8-.7-1.2-1V6.8l.2 4v19.9c0 .4.4.8.5 1.3.1.7 1.3 1.4.2 2.3 0 0 .1.7.4.9l1.4 1 1-.5Z" class="cls-95"/>
  <path d="M1.1 13.8v72.1l.2 13.2c-.1-.4-.4-.8-.4-1.2V15.2l.2-1.4Z" class="cls-7"/>
  <path d="M8.7 1.4c-2.4-.7-4.4 0-6 2L3.3 2C4.6 1.6 5.8 1 7 .7c.5-.1 1.2.4 1.8.6Z" class="cls-81"/>
  <path d="m11.5 3-1.2-.8.3-1.2h28.2l.5.4-1.9-.2H12.2l-1.3.3 1 .9c0 .2-.2.3-.4.5Z" style="fill:#392b28"/>
  <path d="m12 2.4-1.1-.9 1.4-.3h25.1l1.9.2 2 .2H12l.6 1a9 9 0 0 0-.5-.2Z" class="cls-50"/>
  <path d="M44.6 75 41 77.2l-9.3 5.4c-.4.1-1 0-1.3-.1l-8.2-6.1 2.8-1.8 9.7-5.5c.6-.4 1-.4 1.6 0l8.1 6Zm-12.3 8.5 5.1-3 7.3-4c.4-.3 1.2-.3 1.6 0 2.5 1.7 5 3.7 7.7 5.7l-3.7 2.1-9 5.1c-.3.2-1 .3-1.3.1L32.7 84c-.2 0-.2-.2-.4-.4Zm2.2-15.7c-1.9 1-3.8 2.2-5.6 3.3l-7 3.9c-.3.2-1 .2-1.3 0L13 69.2l3.8-2.2 8.5-5c.6-.3 1.2-.5 1.8 0l7.2 5.4.3.4ZM30 83.5l-8 4.6-3.2 1.9c-.4.1-1 .2-1.4 0l-8.2-6.2 2.4-1.4 8.8-5c.3-.3.9-.3 1.1-.1l8.5 6.2Zm6.8-15.7 5.3-3 5.7-3.3c.3-.2 1-.2 1.2 0l8 6 .2.3-4 2.3-6.7 4c-.6.3-1.1.2-1.7-.2l-8-6Zm10.7-7.5L40.9 64l-4 2.4c-.8.4-1.4.4-2.1-.2l-7.3-5.5 4.2-2.5 6.2-3.6c.9-.5 1.5-.6 2.4.2l7.2 5.4Zm-29-6.3 7.6-4.4 3.3-1.9c.4-.1 1-.1 1.4.1l7.3 5.4-4.7 2.8-5.9 3.4c-.8.5-1.3.6-2.2-.1-1.9-1.6-3.9-3-5.9-4.5l-.9-.8Zm14.1-21-6 3.6-4.2 2.4c-.5.3-1 .4-1.5 0-2.4-2-4.8-3.7-7.3-5.6l3.9-2.3 6-3.6c.8-.4 1.4-.5 2.1 0 2.2 1.8 4.5 3.4 6.8 5.1l.2.4Zm-1.4 13.7 4.3-2.5 5.7-3.3c.8-.5 1.4-.7 2.3 0 1.9 1.6 4 3 6 4.5l1 .7L44 50l-4 2.2c-.4.2-1 .2-1.4 0l-7.4-5.5Zm-21.4.9 10.7-6.2c.7-.4 1.2-.4 2 .1l5.6 4.3.9.8-4.3 2.5-6 3.5c-.8.4-1.4.7-2.3 0l-6.6-5Zm12.7-7.3L28 37l4.6-2.7c.8-.4 1.3-.5 2 .1 2.1 1.7 4.3 3.2 6.7 5L37 42l-5.8 3.4c-.7.4-1.2.4-1.8-.1l-6.2-4.6-.7-.4ZM58 68.7V80c-2 1.6-3.6 1.5-5.5-.3-1.7-1.6-3.7-2.9-5.8-4.4L58 68.7Z" class="cls-66"/>
  <path d="M6.8 71.4c-.1-.8 0-1.2 1-1.4.4-.1.9-.6 1.3-.9-.5-1.3-2.6-1.2-2.3-3l3.9 3-3.9 2.3Z" class="cls-86"/>
  <path d="m84.8 29.6 2 1.5 2 .4c.8.1 1.3.3.7 1.2H61.7l-.1.3.7.7 1.8 3.8v.4c.4.2.8.5 1.2.5l4.3-.2 3 .2 5-.2 3.8.2h2.4l-10.7.7h-4.9c-1.3-.5-2.5-.9-3.8 0v2.6l.5 4.8v1.2c-.2.3-.5.6-.5 1l.1 4.5-.1 1.7.2 4.6-.1 7.6h-.3V49.3c0-.5-.2-1-.3-1.4v-1.5l-.7-7.3c-.6-3.7-2.8-6.2-5.8-8L33 16.1 17 6.3l1 .1c.3-1.2-.7-1.1-1.3-1.5h23.7l1 .2-2.3.1v.4l5.4 1L44 6l7.1 4 27.5 16.2 1.4.7 4 2.4.8.5Zm-25.9 1c2 1.5 4.4.8 7 1l-1.7-5.4-.5-1.8-2.2-6.9-.9-.5-4.3-2.5-2.8-1.7-2.9-1.6h-.1l-.4-.5-5.9-3.5c-.9-.5-2-.5-3-.8H41l-5.3-.2H19.4l-.1.2 3 1.7 6.3 4c.2.1.5 0 .8 0l2.7 2.1 6.7 4 .4.3.2.4 9 5.3.8.5 9 5.4.7.5ZM70 24.2l1.8 6.2c.1.7.3 1.2 1.2 1.2h12v-.4l-3.6-2.1-10-5.8-2-1.3.5 2.2Zm.7 7.3v-.7l-2.6-9c0-.3-.2-.6-.4-.7-1.4-1-2.8-1.7-4.6-2.8L66.8 31c.1.3.5.6.7.6h3.2Z" style="fill:#3c2d2a"/>
  <path d="m63.2 39 .7 7.4v1.5L63.7 67v19.5l-.3 1.5v20.5c-1.5 0-2.4.7-3 2l.3-4.2 1.2-1.7-1-.3.7-1c.1-.1.3-.3.3-.6 0 0-.3-.3-.5-.3l-.6.5-1.2 1.1v-3.4c0-.5.3-.9.5-1.4 0-.2-.4-.5-.4-.8v-6.2l.1-.5.9.7.5-1c-.5-.1-1.2-.2-1.5-.6-.2-.3 0-1 0-1.6v-2.4l1-.1c.2-.1.5-.5.5-.7v-2.4l2.1-.2.1-9v-.7c-1.3-.6-.4-1.7-.6-2.6 0-.2.3-.5.6-.9-.4 0-.8-.2-1.1-.3l.1-.4c1.3-.6 1-1.7 1-2.7V64l-.5-3.4c.2-.6.5-1 .5-1.5v-3.4c0-1.3.2-2.6 0-4-.1-.7-.8-1.3-1-2.1-.2-.5 0-1.3.2-1.6 1-.9 1.2-1.4.5-2.5 0-.2-.2-.4-.1-.5 1-2 .2-4 .2-6Z" style="fill:#d67b74"/>
  <path d="m5.1 35.8-1 .5-1.4-1c-.3-.2-.4-.8-.4-.9 1.1-.9 0-1.5-.2-2.3-.1-.4-.5-.9-.5-1.3V17.1l2.6 1.7c-.4.7-.9 1.4.3 1.8L5 19v16.8Z" class="cls-36"/>
  <path d="M16.8 5c.6.3 1.6.3 1.4 1.5h-1C16.2 5.6 15 5 14 4.3c-.8-.6-1.7-1-2.5-1.5l.5-.5.5.2L16.8 5Z" class="cls-99"/>
  <path d="m59.6 104 1.2-1 .6-.6c.2 0 .6.3.5.3 0 .3-.2.5-.3.7l-.8 1c.4 0 .6 0 1 .2l-1 1.8-.4 4.1c.6-1.3 1.5-2 3-2L62 110l1 .8.3 1.2c.4 1 .1 2-.8 2.2-.5 0-1-.3-1.5-.5 0 1.2.6 2.4 1.4 2.2 1-.1 1 .4 1 1 0 .5-.3 1-.4 1.6l-1 .5-1.6-.5h-.7v-3c0-.5.2-.9.3-1.2l-.3-1.4v-8.8Z" class="cls-76"/>
  <path d="M62 124.7c1.3.3 1.5 1 1.5 2.3v5.7l-2.4-1.2-1.2.9-.3-.4.4-.7c.1-.3.4-.7.3-.8-1.2-1.2.2-2 .5-3l-1.1-.4c.3-.6-.8-1.7.7-2 .7 1 .2-.6.7-.3.3 0 .8 1.3 1-.1Z" style="fill:#b65b65"/>
  <path d="M63 118.5c.1-.5.4-1 .4-1.6 0-.6 0-1.1-1-1-.8.2-1.5-1-1.4-2.2.5.2 1 .6 1.5.5.9-.2 1.2-1.2.8-2.2l-.2-1.2-1-.8 1.3-1.4V88l.3-1.5V118l-.3.5H63Z" style="fill:#bc6368"/>
  <path d="M63 118.5h.4l-.4 2.7.2.9v1.2c-.8-.7-1.4-2.2-2.6-1.2l-1-.7v-3l.7.1c.2.4.3 1 .6 1.1.4.2 1.2.3 1.1-.6l1-.5Z" style="fill:#b05462"/>
  <path d="m59.6 121.4 1 .7c1.2-1 1.8.5 2.6 1.2l-1.2 1.4c-.1 1.4-.6 0-1 .1-.4-.3.1 1.4-.7.4-1.1-1.1-.5-2.5-.7-3.8Z" style="fill:#be6369"/>
  <path d="M1.4 37.2c.4.4 1 .7 1.2 1.1.4 1.3 1.4 1.9 2.5 2.2v22.3l-.9-.2-1-.3.5-1c.2-.5.6-1 .7-1.6 0-.3-.5-.7-.7-1l-.5.6-.9.2-1-.5v-1.4l.3-2.4c0-.9-.2-1.8 1.2-1.8l-.4-3c-.8 0-.9-.5-.8-1.3v-3.3l1-1.6.4 1.4 1.4-1.2-.9-1c-.6-.3-.8-.7-.8-1.4 0-.5-.3-1-.6-1.6l-.5-1c-.2-.4-.2-.8-.2-1.2v-1Z" class="cls-63"/>
  <path d="M5.1 75.8v5L5 85.7c0 .2 0 .5-.2.5-1.2.5-1 1.3-.4 2.2-.5.2-1 .4-1.5.4-.6 0-1.3 0-1.3-1 0-2-.2-3.9-.1-5.8 0-.6.8-1.2 1.2-1.8l.7-.8-.5-.1q-1.6.8-1.6-1.1v-3.5l.3 2.7.3 1.3 1-2.5.6 1.3h.3c0-.5 0-1 .2-1.4 0-.5.3-1 .4-1.4l.7 1.1Z" class="cls-24"/>
  <path d="m5.1 75.8-.7-1.1-.4 1.4-.2 1.4h-.3L3 76.2c-.4.9-.7 1.5-1 2.6-.3-.7-.4-1-.4-1.4l-.3-2.7v-8.3h.3l.4 1.5-.5.3.2.5 3.4.3c-.1 1.5-.4 3-.4 4.5 0 .8.3 1.6.4 2.3Z" style="fill:#c3686b"/>
  <path d="m5.1 69-3.3-.3-.3-.6.5-.2-.4-1.5L2 65l.6-1a3 3 0 0 1-1.1-.6V62c.4-.1 1-.1 1-.4.4-.7.5-1.5.6-2.2l.5-.7c.2.4.7.8.7 1 0 .7-.5 1.2-.7 1.8l-.4.9 1 .3.8.2V69Z" class="cls-51"/>
  <path d="M1.4 38.2c0 .3 0 .7.2 1l.5 1.2c.3.5.6 1 .6 1.6 0 .7.3 1.1.8 1.5.4.2.6.5.9.8L3 45.6l-.4-1.4-1 1.5h-.2v-7.5Z" class="cls-95"/>
  <path d="M1.4 45.7h.2V49c0 .8 0 1.4.8 1.3l.4 3c-1.4 0-1.2 1-1.2 1.9l-.2 2.4V45.7Zm.2 17.8 1.1.7-.6 1-.5 1.2h-.2v-2.2l.2-.7Z" class="cls-84"/>
  <path d="m1.6 63.5-.2.7V59l.9.5c-1.1.5-.5 1.6-.7 2.4v1.6Z" class="cls-24"/>
  <path d="M50.9 97.4h-28V96c.9-.4.7-1 .7-1.6h29c-.3 0-.4.2-.6.3l.3.6-1.4 2.1Z" class="cls-63"/>
  <path d="m50.9 97.4 1.4-2.1-.3-.6.5-.4H57c.8 0 1.1.2 1.1 1 0 2.5.2 2-2 2.1H51Z" style="fill:#d47973"/>
  <path d="M21.7 97.4h-2c-1-.2-1.8-.7-2.7-1v-.6l2.1-.3-.6-1.2h1.8l.9 1.8.5 1.3Z" style="fill:#ba5e67"/>
  <path d="M21.7 97.4c-.2-.4-.3-.9-.6-1.3l-.8-1.8h3.3c0 .7.1 1.3-.6 1.7-.2.1 0 1-.1 1.4h-1.2Z" style="fill:#c1656a"/>
  <path d="m76.2 127.1 6.4-4.3 4-2.6c.5-.4 1-.4 1.5 0l11.4 8-1 .8-9 6c-.8.6-1.4.6-2.3 0L77 127.7l-.7-.6Zm29.2-48.7 3.1 9v.3c-.4.1-.9.1-1.2.3-2.2 1.4-4.3 2.9-6.5 4.2-.3.2-.9.3-1.1.1l-10.8-7.5-.6-.6 4.6-3c2.4-1.6 4.8-3 7.1-4.7.6-.4 1-.4 1.6 0 1.1 1 2.4 1.8 3.7 2.6l.1-.6Zm-14 21.4 8-5.2c.3-.2 1-.2 1.3 0l10.4 7.3.4.4-1.9 1.4-7.4 4.8c-.6.5-1 .5-1.6 0l-8.2-5.7c0-.3.4-.7.3-.8-.5-.7 0-2-1.3-2.2Zm7.3-39.6-8 5.2c-1.2.8-2 .9-3 0-1.6-1.3-3.3-2.4-5-3.6l-1.5-.7-1.2-.9c.8-1 .1-1.5-.5-2l8.8-5.7c.7-.5 1.2-.6 2 0l5.1 3.6 4.3 3.1-1 1Zm15.5 41.5 6.1 13.4v.4h-1.1l-3.6 2.3c-.4.3-1.2.4-1.5.2l-11.6-8.1 1-.8 7.9-5.2c1-.7 1.7-1 2.6 0l.8.4-.6-2.6Z" class="cls-66"/>
  <path d="m68.6 120.4 5.1-3-3-2.3a2 2 0 0 0-1.3.2l-4.2 2.7c0-1.2-.3-2.4 0-3.1.5-.8 1.6-1.2 2.6-1.9l-2-1.6c-.4-.3-.6-.7-.7-1.1v-1.1c0-1.2-.4-2.6 1.8-3-2.3-.9-1.7-2.5-1.8-3.9v-.1l2.5 1.6c.8.6 1.5 1 2.5.4.4-.2 1-.1 1.6-.1l1 .7-.5 1-.7 1.1-5.1-3.4-1-.6c-.4 1.1.4 1.6 1 2l6.3 4.5 1 .7-7.6 5c-.6.3-1 .8-.6 1.7l7.1-4.5c.3.5.4 1 .8 1.3.5.6 1.4 1 1.9 1.6 1 1 1.8.4 2.7 0 1-.6.1-1.3.1-2 2.7 2 5.4 3.8 8.3 5.7l-5.3 3.6-5.3 3.4c-.3.2-1 .3-1.3.1l-6.8-4.7-.3-.4 1.2-.5Zm11.6 1.5-3.3-2.4c-.3-.3-1-.3-1.3-.1a58 58 0 0 0-4.4 2.5c-.2.1-.2.8 0 .9.9.8 1.8 1.7 2.9 2.3.5.2 1.3.2 1.8-.1 1-.5 2-1.3 3-2l1.3-1Zm-1.5-4.2c1.3 1 2.5 1.9 3.8 2.7.1.1.6 0 .8 0 1.9-1.5 1.9-1.5 0-2.8l-.4-.2c-1.9-1.4-2.1-1.4-4.2.3Z" class="cls-86"/>
  <path d="m82.8 71.8 5.9-3.7c.2-.1.7 0 1 .1l10 7-4.6 3.1a1271 1271 0 0 1-7.6 5.1h-.6l.2-.7L84 72.2c-.1-.4-.3-.8-.9-.4h-.3Z" class="cls-66"/>
  <path d="m98.7 60.2 1-1-4.2-3-5.3-3.7c-.7-.6-1.2-.5-1.8 0L79.5 58l-1.1.8 1.6 1.3 1.2 1-.2.4-.6-.4c-1.1-.6-2-1.8-3.5-1.7l-.2-.2c0-.3 0-.7-.2-.8l-3.1-2L68 53c-1-.7-2-1.1-3-.2v-3c.7.2 1.5.5 2 .3 1.4-.6 2.7-1.5 4-2.3.2-.1.3-.4.4-.6l3.8-2.4.4-.3 1.6-1.1-2.3-1.6-1.7-1.6c-.1-.1-1-.3-.1-.7h.4l2.6 1.6c2.3 1.6 2.2 1.5 4.5.1 1.4-.9 2.6-2.2 4.5-1.9l-.3.6-4.5 2.9-1 .7 9.3 6.4c.3.2 1.1.1 1.6-.1l6-4c.5-.3.9-.4 1.3.2l-.8 1-4.8 3-1.5 1.2 9.4 6.6.3 1c-.3.6.5 1.4-.5 1.9.3-1.4-.7-.3-1-.5Zm-27-6c1.8 1.4 3.5 2.8 5.4 4 .7.4 1.6.1 2-.8l.4-.3 8.8-6-9.5-6.6c-.1-.1-.5-.2-.7-.1L75.5 46l-.2.2-3.6 2.4h-.2l-3.8 2.7 4 3Z" class="cls-48"/>
  <path d="M99.7 60.7c1-.4.2-1.3.5-2l2.3 9.5 1.2 4.6-1.2.7c-2 1.2-1.3 1.3-3.3 0l-8-5.7-.9-.7 1.2-.9 7.6-5 .6-.5ZM78.8 73.3l-3 1.8c-.4.1-1-.2-1.3-.4L66.4 69l-1.3-.7v-.6l5.1-3.3 4.1-2.8h.3l.7 2.6 2.4 8.4c.1.4.1 1.1.9.6h.2Z" class="cls-66"/>
  <path d="m91.4 117 5.2-3.5h.3c.2.4.3.8.6 1l9 6.3c.8.5 1.8.8 2.7 1.3-1.8 1-3.5 2.2-5.2 3.3l-.9-.9-10-7c-.4-.3-1.1-.3-1.7-.4Z" style="fill:#978585"/>
  <path d="m105.3 126 4.8-3.2h.3c-.5.7.2.9.6 1l8.5 6c.7.5 1.6.8 2.4 1.2v.3l-5.4 3.6h-.2c1-1-.2-1.3-.6-1.6-3.4-2.5-7-4.8-10.4-7.2Z" class="cls-52"/>
  <path d="m65.8 99 4.7-3 11 7.6 1.4.5-5.3 3.5-1-.2 1.5-.3c-.6-.5-.8-.8-1.2-1l-8-5.6c-1-.6-2.1-1-3.1-1.5Z" class="cls-73"/>
  <path d="M78.8 108c1.7-1 3.3-2.2 5-3.3h.3l.5 1 9.6 6.6c.4.3 1 .4 1.5.5l-5.3 3.6h-.2l.4-.7-10.4-7.3c-.4-.2-1 0-1.4-.1v-.3Z" style="fill:#9a8887"/>
  <path d="M96.8 113.5h-.2l4.3-2.7c.2-.1.8 0 1 .2l11.3 7.8.2.4-3.8 2.6-2-1.7-9.5-6.4c-.3-.2-.8-.1-1.3-.2Zm-10.2-11.8-3.3 2.1c-.2-.3-.3-.7-.6-.9l-11.2-7.6 3-2c1-.8 1.6-.6 2.5 0l7.4 5.3 1.7 1.2c-.6.5-.4 1.4.5 1.9Zm-9.2-11.9c-1.4 1.4-1.5 1.4-3 .3L65 83.6l6-3.7c-.6.6-1.2 1.4-2 2l-2.6 1.8 4.6 3.1c.2.2.8 0 1-.1l4.5-2.5c.3-.1.5-.4.8-.7-1.4-1-2.6-2.1-4-3-.6-.4-1.3-.6-2-.9 1.1-.8 2.3-1.7 3.5-2.4.3-.2 1 0 1.3.1l4 2.6c-1 .4-1.7 0-2.5-.7-.7-.6-1.5-1.4-2.9-1.1l.7.7 4.3 3.4c.8.6 1.3 2.4 1 3.3-2.7 0-4.4 2.2-6.7 3 .9 1.8 2.1 1.7 3.4 1.3Zm44.6 41.5v-.3c.7-.3.4-.7-.1-1l-4.3-2.8c-2-1.4-4-3-6-4.3-.4-.2-.9-.1-1.2-.1h-.3l4-2.6c.3-.2.9-.1 1.1 0l10.9 7.8.1.4-4.2 2.9ZM88 85.8c1.5 1 3 1.9 4.3 2.9l7 4.8-.8.3-7.2 5-.4-.1c.1-.5.4-1 .3-1.4 0-1-.5-1.8-.7-2.6L88 85.8Z" class="cls-66"/>
  <path d="M90.7 98.8c-1.9 1.6-2 1.6-4.6-.4 0-.3.2-.6.1-.8L83.7 89c-.1-.5-.4-.9-.6-1.3l3.5-2.4 2.7 9.5 1.4 4Z" class="cls-73"/>
  <path d="M69.8 95c.4-.4.2-.7-.3-1L66 93l-1-.3v-9.9h.2c-.4 2 .6 3 2.1 3.8l6.6 4.6.7.7-4.7 3.2Zm-4.7-25.4 9.3 6.5-9.3 6c0-.7 0-1.2.8-1.5l1.9-1.2L70 78c-1-.6-1.8-1.3-2.5-1.3-.8 0-1.5.7-2.4 1.1v-6.6l3 1.9v-.3c-.7-.6-1.5-1.3-2.4-1.7-.7-.4-.8-.8-.7-1.5Z" class="cls-66"/>
  <path d="M78.8 73.3h-.2c0-.5.3-1 .2-1.4l-3-9.9c0-.3-.4-.5-.6-.8L77 60c.3-.1.7-.2.9 0l2.4 1.6h-.7l1.7 5.8 1.3 3.2-3.7 2.7Z" class="cls-73"/>
  <path d="M71.2 79.6c.7.3 1.5.5 2.2 1 1.3.8 2.5 1.8 4 3-.4.2-.6.5-1 .6l-4.3 2.5c-.3.1-.9.3-1.1.1l-4.6-3c1-.8 2-1.3 2.6-1.9.8-.6 1.4-1.4 2-2l.3-.3Zm32.3 46.2-.7.4c-1.5 1.7-2.8 1-4.3 0-3.2-2.5-6.6-4.8-10-7.2l2.6-1.7.9 1 9.5 6.6 2 1Zm12.8 9h.2c-.3.3-.7.4-1 .6-2 1.3-2 1.3-4-.2l-9.7-6.8c1-.8 2-1.4 3-2 0 .3 0 .7.2.8l10.3 7.3c.3.2.7.2 1 .3ZM78.8 108v.3c0 .2 0 .6.2.7l10 7c.3.3.8.2 1.2.3h.2c-.8.6-1.6 1.1-2.5 1.5-.3.2-.8.2-1 0l-10.5-7.3-.4-.5 2.8-2Zm29.7-20.1.7 1.5q.2 1.6-1.4 1.4a1 1 0 0 0-.5.1l-3.6 2.6 4 2.9c.4.2 1.3.1 1.7-.1 1.5-.8 1.7-.8 2.6.4l.5 1.2-1 1.4 1.2.8 1 1c-.5.3-1 .4-1.6 0l-11-7.7 4.2-2.7c.8-.5 1.7-1 2.5-1.7.4-.2.5-.7.7-1.1Zm11.8 27.6v-.4l6.2 12-10.7-8 3.7-2.5c.3-.2.5-.7.8-1.1ZM85.7 98.1 82 95.4l-5-3.6 1.7-1.2 4.3-2.9c-.1.5-.4 1.1-.3 1.6.3 1.6.8 3.1 1.3 4.7.5 1.4.5 3 1.8 4.1Z" class="cls-66"/>
  <path d="M82.8 71.8h.3c0 .5-.2 1.1 0 1.6l2.6 9-5.5-3.7c.1-.2.4-.4.3-.6l-.8-3c0-.3-.4-.5-.7-.7l3.8-2.6Z" class="cls-9"/>
  <path d="M95.7 112.8c-.5-.1-1.1-.2-1.5-.5l-9.6-6.7-.5-.8h1.2c.7.3 1.3.8 2.1 1.3l-.5-2.2.2-1c.3.1.7.3.8.6.5 1.2.5 2.8 1.3 3.7 1.2 1.3 2.9 2.2 4.7 3.4l-1.7-6.1h.6l.7.5 2.6 7.6-.4.3Z" style="fill:#6d6261"/>
  <path d="M77.4 89.8c-1.3.4-2.5.5-3.4-1.2 2.3-1 4-3.1 6.8-3 .3-1-.3-2.7-1-3.4l-4.4-3.4-.7-.7c1.4-.3 2.2.5 3 1.1.7.6 1.4 1 2.3.7l.2.3c0 .1-.2.3-.1.5l1.6 5.6c0 .2.5.3.7.5l-5 3Z" class="cls-66"/>
  <path d="M92.8 104.5h-.6l1.6 6c-1.7-1.2-3.4-2-4.6-3.3-.8-.9-.9-2.5-1.3-3.7-.1-.3-.5-.5-.8-.7v-.2c1-1 2.1-1 3.2 0 .8.8 1.7 1.3 2.5 2Z" style="fill:#9b8988"/>
  <path d="m82.2 62.8 5.8 4.3-4.7 3-2.1-7.7 1 .4Z" class="cls-86"/>
  <path d="m96 112.5-2.5-7.5 6.8 4.8-4.2 2.7Z" class="cls-66"/>
  <path d="M65.8 99c1 .5 2.1.9 3 1.5 2.8 1.8 5.4 3.7 8.1 5.6l1.2 1-1.4.3-4-2.6a59.7 59.7 0 0 0-7.6-4.6v2.1l-.2.1v-3.1l.9-.2Z" style="fill:#6e6462"/>
  <path d="M103.5 125.8c-.7-.3-1.4-.5-2-1-3.2-2.1-6.3-4.4-9.5-6.6l-1-.9.4-.2c.6.1 1.2.1 1.7.5 3.4 2.2 6.7 4.6 10 7 .4.2.6.5.9.8l-.5.4Z" style="fill:#716665"/>
  <path d="m71.5 95.3 11.2 7.6c.3.2.4.6.6 1l-.4.1c-.5-.1-1-.2-1.3-.4L70.5 96l1-.7Zm25.3 18.2c.5 0 1 0 1.3.2l9.5 6.4 2 1.7-.4.3c-1-.5-2-.8-2.7-1.3l-9-6.2c-.3-.3-.4-.7-.6-1Z" class="cls-21"/>
  <path d="M78.1 113.3c0 .6 1 1.3 0 1.8s-1.8 1.2-2.8 0l-2-1.5c-.3-.3-.4-.8-.6-1.3l1.6-1.1c.2-.2.7-.2 1 0l2.8 2Z" class="cls-66"/>
  <path d="M116.3 134.8c-.4 0-.7-.1-1-.3l-10.3-7.3c-.2-.1-.2-.5-.3-.8l.6-.3 10.4 7.2c.4.3 1.6.6.6 1.5Z" class="cls-31"/>
  <path d="m90.7 98.8-1.4-4-2.6-9.5c.7-.6 1 .2 1.4.5l2.4 8.8.8 2.6c0 .5-.3 1-.4 1.5l-.2.1Z" style="fill:#716564"/>
  <path d="M65.1 69.6c0 .7 0 1.1.7 1.5 1 .4 1.7 1.1 2.5 1.7l-.2.3-3-1.9v6.6c1-.4 1.7-1 2.5-1 .7 0 1.4.6 2.5 1.2l-2.3 1.4c-.7.4-1.3 1-2 1.2-.8.3-.8.8-.7 1.5v.6h-.2V68.3h.2v1.3Z" class="cls-66"/>
  <path d="m85.7 82.5-2.6-9.1c-.2-.5 0-1 0-1.6.6-.4.8 0 1 .4l3 10.5-.2.8-1.2-1Z" class="cls-79"/>
  <path d="m72.7 104.8 4 2.6 1 .2-.7.3c-.8.5-1.8 1.4-2.4 1.2-1.1-.4-2-1.4-3.1-2.2l.7-1.2.5-1Z" class="cls-66"/>
  <path d="M85.7 98.1c-1.3-1-1.3-2.7-1.8-4.1-.5-1.6-1-3.1-1.3-4.7-.1-.5.2-1 .3-1.6h.2c.2.4.5.8.6 1.3l2.5 8.6c.1.2 0 .5 0 .8-.2 0-.3-.2-.5-.3Z" style="fill:#726766"/>
  <path d="m81.2 62.4 2.1 7.8-.7.4c-.4-1-1-2-1.3-3.2-.6-1.9-1-3.8-1.7-5.8h.7l.9.7Z" class="cls-79"/>
  <path d="m81.4 81 4.8 3.3-3.3 2-1.5-5.2Z" class="cls-9"/>
  <path d="M64.9 97.7 65 95c0-.8.3-1 1-.8l3.5.9c-1.6 1-3.1 2.2-4.7 3.3v-.7Z" class="cls-73"/>
  <path d="m81.4 81 1.5 5.3-.5.4c-.2-.1-.6-.2-.7-.4L80 80.7l.2-.5 1.2.9Z" class="cls-79"/>
  <path d="m104 73.7 1.4 4.7-3.3-3.2 1.9-1.5Z" class="cls-66"/>
  <path d="M79 74.4c.3.2.6.4.7.7l.8 3-.3.6-1.1-1-.7-2.8.6-.5Z" style="fill:#786d6b"/>
  <path d="M91.4 99.8c1.4.2.8 1.5 1.3 2.2l-.3.8-1.2-1c-1.1-1-1-1 .2-2Z" style="fill:#7c7271"/>
  <path d="M87 102.6c.1 0 .1.1 0 .2 0 .4-.2.8-.1 1.1 0 .7.3 1.3.5 2.2-.9-.5-1.5-1-2.1-1.2-.4-.2-.8-.1-1.2-.1h-.3c1-.8 2.2-1.5 3.3-2.2Z" style="fill:#c9c2c1"/>
  <path d="m78.4 75 .7 2.7-2.7-1.6 2-1.2Z" class="cls-66"/>
  <path d="m81.2 62.4-1-.8L78 60l-.9.1c-.6.3-1.1.8-1.7 1.2l-.7.4h-.3l2.6-2.1c1.5-.1 2.4 1 3.5 1.7l.6.4 1.1 1.2-1-.4Z" class="cls-43"/>
  <path d="m68.6 120.4-1.2.5-2.3-1.1v-1.2l2 1.2 1.5.6Zm45.1-19.4-1-.9-1.1-.8.9-1.4 1.5 3.3-.3-.2Z" class="cls-66"/>
  <path d="M86.6 101.7c-.9-.5-1.1-1.4-.4-1.9l1.3 1-.9.9Z" style="fill:#7a706f"/>
  <path d="m70.6 139 4.4-2.5c.4-.2 1-.2 1.3 0l3.5 2.6c1 .7.9 1.3-.1 1.8s-2 1.2-3.2 1.5c-.7.1-1.6-.1-2.2-.5-1.3-.8-2.4-1.8-3.7-2.9Zm7.7-4.4 2.3-1.3c.3-.1.8 0 1 .1L85 136c.6.4.5.7 0 1-1.7 1.4-1.7 1.4-3.5.1l-3.2-2.4Zm.1-3.3c-2 2-3.9 1.5-5.5-1 .5-.4 1-.9 1.4-1 .5-.3 1.2-.3 1.5 0 1 .5 1.7 1.2 2.6 2ZM65 68.3V46.4l-.3-6.6.4-.5c2-.5 3 0 3.6 2l.3 1 1.6 5.5 1-.7v.2l-.4.5c-1.3.8-2.6 1.7-4 2.3-.5.3-1.3-.1-2-.2v18.4Zm35-10.5c-3.2-2.1-6.2-4.3-9.5-6.6.6-.4 1-.8 1.5-1l4.8-3.3c.3-.2.5-.6.8-1l1.8 9.4.5 2.5Zm12 38.9c-.9-1.2-1.1-1.2-2.6-.4-.4.2-1.3.3-1.7.1-1.4-.9-2.6-1.9-4-3l3.6-2.5h.6q1.5 0 1.3-1.5l2.8 7.3Z" class="cls-66"/>
  <path d="M96.6 39.6v1.2c-.8-.5-1.4-.8-1.9-1.3-.2 0 0-.6 0-.9l.2-.2 1.7 1.2Z" style="fill:#eeecec"/>
  <path d="M96.6 39.6 95 38.4l1.4-1.5.3 2.7Z" style="fill:#bab2b1"/>
  <path d="m84.8 29.6-.8-.4-1.4-1.1-1.2-1.3.5-.5c0 .3.1.6.3.7.2.2.6.3.9.2l1.2-.9 1.1-.5.2.2-.8 1.1.1.4.8-.4 1.7-.8-.4 1.4-1.6 1.6.2.3h-.8Z" class="cls-36"/>
  <path d="m44 6 .6.7-5.4-1v-.4h2.2l2.6.6Z" style="fill:#392c29"/>
  <path d="m81.4 26.8 1.2 1.3 1.4 1-4-2.3h1.4Z" class="cls-51"/>
  <path d="M85.2 39.3c-1.9-.2-3.1 1-4.5 2-2.3 1.4-2.2 1.4-4.5-.1l-2.6-1.6c1-.1 2-.4 3-.4h8.6v.1Z" class="cls-70"/>
  <path d="m84 37.7-3.8-.3c-.9-.4.3-.6.1-1l1.5-.5.6-.1h.7l1.6 1.4-.7.5Z" class="cls-92"/>
  <path d="M89.5 32.7c.6-.9 0-1-.7-1.2-.6 0-1.3-.3-2-.4l1.9-1.4 1.2-.6.2.2-.4.8c.1.6.4 1.1.3 1.7 0 .4-.3.7-.5 1.1v-.2Z" style="fill:#cc736f"/>
  <path d="m93 31.3.5.5-.7 2.4-.8-1.7 1-1.2Z" style="fill:#c66b6d"/>
  <path d="M83.1 35.8h-.7l-.3-1 2.7-.7c0 .7-.2 1-1 1-.2 0-.4.4-.7.7Z" style="fill:#c2676b"/>
  <path d="m85.2 34.6-.4-.5.7-.3c.5 0 1 .2 1.3.4l.6.3-.5.6-1.6-.5Z" class="cls-76"/>
  <path d="m85.2 34.6 1.7.5-2.1 1 .4-1.5Z" style="fill:#bd6168"/>
  <path d="M64 37.5c-.5-1.3-1.1-2.6-1.8-3.8V33h11.4v1.5l1.2.1-.1 3H72c-.3-1.4-1.4-1.3-2.4-1.1-.5 0-1 .8-1.4 1.2l-4.1-.2Z" class="cls-20"/>
  <path d="M68.2 37.7c.4-.4.8-1.1 1.4-1.2 1-.2 2.1-.3 2.4 1.2h-3.8Z" style="fill:#cf7571"/>
  <path d="M74.8 34.6h-1.2V33h3.2v.3l-1.2.2-.8 1.1Z" class="cls-92"/>
  <path d="m75.3 44.8-3.8 2.5V47l-2-7.6 1.8-.4H73v.3h-1.4l2.4 1.9c-.3 1 .3 3 1.2 3.5Z" class="cls-73"/>
  <path d="m74 41.3-2.3-2H73l.1.3c-1 .3 0 .5.1.6l1.7 1.5-1-.5Z" style="fill:#eae8e8"/>
  <path d="m35.7 6.2 5.3.2-1.7.1 8 6-8.9 5.2.4.6-6.7-4-2.7-2.1-.5-.9 8-4.7v-.2h-1.2v-.2Zm12.8 18-9-5.3c-.2 0-.2-.2-.3-.4l8.1-4.6c.8-.5 1.4-.4 2 .1l2.7 2 4.4 3.3-5.6 3.3c-.8.4-1.5 1-2.3 1.6Zm9.7 5.9-9-5.4 1.3-.6c2-1.2 4.1-2.3 6.1-3.6.6-.3 1-.3 1.6.1l5.2 3.8h.3l.5 1.8v.4c-1.5.7-3 1.4-4.3 2.2-.6.3-1.1.9-1.7 1.3Z" class="cls-66"/>
  <path d="M63.4 24.4c-1.7-1.2-3.5-2.4-5.2-3.8-.6-.4-1-.4-1.6 0L50.5 24l-1.3.6-.7-.5 2.3-1.6 5.6-3.3A781 781 0 0 0 52 16c-1-.6-1.8-1.3-2.7-2-.6-.5-1.3-.6-2-.1l-8 4.6-.5-.2-.4-.6 8.8-5.1-8-6 1.7-.2h.2l5.8 4.4c.9.7 1.6 1.3 2.7.4.2-.1.6 0 .8 0h.2l-1 1.7 7 5.2c.6.5 1.2.5 1.8 0l2.2-1 1 .5c-1 .6-2 1.2-3 2l1.4 1c1.3 1.1 3.2 1.7 3.4 3.8Z" class="cls-48"/>
  <path d="m71.5 23.3 10 5.8-.1.1c-.5 0-1-.3-1.3-.1l-3.5 2v.2h1.8v.2l-5.4.1c-.9 0-1-.6-1.3-1.2L70 24.2l1.5-1Zm.6 6.3c-.1 1.6.4 2 2 1.5l-2-1.5Z" class="cls-66"/>
  <path d="M70.7 31.5h-3.2c-.2 0-.6-.4-.7-.6l-3.7-12.6 4.6 2.8a1544.6 1544.6 0 0 1 3 9.8v.6Z" class="cls-20"/>
  <path d="M35.7 6.2v.2c-.6.2-1.1.3-1.6.6l-5.6 3c-.6.4-1.1.3-1.7-.1L23 7c-.6-.4-1.5-.5-2.3-.8l-.1.4L22.2 8l-3-1.6.1-.3h16.4Z" style="fill:#cac3c2"/>
  <path d="m60.6 17-2.2 1.2c-.6.3-1.1.4-1.8-.1l-7-5.3 1-1.6 2.9 1.6c.8.8 1.5 1.8 2.8 1.7l4.3 2.5Z" class="cls-66"/>
  <path d="m22.2 8-1.7-1.4.1-.4c.8.3 1.7.4 2.4.9l3.8 2.9c.6.4 1 .5 1.8.1L34 7c.5-.3 1-.4 1.6-.6H37v.2l-8 4.7.5.9h-.8A692 692 0 0 1 22.2 8Z" class="cls-54"/>
  <path d="M64.1 26.6v-.4l1.7 5.4c-2.5-.2-4.8.5-6.9-1l4.9-2.7c.3-.2.2-.9.3-1.3Z" class="cls-70"/>
  <path d="m50.5 11.1-.8.1c-1.1 1-2 .3-2.8-.4l-5.7-4.4c1 .3 2 .3 3 .8 2 1 4 2.3 6 3.5l.2.4Z" class="cls-66"/>
  <path d="m71.3 39.1-1.9.4 2 7.6-.9.7-1.6-5.5-.3-1c-.6-2-1.6-2.5-3.6-2-.2 0-.3.4-.4.5l-.2-.7h6.8Z" style="fill:#726665"/>
  <path d="M63.4 24.4c-.2-2-2-2.7-3.4-3.8l-1.4-1.1 3-2 2 7h-.2Z" style="fill:#cac2c1"/>
  <path d="M78.4 31.5v-.2l2.8-1.6.2-.5.1-.1 3.6 2.1v.3h-6.7Z" style="fill:#c6bebd"/>
  <path d="M64.1 26.6c-.1.4 0 1-.3 1.3-1.6 1-3.3 1.8-5 2.7l-.6-.5c.5-.4 1-1 1.7-1.3l4.2-2.2Z" style="fill:#f7f6f6"/>
  <path d="m64.4 39.1.2.7.3 6.7-.5-4.8v-2.6Z" class="cls-89"/>
  <path d="m71.5 23.3-1.5.9-.6-2.2 2 1.3Z" style="fill:#d4d0cf"/>
  <path d="m68.2 39-3.8.1c1.2-1 2.5-.6 3.8 0Z" class="cls-89"/>
  <path d="M56.3 14.5c-1.3.1-2-.9-2.8-1.7l2.8 1.7Z" class="cls-66"/>
  <path d="M62 119c0 .9-.7.8-1 .6-.4-.1-.5-.7-.7-1.1l1.7.5Z" style="fill:#bb6067"/>
  <path d="M1.6 61.9c.2-.8-.4-1.9.7-2.4l1-.2c-.2.7-.3 1.5-.6 2.2-.1.3-.7.3-1.1.4Z" class="cls-84"/>
  <path d="m80 60.2-1.6-1.3 1.1-.8c.6.6 1.3 1.2.5 2.1Z" style="fill:#847b7a"/>
  <path d="m80.2 122-1.4 1c-1 .7-1.8 1.5-2.9 2a2 2 0 0 1-1.8 0c-1-.5-2-1.4-3-2.2v-.9a58 58 0 0 1 4.5-2.5c.3-.2 1-.1 1.3 0l3.3 2.6Zm-1.5-4.3c2-1.7 2.3-1.7 4.2-.3l.4.2c1.9 1.3 1.9 1.3 0 2.7-.2.1-.6.2-.8.1-1.3-.8-2.5-1.7-3.8-2.7ZM65 102.2v-2c2.6 1 4.7 2.3 6.7 3.9-.5 0-1.1-.2-1.6 0-1 .7-1.7.3-2.5-.3l-2.5-1.6Zm.1-35.8V52.8c1.1-.9 2-.5 3 .2l5.3 3.4.2.5-.3.2c.2 1 .4 1.9.8 2.8h1l-1.8 1.2-8.2 5.3ZM75.5 46l2.6-1.6c.2-.1.6 0 .7.1l9.5 6.6-8.8 6-3-10.7c-.1-.2-.7-.3-1-.4Z" class="cls-66"/>
  <path d="m71.7 48.6 3.6-2.4 3 10.6c0 .2.3.4.6.6-.6.4-1.2 1-2 .4l-3.3-2.3.2-.9-1.3-4.2-.8-1.8Z" class="cls-73"/>
  <path d="m65.1 66.4 8.2-5.3L75 60h.2l1.5-.7.2.2-2.6 2.1-4 2.9c-1.8 1-3.5 2.2-5.2 3.3v-1.4Z" style="fill:#f9f8f8"/>
  <path d="m78.8 57.4-.6-.6-3-10.6c.2 0 .2-.1.3-.2.3.1.9.2 1 .4l3 10.7-.4.3h-.3Z" style="fill:#726664"/>
  <path d="m71.7 54.3-4-3 3.8-2.7c-.1.5-.4 1-.3 1.6l1.2 4.3-.7-.3Z" style="fill:#ccc4c3"/>
  <path d="m72.4 54.5-1.2-4.3.3-1.6h.2l.8 1.9 1.3 4.1-.2.9-1.2-1Z" style="fill:#756968"/>
  <path d="m74 41.3 1 .5.7 2.7-.4.3c-.9-.5-1.5-2.5-1.2-3.5Z" style="fill:#766b69"/>
  <path d="m72.4 54.5 1.2 1 3.3 2.3c.8.6 1.3 0 2-.4h.2c-.4 1-1.3 1.3-2 .8-1.9-1.2-3.6-2.6-5.4-4l.7.3Z" class="cls-43"/>
  <path d="m75.7 44.5-.7-2.7 2.3 1.6-1.6 1.1Z" style="fill:#c8c1c0"/>
  <path d="m76.7 59.3-1.5.6 1.3-1-1.7-1-1.2-1-.2-.5 3 2.1c.2.1.2.5.3.8Z" class="cls-43"/>
  <path d="m74.6 61.6.7-.4c.2.2.5.5.6.8 1 3.3 2 6.6 2.8 10 .1.3 0 .8-.1 1.2-.8.5-.8-.2-.9-.6l-2.4-8.4-.7-2.6Z" style="fill:#736765"/>
  <path d="M110.4 122.8h1.1l6.1 4.4 4.3 2.8c.5.3.8.7 0 1-.8-.4-1.7-.7-2.4-1.2l-8.5-5.9c-.4-.3-1.1-.4-.6-1.1Z" style="fill:#6e6463"/>
  <path d="M90.2 116.3c-.4 0-.9 0-1.2-.3l-10-7c-.2-.1-.1-.5-.2-.7.5 0 1 0 1.4.2 3.5 2.3 7 4.8 10.4 7.2l-.4.6Z" style="fill:#6f6563"/>
  <path d="M81.4 29.2c0 .2 0 .5-.2.5l-2.8 1.6h-1.7v-.2l3.4-2c.3-.2.9 0 1.3.1Z" style="fill:#f6f5f5"/>
  <path d="m72.1 29.6 2 1.5c-1.6.4-2.1 0-2-1.5Z" style="fill:#f0efee"/>
  <path d="m73.6 56.9 1.2 1v2c-.3 0-.7.1-.8 0l-.8-2.8.4-.2Z" style="fill:#796e6d"/>
  <path d="M74.8 60v-2.1l1.7 1-1.3 1h-.4Z" style="fill:#9e8e8c"/>
</svg>