<svg xmlns="http://www.w3.org/2000/svg" width="391" height="202" fill="none"><mask id="a" width="391" height="172" x="0" y="30" maskUnits="userSpaceOnUse" style="mask-type:luminance"><path fill="#fff" d="M391 30.1H0v171.2h391V30Z"/></mask><g mask="url(#a)"><path fill="#EAF5FC" d="m35.6 82 6.5-2.4c14.6 6.6 23.8.6 29.8-12.7.6-.8 1.3-1.1 2.3-1 8.9-.1 18.4 1.8 26.6-.8 10.9-3.3 25-7 18.2-24.6-.3-.7 5-2.3 5-2.3 53.3-7.4 102-3.8 154.9 3l17.8 6.9 2 5.8c-7.3 4.2-14.9 8.2-22 13-6 3.9-16.4 9-16.2 13 1 19-11.8 25.4-25.2 28-22.5 4-42 17-66.8 16.1-22.3-.8-45 7.8-67.7 10.4-9.6 1.1-19.7-2.5-29.6-3.6-9.5-1-19-1.4-28.6-2.1l-6.9-2.2-1.4-4-10.5-23 11.7-17.4h.1Z"/><path fill="#D9F0FA" d="M42.6 128.7c9.6.6 19.1 1.1 28.7 2.1 9.9 1 20 4.7 29.6 3.6 22.7-2.6 45.3-11.2 67.7-10.4 24.8 1 44.3-12 66.7-16.2 13.5-2.5 26.3-8.9 25.2-28-.2-4 10.3-9 16.3-13 7-4.6 14.7-8.7 22-13l-2-5.7-17.9-6.8 14.6-.8 44.4 7.4c-3.8 4.2-7 9.2-11.5 12.3-19 12.6-19.2 16-1 30.1l14.6 6c25.5 11.1 38 33.5 49.7 56.7l.5 4.7-2 3-138.3-3.5-131 5.9-7.3-5.5 40.5-11 67.9-14.4-.9-3.7-67.4 10.8-76.2 14.3-7.1-7.2-25.8-17.7Z"/><path fill="#AEDFF6" d="M273.8 198.4c-39.6 1.6-79.4 7.6-118.5-4.8 1-9.6-2.8-23 12-23.8 6.8-.3 14 7 19 9.7 5.7-3.4 12.8-10.4 21.1-12.2 14-3 28.6-2.7 43-3.7 14.7.2 22 7.1 21.1 22.5-.2 4 1.5 8.2 2.3 12.3Z"/><path fill="#7BB3D3" d="M273.8 198.4c-.8-4-2.5-8.2-2.3-12.3 1-15.4-6.3-22.3-21.2-22.5l-.4-6.4 138.3 3.5c.7 15.8-3.4 28-22.5 27.3-5.3-24.1-5.7-24.4-39.7-26.8-27.5-2-32 3.3-26.3 30.3.3 1.7 1 3.4 1.3 5.2l-27.2 1.7Z"/><path fill="#8CCAE6" d="M301 196.7c-.4-1.8-1-3.5-1.3-5.2-5.8-27-1.2-32.3 26.3-30.3 34 2.4 34.4 2.7 39.7 26.8l-64.7 8.7Z"/><path fill="#89C2DC" d="m250 157.2.3 6.4c-14.3 1-29 .7-42.9 3.7-8.3 1.8-15.4 8.7-21 12.2-5-2.7-12.3-10-19.1-9.7-14.8.7-11 14.3-12 23.8l-29-4-7.6-21.1.3-5.4 131-5.9Z"/><path fill="#B3E3F8" d="m118.7 168.5 7.6 21.1c-22.1 1.9-44 3.4-59.7-17l1.9-26.2 7 7.2 43.2 14.9Z"/><path fill="#D9F0FA" d="M35.6 82 23.9 99.7l10.4 23L0 109.4c2.7-5 4-12 8.3-14.7 8.3-5.5 18.1-8.6 27.3-12.7Z"/><path fill="#7FB2CD" d="m68.4 146.4-1.7 26.1-13.1-13.3-17.8-32.8 6.8 2.3 25.9 17.7h-.1Z"/><path fill="#90CBE3" d="m35.8 126.5 17.8 32.7-22-14.4c-.8-20.3-14.8-25.2-31.5-27.3l-.1-8 34.3 13 1.5 4Z"/><path fill="#AEDFF6" d="M.1 117.5c16.7 2 30.7 7 31.5 27.3-12.9-6.3-33-4-31.5-27.3Z"/><path fill="#7FB2CD" d="M325.4 90.3c-18.1-14.1-17.9-17.5 1-30.1 4.6-3 7.7-8 11.6-12.2l2.4 15-15 27.3Z"/><path fill="#D9F0FA" d="M119 40.5c6.8 17.5-7.3 21.3-18.2 24.6-8.2 2.5-17.7.7-26.6.8L108.6 49l10.3-8.6Z"/><path fill="#90CBE3" d="m325.4 90.3 15-27.3-.4 33.2-14.6-6v.1Z"/><path fill="#D9F0FA" d="M72 66.9c-6.2 13.3-15.4 19.3-30 12.7l29.8-12.7Z"/><path fill="#7BB3D3" d="m390.2 157.7-.4-4.7c.4 1 1 2 1.2 3.1 0 .5-.5 1-.7 1.6h-.1Z"/><path fill="#99CDE2" d="m118.7 168.5-43.1-14.9 76.2-14.2.4 7.1-40.6 11.1 7.4 5.5-.3 5.4Z"/><path fill="#A5D5EC" d="m152.2 146.5-.4-7.2 67.4-10.8 1 3.7-68 14.3Z"/></g><path fill="#36201E" d="m118 64.7-.5-.2-.9-.6v4.8l-.2.5-.1 4.5c-.2 2-.5 3.9-1.7 5.4l-.4.8-.7.7-.5.4h-.1c-.6.7-.2 1 .3 1.3 1.6 1 3.2 2 4.2 3.6.4.6.3 1-.2 1.3l-2.2.9-2 .6h-.3c-1.2-.3-1.6-.1-1.8 1-.3 1.3-.3 1.3 1 1.3l3.3-.2-.8.4-2.7.2c-.7 0-1.2.2-1.3 1l-1 5.3a3.9 3.9 0 0 0 1.4 4l.6.7-.6.1h-.2l-.7-.7-.7-.8-.6-2.3v-.4l.1-.8v-.3l.2-.6v-.3l.2-.7v-.2l.6-3.4.2-.8.1-.3v-.4l.2-.6v-.4l.2-.8v-.3l1-4.5.2-1.7.1-.3.5-2.6v-.4l.1-.6.1-.4.1-.5.1-.5.5-2.6 1-5.3v-.5l1-4v-.8l.1-.4.2-.6v-.9l.2-.6v-.4l.2-.6.1-.5.1-.3v-.6l.2-.3v-.7l.2-.5v-.4l.2-.6v-.5l.2-.4v-.6l.2-.3V54l.2-.5V53l.1-.6.1-.5.1-.4v-1.2c-.7-.2-1.3-.4-1.9-.4l-.4 1v.4l-.2.6-.1.6v.4l-.1.5v.4l-.2.5v.6l-.2.3v.7l-.2.3-.5 2.8v.8l.3 2.1-.3.3-.5.3-.4 1v1l-.2.3v.4l-.2.5v.4l-.2.6v.4l-.1.5-.2.4-.2 1.7-.2.4-1 5.2-.5 3.2-.1.4-.1.5v.4l-.2.6-.1.6v.4l-.3 1.4-.4 1.5v.4c-.2.4-.2.8-.3 1.3v.6l-.2.9v.4c-.2.2-.4.3-.4.5l-.9 4.5c-.5 3.2-1.8 6.3-.9 9.8-.9-1.2-.8-2.2-.6-3.2l1.1-6.6a6 6 0 0 0 .1-2.3c-.1-1.5-.4-2.9-.8-4.3-.3-.7-.7-1.4-.8-2.2-.1-.9-.5-1-1.3-1-1.8 0-3.6 0-5.3-.3-3.7-.7-7.3 0-10.9-.2-.2 0-.5.6-.4.7l1 2.4c1.1 2.2 1 2.8-.5 3.8l-1.5-.3c-1.1-.2-2.2-.1-3.2-.4-1.8-.3-3.4-.8-5.1-1.3-.2 0-.4-.3-.5-.6l-.3-.7a6.4 6.4 0 0 1-1.4-4.5c0-.8-.4-1.2-1-1.8l-3.3-3.2c-.5-.4-1-1-1.7-1.2-1.2-.4-2.6-.4-3.8-1a49 49 0 0 1-13.2-8c-2.3-1.8-4.4-3.8-6.5-5.7-.2-.3-.6-.3-1-.5l-.3-.2-.3-.7-1.7-2.3.2-.2.7.2a229 229 0 0 0-1.1-8.3l-4 1.5 4 5.9-.2.2-1-.8a34.4 34.4 0 0 1-5.8-10.5c-.4-1.3-.8-2.8-.8-4.2.2-2.6 1.6-4.9 3-7 1.2-2.2 3.2-3.8 5-5.3 1.1-.9 2.4-1.5 3.6-2.3.7-.3 1.4-.1 2 .4.8 1 1.7 1.8 2.4 3 2 2.7 3.8 5.5 5.6 8.3l10.8 17.2c.5.8.6.7 1.2 0 .2-.4.4-1 .7-1.3l1-1.5-.6 1.7-1.3 3.3-.9 2.7-.1.4-.2.3L67 62v.4c-.5.7-.5 2.3 0 2.9 0 .6.1 1.3.3 1.8l.1.4v.4l.1.4v.3l.6 1.6v.5l1.5 2.6v.2l.6.8v.1l.4.4 1.7 2.3.5.6 2.5 2 .4.3c2.5 1.3 5.2 2 8.1 2l10-.2h3.5c3 .6 6.2.7 9.4.4 1.9-.2 2-.4 2.1-2.3v-.4l.2-.6v-.5l.1-.4.2-.5v-.9l.2-.5.1-.9.7-2.6.4-3.2.2-.4v-.5l.2-.5v-.5l.2-.6v-.3l.2-.6v-1l-.4.1h-4.5l-3.9-.6c-1.8-.4-3.5-1-5.3-1.5l-1.6-.6-2.7-1-.4-.4c-.4 0-.7-.2-1-.3L88.3 59l-.2-.3-.2-.4.6-.5.3.1.7.5a49 49 0 0 0 11.1 4.5c3.3.8 6.5 1.3 9.8 1 .8 0 1.3-.2 1.3-1 .1-.5.4-1 .7-1.2.8-.6.7-1 .3-1.7l-.6-.9a34.3 34.3 0 0 0-10.3-9.1l-4.2-2.6c-.3-.1-.4-.5-.6-.8.4 0 .7-.2 1-.1.4 0 .6.3 1 .5 5 2.6 9.5 6.2 13.3 10.4l.3.6h.3v-.8l.2-.6v-.4l.1-.5.2-.6v-.4l.1-.5v-.4l.2-.6.1-.5.1-.6v-.4l.2-.7v-.6c.5-1.3 1-1.7 2-1.6.6.1 1.3.4 1.9.7.6.2.7.7.6 1.3l-2.2 11c0 .2 0 .6.2.7 1.3.6 2.5 1.3 3.8 1.7.6.3 1.3 0 1.6-.8.1-.4.6-.8 1-1 .7 0 .9-.3.7-.8l-1-4.3c-1.8-4.7-4.1-9-7-13-.9-1-1.6-2.5-3.4-1.9l-2.6-.1v-.1l.7-.4 1-.4h1.6l1-.1c.2 0 .3 0 .5-.2h.4l1.7-.3c1.4-.3 2.6-1 3.5-2l1.3-1.3.3-.4.6-.3.7-.2c-.7 1.4-2 2.2-3.2 3.2l-.8.8-3.3 1.4-1 .1 2 2.6c2 2.9 4 6 5.4 9.2 1.1 2.7 2.5 5.4 2.4 8.5 0 .6-.1.7-.6.8-.5 0-1 .2-1.3.5-.7 1.2-1.4 1.6-2.8 1.2l-1.7-.4ZM84 88.5h.3c1.2.4 2.5.5 3.6-.2h.2l.3-.5-1.2-2.8v-.4c-.4-1.2-1.2-1.8-2.6-1.7-1.5 0-3.1-.3-4.6-.5l-3.6-.8c.1 1.7.2 3.2 1.5 4.4l.7.8.5.3.6.3.5.2.5.1.4.2h.4l.3.2h.4l.7.3h.3l.8.2ZM60.4 45.8l-5.5-9a3.9 3.9 0 0 0-3-2.2l-2.5-.5c-1-.1-1.6.2-2.2 1a20 20 0 0 0-3.6 8.4l-.5 4.7 5.4-.6c3.1-.6 6.3-.4 9.4 0 .3 0 .8 0 1-.3l1.4-1.5h.1Zm-3.7 17.4h2.5c.7-.1 1.2-.4 1.4-1.1a23.7 23.7 0 0 1 4.4-7.4c.2-.2.4-.8.3-1-1.4-2.1-2.4-4.7-5.4-5.2-.7 0-1.1-.1-1.4.7a27 27 0 0 0-1.8 14Zm-5.2-32-3-3.6c-.7-.7-1.5-.9-2.3-.4-3.2 1.8-6 4.3-8 7.3-.2.2-.2.4-.2.6h.3a22 22 0 0 1 8.9-1.5c.4 0 .8-.2 1-.4l3.3-2Zm.5 33.6-.2.5 5.8 4.3.2-.2-1.4-5.3c0-.2-.4-.4-.5-.3l-4 .9Zm59.5 23.1c1.9 0 3.5-.3 5-1 .1-.1.1-.7 0-.8-1-1-2.2-2-3.4-2.9l-.7.3-.9 4.4Zm4.2-20h-.3l-2.2 11 .3.2c.9-.7 1.4-1.7 1.6-2.8l.6-8.4Zm-8.3 19 .4-2.3c.3-1.6 0-1.9-1.6-1.4-.2 0-.5.4-.5.5a5 5 0 0 0 1.6 3.2Zm-.4 1-.4.2.4.9.4-.2-.4-.9Z"/><path fill="#5D3C3E" d="m110.7 102.5.7-.2-.6-.6a4 4 0 0 1-1.3-4l.9-5.3c.1-.8.6-1 1.3-1l2.7-.2c.3 0 .6-.2.8-.4l-3.3.2c-1.3 0-1.3 0-1-1.3.2-1.1.6-1.3 1.8-1-1.6.7-1.6.7-1.5 2h.5c.7 0 1.5 0 2.3-.2 1.3-.2 1.5-.6 1.2-2l-2.2.1 2-.6 2.2-.8c.6-.2.6-.7.2-1.3a13.3 13.3 0 0 0-4.2-3.6c-.5-.3-.9-.6-.3-1.3-.1.7.2.9.6 1.1l3.3 2.5.9 1.1c.5.9.4 1.5-.5 2-.6.2-.8.6-.8 1.3 0 2-.3 2.4-2.3 2.5l-2.4.3c-.6 0-1 .1-1 .7l-1 5.1c-.3 1.7.2 3.2 1.7 4.1l3.5 2c1.3.7 2.6 1.5 3.6 2.4 1.1 1 1 2.3.1 3.4a4.8 4.8 0 0 1-6 1.3 13.3 13.3 0 0 1-7.6-10.3c-.2-1.5.4-3.2.7-4.8l.7-4.2-.1-1.1-.2-.5c0-2-.9-3.9-1.5-5.8 0-.4-.4-.7-.7-.7-2.7-.2-5.4-.6-8-.6l-7.9.1-.4.2 1 2.9.6 1.7c0 .5 0 1.1-.3 1.3-.6.4-.7 1-.8 1.6-.3 1.6-.5 2-2.2 2-2.5.2-5-.2-7.3-1.2-.5-.3-.8-1-1.1-1.4l-.1-.5a11 11 0 0 0-1.5-4.3c-.5-1-.5-2.5-.9-3.7a2 2 0 0 0-.5-1l-4.2-4.2c-.2-.2-.4-.4-.6-.4-3.2-.5-6.2-1.6-9-3.3a62.6 62.6 0 0 1-15.2-11.8l-.3-.5c.3.2.6.2.9.5 2.2 2 4.2 4 6.4 5.8 4 3.3 8.5 6 13.4 8 1.1.5 2.5.5 3.7.9.6.2 1.2.8 1.7 1.3l3.4 3.2c.6.5 1 1 1 1.7 0 1.7.2 3.2 1.3 4.5.2.2.2.5.3.8l.5.6 5 1.3 3.3.3c.6 0 1 0 1.6.2 1.5-1 1.6-1.5.6-3.7-.4-.8-.9-1.6-1.2-2.5 0-.1.3-.6.5-.6 3.6 0 7.2-.5 10.8.1 1.7.3 3.5.2 5.3.3.9 0 1.3.2 1.3 1l.8 2.3.5 1.7.4 2.6v2.2l-1.3 6.6c-.1 1-.2 2 .7 3.2-.9-3.5.4-6.6 1-9.8l.8-4.5c0-.2.2-.3.4-.5-.7 3.7-1.5 7.4-2 11-.2 1.2-.1 2.4.2 3.5 1 2.8 2.8 5.2 5.3 6.7.6.5 1.6.7 2.3 1 1.3.4 2.3 0 3.2-1 1-.9.9-1.8-.2-2.6l-3.8-2.2-2.6-1.7ZM78.5 88.3c-.2 1.4 0 2 1.3 2.3l5.6 1 1-.1c.3-.4.4-1 .6-1.4l-1-.4c-1.2-.2-2.6-.2-4-.5-1.2-.2-2.2-.6-3.5-1Zm7.4 4V92h-1.8v.2H86Zm-7.6-1.6.3-.2-.7-1h-.1l.6 1.2Zm37.8-2.1h-.4v1.3h.2l.2-1.3Zm-28.4 1.9-.2-.1-.3.9h.3l.2-.8Zm-8 .6v.2l.7.2v-.1l-.6-.3Zm6.9.8v.2h.5v-.3h-.5Zm-8.8-3 .1-.2v-.2l-.2.2.1.3Zm4.1 2.6-.3.2.2.2.2-.2v-.2Zm.8.7.3-.2-.2-.2-.2.1.1.2Zm-1.7-.5.1-.2H81v.1ZM70.3 52.4l-1 1.5-.8 1.3c-.5.7-.7.8-1.2 0L56.5 38.1c-1.7-2.9-3.6-5.7-5.4-8.5l-2.6-2.9c-.5-.6-1.2-.7-1.9-.4-1.2.7-2.5 1.3-3.6 2.3-1.8 1.5-3.8 3.1-5 5.2a15.8 15.8 0 0 0-3 7.1c0 1.4.3 2.9.8 4.2a33 33 0 0 0 5.8 10.5c.2.3.6.5 1 .8l.1-.2-4-5.8 4-1.6 1.1 8.4-.8-.3-.1.2 1.6 2.3.4.7c-4.5-4.5-8-10-10-16a8.4 8.4 0 0 1 0-4.8 20 20 0 0 1 7.3-10.8c1-.7 1.9-1.4 3-2 1.6-1.2 2.7-1 4.1.3 1 .9 1.7 2 2.4 2.9l10 16.2 5.5 8.4.7 1A118 118 0 0 1 81 36.7l-.9-.5c-.9-.9-1.7-1.8-2.5-2.9-.3-.4-.6-.6-1.1-.3l-5.6 2c-.1.2-.2.2-.4 0 1.9-1.3 4.2-1.8 6.2-2.6l-1-5.3c-.2-.7-.5-.7-1-.7l-5.3.3-1-.1v-.3l1.2-.1h5.1c.7 0 .8-.3.8-.9.1-5 1.5-9.6 4.4-13.9.1-.2 0-.8-.1-1-2.4-3-1.9-6.7 1.3-8.9 1.6-1 3.9-.9 5 .3l-.9-.2c-1.2-.4-2.4-.6-3.6 0a6.1 6.1 0 0 0-3 4.9c-.2 1.4.4 2.5 1.3 3.5.6.6.6 1.2.2 2a21.6 21.6 0 0 0-4.2 14.4c.1 1.8.8 3.8 1.4 5.7.3.8 1.1 1.3 1.6 2a2 2 0 0 0 1.7 1.6l.6 1.2-1.3 1.6-3.3 4.4c-.7.8-1.1 1.7-1.6 2.6l-.5.4-3.6 5.4c-.3.3-.4.7-.6 1.1v.1ZM123 36.7l-.7.2 2-3.3c.7.4.8-.2.9-.4.3-1.6.9-3.1 1-4.7.2-3.8 0-7.6-1.6-11.1-.2-.5 0-.8.5-1a3.2 3.2 0 0 0 2.1-2.5c.3-2-.2-3.9-1.5-5.4-.4-.5-.9-1-1.4-1a4.7 4.7 0 0 0-3.9.9c-.6.5-1 .4-1.6-.2a21.8 21.8 0 0 0-6-4.4 31.7 31.7 0 0 0-8.5-2.4l-3.7-.1v.1l.7.2c3.3 0 6.6.7 9.7 2 1 .4 2 1 3.2 1.7l-1-.4c-2-.7-3.7-1.6-5.7-2.1-2.8-.8-5.8-1.1-8.8-.9l-5.5.8c.5-.3 1-.6 1.7-.7l3.6-.6c-.2-.1-.4-.2-.6-.1-3.2 0-6.3 1-9 2.5-.3.1-.9.2-1 0-.4-.4-.7-1-1-1.5l1.5 1.4h.2A23 23 0 0 1 103.2 1c6 .4 11.6 2.9 15.9 7 .4.4.7.4 1 0l.7-.4c2.7-1.4 5-.7 6.2 2.1l.5 1.7c.4 2.4.1 4-2.3 5.3.5 2.7 1.1 5.4 1.4 8 .2 2.7 0 5.4-1 8.2l4 1.3v.3l-3.2-1c-.7-.2-1 0-1.4.7l-2.2 3.7 2.5 2.2-.3.2-1-.8c-1.6-1.4-1.5-1.4-3-.1l-2 1.3.9-.8c1-1 2.4-1.8 3-3.2l.4-.7.4-.4.6-.8-.3-.1-.3.9-.4.4-.3.7ZM100 1.4v-.1h-.7v.1h.7Z"/><path fill="#36201E" d="m86.8 2.3 1 1.5c.3.2.8.2 1 0 2.9-1.6 5.8-2.4 9-2.5l.7.1L95 2l-1.7.7-.3.1c-1.4.2-2.7.5-3.7 1.6l-.2.9.2 1 .2.4v.6c-.3-.2-.7-.3-.7-.6-.5-.7-.8-1.6-1.3-2.4-1.7-2.8-4.7-3.2-6.7-.9-2.3 2.6-2.1 4.7.4 6.6l1 1-.7.4c-.3.2-.7.2-.7.4l-3.1 6.5-.2.4v.4l-.2.3v.4l-.2.4v.3l-.2.6v.3l-.1 1v.4c-.2.5-.4 1-.4 1.6l.3 3.1v.6l.8 2.6v.5l1.5 2.3v.6c-.5-.7-1.3-1.2-1.6-2a20.4 20.4 0 0 1 .1-15.2c.8-1.7 1.7-3.3 2.7-5 .4-.7.4-1.2-.2-1.9-.8-1-1.5-2.1-1.2-3.5a6.3 6.3 0 0 1 2.9-4.9c1.2-.6 2.4-.3 3.7 0l.9.2.6.5Z"/><path fill="#5D3C3E" d="m118 64.7 1.8.3c1.4.4 2.1 0 2.9-1.2.2-.3.8-.4 1.2-.5.5 0 .6-.1.6-.8.1-3.1-1.3-5.8-2.4-8.5a52 52 0 0 0-5.3-9.1l-2-2.6.9-.2v.9c3.7 4.6 6.5 9.7 8.4 15.3.5 1.4.5 3 .7 4.5.2.6-.2.8-.7.8-.7 0-1 0-1.3.8a4 4 0 0 1-1.5 1 5 5 0 0 1-3.2-.7Zm-3.8 15.2.4-.8a9.6 9.6 0 0 0 1.7-5.4l.1-4.5.2-.5c0 2.8.2 5.6-.6 8.3-.4 1-1.2 2-1.8 3Zm2.4-11.6V64l1 .5c-.5 0-.7 0-.7.6l-.3 3.2ZM113 81l.6-.5-.6.5Z"/><path fill="#B58B84" d="m77.6 18.3 3-6.5.8-.4.7.1.5.3 3.5-1c.2 0 .2-.3.3-.4l1-1.3 1.3-1.3.7-.5v-.6l-.2-.4-.2-1 .2-.9L93 2.7h.3c1.8-.3 3.6-.7 5.5-.8 3-.2 6 0 9 .9 1.8.5 3.6 1.3 5.5 2l1 .5h.1l.7.7c5 3.4 8.5 8.6 9.9 14.5.5 2.1.6 4.3.8 6.5v1.3l-.2 1v.7l-.6 1.8c0 .6-.4.9-1.1.7a29 29 0 0 0-3.4-.4c-.9 0-1.8-.3-2.5.3l1.8.1 4.8.8-.2.4-2 3.2-.6.4c-1.7-1.4-3.9-2.4-4.5-2l4.2 2.3-1.3 1.3-2.1 1.2-1.4.8-1.6.3-.4.1-.6.1h-1l-.9.1h-1.8c-.4-.5-.8-.5-1.2 0l.2.8.4.2h2.6l1 4.4.9 3.6v.6l-.2.8v.3l-.2.7v.5l-.2.9-.1.6v.3l-.2.6v.5l-.2.5v.5l-.8.3A46.8 46.8 0 0 0 99 47l-1-.5-1 .2c.2.2.3.6.6.8l4.2 2.5c4 2.3 7.6 5.5 10.4 9.2l.5.8c.4.7.6 1.2-.3 1.7-.3.2-.6.7-.6 1.1-.1 1-.5 1.2-1.3 1.2-3.4.2-6.7-.2-9.9-1.1-3.9-1-7.6-2.6-11.1-4.5l-.7-.4-.3-.2-.6.6.2.3.3.3v.5c1.2 1 2.1 2.3 3.5 3 4.4 2.6 9.4 2.4 14.2 2.8l.4-.2h4.5l.4.4v.3l-.2.6v.4l-.2.5v.6l-.2.4v.6l-.1.4-.5 3-.7 2.8-.1.9v.4l-.1.5-.2.4v.5l-.2.4v.5l-.2.7v.3c-.5.7-.8 1.5-1.7 1.5h-6c-2.4-.2-4.8-.5-7.2-.5-3.3 0-6.3.4-9.5.5-.5 0-1 0-1.4-.2a16 16 0 0 1-7.1-3.6 31.1 31.1 0 0 1-8.1-9.8l-.4-.3-.2-.3-.2-2v-3l.4-1.1v-.4l.2-.4.8-2.7L71 52l.6-1 3-4.4v-.1l1.5-2 1.7-2.3.4-.5 1.8-2 .8.5L90 43c1.1.3 2.3.7 3.4.8 3.5 0 7 .2 10.6-.5h1.2v-.5l-3.2-.6-7.4-1-3.9-.8-1.5-1-4.7-1.5-1.3-.7-.4-.2-.5-.2-.4-.4h-.2l-.4-.3-.3-.2-.8-.7-.8-.8-.5-.7-.4-1.2 8-1.8v-.4h-.8l-6.5 1.6c-.8.2-1.3 0-1.7-.6l-.1-.5-.7-2.6-.1-.6.2-1c3.5.2 7 .2 10.6 1.1-.3-.3-.7-.6-1-.6l-8.7-1c-.9 0-1.1-.3-1-1v-3.6l.1-.3.2-.6v-.3l.2-.4v-.4l.2-.4v-.3l.2-.4Zm26.3 9.7-1.4.1c-.6.2-.9.7-.6 1.2 1 1.6 2.6 2.6 4.4 1 .7-.9.6-1.5-.4-1.8l-2-.5Zm-4.2 4.7c.2.2.4.4.6.4.9 0 1 .7 1.1 1.4.3 1 .5 2 1 3 .4 1 1 1.1 1.9.1l1-1.5c.6-1 .6-2.3 1.9-2.9v-.1c-.7 0-1.6 0-2.1-.3-1-.7-1.6-.5-2.6-.3-.8.2-1.7.1-2.8.2Zm-6.3-7.3c0 .7 0 1.5.9 1.5.7 0 1-.6 1.2-1.3v-.2c.2-1-.1-1.7-.9-1.8-.7-.2-1.2.4-1.2 1.5v.3Zm19 2.6c.3.4.4.9.8 1.1.2.2.9 0 1-.2a3 3 0 0 0 .6-1.7c0-.5-.5-.9-.8-1.3l-1.2 1c-.2.2-.2.6-.4 1.2Z"/><path fill="#5D3C3E" d="M60.4 45.8 59 47.2c-.3.2-.7.4-1 .4-3.1-.6-6.3-.6-9.4-.2l-5.4.7c.2-1.6.2-3.1.5-4.7a20 20 0 0 1 3.5-8.4c.6-.9 1.3-1.2 2.1-1l2.7.5c1.2.2 2.2 1 3 2.2l5.4 9Z"/><path fill="#C2BFCC" d="m110.7 102.5 2.6 1.7 3.8 2.2c1 .8 1 1.7.1 2.7-.8.9-2 1.3-3 .9-1-.3-1.7-.5-2.4-1a13 13 0 0 1-5.3-6.7 8 8 0 0 1-.2-3.5c.5-3.6 1.2-7.3 2-11V86l.5-1.3v-.3l.4-1.5.2-1.5V81l.2-.6v-.6l.2-.3v-.6l.1-.3 1-4.5.6-4 .1-.4.3-1.7.1-.3.1-.6v-.3l.2-.6v-.4l.1-.5.2-.4v-.4l.2-.4v-.5l.4-1 .4-.4.3-.2c.5-.7.5-1.1-.2-2.1V59l.5-2.8v-.3l.2-.6v-.4l.2-.6v-.5l.1-.4.1-.5v-.4l.2-.6v-.6l.2-.3c.3-.3.5-.8.9-.8.5 0 1.3 0 1.4.8v.9l-.2.6-.1.6v.4l-.2.5v.6l-.2.3v.6l-.2.4v.5l-.2.6v.5l-.1.5-.1.6-.1.3-.1.6-.1.3-.1.5-.1.6v.5l-.2.5v.6l-.2.3v.7l-.2.3-.1.8-.8 4v.5l-1.1 5.3-.5 2.6v.5l-.2.5v.4l-.1.6-.2.3-.4 2.7v.3l-.3 1.7-1 4.5v.3l-.2.8v.4l-.2.6v.4l-.1.3-.2.8a5 5 0 0 0-.6 3.4v.3l-.2.6v.3l-.2.6v.3l-.2.8v.4c-.2 1 .1 1.7.8 2.3l.5.7 1 .8Z"/><path fill="#8E6366" d="m114.2 50.5-.8-3.7-1-4.3c1.7-.5 2.5 1 3.3 2 3 4 5.3 8.3 7 13 .5 1.2.7 2.8 1.1 4.2 0 .5 0 .8-.7 1-.5 0-1 .4-1.1.8-.3.9-1 1.2-1.6.9a25 25 0 0 1-3.8-1.8s-.2-.5 0-.7l2-11c.2-.6 0-1-.6-1.3-.7-.2-1.3-.6-2-.6-1-.2-1.4.2-1.8 1.5Z"/><path fill="#5D3C3E" d="M56.7 63.1c-.7-4.7 0-9.6 1.8-14 .3-.8.7-.7 1.4-.6 3 .5 4 3 5.4 5.1.1.2-.1.8-.3 1a24.8 24.8 0 0 0-3.9 6.1l-.5 1.3c-.2.8-.7 1-1.4 1.1h-2.6Zm-5.1-32-3.3 2.1a2 2 0 0 1-1.1.4c-3 0-6 .3-9 1.5H38c0-.2 0-.4.2-.6 2-3 4.8-5.6 8-7.4.8-.4 1.7-.3 2.3.4l3 3.7Z"/><path fill="#8E6366" d="m67.4 67.4.3.3c2 3.9 4.8 6.9 8.1 9.7 2.4 2 5.3 3.4 8.5 3.9 3.2-.2 6.3-.5 9.5-.5 2.4 0 4.8.3 7.2.4h6c1 0 1.3-.8 1.7-1.5-.1 2-.3 2.1-2.1 2.4a33 33 0 0 1-9.4-.4h-3.5l-10 .2c-2.8 0-5.6-.7-8.1-2l-.4-.3-2.5-2.1-.5-.6-1.7-2.2-.4-.4v-.2l-.5-.7v-.2L68 70.5v-.4l-.7-1.6v-.3l-.1-.5v-.3Z"/><path fill="#B1495B" d="M80.6 87.7H80l-.5-.3-.6-.3-.5-.3-.7-.8c.1-1 .7-1.5 1.9-1.4H87l.1.4 1 3.3h-.4l-3.5.3h-.4l-.8-.1h-.3l-.6-.4h-.4l-.4-.1H81l-.4-.3Z"/><path fill="#5D3C3E" d="M87 84.6h-7.3c-1.2 0-1.8.4-2 1.4-1.2-1.2-1.3-2.6-1.4-4.4 1.3.3 2.4.7 3.6.8 1.5.2 3 .6 4.6.5 1.4 0 2.2.4 2.5 1.7Z"/><path fill="#8E6366" d="M106.5 65.1c-.1 0-.2.3-.4.2-4.8-.3-9.8-.1-14.2-2.7-1.3-.8-2.3-2-3.4-3.1V59l3 1.6 1 .3.5.4 2.8 1 1.6.6 5.3 1.5 3.8.6Z"/><path fill="#5D3C3E" d="m52 64.7 3.8-1c.2 0 .5.2.6.4l1.4 5.3-.1.2-5.9-4.4.2-.5Z"/><path fill="#AB4758" d="m111.5 87.9.9-4.5c0-.1.6-.4.7-.2l3.4 2.8c.1 0 .1.6 0 .8-1.5.7-3.2 1-5 1Z"/><path fill="#B58B84" d="m115.7 67.9-.6 8.3a4.5 4.5 0 0 1-1.6 2.8h-.3l2.2-11.2h.3Z"/><path fill="#FDFDFD" d="m113 88.7 2.2-.2c.3 1.4.2 1.9-1.2 2l-2.3.2-.5-.1c-.1-1.2-.1-1.3 1.5-1.8h.3Z"/><path fill="#5D3C3E" d="M107.3 86.8c-1-.8-1.5-2-1.6-3.1 0-.2.3-.5.5-.5 1.6-.6 2-.3 1.6 1.4l-.5 2.2Zm4.2-16.8-.6 4-1 4.5.5-3.3 1.1-5.1Zm10-32.4-4.3-2.3c.7-.4 2.8.6 4.5 2l-.3.3ZM71 52l-2.7 5.4 1.3-3.3.7-1.7.7-.4Zm38 43.4c0-1.3.2-2.4.7-3.4l-.6 3.4Z"/><path fill="#8E6366" d="m116.6 41 1.4-1 2.2-1a7 7 0 0 1-3.6 1.9Z"/><path fill="#5D3C3E" d="m84.2 88.6 3.6-.3c-1.1.7-2.4.7-3.6.3Zm33.4-37.7c-.3-.7-1-.8-1.5-.8-.4 0-.6.5-.9.8l.3-1a6 6 0 0 1 2 .3v.7h.1Zm-7.3-9.5 1 .2-.8.4-.8.3h-.4l-.2-.8h1.2ZM88 88.3l-.9-3.3 1.2 2.9-.3.4Zm-21-26v2.9c-.4-.7-.4-2.3 0-2.9Zm42.4 38.7c-.7-.6-1-1.3-.7-2.3l.6 2.3Zm4.4-41.2c.7 1 .7 1.4.2 2l-.2-2Zm-6.7 28 .4 1-.4.1-.4-.9.4-.1Zm2-5-.2 1.5.4-1.5h-.1Z"/><path fill="#8E6366" d="m67.3 60.8-.4 1.2.2-1.2h.2Zm45-3.2.7-.3-.1.6-.2.2-.4-.6Zm-.2-16.2h1v.2l-1-.1Z"/><path fill="#5D3C3E" d="m69.6 73.4.5.7-.5-.7Zm13.4 15 .8.2-.8-.1v-.1Z"/><path fill="#8E6366" d="m111.4 65.6-.4-.5h.5v.5h-.1Z"/><path fill="#5D3C3E" d="M113 41.6v-.2h1l-1 .2Z"/><path fill="#8E6366" d="m113.8 52.8.1-.6-.1.7v-.1Z"/><path fill="#5D3C3E" d="m117.2 53 .1-.6v.6h-.1Zm-4.7 12.2-.1.5.1-.5Z"/><path fill="#8E6366" d="m111.2 66.5.2-.6-.2.6Z"/><path fill="#5D3C3E" d="m110 90.5.1-.6v.6Zm5.5-28.7.1-.5-.1.5Z"/><path fill="#8E6366" d="m113.5 54.8.1-.5-.2.6Z"/><path fill="#5D3C3E" d="m113.7 62-.5.5.5-.4Zm2.4-3.2v-.3.3Zm-48.8 2h-.2l.2-.3v.3Zm25.7.6-.4-.4.4.4Z"/><path fill="#8E6366" d="m67.5 60.1-.1.4.1-.4Z"/><path fill="#5D3C3E" d="m75.2 79.6.4.3-.4-.3Zm37.4-15.2v.4l.1-.4Z"/><path fill="#8E6366" d="M109.3 42.3h.4v.1h-.4Z"/><path fill="#5D3C3E" d="m115.9 59.7.1-.3v.3h-.1Zm-1.1-6.3v.3-.3Z"/><path fill="#FDFDFD" d="m78.5 88.3 3.5 1 4 .4c.4 0 .7.2 1 .4-.2.5-.3 1-.7 1.4l-.9.1-5.6-1c-1.3-.3-1.5-1-1.3-2.3Z"/><path fill="#36201E" d="M86 92.3h-2V92h2v.2Zm-7.7-1.6-.5-1.2h.2l.7 1-.3.2Zm37.8-2.1-.2 1.3h-.2v-1.3h.4Zm-28.4 1.9-.2.9h-.3l.3-1h.2Zm-8 .6.6.3v.1l-.7-.2V91Zm6.8.8.5-.1v.2h-.5Zm-8.7-3-.1-.2.2-.2v.5Zm4.1 2.6.1.2-.2.2-.1-.2.2-.2Zm.8.6-.1-.2.2-.1.2.3h-.3Zm-1.7-.4v-.2h.1v.2Zm2.2-54.6 1.3.6 4.7 1.6 1.5 1h-.1l-.8.1h-.3l-.5-.2-5.8-2.2c-1-.4-1.8-.5-2.4.5l-.5.6-.3.7-1.8 1.9-.3.4-1.8 2.4-1.1 1 1.6-2.6 3.3-4.4 1.4-1.6-.6-1.1h.3l.4.2.3.3h.2l.4.4c.2 0 .4 0 .5.2l.4.1v.1ZM71 52.1l-.7.3.5-1.2 3.7-5.3c0-.2.3-.3.5-.4l-.4 1-1 1.3-2 3.2v.1l-.5.8v.1Zm8.5-17.8.7.8.5.6a2 2 0 0 1-1.8-1.7l.6.3Zm46.2-6V27l.3-.8a25.2 25.2 0 0 0-8.3-18.4c-1-1-2.2-1.6-3.4-2.4h-.1L111 3.5a29.5 29.5 0 0 0-9.7-2h-.7v-.4l3.7.3a28 28 0 0 1 8.5 2.4c2.2 1 4.3 2.5 6 4.4.5.5 1 .6 1.6 0a4.8 4.8 0 0 1 4-.8c.4.1 1 .6 1.3 1a6.7 6.7 0 0 1 1.5 5.4c-.1 1.3-1 2-2.1 2.5-.6.2-.7.5-.5 1 1.4 3.5 2 7.4 1.6 11.2 0 1.6-.6 3.1-1 4.7 0 .2-.2.8-.8.5l.2-.4c.6-1 1.1-2.1 1-3.3v-.6l.1-1.2Zm-1-12.4c1-.5 1.7-1.2 1.9-2.3 0-1.3-.2-2.6-.7-3.8a3 3 0 0 0-5.4-.5l4.2 6.6Zm-1 19.7.3-1 .3.2-.6.8Zm-.4.4-.3.7.3-.8ZM100 1.4h-.7v-.1h.7v.1Z"/><path fill="#5D3C3E" d="M82.1 11.5h-.7l.6-.6-.9-.9c-2.5-2-2.7-4-.4-6.6 2-2.3 5-1.9 6.7.9.5.8.8 1.7 1.3 2.4 0 .3.5.4.7.6l-.7.5-.4-.4-.7.6c-.6.5-1.4.8-1.6 1.4-.4 1-1 .8-1.7 1-.8.3-1.5.8-2.2 1.2Zm2.4-2.2.2-.1c0-1.3-.4-2.4-1-3.5H83c-.1 0-.2.4-.1.5.2.8.5 1.6.9 2.3.1.4.4.6.6.8Zm-8 13.4c0 .8.2 1.5 0 2.2 0 .9.3 1 1.2 1.1 2.9.2 5.8.6 8.7 1 .3 0 .6.3 1 .6-3.5-1-7-1-10.6-1.2l-.2 1.1-.3-3c0-.6.2-1.2.3-1.7Zm1 8.4c.4.7.9.8 1.7.6l6.4-1.4h.8v.3l-8 1.7.5 1.2-1.4-2.3ZM92.9 2.8l-3.7 1.6c1-1.1 2.4-1.4 3.7-1.6ZM79.5 34.3l-.6-.3v-.3l.6.6ZM77 20.5l-.2.6.2-.6Z"/><path fill="#8E6366" d="m89.4 40.3.4.1.8-.1h.1l3.9.7 7.3 1.1 3.3.6v.4h-1.3c-3.5.7-7 .5-10.6.5-1.1 0-2.3-.4-3.4-.7l-9-2.6-.9-.5.3-.6.5-.7c.6-1 1.4-1 2.4-.5l5.8 2.2.5.1Z"/><path fill="#36201E" d="m103.9 28 2 .5c1 .3 1.1 1 .4 1.7-1.8 1.8-3.3.7-4.3-.9-.4-.5 0-1 .5-1.2h1.3Z"/><path fill="#5D3C3E" d="M99.7 32.7c1 0 2 0 2.8-.2 1-.2 1.7-.4 2.6.3.5.4 1.4.3 2.1.3-1.3.7-1.4 2-2 3l-1 1.5c-.7 1-1.4 1-1.9-.2-.4-.9-.6-1.9-.9-2.9-.2-.6-.2-1.3-1.1-1.4-.2 0-.4-.2-.6-.4Zm6.1 1.2-1.2-.7c-.7-.3-2-.3-2.6.1l-.2.5 1 3.4c.2.6.7.5 1 0l2-3.3Zm8.5-28.5c1.2.8 2.4 1.4 3.4 2.3a25.3 25.3 0 0 1 8.3 18.4l-.3.8c-.3-2.2-.3-4.4-.8-6.5-1.4-5.9-5-11-10-14.4l-.6-.7Z"/><path fill="#36201E" d="M93.4 25.4v-.2c0-1.2.5-1.8 1.2-1.6.7.1 1 .8 1 1.8l-.1.2c-.2.7-.5 1.5-1.3 1.3-.8 0-.8-.7-.8-1.5Zm19 2.7c.2-.6.2-1 .4-1.3l1.2-.8c.3.3.8.7.8 1.2 0 .6-.3 1.2-.6 1.7-.1.3-.8.4-1 .2-.4-.2-.5-.7-.8-1Z"/><path fill="#8E6366" d="M82.1 11.5c.7-.4 1.4-.8 2.2-1 .7-.3 1.3 0 1.7-1.1.2-.6 1-1 1.6-1.4l.7-.6.4.4L87.4 9c-.4.3-.6.9-1 1.3 0 .1-.1.3-.3.3l-3.5 1-.5-.2Z"/><path fill="#5D3C3E" d="M125.5 30a5 5 0 0 1-1 3.3l-4.8-.8h-1.8c.7-.7 1.6-.5 2.5-.4 1.1 0 2.3.2 3.4.4.6.2 1 0 1.1-.7.1-.7.4-1.3.6-1.8ZM71.7 51l2-3.2c.2-.5.6-.8.9-1.2l-3 4.4Zm17.5-11.6-4.7-1.7 4.7 1.6Zm-14.5 7 .3-.9 1-1-1.3 2Z"/><path fill="#8E6366" d="m110.3 41.4-1.2.1c.4-.5.8-.5 1.2 0Z"/><path fill="#5D3C3E" d="m80.7 35.8-.5-.8.8.7h-.3ZM77.8 42l.4-.3-.3.3Zm5.4-5-.4-.2.4.1v.1Zm6.2 3.2H89h.5ZM124.7 16l-4.2-6.7c1.4-2 4.3-1.7 5.4.5.6 1.2.8 2.5.6 3.8 0 1.2-.9 1.8-1.8 2.3v.1Z"/><path fill="#36201E" d="m84.5 9.4-.7-.9-.8-2.3.1-.5h.6a6.7 6.7 0 0 1 1 3.5l-.2.1Z"/><path fill="#C67D71" d="m105.8 33.9-2 3.3c-.3.5-.8.6-1 0l-1-3.4.2-.5c.5-.4 2-.4 2.6 0l1.2.6Z"/><path fill="#3D2E2B" d="m278.1 122.8-.1-.9V86.6h-35.8l1.3-.3V86l-1.6-.3h34.6c1 0 1.5-.4 1.5-1.4 0-.7-.4-1-1-1h-35.1l1.4-.3-1-.6H278V50.2l-.2-2.4-.2-.9c0-.5 0-1-.2-1.6-.6-2-2.5-2.8-4-3.9h-.5l-6.1-3.9-.5-.3-6.6-4.1c-.1 0-.2 0-.3-.2l-1.3-.8-6.2-3.8-.3-.2-3.7-2.3-4-2.5c-1-.5-1.6 0-1.8 1-.2.9-.2 1.7-.2 2.6v55.6l-.9-.3a6 6 0 0 1 0 4.8V24.9l.4-1.4c.5-1 1-1.4 2-1.2a6 6 0 0 1 1.9.7l3.4 2.2 26.9 16.7c2 1.2 3 3 3 5.4l.2 4.1v71.1l-.1-1V85.6h-.3l-.2.5.1 4.6v30c0 .8.2 1.5-.2 2Z"/><path fill="#3B2C2A" d="M278.1 122.8c.5-.7.2-1.3.2-2v-30l-.1-4.7.2-.5h.3v36l.2 1c1 .6 2 .6 3 0v-.8l.2-28.3V65.8h.3v4l-.1 12 .3.8v.7l-.2.4-.1 6.7V108l.1 3.6-.1 5.1c0 .5.2.9.3 1.2h1l5-.1 1.4.1h15.2l1 .1h3.7l.9-.1H322l1.5.1h4.2l1.7-.1c1.4-.2 2.9.3 4.4-.5l-1.6-2-.3-.2v-.2l.1-.3 1 .7.3.3.5.7c.4.7 1 1.2 1.2 1.9.7 1.6.2 3.6-2 3.7h-49.6c-.5 0-.7.1-.7.7l-3.2 1-1.3-1Zm56.1-1.6c.7-1.4.7-2.1.2-2.8l-2.6.3h-48.4c-.6 0-.8.3-.8 1v1.8l1 .2H333c.3 0 .8-.3 1.2-.5Z"/><path fill="#3C312E" d="M333 115.4a3 3 0 0 1-1-.6v.3l-1.4-1.3-3.6-5.3v-.7c-.9-1.4-1.8-2.8-2.5-4.3-2.1-4.2-4.2-8.4-6.1-12.7A175.9 175.9 0 0 1 306 50.5l-1-6.7c.5-1.7 0-3.1-1-4.5-.3-.7-1-1.1-1.5-1.8 2 1 2.7 2.8 3 5 .6 6.5 1.8 13 3.5 19.5 4 15.7 10 30.8 18.1 44.9 1.6 2.8 3.8 5.4 5.6 8.1l.4.5-.1-.1Z"/><path fill="#3D2E2B" d="m302.5 37.5 1.6 1.8c.9 1.4 1.4 2.8.9 4.4l-.3-.7-2 1.8h-2.5l-1.6-.2v-.2l1-.2 2.5-.2a2.1 2.1 0 0 0 2-1.8v-1.8l-1.6-1.8-.9-.6-3.2-2-2-1.3-1-.5-11.3-6.7-9.6-5.6.2-.6 7.9 4.4L300.2 36l2.3 1.6Z"/><path fill="#372A27" d="m237.4 24.7.3-3 .6-.7 1.1-2h.2l-.3.9-1 2.6V25l-.3 2.2-.1 1V86l.3 1c.7.6 1.6.4 2.5.2l.3.4h-.7c-.9 0-1.8 0-2.5-.4-.3-.2-.3-1.1-.3-1.7V30.7c.1-2 0-4-.2-6.1Z"/><path fill="#453532" d="m237.4 24.7.2 6v54.7c0 .6 0 1.5.3 1.7.7.4 1.6.4 2.4.5l.7-.1.2.2h-2.9c-.7-.1-1-.7-1-1.4V24.7Z"/><path fill="#443331" d="M282.6 122.7c0-.5.2-.7.7-.7H333c2.3 0 2.8-2 2.1-3.6-.3-.7-.8-1.3-1.2-1.9l-.5-.7a15 15 0 0 1 2 2.3c1 2.1-.1 4.2-2.5 4.3h-49.1c-.4 0-.7.2-1 .4Z"/><path fill="#453633" d="M243.9 18h20.7l.3.1-.6.2h-19.6l-.8-.4Z"/><path fill="#372A27" d="m274.7 21.3-.2.6-6-2.7h1V19l1 .4h.9c1 .8 2.2 1.3 3.3 2Z"/><path fill="#372927" d="m241.2 87.7-.1-.3-.4-.2.4-.2c.7-1.5.6-3.1 0-4.8l.8.3h.3l1 .6-1.3.2v2.5l1.6.3v.2l-1.3.3-.3.5-.7.6Z"/><path fill="#372A27" d="M269.5 19v.2h-1l-2.3-.5-1.4-.1-.4-.4h2.3l2.8.7ZM244 18l.8.3-.2.9-1.1-.6c-.5-.1-1-.5-1.3-.4-.8.1-1.6.6-2.5.8h-.2c.4-.3.7-.7 1-.8l2.9-.4.6.2Z"/><path fill="#443431" d="M243.3 17.8c-1 .2-2 .2-2.8.5-.4 0-.7.5-1 .7l-1.3 2-.5.7c.7-3 2.8-4.6 5.6-4Z"/><path fill="#453734" d="m269.5 19-2.8-.9c.7 0 1.4 0 2 .3 1 .2 1.8.7 2.7 1l-1-.1-.9-.4Z"/><path fill="#443331" d="m279.4 123.8 3.2-1c-.5.8-2 1.3-3.2.9Z"/><path fill="#FAFAFA" d="m259.5 32.8.3.2-.3.5-1 .7-3.2 1.8 5.5 4c.1.1.5 0 .8-.2l4.8-2.6.5.3-.5.5-4.6 2.7.4.4 4.3 3.3c.4.3.9.2 1.3 0l5.2-3.1.4.1c-.1.2-.1.6-.3.7l-4.6 2.7-.6.4.2.3 5 3.6c.1.2.6 0 .7 0l3.9-2.2.1.8-3.7 2.3 1.4 1 2.3 2v.7l-3.9-2.8c-.4-.4-.8-.5-1.3-.1l-4.9 2.8-2.2 1.3.5.4 4.8 3.6c.3.1.7.2 1 0l2-1 4-2.4v.7l-2 1.4-3.7 2.1.5.6 4.2 3c.8.6 1.2 1.3 1 2.3l-7.9 4.6c1.4 1 2.9 2 4 3 1.5 1.3 2.6 1.5 4 .3v.7l-1.1.9 1 1.1v.8l-1.5-1c-.4-.4-.7-.4-1 0l-6.9 3.8-2 1.2 1.6 1.3h-.9a2.7 2.7 0 0 0-3.3 0h-1.3l2.5-1.6-.7-.2-4.7-3.6c-.5-.3-.8-.3-1.4 0l-3.6 2.1-4 2.3 1.2 1h-.9c-1-.5-2 0-2.9 0v-.2l1-1-.3-.1-5.2-4c-.5-.4-1-.2-1.4 0v-2.1c.7.7 1.2.6 1.8.2l5-2.8 2.5-1.5-5.6-4.2-.7.1L243 68c-.6.3-1 .3-1-.4l2.8-1.6-2.8-2.1v-1l2.8 2c.6.4 1 .6 1.5.2l5.8-3.4 2.7-1.5v-.3l-5.1-3.8h-.7l-3.4 2c-1 .7-2.2 1.2-3.5 2v-.8l6.5-4-4.8-3.6c-.3-.2-.7-.1-1 0l-.7.4.2-1.4-.3-1 .7.1c.4.6 1 .5 1.5.2l4.2-2.5 3.2-1.8-4.8-3.7c-.7-.5-1-.5-1.7 0l-3 1.7v-.8l3-2-3.1-2.5v-.8l3.4 2.4c.4.3.7.4 1.3.1l5.2-3 1.8-1.2-5.6-4.1c-.4-.5-.9-.3-1.3 0l-4.7 2.6c-.2-.7 0-1 .7-1.2l1.2-.7 2.8-1.7-.7-.7-4.1-3v-1l5 3.7c.5.4.9.4 1.5 0l3.1-1.7.4.2c-.2.2-.2.6-.5.7l-3.2 2 .7.3 4.7 3.5c.7.6 1.2.7 2 .2l1.1-.7 2.6-1.4Zm9 37.2-5.7-4.2c-.5-.3-.8-.3-1.2 0l-6.7 3.8-2 1.2 5.7 4.2c.2.2.7.2 1 .2l6.4-3.8 2.4-1.4Zm-8.6 6 .3.2 5 3.8c.3.2.8.1 1 0l6.3-3.6L275 75l-5.3-4.1h-1.2l-5 3-3.6 2Zm1.5-11.1-.2-.3-5-3.7c-.4-.3-.9-.2-1.3 0l-6 3.5-2.6 1.5 5.4 4c.2.2.7.2 1 0l4.8-2.7 4-2.2v-.1Zm-3.1 11-5.9-4.3a.9.9 0 0 0-.8 0l-6.2 3.5-1.7 1 5.8 4.3c.3.2.7.1 1 0l2.3-1.3 5.5-3.2Zm4.7-11 5.6 4.3c.4.3.7.4 1.2 0l4.7-2.6 2.8-1.6c0-.2-.1-.2-.2-.2l-5.6-4.2a.9.9 0 0 0-.8 0l-4 2.2L263 65Zm7.5-5.2-5-3.7c-.7-.6-1-.5-1.7-.2l-4.3 2.5-3 1.8 5.1 3.8c.5.4 1 .4 1.5 0l2.8-1.5 4.6-2.7Zm-20.3-4.4.7.6 4.2 3.1c.5.5 1 .4 1.5.1l4-2.4 3.3-2-5-3.7h-1l-2.3 1.3-5.4 3Zm9.9-14.6-.2-.3-4.7-3.5c-.5-.5-1-.4-1.4 0l-4.3 2.4-2.7 1.6 5.2 4c.3.3.7.2 1 0l2.9-1.7 4.3-2.5h-.1Zm-1 9.5 5.2 3.9h1l2.8-1.6 4.4-2.6-.7-.6-4.1-3.1c-.6-.5-1-.4-1.6 0l-4 2.3-3 1.7Zm-15 .7 4.7 3.5c.6.4 1 .2 1.6 0l4.2-2.5 3-1.8-.7-.6-4-2.9c-.4-.3-.8-.4-1.3 0l-7.4 4.3Zm9-5.2.4.3 4.4 3.3c.4.3.7.3 1.2 0 1.4-.7 2.7-1.6 4-2.4l3.1-1.8c-1.6-1.2-3.2-2.3-4.6-3.5-.5-.4-.9-.3-1.4 0l-3.3 1.9-4 2.2h.1Z"/><path fill="#D97E75" d="m243.4 18.6 1.1.6.9.4 1.7 1 2.2 1.5 11.2 6.8 16.8 10.4c2.1 1.3 3.7 3 4 5.6 0 1.4.6 2.7 0 4.1v.4c.5.8.4 1.1-.3 1.7-.2.2-.3.8-.2 1.2.2.5.7 1 .7 1.5.2.9 0 1.8 0 2.8v2.2c0 .4-.2.7-.3 1l.3 2.4v2c0 .7.2 1.5-.7 1.9v.3l.7.2c-.2.3-.5.5-.4.6.1.6-.5 1.4.4 1.9v6.7l-1.4.1v1.8l-.5.5h-.7l.1-2.3-.1-6.2c0-.3 0-.7.5-.8.4 0 .5-.5 0-.7-.5-.2-.5-.5-.5-1V52.3l-.2-.9-.1-4.2a6 6 0 0 0-3-5.3l-26.9-16.7-3.5-2.2c-.6-.3-1.2-.6-1.9-.7-.7-.1-1.4.3-1.8 1.2l-.4 1.4-.2.9v5l-.4 1.2c-.9-.3-.5-.8-.2-1.3l-1.9-1.2v-7.1l.9-2.5c1-1.4 2.4-1.9 4.2-1.4l-.1.1Z"/><path fill="#CBC3C2" d="m242 59.2.1.7 3.5-2 3.4-1.8h.7l5 3.7v.3l-2.5 1.5-5.8 3.4c-.7.4-1 .2-1.5-.2l-2.8-2v1h-.2v-4.6h.2Zm0-24.8 4.8-2.7c.5-.3.9-.5 1.4 0l5.6 4.1L252 37l-5.3 3c-.5.4-.9.2-1.3 0l-3.3-2.5v.8h-.2v-1l.2-3Zm35.8 21.8v-.7l-4 2.3-2 1.2a1 1 0 0 1-1-.1l-4.8-3.6c-.2 0-.3-.3-.5-.5l2.3-1.2 4.8-2.8c.5-.4.9-.3 1.3 0l3.8 3 .1-.8h.2v3.2h-.2Z"/><path fill="#CBC3C2" d="M242 63.8c-.1 1.2 1.3 1.2 1.7 2l-1 .8c-.6 0-.7.4-.6.9 0 .7.4.7.9.4l2-1.2c.3-.1.6-.2.8 0l5.6 4-2.6 1.5L244 75c-.7.5-1.2.6-2-.1V77 63.8Zm25.2 18.6.9-.1-1.7-1.3 2-1.2 6.8-4c.4-.2.7-.2 1 .1l1.6 1.1v-.8h.2v6.3h-10.8v-.1Zm-25.1-39.6v.8l3-1.7c.6-.5 1-.5 1.7 0 1.5 1.3 3 2.4 4.8 3.7l-3.1 1.8-4.2 2.5c-.6.3-1.1.4-1.7-.2l-.6-.1.4 1.1-.3 1.3h-.2v-9.2h.2Zm9 39.6.8-.1-1.2-1 4-2.4 3.6-2c.5-.3.8-.3 1.3 0l4.9 3.6.5.2-2.5 1.6h1v.2H251v-.1Z"/><path fill="#AE5361" d="M281.8 122.6c-1 .5-2 .7-3 0V90h.1v6.5l.3 1-.3.7v4.2c.2.8-.2 1.8.5 2.6-1 .2-.2 1-.5 1.4l.9.3c-.2.7-1.2 1.2-.4 2l-.2.6-.3.5.3.3.8-.7 1.6.9v-4c0-.8-.1-1.4-1-1.6l.9-1v-.8l-.2-.6c0-.7.2-1.3.3-2l.1-.3v22.6h.1Z"/><path fill="#CBC3C2" d="m277.6 47-3.8 2c-.2.3-.7.3-.8.1l-5-3.5v-.3l.5-.4 4.6-2.7c.2 0 .2-.4.3-.7 1.5 1.1 3.4 1.8 4 4l.2 1.4Zm-4.6-5.7-5.2 3c-.5.3-.9.4-1.4 0l-4.3-3.2-.3-.4 4.6-2.7.5-.5 6.1 3.8Z"/><path fill="#B45964" d="m238 27.3.2-2.4v47.3c0 1 .4 1.1 1.2.7l.3.2-.5.5c-.3.4-.8.9-.8 1.3v4c0 .7.5.7 1 .7l1-.3c-.4-.6-.5-1.1.3-1.5l.1-.3v-6.9l-.2-1.7.3-3.1V40.9h.2v46h-2.8l-.2-9.2V27.3Z"/><path fill="#CBC3C2" d="m266.4 37.2-4.8 2.6c-.3.2-.7.3-.9.2l-5.4-4 3.1-1.8 1.1-.7c.2 0 .2-.3.2-.5l6.7 4.2Zm-7-4.4-2.6 1.4-1.2.7c-.7.5-1.2.4-2-.1-1.4-1.3-3-2.4-4.5-3.5l-.7-.5 3.2-1.9c.2-.1.3-.5.4-.7l6.2 3.8 1.3.8Zm-7.7-4.8-3.2 1.8c-.6.3-1 .3-1.6-.1l-4.7-3.6v.8h-.2l.1-2.6c.2-1 .8-1.5 1.8-1l4.2 2.4 3.6 2.3Z"/><path fill="#B25863" d="M242 85.8v-2.5h34.8c.8 0 1.2.4 1.2 1 0 1-.5 1.5-1.5 1.5h-34.6Zm9.5-2.3h-1.3l.5.8-1.4.3-.1.3c.6.2 1.2.6 1.8.7h25.4c1.6 0 1.4.3 1.4-1.4.1-.7-.1-.7-.7-.7h-25.6Z"/><path fill="#CBC3C2" d="M241.9 52h.2c.3 0 .5-.3.7-.4h1l4.8 3.7-6.5 3.9h-.2V52Zm9.1 30.4h-9V77c.6-.3 1-.5 1.5 0l5.3 3.9.3.1-1 1v.2c1 0 2-.5 3 0v.2Zm26.8-26.2h.2v18h-.2v-8.6c.2-1-.2-1.7-1-2.2-1.5-1-2.8-2.1-4.2-3.2l-.5-.5 3.6-2 2.1-1.5ZM242 26.9h.2l4 3.1.7.7-2.8 1.7-1.2.7c-.7.2-.9.7-.7 1.2l-.2 3V26.8v.1Z"/><path fill="#C9C1C0" d="M278 53h-.2l-2.3-1.9-1.4-1 3.7-2.5.2 2.5V53Z"/><path fill="#C96E6E" d="M279 90h-.2V51.3l.1 1v14.9c0 .5 0 .8.6 1 .4.2.4.6 0 .7-.6 0-.6.4-.6.8l.2 6.2-.2 2.3V80l.1 1.2c.2.2.7.3 1 .4l-.4.6-.5-.4v4.6l.2.6-.3.9V90Z"/><path fill="#CBC3C2" d="M242 42.8h-.1v-4.5h.2l3.1 2.6-3.1 1.9Z"/><path fill="#B85D66" d="M241.1 41h-.3V25.6l.2-.8v16h.1Z"/><path fill="#C2BBB9" d="M263.6 82.6v-.2h.2c1.2-.8 2.3-.8 3.4 0h-3.6v.2Z"/><path fill="#C7BFBE" d="M277.8 74.2h.2v2h-.2l-1-1 1-1Z"/><path fill="#453532" d="M238.2 86.8h2.8v.2l-.3.1c-.9.2-1.7.4-2.5-.3Z"/><path fill="#FAFAFA" d="M292 118h-1l.8-.8 5.8-3.8.8-.6-.4-.3-6.5-4.5c-1.7-1.1-1.7-1.1-3.4 0l-5 3.3-.2-.3.7-1 3.6-2.4 1.9-1.2-4.5-3.2-1.6-1.6v-.3l1.6.7c0 .1 0 .3.2.3 1.5 1 3 2.3 4.6 3.3.3.1.7 0 1-.1l3.7-2.4 3.7-2.5-5.8-3.9-2-1.5h-.8l-1 .8-5 3.2c-.3-.7 0-1 .5-1.3l5.2-3.4-.7-.5-4.4-3.1c-.4-.4-1-.7-.7-1.4l.7.4 3.6 2.4c.7.5 1.3 1.2 2.1 1.5.5.1 1.2-.5 1.8-.8l.4-.2 3.6-2.6.4-.1 2.3-1.5.6-.5-1-.8-1.2-.8-5.2-3.7c-.6-.4-1-.6-1.8 0l-2 1.4-.7.5-3.3 2-.7.3v-.7L286 84h.1l3.3-2.3-.5-.5-4.6-3.2c-1-.6-1.8-1.3-1.5-2.6V75l6.5-4.2-6.4-4.6v-.9l.9.5 5.5 4 1 .3 2.1-1.3L295 67l.6-.3 3.2-2-4-3.1-1-.9.3-.3 1 .5 3.5 2.5c.7.6 1.3.5 2 0l5.6-3.6c.3.1 1-.7.7.3l-.3.4-5.3 3.4-.8.7.5.5 5.6 3.9c1.4 1 1 .9 2.4 0l.8-.4.2.6-1.3 1 2.3 2.3-.1.5-2.6-1.9c-.4-.2-.7-.2-1 0l-5.1 3.3-3.1 2.1.3.4 7.5 5.3c.3.1.7 0 .9-.1l4.5-3 .8-.1v.1l-.4.8-1.8 1.2-2.8 1.8 7.5 5.4c.4.3.8.2 1.1 0h.2l.2.4.5 1.9-.6-.4c-.7-.7-1.2-.4-1.9 0l-5.4 3.7-.7.5c2.6 2 5.3 3.8 8 5.6.3.3.8.1 1.1 0l2.5-1.6c.2-.2.5 0 .7 0-.1.3-.2.6-.5.7l-2.5 1.8 7.4 5.6.7 1-.6.6-2.2 1.4-3.9 2.7h-.1l-2.1 1.4 5.8 4.2v.1l-1.3.1-5-3.7h-.6l-5.6 3.7h-1.3l6.5-4.4-7.4-5.2c-.6-.4-1.1-.6-1.7 0l-1.5.9-5.6 3.7 7 5h-1.3l-5.7-4c-.6-.4-.9-.4-1.4 0l-6.3 4Zm.6-46.1.7.7 3.9 2.6.8.7h.4l5.3-3.6 3.2-2.1-7-4.9c-.1-.1-.5-.2-.6-.1l-4.2 2.6-2.6 1.8-.4.3-1.4.9 1.9 1Zm2.6 6 2.3-1.4-3.3-2.2-.9-.7v-.2l-2.8-1.8c-.2-.1-.7-.2-1 0l-2.5 1.6-.1.2-4.2 2.6 6.6 4.5c1 .7 1.1.7 2-.2l3.6-2 .3-.4Zm3 11.4-2.4 1.5-3.4 2.3-2 1.4.3.4 7.3 5h.7l1.8-1 3.7-2.5.2-.2 3-2-4.8-3.3-.5-.3-1.7-1.3c-.7-.7-1.5-.7-2.3 0Zm-1-3.2.2.2c1.9 1.4 2 1.4 3.3.2h.4l5-3.4.5-.3-4.8-3.3-3-2c-.2-.2-.4-.7-1-.4l-2.5 1.8h-.2l-2.9 2-1.3.9 3.5 2.4 2.7 2V86Zm13.2 19.7-2 1.4 6.8 4.8c1.4 1 1.4 1 2.8.2l.7-.4 3.7-2.6 3-2v-.3l-7.6-5.3c-.2-.2-.6-.3-.7-.1l-2.9 1.7-3.3 2.4-.5.2Zm-.8-.4.3-.3 3.7-2.3.3-.2 2.6-1.8-.1-.3-8-5.4c0-.2-.5-.2-.6-.2l-3 2-3.7 2.4-.2.2-1.8 1.1c2.4 1.7 4.8 3.3 7 5 1 .8 2 1.3 3 0l.5-.2Zm-7.8-16 5.8 4c.4.3.7.3 1 0L314 90l1.4-1-.4-.3-7.3-5a1 1 0 0 0-.9 0l-5.6 3.5c-.9.7-.9.7 0 1.4l.7.7Zm-11.3 16.9.5.4c2.4 1.7 5 3.4 7.2 5.1.7.4 1 .4 1.7 0l6.3-4.2.7-.5-8-5.6c-.5-.3-.8-.3-1.1 0l-2.8 1.8-4.5 3Z"/><path fill="#AC5160" d="M282.6 121.5v-1.9c0-.7.2-.9.9-.9h48.3l2.6-.3c.5.7.5 1.4-.2 2.8-.6.1-1.3.3-2 .3h-49.5Z"/><path fill="#CBC3C2" d="M305.5 117.9h1.3l-7-5 5.6-3.7 1.4-1c.7-.5 1.1-.3 1.8 0 2.3 1.9 4.8 3.6 7.3 5.3l-6.4 4.3 1.3.1-1 .1h-4.6l.3-.1Zm-22.7-16.3 1.7 1.6 4.5 3.1-1.9 1.2-3.6 2.4-.7 1 .3.3 4.9-3.2c1.6-1.2 1.7-1.2 3.4 0l6.4 4.4.5.3-.8.7-5.8 3.7c-.3.2-.5.6-.8 1h-.9l-.4-.8-3.5-2.5-3.1-2c-.2.6 0 1 .6 1.3l5 3.6c-1.3 0-2.2-.9-3-1.4-.7-.5-1-.5-1.7-.1l-1 .5V112l1.3 1c.3.2.8.4 1 .2l3.2-1.7c-1.1-1.6-2.2-2-3.5-1l-.4.2-1.6 1.2c-.7-1.8.4-2.7 1.8-3.4l-1.4-1.2c-.3-.2-.5-.5-.5-.7v-5Zm3.8 13 2.6 2.1c.4.3 1 .4 1.5.4l2.2-1c.7-.5.8-.9.2-1.3-.8-.7-1.6-1.3-2.5-1.8-.2-.2-.7-.2-.9 0l-3 1.7Zm5.5-3 2.1 1.7c1.3.9 1.3.9 2.5 0 .3-.3.4-.5 0-.7a19 19 0 0 0-2.4-1.8c-.1-.1-.5-.2-.7-.1l-1.6 1Zm0-2.3-1.8-1.4a1 1 0 0 0-1 0c-.4 0-.7.4-1 .7 1 1.8 2.4 2.1 3.8.7Z"/><path fill="#CBC3C2" d="M282.8 101.6v5c0 .3.2.5.4.8l1.5 1.2c-1.4.7-2.5 1.5-1.8 3.4l1.6-1.2.4-.3c1.3-.8 2.4-.6 3.5 1-1 .6-2 1.3-3.1 1.8-.3.1-.8 0-1.1-.2l-1.4-1v4.7l1.2-.6c.5-.3 1-.3 1.6 0 .9.8 1.7 1.6 3 1.6v.1h-5l-1 .2v-29h.2c0 1-.4 2.1 1.2 2.6-1.5.4-1.2 1.4-1.2 2.2v.7l.5.8 1.4 1.1c-.7.5-1.5.8-1.8 1.4-.3.4 0 1.3 0 2.1l2.8-1.9c.4-.1.8-.2 1 0 .8.4 1.4 1 2.2 1.5l-3.6 2-1-.3-1.4-.9v1.2h-.1Z"/><path fill="#968484" d="m319.7 112.1 3.8-2.7.1.1-.3.5 8 5.5-3.3 2.3.1.1h1.1l-1.5.1c.1-.4 0-.7-.4-.9l-4.7-3.3c-1-.7-2-1.1-3-1.7Z"/><path fill="#CBC3C2" d="M305.5 117.9H292l6.3-4c.4-.4.8-.4 1.4 0l5.7 4Z"/><path fill="#423330" d="M281.8 122.6V64.4l.1-13.3.2.9v12.5h.3v-5.3l-.1-3.2v-4.4c0-.3.2-.5.3-.7v31.7c-.1-.2-.3-.6-.3-1V65.9h-.2v27.7l-.2 28.3v.7Z"/><path fill="#CBC3C2" d="m310.8 118 5.5-3.7h.6l5 3.6h-11.1Zm11.2-.1h1.2v-.2l-5.8-4.1c.7-.6 1.4-1 2.1-1.4-.3.3 0 .5.4.7l4.9 3.5 2 1.4-3.3.2-1.5-.1Z"/><path fill="#423330" d="M282.6 89.1v29c-.1-.4-.3-.8-.3-1.3l.1-5.1-.1-3.6V90.4l.1-6.7.2-.4v5.8Z"/><path fill="#706665" d="m323.5 118 3.3-.2-2.1-1.4a86.9 86.9 0 0 0-5-3.5c-.2-.2-.5-.3-.2-.8h.2l2.9 1.7 4.7 3.3c.4.3.5.5.3 1h-4.2.1Z"/><path fill="#443331" d="M282.6 121.5h49.6c.7 0 1.4-.2 2-.3-.4.2-.8.5-1.2.5h-49.4l-1-.2Z"/><path fill="#6F6564" d="m331.3 115.5-8-5.5.4-.5.6.2 5.3 3.7 1 .4 1.3 1.4v.1l-.7.2h.1Z"/><path fill="#F8F7F7" d="M288.6 117.9v-.1l-5-3.6c-.5-.4-.7-.7-.6-1.4l6.6 4.7.4.5-1.4-.1Z"/><path fill="#968484" d="m332 115.6 1.8 2c-1.5.6-3 .2-4.5.4v-.1c.7-.6 1.5-1 2.4-1.6l.4-.7Z"/><path fill="#EFECEC" d="M332 115.6c0 .2-.1.6-.3.7l-2.5 1.6h-1.1v-.1l3.2-2.3.6-.2.2.3Z"/><path fill="#6D6362" d="M282.6 85.8v-3.5l.7.1 2.6.9c.3.1.4.3.2.7h-.2l-2.4-.7c-.5-.1-.7 0-.7.7l-.2 1.8Z"/><path fill="#3F312E" d="m310 69-.3-.6-.8-3.2-1.6-6.5-.2-.7-.4-1.8-1.2-6.5-.7-4.4-.2-2-1 1.1-.1.2-.9.2 2.1-1.8.2.7 1 6.8c.8 4 1.6 8 2.6 12a175 175 0 0 0 9.9 28.3c1.9 4.3 4 8.5 6 12.7l2.5 4.3v.7l-.6-1-.7-1.2-4.2-8.3-4.4-9.4-.1-.3-1-2.3-.4-.9-2-5-.4-1.1v-.3l-2.2-6.3-1-3.3Z"/><path fill="#CBC3C2" d="m326.3 107.5.7 1 3.6 5.3-1-.4-5.3-3.7-.7-.2h-.1l2.2-1.4.6-.5v-.1Z"/><path fill="#D97E76" d="m266.2 18.7 2.3.5 6 2.7 9.6 5.6 11.2 6.7v.3c-.9 0-.6 1-.9 1.5l-.2.3h-1l-1-.5L273 24.5l-4.8-2.8-2-.4-.6-.2h-16.4l-3-1.7-.4-.7h20.5Z"/><path fill="#CBC3C2" d="m302.6 44.8.9-.2v.7l1.2.8v-.8l.8 4.4c-.3-.3-.6-.3-1 0l-4.1 2.7c-.3.1-.9.3-1.1 0l-6.5-4.4.7-.5 3.1-2 .2-.4v-.2h3.4l2.4-.1Z"/><path fill="#D87D75" d="m301.6 38 .9.4-.2 1-.7 1 .5 1.1.5-1.7c.7-.2 1 .4 1.4.7l-1.1 2.1c-.6-.3-1.7-.1-2.1.4l-1.6.2-.1-.2c-1 .7-2 1-3.1 1l.5-.4-1.1-1c.2-.1.3-.5.5-.5.5 0 .7-.2.6-.7l.3.4-.3 1 1.4-.7.4-.4-.4-.3-.9-.2-.5.2-1.8.5.2.7h-.5l-1 .4c.1.3-.7.5 0 .7l-3 .2c-.6 0-.6-.6-.2-1l1.5-2.1c0-.1.2-.2.3-.1l3 .2 1.7-.2.9.1h.5a7 7 0 0 0 1.7-.2c0-.2.3-.5.3-.8l-.2-1.2.6.5 1-1.2h.1Z"/><path fill="#C76E6D" d="m299.8 40.7-1.7.2-.4-.1-1-.1-1.7.2-3-.2-.4.1-1.5 2c-.4.5-.4 1 .2 1h3l2.6.1a5 5 0 0 0 3-.9l.2.2 1.6-.2 1 .7c.1-.1.4-.4.7-.4.7 0 1-.3 1-1 0-.2.1-.3.3-.4l.3.4a2.1 2.1 0 0 1-2 1.8l-2.6.2-2-.1H282v-.4l2.8.1h4.5l.2-2 .5-.9.9-.1v-.2h-10.2v.5l-.5-.5v-.2h19.5l.1.2Z"/><path fill="#453330" d="M282 44.2h17.5l-.9.3v.1l1.6.3h-9.3c-.7 0-1.4.3-2.1.4h-.4V45l-.1-.2 7.4-.5h-1.6l-2.8-.2-3.3.2-2.1-.2-3.1.2-.7-.4v.2Z"/><path fill="#B55A64" d="m301.6 38-1 1-.6-.4.2-.5-.1-.2-.8.5-1.3 1-1.5-1.1h.7l-.2-.1 1-1.2.4-1v-.2l3.2 2.1Z"/><path fill="#B95F67" d="m304.2 42.3-.5-.5-.2.5c0 .7-.3 1-1 1l-.7.4-1-.7c.4-.5 1.5-.7 2.1-.5l1-2h.3v1.8Z"/><path fill="#C76C6D" d="M294.6 36c.1-.6 0-1.4.8-1.4v-.4l1 .5c-.8.2-1 .7-.3 1.1v.2l-.7.6-.7-.1-.2-.5Z"/><path fill="#BA6067" d="M296.2 36v-.2c-.7-.5-.5-.9.1-1.1l2 1.1v.2l-1.1.5-.6.3v-.3l.5-.7v-.2l-1 .4Z"/><path fill="#B15862" d="M304.2 40.5h-.3c-.4-.3-.7-.9-1.3-.7l-.3-.3.2-1 1.7 2Z"/><path fill="#CB726F" d="M240.9 42.6V46c-.8-.2-1.4-.6-1.8-1.5 0-.3-.5-.5-.8-.7V22.4l.1 2.8V39l.4.9c0 .5.9 1 .1 1.6 0 0 .1.5.3.6l1 .7.7-.4v.1Z"/><path fill="#453532" d="M238 27.3v50.3l.2 9.2-.2-.8V27.2Z"/><path fill="#443431" d="M243.4 18.6c-1.7-.5-3 0-4.2 1.4l.4-1 2.6-.9c.4 0 .9.3 1.3.4l-.1.1Z"/><path fill="#392B28" d="m245.4 19.7-.9-.5.2-.9h19.7l.4.3-1.4-.1h-17.6l-.9.2.7.6-.2.3v.1Z"/><path fill="#453633" d="m245.7 19.3-.8-.6 1-.2h17.5l1.4.1 1.4.1h-20.5l.4.7-.3-.1Z"/><path fill="#CBC3C2" d="m268.5 70-2.5 1.5-6.5 3.8a2 2 0 0 1-1 0l-5.7-4.3 2-1.3 6.8-3.8c.4-.3.7-.3 1 0l5.7 4.2.2-.1Zm-8.6 6 3.5-2.2 5.1-2.8a1 1 0 0 1 1.2 0l5.3 4-2.6 1.5-6.2 3.5c-.2.2-.7.3-1 .1l-5-3.8c-.2 0-.2-.2-.3-.3Zm1.5-11-3.9 2.3-4.9 2.7a1 1 0 0 1-.9 0l-5.3-4 2.7-1.6L255 61c.4-.2.8-.3 1.2 0l5 3.8.3.3Zm-3.1 11-5.6 3.1-2.2 1.4h-1l-5.8-4.4 1.7-1 6.2-3.4c.2-.2.6-.2.7-.1l6 4.3Zm4.7-11 3.7-2.1 4-2.3c.2-.2.7-.2.8 0l5.6 4.2.2.2-2.8 1.6-4.7 2.8c-.4.2-.8.1-1.2-.2L263 65Zm7.5-5.3-4.6 2.6L263 64c-.6.3-1 .3-1.5-.2l-5-3.8 2.9-1.7 4.3-2.6c.6-.3 1-.4 1.7.2l5 3.8Zm-20.3-4.4 5.4-3 2.3-1.4 1 .1 5 3.8-3.3 2-4 2.3c-.6.3-1 .4-1.6 0a41.2 41.2 0 0 0-4.1-3.2l-.7-.6Zm9.9-14.6-4.2 2.5-3 1.7c-.3.2-.6.2-1 0l-5-4 2.6-1.6 4.2-2.5c.6-.3 1-.3 1.5 0 1.5 1.3 3.1 2.4 4.8 3.6v.3Zm-1 9.5 3-1.7 4-2.3c.6-.4 1-.5 1.6 0 1.3 1.1 2.8 2 4.2 3.1l.7.5-4.6 2.7-2.7 1.6h-1l-5.2-3.9Zm-15 .7 7.5-4.4c.5-.2.9-.2 1.4.1l4 3 .6.6-3 1.7-4.2 2.5c-.6.2-1 .4-1.6 0l-4.6-3.5Zm9-5.1 3.8-2.3 3.2-2c.5-.2.9-.3 1.4.1l4.7 3.5-3 1.8-4 2.4c-.6.3-1 .3-1.3 0l-4.4-3.3-.5-.2Zm24.7 19.8v7.9c-1.4 1.1-2.5 1-3.8-.2-1.2-1.1-2.6-2-4-3.1l7.8-4.6Z"/><path fill="#CBC4C3" d="M242 67.5c0-.6 0-.9.8-1 .3 0 .6-.4.9-.6-.4-1-1.8-.9-1.6-2.1l2.7 2-2.7 1.7Z"/><path fill="#3C2D2A" d="m296.5 38.3 1.4 1 1.4.3c.6 0 1 .2.5.9h-19.4v.2l.4.5 1.3 2.6v.3c.3.1.5.3.8.3l3-.1 2.1.1 3.5-.1 2.7.1h1.6l-7.4.5h-3.5c-.9-.3-1.7-.6-2.6 0v1.8l.3 3.4v.8c-.1.2-.3.4-.3.7V56l.1 3.2v5.3h-.2V52l-.3-1v-1l-.4-5c-.5-2.7-2-4.4-4-5.7L260.3 29l-11.1-7h.7c.2-.7-.5-.7-1-1h16.6l.7.2h-1.6v.3l3.8.7-.3-.4 5 2.8 19.1 11.3 1 .5 2.8 1.7.5.3v-.1Zm-18 .7c1.4 1 3 .5 4.8.7l-1.1-3.8-.4-1.2-1.5-4.9-.7-.3-3-1.8-2-1.1-2-1.2-.3-.3-4.1-2.5c-.6-.3-1.4-.3-2.1-.5h-.1l-3.7-.2h-11.4l-.1.2 2.1 1.2 4.4 2.8h.6l1.8 1.4 4.7 2.8.3.2.1.3 6.3 3.7.6.4 6.3 3.7.5.4Zm7.7-4.5 1.3 4.3c0 .5.2.9.8.9h8.4v-.3l-2.5-1.5-7-4-1.4-1 .3 1.6h.1Zm.5 5.1v-.5l-1.8-6.3c0-.2-.2-.4-.3-.4l-3.2-2 2.6 8.9c0 .2.3.4.5.4h2.2Z"/><path fill="#D67B74" d="m281.5 44.9.4 5.1v28l-.3 1v14.4c-1 0-1.7.5-2.1 1.4l.2-3 .9-1.1-.7-.2.4-.7c.1-.1.3-.3.3-.5l-.4-.2-.4.4-.9.7V88c0-.4.3-.7.4-1l-.3-.6v-4.6l.7.4.4-.7c-.4 0-.9 0-1-.4-.2-.2 0-.7 0-1v-1.8h.6l.4-.5V76l1.4-.1.1-6.3V69c-1-.4-.3-1.2-.4-1.8l.4-.7-.8-.2.1-.2c1-.5.7-1.2.7-2v-1.9l-.4-2.4c.2-.4.4-.7.4-1v-5.1c0-.5-.6-.9-.7-1.4-.1-.4 0-1 .1-1.2.7-.6.9-1 .4-1.7 0-.1-.2-.3 0-.4.6-1.4 0-2.7 0-4.1Z"/><path fill="#D57A73" d="m240.9 42.6-.7.4-1-.7c-.2-.2-.3-.6-.3-.7.8-.6 0-1-.1-1.6 0-.2-.4-.6-.4-.9v-9.5l1.9 1.1c-.3.5-.7 1 .2 1.3l.3-1.1v11.7Z"/><path fill="#372A27" d="M249 21.1c.5.2 1.2.2 1 1h-.7c-.7-.6-1.5-1-2.2-1.5l-1.7-1 .3-.4.4.2 3 1.7Z"/><path fill="#C96E6E" d="m279 90.2.8-.7.4-.4.4.2c0 .2-.2.4-.3.5l-.5.7c.3 0 .4 0 .7.2l-.7 1.2-.3 2.9c.4-1 1-1.4 2.1-1.4l-1 1 .7.6.2.8c.3.7.1 1.4-.5 1.6-.4 0-.7-.2-1-.4 0 .9.3 1.7.9 1.6.7-.1.7.2.7.7l-.3 1-.7.4-1.1-.3h-.5v-2.1l.2-.9-.2-1v-6.2Z"/><path fill="#B65B65" d="M280.6 104.7c1 .2 1 .7 1 1.6v4l-1.6-.9-.8.7-.3-.3.3-.5c0-.2.3-.5.2-.6-.8-.8.2-1.3.4-2l-.8-.3c.2-.4-.5-1.2.5-1.4.5.7.1-.4.5-.2.2 0 .6.9.7-.1Z"/><path fill="#BC6368" d="M281.3 100.4c0-.4.3-.7.3-1.1 0-.5 0-.8-.7-.7-.6 0-1-.7-1-1.6.4.2.7.4 1 .4.7-.2 1-.9.6-1.6l-.1-.8-.7-.6.9-1V79.2l.2-1v22l-.2.3h-.3Z"/><path fill="#B05462" d="M281.3 100.4h.3l-.3 1.9.2.6v.8c-.6-.5-1-1.5-1.9-.8l-.7-.5v-2.1h.5c.2.3.2.8.5.8.2.2.8.2.7-.4l.7-.3Z"/><path fill="#BE6369" d="m279 102.4.6.5c.9-.7 1.3.3 1.9.8l-.9 1c0 1-.4 0-.7 0-.3-.1 0 1-.5.3-.7-.7-.3-1.7-.5-2.6Z"/><path fill="#CC716F" d="M238.3 43.6c.3.3.7.5.8.8.3.9 1 1.3 1.8 1.5v15.6l-.6-.2-.7-.2.3-.7.5-1c0-.3-.4-.6-.5-.8l-.3.4-.7.2-.7-.4v-1l.2-1.6c0-.7-.1-1.3.9-1.3l-.3-2c-.6 0-.6-.4-.6-1v-2.3l.7-1.1.3 1 1-.9-.6-.7c-.5-.2-.6-.5-.6-1 0-.3-.2-.6-.4-1l-.4-.8-.1-.8v-.7Z"/><path fill="#B85D66" d="M240.9 70.6v6.9c0 .1 0 .3-.2.3-.9.4-.7 1-.3 1.5a3 3 0 0 1-1 .3c-.5 0-1 0-1-.7v-4c0-.4.5-.9.8-1.3l.5-.5-.3-.1c-.8.4-1.2.1-1.2-.8v-2.4l.2 1.9.3.9.7-1.8.4 1h.2l.1-1c0-.4.2-.7.3-1l.5.8Z"/><path fill="#C3686B" d="m240.9 70.6-.5-.8-.3 1-.1 1h-.2l-.4-1c-.3.7-.5 1-.7 1.8l-.3-1-.2-1.8V64h.2l.3 1-.3.2.1.4 2.4.2-.3 3.1c0 .6.2 1.2.3 1.7Z"/><path fill="#C76C6D" d="m240.9 65.8-2.3-.2-.2-.4.3-.2-.3-1 .3-1 .4-.7a2 2 0 0 1-.7-.4v-1c.3 0 .7 0 .7-.3.3-.5.3-1 .4-1.5l.3-.5.5.7c0 .5-.3.8-.5 1.3l-.2.6.7.2.5.1v4.3Z"/><path fill="#CB726F" d="m238.3 44.3.1.7.4.8c.2.4.4.7.4 1.1 0 .5.2.8.6 1.1l.6.6-1 .9-.3-1-.7 1h-.1v-5.2Z"/><path fill="#C46A6C" d="M238.3 49.5h.1v2.3c0 .6 0 1 .6 1l.3 2c-1 0-.9.7-.9 1.4l-.1 1.6v-8.3Zm.1 12.5.8.5-.4.6-.4.9h-.1v-1.5l.1-.5Z"/><path fill="#B85D66" d="m238.4 62-.1.5v-3.7l.6.4c-.7.3-.3 1-.5 1.6V62Z"/><path fill="#CC716F" d="M272.9 85.6h-19.6v-1c.6-.2.5-.6.5-1h20.3l-.5.1.2.5-1 1.4Z"/><path fill="#D47973" d="m272.9 85.6 1-1.4-.3-.5.4-.2h3.1c.6 0 .8.1.8.7 0 1.7.1 1.4-1.4 1.4h-3.6Z"/><path fill="#BA5E67" d="M252.5 85.6H251c-.7-.1-1.3-.5-1.9-.7v-.4l1.5-.2-.5-.8h1.3l.6 1.2.4 1Z"/><path fill="#C1656A" d="M252.5 85.6c-.2-.2-.2-.6-.4-.9l-.6-1.2h2.3c0 .5 0 .9-.4 1.2-.2 0 0 .7 0 1h-1Z"/><path fill="#CBC3C2" d="m290.5 106.4 4.5-3 2.8-1.8c.3-.3.7-.3 1 0l8 5.5-.7.6-6.3 4.2c-.5.4-1 .4-1.6 0l-7.1-5.1-.5-.4Zm20.4-34 2.2 6.3v.2c-.3 0-.6 0-.8.2l-4.6 2.9c-.2.1-.6.2-.8 0l-7.5-5.2-.4-.4 3.2-2 5-3.4c.4-.2.7-.2 1 0a17 17 0 0 0 2.8 2v-.5Zm-9.8 15 5.6-3.7a1 1 0 0 1 1 0l7.2 5 .3.4-1.3 1-5.2 3.3c-.4.3-.7.3-1.1 0l-5.8-4 .3-.6c-.4-.4 0-1.3-1-1.5Zm5.1-27.7-5.5 3.6c-.9.5-1.4.6-2.1 0-1.2-1-2.3-1.7-3.5-2.5l-1-.5-1-.6c.6-.7.2-1-.3-1.4l6.2-4c.5-.4.8-.4 1.4 0l3.5 2.5 3 2.2-.7.7Zm10.9 29 4.2 9.3v.3h-.7l-2.6 1.6c-.2.2-.8.3-1 .1l-8.1-5.6.7-.6 5.5-3.6c.7-.5 1.2-.7 1.8 0l.6.3-.4-1.9Z"/><path fill="#CBC4C3" d="m285.2 101.7 3.6-2.1-2.1-1.6-1 .1-2.8 2c0-1-.3-1.8 0-2.2.3-.6 1-.9 1.8-1.4l-1.4-1a2 2 0 0 1-.5-.9V94c0-.9-.3-1.8 1.2-2.1-1.6-.6-1.1-1.8-1.2-2.7V89l1.7 1.1c.6.4 1 .7 1.8.3.3-.2.7 0 1 0l.8.4-.4.7-.4.8-3.6-2.4-.7-.4c-.3.7.3 1 .7 1.4L288 94l.7.5-5.3 3.5c-.4.2-.7.6-.4 1.2l5-3.2c.1.4.2.7.5 1 .3.4 1 .6 1.3 1 .7.8 1.3.3 1.9 0 .7-.4 0-.8 0-1.3a121 121 0 0 0 5.9 4l-3.7 2.5-3.7 2.3c-.3.2-.7.2-1 .1l-4.7-3.3-.2-.3.8-.3Zm8.1 1-2.3-1.6c-.2-.2-.7-.2-.9-.1l-3 1.7c-.2.1-.2.6 0 .7.6.5 1.2 1.2 2 1.6h1.2l2.1-1.5 1-.7Zm-1-2.9a31 31 0 0 0 2.6 1.9h.6c1.3-1 1.3-1 0-2l-.3-.1c-1.3-1-1.5-1-3 .2Z"/><path fill="#CBC3C2" d="m295.1 67.8 4.2-2.6h.7l7 5-3.3 2.1-5.3 3.6h-.4l.1-.5L296 68c0-.2-.2-.5-.6-.2h-.3Z"/><path fill="#FAF9F9" d="m306.2 59.7.7-.7-2.9-2.1-3.7-2.6c-.5-.4-.8-.4-1.2 0l-6.3 3.8-.7.6 1 .9 1 .7-.2.3-.4-.3c-.8-.4-1.4-1.3-2.5-1.2l-.1-.1c0-.3 0-.5-.2-.6l-2.1-1.4-3.8-2.4c-.7-.5-1.4-.7-2-.1v-2.1c.4.1 1 .3 1.3.2 1-.4 1.9-1 2.8-1.6l.3-.4 2.6-1.7.3-.2 1.1-.8-1.6-1-1.2-1.2s-.7-.2 0-.5h.3l1.8 1.1c1.6 1.1 1.5 1 3.1 0 1-.5 1.8-1.4 3.2-1.2l-.3.4-3.1 2-.7.5 6.5 4.5c.2.1.8 0 1.1-.1l4.2-2.8c.4-.2.6-.3 1 .1l-.6.7-3.4 2.1-1 .9L307 58l.2.7c-.2.4.4 1-.3 1.3.2-1-.5-.2-.7-.3Zm-18.8-4.2c1.3 1 2.4 2 3.8 2.8.5.2 1 0 1.4-.6l.2-.2 6.2-4.2-6.6-4.6h-.5l-1.9 1v.2l-2.6 1.7h-.1l-2.7 1.8 2.8 2.1Z"/><path fill="#CBC3C2" d="M307 60c.6-.3 0-.9.3-1.4l1.6 6.6.8 3.3-.8.4c-1.4.9-1 1-2.3 0l-5.6-4-.6-.4.8-.7 5.3-3.4.4-.4Zm-14.6 8.8-2.1 1.3-1-.3-5.6-4-1-.5V65l3.6-2.3 3-2h.1l.5 1.9 1.7 5.8c0 .3 0 .8.6.4h.2v.1Z"/><path fill="#978585" d="m301.1 99.3 3.7-2.4h.2l.4.7 6.3 4.4c.6.3 1.3.5 1.9.9l-3.7 2.3-.6-.6-7-5-1.2-.2Z"/><path fill="#968484" d="m310.9 105.6 3.3-2.2h.2c-.3.5.2.6.4.7l6 4.2 1.6.8v.2l-3.7 2.5h-.2c.7-.7-.1-.9-.4-1.1l-7.2-5Z"/><path fill="#9B8987" d="m283.3 86.8 3.3-2.1 7.6 5.3 1 .3-3.7 2.5-.7-.2 1-.2c-.4-.3-.5-.6-.8-.7l-5.6-3.9-2.1-1Z"/><path fill="#9A8887" d="m292.4 93 3.4-2.3h.3l.3.7 6.7 4.6 1 .4-3.6 2.5h-.2l.3-.5-7.3-5c-.3-.2-.7 0-1-.2V93Z"/><path fill="#CBC3C2" d="M305 96.9h-.2l3-2c.1 0 .5 0 .7.2l7.9 5.5.1.3-2.6 1.8-1.4-1.2-6.7-4.5-.9-.1Zm-7.2-8.3-2.3 1.5c-.1-.2-.2-.5-.4-.6l-7.8-5.3 2-1.4c.7-.6 1.2-.4 1.8 0l5.2 3.7 1.1.8c-.4.4-.2 1 .4 1.3Zm-6.4-8.3c-1 1-1 1-2.1.2l-6.6-4.5 4.2-2.6c-.4.4-.8 1-1.4 1.4l-1.8 1.3 3.2 2.1c.1.2.6 0 .7 0l3.1-1.8c.3 0 .4-.3.6-.5l-2.8-2-1.4-.7 2.5-1.7c.2-.1.7 0 .9.1l2.8 1.8c-.7.3-1.2 0-1.8-.5-.5-.4-1-1-2-.7l.5.4 3 2.4c.5.4.9 1.7.7 2.3-2 0-3 1.6-4.7 2.1.6 1.3 1.5 1.2 2.4 1Zm31.1 29v-.2c.5-.2.3-.5 0-.7l-3-2-4.2-3h-1.1l2.8-1.8c.2-.2.6-.1.8 0l7.6 5.4v.3l-2.9 2Zm-23.7-31.8 3 2 4.9 3.4-.6.2-5 3.5h-.3c0-.4.3-.8.2-1 0-.7-.3-1.3-.5-1.9l-1.7-6.2Z"/><path fill="#9B8987" d="M300.7 86.6c-1.4 1.1-1.4 1.1-3.3-.3 0-.2.2-.4.1-.5l-1.7-6-.4-1 2.4-1.6 1.9 6.6 1 2.8Z"/><path fill="#CBC3C2" d="M286 84c.3-.3.2-.5-.1-.7l-2.5-.7-.7-.2v-7h.2c-.3 1.4.4 2.1 1.4 2.7l4.6 3.2.5.5-3.3 2.2Zm-3.2-17.8 6.5 4.6-6.5 4.2c0-.5 0-.9.5-1.1l1.4-.8 1.5-1c-.7-.4-1.3-1-1.7-1-.6 0-1 .6-1.7.8v-4.6l2 1.4v-.2c-.4-.5-1-1-1.6-1.2-.5-.3-.6-.6-.5-1Z"/><path fill="#9B8987" d="M292.4 68.8h-.2l.2-1-2.1-6.9c0-.2-.3-.3-.5-.5l1.3-.9h.6l1.7 1.1h-.5l1.2 4 .9 2.3-2.6 2Z"/><path fill="#CBC3C2" d="m287 73.2 1.6.7 2.8 2.1-.7.4-3 1.8c-.2 0-.7.2-.8 0l-3.2-2 1.8-1.4c.6-.4 1-1 1.4-1.4l.2-.2Zm22.6 32.3-.5.2c-1 1.2-2 .7-3 0-2.2-1.7-4.6-3.3-7-5l1.8-1.2.7.7 6.6 4.6 1.4.7Zm9 6.3c-.1.2-.4.2-.6.4-1.4.9-1.4.9-2.8-.2l-6.8-4.7c.7-.6 1.4-1 2.1-1.4l.1.5 7.2 5.1c.2.2.5.2.7.3ZM292.3 93v.7l7 5 1 .1a9 9 0 0 1-1.7 1c-.2.2-.6.2-.7 0l-7.3-5-.3-.4 2-1.4ZM313 79l.5 1c0 .8-.3 1.1-1 1l-.3.1-2.6 1.8 2.8 2c.3.2 1 .1 1.2 0 1-.6 1.2-.6 1.8.2l.4.9-.7 1 .8.5.7.7c-.3.2-.7.3-1 0l-7.8-5.4 3-1.8 1.7-1.2c.3-.2.4-.5.5-.8Zm8.2 19.3V98l4.4 8.4-7.5-5.6 2.6-1.8c.2-.1.3-.4.5-.7Zm-24-12.3-2.6-1.9-3.5-2.5 1.2-.8 3-2c0 .3-.3.7-.2 1 .2 1.2.5 2.2.9 3.4.3 1 .3 2 1.2 2.8Z"/><path fill="#9B8A88" d="M295.1 67.8h.3c0 .3-.2.7 0 1l1.8 6.4-3.9-2.6c.1-.2.3-.3.2-.4L293 70c0-.2-.3-.4-.5-.5l2.6-1.8Z"/><path fill="#6D6261" d="M304.2 96.4c-.4 0-.8-.2-1-.4l-6.8-4.6-.3-.6h.8c.5.2.9.6 1.5 1l-.4-1.6.1-.7c.3 0 .5.2.6.4.4.8.4 2 1 2.6.8.9 2 1.5 3.2 2.4l-1.2-4.3h.4l.5.3 1.8 5.3-.2.3v-.1Z"/><path fill="#CBC3C2" d="M291.4 80.3c-1 .3-1.8.4-2.4-.8 1.6-.7 2.8-2.2 4.7-2.1.3-.7-.2-1.9-.6-2.4l-3.1-2.4-.5-.4c1-.3 1.5.3 2 .7.6.4 1 .7 1.7.5l.1.2s-.1.2 0 .4l1 3.9.6.3-3.5 2.1Z"/><path fill="#9B8988" d="M302.1 90.6h-.4l1.1 4.2c-1.2-.9-2.3-1.4-3.2-2.3-.5-.7-.6-1.8-.9-2.6 0-.2-.3-.4-.6-.5v-.1c.7-.7 1.5-.7 2.3 0l1.7 1.4v-.1Z"/><path fill="#CBC4C3" d="m294.7 61.5 4 3-3.2 2-1.5-5.3.7.3Z"/><path fill="#CBC3C2" d="m304.4 96.2-1.8-5.3 4.8 3.4-3 1.9Z"/><path fill="#6E6462" d="m283.3 86.8 2 1 5.7 4 .9.6-1 .2-2.8-1.8a41.7 41.7 0 0 0-5.3-3.2V89h-.2v-2l.7-.2Z"/><path fill="#716665" d="m309.6 105.5-1.4-.7-6.6-4.6-.7-.7.3-.1c.4 0 .8 0 1.1.3l7 5c.3 0 .4.3.6.5l-.3.3Z"/><path fill="#6F6564" d="m287.3 84.2 7.8 5.3c.2.1.3.4.4.7h-.3l-.9-.2-7.7-5.3.7-.5Zm17.6 12.7 1 .1 6.6 4.5 1.4 1.2-.3.2-2-1-6.2-4.3-.4-.7Z"/><path fill="#CBC3C2" d="M291.9 96.7c0 .5.7 1 0 1.3-.7.3-1.3.8-2 0l-1.4-1-.4-1 1.1-.7c.1-.2.5-.2.7 0l2 1.4Z"/><path fill="#706665" d="M318.5 111.8a1 1 0 0 1-.7-.3l-7.2-5c0-.1 0-.4-.2-.6l.5-.2 7.2 5c.3.2 1.1.4.4 1Z"/><path fill="#716564" d="m300.7 86.6-1-2.8-1.8-6.6c.5-.4.7.1 1 .3l1.6 6.2.6 1.8-.3 1-.1.1Z"/><path fill="#CBC3C2" d="M282.8 66.2c0 .5 0 .8.5 1 .7.3 1.2.8 1.7 1.3l-.1.2-2.1-1.4V72c.7-.2 1.2-.7 1.7-.7s1 .5 1.8.9l-1.6 1c-.5.2-1 .7-1.4.8-.6.2-.6.6-.5 1v.5h-.2v-10h.2v.8Z"/><path fill="#736766" d="m297.2 75.2-1.8-6.3c-.2-.4 0-.7 0-1.1.4-.3.5 0 .7.2l2 7.4v.5l-1-.7Z"/><path fill="#CBC3C2" d="m288 90.8 2.9 1.8.7.2-.5.2c-.6.3-1.3 1-1.7.8-.8-.3-1.4-1-2.1-1.5l.4-.9.4-.7v.1Z"/><path fill="#726766" d="M297.2 86.1c-1-.7-1-1.9-1.3-2.8L295 80l.2-1.1h.2l.4.9 1.7 6v.5l-.3-.2Z"/><path fill="#736766" d="m294 61.2 1.5 5.4-.5.3c-.3-.7-.7-1.4-.9-2.2-.4-1.3-.7-2.7-1.2-4h.5l.6.4Z"/><path fill="#9B8A88" d="m294.2 74.2 3.3 2.3-2.3 1.4-1-3.6v-.1Z"/><path fill="#9B8987" d="m282.6 85.8.1-1.8c0-.6.2-.7.7-.6l2.5.6c-1.2.7-2.2 1.6-3.3 2.3v-.5Z"/><path fill="#736766" d="m294.2 74.2 1 3.7-.3.3-.5-.3-1.2-4 .1-.3.9.7v-.1Z"/><path fill="#CBC3C2" d="m310 69 1 3.4-2.4-2.3 1.3-1Z"/><path fill="#786D6B" d="m292.5 69.6.5.5.5 2-.2.5-.7-.7-.5-2 .4-.3Z"/><path fill="#7C7271" d="M301.1 87.3c1 .2.6 1 1 1.5l-.3.6-.8-.7c-.8-.7-.7-.7.1-1.4Z"/><path fill="#C9C2C1" d="M298 89.3c.1 0 .1 0 0 .1v.8c0 .5.2.9.4 1.5-.7-.3-1-.7-1.5-.8-.3-.2-.6-.1-.8-.1h-.3c.7-.6 1.6-1 2.3-1.5Z"/><path fill="#CBC3C2" d="m292 70 .6 1.9-2-1.1 1.5-.9Z"/><path fill="#F4F2F2" d="m294 61.2-.7-.6-1.5-1h-.6c-.5.2-.8.5-1.2.8l-.5.3h-.2l1.8-1.5c1 0 1.7.7 2.4 1.2l.5.3.7.8-.7-.2v-.1Z"/><path fill="#CBC3C2" d="m285.2 101.7-.8.3-1.6-.7v-.9l1.4.9 1 .4ZM316.7 88l-.7-.6-.7-.5.6-1 1 2.3-.2-.2Z"/><path fill="#7A706F" d="M297.8 88.6c-.6-.3-.8-1-.3-1.3l1 .7-.7.6Z"/><path fill="#CBC3C2" d="m286.6 114.7 3.1-1.8h1l2.4 1.9c.6.4.6.9-.1 1.2-.7.4-1.4.8-2.3 1-.4.1-1 0-1.5-.3-.9-.5-1.7-1.2-2.6-2Zm5.4-3 1.6-1h.7l2.4 1.9c.4.3.3.5 0 .7-1.2 1-1.2 1-2.5 0l-2.2-1.6Zm0-2.4c-1.3 1.4-2.7 1-3.8-.7l1-.7c.4-.2.8-.2 1 0 .8.4 1.2.8 1.9 1.4Zm-9.3-44V50l-.2-4.6.3-.3c1.4-.4 2 0 2.5 1.4l.2.7 1.1 3.8.7-.5v.1l-.3.4c-.9.6-1.8 1.2-2.7 1.6-.4.2-1 0-1.4-.1v12.8h-.2Zm24.5-7.3-6.7-4.6 1-.7 3.4-2.3.6-.7 1.2 6.5.4 1.8Zm8.3 27.1c-.6-.8-.7-.8-1.8-.2-.3.1-.9.2-1.2 0l-2.8-2 2.6-1.8h.4c.7 0 1-.4.9-1l2 5Z"/><path fill="#EEECEC" d="M304.8 45.3v.8c-.6-.3-1-.5-1.3-.9-.2 0 0-.4 0-.6v-.2l1.3.9Z"/><path fill="#BAB2B1" d="m304.8 45.3-1.1-.9 1-1 .2 1.9h-.1Z"/><path fill="#D57A73" d="m296.5 38.3-.5-.3-1-.8-.8-.9.3-.3c0 .2 0 .4.2.5.2.1.4.2.7.1l.8-.6.8-.4.1.2-.6.7.1.3.6-.3 1.2-.5-.3 1-1.1 1 .1.3h-.6Z"/><path fill="#392C29" d="m268 21.8.5.5-3.8-.7v-.3h1.5l1.9.4v.1Z"/><path fill="#C76C6D" d="m294.2 36.3.8 1 1 .6-2.8-1.6h1Z"/><path fill="#C9C1C0" d="M296.8 45c-1.3 0-2.1.8-3.1 1.5-1.6 1-1.6 1-3.2-.1l-1.8-1.1 2.1-.3h6Z"/><path fill="#D27772" d="m296 44-2.7-.3c-.6-.2.2-.4.1-.7l1-.3h1l1 .9-.4.3Z"/><path fill="#CC736F" d="M299.8 40.5c.4-.7 0-.7-.5-.9l-1.4-.3 1.4-1 .8-.4.1.2-.2.5.2 1.2c0 .3-.2.5-.4.8v-.1Z"/><path fill="#C66B6D" d="m302.3 39.5.3.3-.5 1.7-.5-1.2.7-.8Z"/><path fill="#C2676B" d="M295.4 42.6h-.5l-.2-.7 1.8-.5c0 .5-.1.7-.7.7l-.4.5Z"/><path fill="#C96E6E" d="m296.8 41.8-.3-.4.5-.2c.4 0 .7.2 1 .3l.4.2-.4.4-1.1-.3Z"/><path fill="#BD6168" d="m296.8 41.8 1.2.3-1.5.7.3-1Z"/><path fill="#D97E75" d="M282 43.8c-.3-.9-.8-1.8-1.2-2.6v-.5h8v1h.8l-.1 2.2h-1.9c-.2-1-1-1-1.7-.8-.3 0-.7.6-1 .8h-2.8Z"/><path fill="#CF7571" d="M285 44c.2-.3.5-.8 1-.9.6-.1 1.4-.2 1.6.8h-2.7Z"/><path fill="#D27772" d="M289.6 41.8h-.9v-1.1h2.3v.2l-.9.1-.5.8Z"/><path fill="#9B8987" d="m290 48.9-2.7 1.7v-.2l-1.4-5.3 1.2-.2h1.2v.2h-1l1.7 1.3c-.2.7.2 2 .8 2.4l.1.1Z"/><path fill="#EAE8E8" d="m289 46.5-1.6-1.4h.9v.2c-.6.2 0 .3.1.4l1.2 1-.7-.3h.1Z"/><path fill="#CBC3C2" d="M262.3 22h3.7l-1.2.2 5.6 4.1L264 30l.3.4-4.7-2.8-1.8-1.5-.4-.6 5.6-3.3v-.1h-.8v-.2Zm8.9 12.5-6.3-3.7-.2-.3 5.7-3.2c.5-.3 1-.3 1.4.1l1.8 1.4 3.1 2.3-3.9 2.3-1.6 1.1Zm6.8 4.1-6.3-3.7.9-.5c1.4-.8 2.9-1.6 4.2-2.5.5-.2.7-.2 1.2.1l3.6 2.7h.2l.4 1.2v.3l-3 1.5c-.5.2-.8.7-1.2 1Z"/><path fill="#FAF9F9" d="M281.6 34.7 278 32c-.5-.3-.7-.3-1.2 0l-4.2 2.4-1 .4-.4-.4 1.6-1 4-2.4-3.2-2.2c-.7-.4-1.2-1-1.8-1.4-.5-.4-1-.4-1.4 0l-5.6 3.1-.4-.1-.3-.4 6.2-3.6-5.6-4.2 1.2-.1h.1l4 3c.7.6 1.2 1 2 .3h.7l-.7 1.2 4.8 3.7c.5.3.9.3 1.3 0l1.5-.7.7.3c-.7.4-1.4.8-2 1.4l1 .7c.8.8 2.2 1.2 2.3 2.7Z"/><path fill="#CBC3C2" d="m287.3 33.9 7 4-.1.1c-.4 0-.7-.2-1 0l-2.4 1.3v.2h1.3v.1h-3.8c-.6 0-.7-.3-1-.8l-1-4.3 1-.7Zm.4 4.4c-.1 1.1.3 1.4 1.4 1l-1.4-1Z"/><path fill="#D97E75" d="M286.7 39.6h-2.2c-.2 0-.5-.3-.5-.4l-2.6-8.8 3.2 2 2 6.8v.4Z"/><path fill="#CAC3C2" d="m262.3 22-1.2.5-3.9 2.1c-.4.3-.7.2-1.2 0l-2.6-2c-.4-.4-1-.4-1.6-.7v.3l1 1-2-1.1v-.2h11.5Z"/><path fill="#CBC3C2" d="m279.6 29.5-1.5.8c-.4.2-.8.3-1.3 0l-4.8-3.7.7-1.2 2 1.2c.5.5 1 1.2 2 1.1l3 1.8Z"/><path fill="#F8F7F7" d="m252.8 23.2-1.2-1 .1-.3c.6.3 1.2.3 1.7.7l2.6 2c.5.3.7.4 1.3 0l3.8-2c.3-.3.7-.4 1-.5h1v.1l-5.5 3.3.3.6h-.5l-4.6-2.9Z"/><path fill="#C9C1C0" d="M282 36.2v-.3l1.3 3.8c-1.8-.2-3.4.3-4.8-.7l3.4-1.9c.2-.1.1-.6.2-1Z"/><path fill="#CBC3C2" d="M272.6 25.4h-.6c-.7.7-1.4.3-2-.2l-3.9-3.1c.7.2 1.4.2 2 .5 1.5.7 2.9 1.7 4.3 2.5l.1.3Z"/><path fill="#726665" d="m287.1 45-1.3.2 1.4 5.3-.6.5-1.2-3.8-.2-.7c-.4-1.4-1-1.8-2.5-1.4l-.3.3-.1-.5h4.8Z"/><path fill="#CAC2C1" d="M281.6 34.7c-.1-1.4-1.4-2-2.4-2.7l-1-.8 2.1-1.4 1.4 5h-.1v-.1Z"/><path fill="#C6BEBD" d="M292 39.6v-.1l2-1.1.2-.4 2.6 1.4v.2H292Z"/><path fill="#F7F6F6" d="m282 36.2-.1.9-3.5 1.9-.4-.4c.3-.2.7-.7 1.2-.9l2.9-1.5Z"/><path fill="#453330" d="m282.3 45 .1.4.2 4.7-.3-3.4V45Z"/><path fill="#D4D0CF" d="m287.3 33.9-1 .6-.5-1.5 1.4.9Z"/><path fill="#453330" d="M285 44.9h-2.7c.8-.7 1.7-.4 2.6 0Z"/><path fill="#CBC3C2" d="M276.6 27.7c-.9.1-1.4-.6-2-1.1l2 1.1Z"/><path fill="#BB6067" d="M280.6 100.7c0 .6-.5.6-.7.4-.3 0-.3-.5-.5-.7l1.2.3Z"/><path fill="#C46A6C" d="M238.4 60.8c.2-.5-.2-1.3.5-1.6l.7-.2-.4 1.6c0 .2-.5.2-.8.2Z"/><path fill="#847B7A" d="m293.2 59.7-1.1-1 .7-.5c.5.4 1 .8.4 1.5Z"/><path fill="#CBC3C2" d="m293.3 102.8-1 .7c-.6.5-1.2 1-2 1.4a1.4 1.4 0 0 1-1.2 0c-.7-.3-1.4-1-2.1-1.5v-.7l3.1-1.7h1l2.2 1.8Zm-1-3c1.4-1.2 1.6-1.2 3-.2l.2.1c1.3 1 1.3 1 0 2h-.6a31 31 0 0 1-2.6-1.9ZM282.7 89v-1.4a18 18 0 0 1 4.7 2.7h-1.1c-.7.5-1.2.2-1.8-.2l-1.7-1.1Zm0-25v-9.5c.9-.6 1.5-.4 2.2.1l3.7 2.4.1.4h-.2c.1.8.3 1.4.6 2h.7l-1.3.9-5.7 3.7Zm7.3-14.3 1.9-1h.5l6.6 4.6-6.2 4.2-2-7.5-.8-.3Z"/><path fill="#9B8987" d="m287.4 51.6 2.5-1.7 2.1 7.4.4.4c-.4.3-.8.7-1.4.3l-2.3-1.6.2-.7-1-2.9-.5-1.2Z"/><path fill="#F9F8F8" d="m282.8 64 5.7-3.7 1.2-.8h.1l1-.5.2.2-1.8 1.4-2.8 2-3.6 2.4v-1Z"/><path fill="#726664" d="m292.4 57.7-.5-.4-2-7.4.1-.2.7.3 2.1 7.5-.2.2h-.2Z"/><path fill="#CCC4C3" d="m287.4 55.5-2.8-2 2.7-2-.3 1.2.9 3-.5-.2Z"/><path fill="#756968" d="m287.9 55.7-.9-3 .3-1.1.7 1.3.9 2.8-.2.7-.8-.7Z"/><path fill="#766B69" d="m289 46.5.7.3.5 1.9-.3.2c-.6-.3-1-1.7-.8-2.4h-.1Z"/><path fill="#F4F2F2" d="m287.9 55.7.8.7L291 58c.6.4 1 0 1.4-.3h.2c-.3.7-1 1-1.4.6-1.4-.9-2.6-1.9-3.8-2.8l.5.2Z"/><path fill="#C8C1C0" d="m290.2 48.7-.5-1.9 1.6 1.1-1.1.8Z"/><path fill="#F4F2F2" d="m290.9 59-1 .4.8-.7-1.1-.6-.9-.7-.1-.4 2 1.5c.2 0 .2.3.3.5Z"/><path fill="#736765" d="m289.4 60.6.5-.2c.1.1.4.3.4.5l2 7v.8c-.6.4-.6-.1-.7-.4l-1.7-5.8-.5-1.9Z"/><path fill="#6E6463" d="M314.4 103.4h.8l4.2 3 3 2c.4.2.6.5 0 .7l-1.6-.8-6-4.2c-.2-.2-.7-.2-.4-.7Z"/><path fill="#6F6563" d="M300.3 98.8c-.3 0-.6 0-.8-.2l-7-4.9-.1-.5c.3 0 .7 0 1 .2l7.2 5-.3.4Z"/><path fill="#F6F5F5" d="M294.2 38c0 .1 0 .4-.2.4l-2 1h-1l2.4-1.5c.2-.1.6 0 .9.1Z"/><path fill="#F0EFEE" d="m287.7 38.3 1.4 1c-1.1.3-1.5 0-1.4-1Z"/><path fill="#796E6D" d="m288.7 57.4.9.7v1.3h-.6l-.6-2h.3Z"/><path fill="#9E8E8C" d="M289.6 59.5v-1.4l1.1.6-.9.7h-.2v.1Z"/><path fill="#5D3C3E" d="M126.1 98.7c3.4 0 6.6.6 9.7 2 1.8.8 1.3 2.3 1.4 3.6 0 1.3-.8 2-2 2.2-5.5 1.3-11.3 1-16.7-1-1.5-.5-1.5-1.6-1.6-2.6 0-1 .2-2.1 1.4-2.7a16 16 0 0 1 7.8-1.5Zm10.1 3.5a27 27 0 0 1-18.2-.7c1.6 3 16.7 3.5 18.2.7Z"/><path fill="#36201E" d="M136.2 102.2c-1.5 2.8-16.6 2.4-18.2-.7a27.5 27.5 0 0 0 18.2.7Z"/></svg>