<svg xmlns="http://www.w3.org/2000/svg" id="a" viewBox="0 0 125.6 125.5">
  <defs>
    <style>
      .j{fill:#e9ddd1}.o{fill:#e2bc66}
    </style>
  </defs>
  <path fill="#463e3a" d="M67.4 101.2a36.5 36.5 0 0 1-22.2-3.8C36 92.4 28 85.4 21.4 77a124.5 124.5 0 0 1-18-35.3c-.1-.8-.4-1.7-.3-2.4.6-2-.1-3.4-1.4-4.9-.3-.2-.5-.9-.9-1C-.4 32.2 0 31.1.6 30c1.1-2 2.3-4 3.6-5.8 2.8-3.6 5.4-7.4 8.5-10.5s7-6 10.5-8.8C25.6 3.2 28 1.8 30.6.4c.8-.5 1.8-.6 2.6.2 1 1 2 1.7 3.1 2.3.4.3 1 .4 1.4.3 1.6-.3 3-.1 4.4.4a140 140 0 0 1 18.7 7.8 82.6 82.6 0 0 1 34.5 29.7c4 6 6 12.5 6.3 19.6.1 4-.4 8-1.2 11.8l-.2 1.7c1.4.7 3.4.5 3.6 2.7 6-3.9 12.8-.1 14.9 4.4 2.8 6 .6 11.4-6.6 15 1.2.7 2.1 1.5 3.1 1.8 1.4.3 2 1.2 2.3 2.4.1.7.4 1 1 1 2.2.2 2.9.7 3.2 2.7.3 1 .9 1.5 1.9 1.8 1.5.4 2.2 1.5 2 3.1a9 9 0 0 1-.8 2.4 27 27 0 0 1-15.2 13.9c-1.9.4-3-.2-3.6-2.2-.2-.8-.8-1.2-1.7-1.4-2-.5-2.7-1.2-2.7-3.1-.1-.8-.4-1.1-1-1.2-1-.3-2-.5-2.2-1.6-.7-2.7-2.6-4.5-4.9-5.9a43.6 43.6 0 0 0-16.6-6.4c-1 0-1.6-.5-2-1.5l-.5-2-7 1ZM123 110c.6-1.4.4-1.7-.8-2-1.6-.4-2.2-1.4-2.4-2.7-.1-1-.6-1.5-1.6-1.5-1.8 0-2.2-.3-2.7-2.1-.2-.8-.5-1.2-1.3-1.5-2.4-1-4.1-2.7-5.6-4.9-.5-.6-.3-1.1.6-1 3.2.2 6.2-1.7 7.4-4.6 1.5-3 1-6.4-1-9-2.4-3.4-7.8-4-11.2-1.3l-1.2 1.2c-.6.6-1 .4-1-.3l-.5-2.4c-.1-.5-.2-.7-.9-.8-3.9-1-3.1-1.7-2.5-4.5a38.2 38.2 0 0 0-7.6-34 76.2 76.2 0 0 0-24.9-21.8c-7.6-4.4-15.6-7.9-24-10.8a6.2 6.2 0 0 0-3.9-.3 3 3 0 0 1-2.6-.6l-2.6-2c-.7-.6-1.2-.6-2 0-3.3 2.3-7 4.6-10.2 7A70.8 70.8 0 0 0 3 30.7c-.5.7-.6 1.3 0 2L4.3 34c1.2 1.4 2 3 1.3 4.8-.1.6 0 1.4.1 1.9 4.3 12.7 9.8 24.7 18 35.4a74.4 74.4 0 0 0 14.8 14.4 38 38 0 0 0 32.8 7.8l3-.5c1.2-.2 2 0 2.2 1.3.4 1.9 1.4 2.4 3.2 2.8a42.5 42.5 0 0 1 16 6.8 12 12 0 0 1 4.8 6c.1.2.6.5 1 .6 1.6.4 2.7 1 2.5 3-.2.8.2 1.2 1 1.3 1.7.3 2.9 1.1 3.3 3 .3 1 1 .6 1.7.3l5-3c1.1-.8 2-1.7 2.9-2.6 2-2.2 4-4.4 5.2-7.3h-.2Z"/>
  <path d="M106.5 101.8 95.2 89.7l-2-1.7 5.5-6.8c.4-.4 1.2-1 .5-1.4-.8-.7-1 .4-1.3.8l-5.6 6.7c-4.1-3.4-8.6-6-13.2-8.4l-12.8-6.2-.3-.2-.3-.2h-.3l-2.8-2 7.2 1 1.6.1-.2-1.6-2-12.9c0-.8-.4-1.3-1-1.7l-4-2.2-1-.7 3.7-1.2c.4-.3.8-.5.8-.8L71 37l-.1-.4h-.7l-12.3 2.2a3 3 0 0 0-1.4.8c-1 1-1.9 2.1-2.9 3.4l-1.4-3.4H52l-2.8 7-9-9-2.1 2c0 .2.1.9.3 1l8.3 8.3-3 1.2c-2-2.3-4-4.7-6.4-6.9-3.2-3.2-6.6-6-10.6-8.2-2-1-4-1.6-6.3-1.6a7.3 7.3 0 0 0-7.8 7c0 2.4.5 4.8.7 7.2.9 4 2.7 7.7 4.6 11.3a119 119 0 0 0 12.6 18.6c3.1 3.9 6.7 7.3 10.8 10a49 49 0 0 0 32 6c4-.5 3.1-1.2 6.2 2.2l1.5 1.8-.8.6c-.3.3-.3.7-.5 1h1l1.4-.8 1 .5c4.1.3 7.7 2.2 11 4.3a45 45 0 0 1 14.3 15.8c.8 1.2 1 2.6 1.6 4-.7.3-1.6.8-1.8-.4-.4-1.7-1.5-2.7-3.2-2.9-.8 0-1.2-.5-1-1.3.2-2-1-2.6-2.7-3-.3 0-.7-.3-.8-.7a12 12 0 0 0-4.9-5.9 41.2 41.2 0 0 0-16-6.7c-1.7-.4-2.8-1-3.1-3-.2-1.1-1-1.4-2.2-1.1l-3 .4c-6.4 1.4-13 1.3-19.3-.5a42 42 0 0 1-13.6-7.2C33 86.2 28 81.6 23.7 76c-8-10.8-14-22.7-18-35.5-.3-.6-.4-1.3-.2-1.8.6-2 0-3.5-1.4-4.9l-1-1.4c-.7-.6-.6-1.2-.2-1.9a69.8 69.8 0 0 1 17.4-20.4c3.3-2.7 6.8-4.9 10.3-7.3.6-.4 1.2-.4 1.8.2l2.7 2c.9.5 1.7.8 2.7.5 1.2-.3 2.6-.1 3.8.3 8.3 3 16.3 6.4 24 10.8a76.2 76.2 0 0 1 24.9 21.8 38 38 0 0 1 7.8 15.8c1.4 6.1.9 12.1-.2 18.2-.6 2.7-1.5 3.4 2.6 4.5.5 0 .7.4.7.9l.5 2.3c.2.7.6.9 1.1.4l1.1-1.2c3.4-2.8 8.9-2.1 11.3 1.2 2 2.9 2.5 6 1 9-1.4 3.1-3.9 4.6-7.4 4.6-1 0-1 .4-.6 1 1.4 2.1 3 4 5.6 4.9.8.3 1 .8 1.3 1.6.4 1.7 1 2 2.7 2 1 0 1.4.5 1.5 1.5.3 1.3 1 2.3 2.4 2.7 1.3.4 1.5.7.9 2-1 3-3 5.1-5 7.4-3.2-5.6-7-10.8-11.3-15.6ZM22.8 20a67 67 0 0 1 16.7-3.4h6c.3 0 .8.2 1 0 .6-.2 1.3-.5 1.5-1 .2-.4-.2-1.2-.6-1.5a37.5 37.5 0 0 0-10.6-5.4c-1-.3-2.5-.2-3.7-.2-.6-.6-1-.1-1.6.1l-5.8 4.7A102 102 0 0 0 8.6 31.8c-.3.2-.2.7-.2 1.2.3-.2.8-.3 1-.7 3.3-4.7 7.2-9 11.3-13.1.7 1.2.7 1.1 2.1.7Zm43 7.2c-2-1.7-4.1-3.2-6.2-4.8l-.3-.2L58 22c.1.4.1 1 .3 1.2l5.6 4.7 3 2.7c2 1.9 4 3.6 5.6 5.4 4.8 5.8 9.4 11.7 13.8 17.8.9 1.3 1.7 2.8 2.4 4.2l1.2 1.4c.2.3.9.5 1.1.3.3-.2.7-.7.7-1.2.2-1.3-.2-2.7-1-3.9-2-2.8-4-5.6-6.2-8.4-2.1-2.7-4.5-5.2-6.8-7.7-1-1-1.6-2-2.4-2.9-3.3-2.9-6.4-5.8-9.8-8.6h.1Zm38 59.5c.7 1 1 2.4 1.6 3.3.2.5.7.8 1.2 1 1.6.6 3.2.5 4.6-.3 1.7-1.1 2.7-2.7 2.3-4.8a5 5 0 0 0-3.4-4.4c-2.1-.7-4 0-5.8 1.8-1 .7-1.2 2-.4 3.4Z" class="j"/>
  <path fill="#d79f47" d="M117.8 117.2c-3.2-5.5-7-10.7-11.4-15.5l-11.2-12-2-1.7-1.9 2-9.2 8.3c.3.2.6.5 1 .5 4.1.4 7.7 2.2 11 4.3a45 45 0 0 1 14.3 15.7c.7 1.2 1 2.7 1.6 4l5-3c1-.7 1.8-1.7 2.8-2.6Z"/>
  <path fill="#d7a046" d="M92.4 87.4c-4.2-3.5-8.7-6-13.4-8.6a305 305 0 0 0-12.7-6.2l-.3-.3h-.3l-.3-.2h-.8l-3.1-1.2-4-1.3-.8-.4h-.3l-.4-.1-3.4-.8-1.8-.8-.6.3-10 2.3-3.6.8 1.3-7.2c-3-1.2-6.1-2.2-9-3.6-3.1-1.3-6-3-8.4-5.3l-7.2-7.2c.9 4 2.7 7.7 4.6 11.3a104 104 0 0 0 12.6 18.6c3.1 3.9 6.7 7.4 10.8 10a49 49 0 0 0 32 6c4-.5 3-1 6.2 2.3.4.5 1 1 1.4 1.8 4.3-3 8-6.5 11.5-10.2Z"/>
  <path fill="#bf763c" d="m37.7 63.7-1 7.3 3.6-.9 10-2.4.5-.2 1.6-4.4.7 1.2 2.9 4.8.4.1h.3l.9.4.6-.2 4.2.6.1.1 7.4 1.2 1.6.2-.3-1.7-1.9-13c-.2-.7-.4-1.2-1.2-1.6L64.3 53l-1.1-.8L67 51c.3-.2.7-.4.7-.7L71 37l-.1-.4-.8.1-12.3 2.1c-.4.2-1 .4-1.3 1l-3 3.3-1.3-3.5H52l-2.8 7-9-9-2 2.1c-.1.2.1.7.4 1l7.4 7.5.8.9-3 1.1-4.3 1.8 3.7 1.5-1.7 1.4c-1.3 1-2.7 1.9-2.7 4l-.8 4.8h-.2Z"/>
  <path fill="#e5bf67" d="M37.7 63.7c.4-1.6 1-3.3 1-5 0-2 1.4-2.8 2.8-3.8l1.6-1.4-3.7-1.5 4.4-1.9c-2.3-2.2-4.2-4.7-6.4-6.8-3.3-3.1-6.7-6.1-10.7-8.2-2-1-4-1.6-6.3-1.7-4.2-.1-7.6 3-7.8 7 0 2.5.4 4.8.7 7.2l7.2 7.2c2.4 2.4 5.3 4 8.4 5.3l8.9 3.7v-.1Z"/>
  <path fill="#d7b7b2" d="M20.7 19.2c.7 1.2.8 1 2 .7a67 67 0 0 1 16.8-3.3h7c.6-.3 1.3-.6 1.5-1.1.2-.4-.2-1.2-.6-1.5a37.5 37.5 0 0 0-10.6-5.4c-1-.3-2.5-.2-3.7-.2-.3.2-.3.7-.6.8l-11.8 10Z"/>
  <path fill="#f5f4f4" d="M75.3 35.7c-3.2-3-6.3-6-9.6-8.8l-6-4.6-.4-.2L58 22c.1.4.1 1 .3 1.2l5.6 4.7 3 2.7c2 1.9 4 3.6 5.6 5.4 4.8 5.8 9.4 11.7 13.8 17.8 1 1.3 1.7 2.8 2.4 4.2l1.2 1.4c.2.2.9.5 1.1.3.3-.2.7-.7.7-1.2.2-1.3-.2-2.7-1-3.9-2-2.8-4-5.7-6.2-8.4-2.1-2.7-4.5-5.2-6.8-7.7-1-1-1.6-2-2.4-2.9v.1Z"/>
  <path fill="#4b423e" d="m20.7 19.2 11.8-10 .6-.8c-.6-.6-1.1-.2-1.5 0l-5.8 4.8A102.2 102.2 0 0 0 8.5 31.8c-.2.2-.1.7-.1 1.1l1-.6c3.4-4.7 7.3-9 11.4-13.1h-.1Z"/>
  <path fill="#49413d" d="M110.1 81.4a5 5 0 0 1 3.6 4.4c.2 2-.7 3.7-2.4 4.8-1.4.8-3 .9-4.6.3-.5 0-1-.5-1.2-.9-.5-1-.9-2.3-1.5-3.3-.8-1.5-.6-2.7.4-3.4 1.8-1.8 3.6-2.6 5.7-2Zm2 3.1c-1-1.8-2.5-2.5-4.3-2.2-1.7.3-2.4 1.6-1.8 3.2l1.4 3.2c.7 1.5 1.9 1.9 3.3.9l.7-.6c1.3-1.3 1.5-3 .7-4.5Z"/>
  <path fill="#4a4039" d="M92.4 87.4c-3.5 3.6-7.1 7.3-11.5 10.2-.2.2-.6.3-.8.6-.2.2-.2.6-.4 1l1-.1 1.3-.8 9.4-8.2 2-2 5.4-6.8c.3-.5 1-1.1.4-1.6-.8-.6-1 .4-1.3 1l-5.6 6.6v.1Z"/>
  <path d="m62.5 70-4.3-.6-.6.2 3.8 1.3 3.2 1.1c.1.2.5.1.8.1l-2.9-2-.1-.1Zm3.1 2.3.3.1-.3-.1Z" class="o"/>
  <path fill="#e3bd65" d="M56 69c-1-1.5-1.9-3.2-3-4.6l-.7-1.4-1.5 4.5c.7.2 1.2.6 1.9.7l3.3 1V69Z"/>
  <path d="m57.6 69.6-1-.4 1 .4Zm-1-.4h-.2.3Z" class="o"/>
  <path d="M62.5 70h-.2.2Z" class="j"/>
  <path fill="#faf9f9" d="M111.4 89c1.3-1.3 1.5-3 .7-4.5-1-1.8-2.5-2.5-4.3-2.2-1.7.3-2.4 1.6-1.8 3.2l1.4 3.2c.7 1.5 1.9 1.9 3.3.9l.7-.6Z"/>
</svg>