<svg xmlns="http://www.w3.org/2000/svg" id="a" viewBox="0 0 125.6 125.5">
  <defs>
    <style>
      .j{fill:#e9ddd1}.o{fill:#e2bc66}
    </style>
  </defs>
  <path fill="#463e3a" d="m51.2 100.1-.6 2c-.3 1-.9 1.4-2 1.5-5.9 1-11.4 3.1-16.5 6.4-2.3 1.4-4.2 3.2-5 5.9-.1 1-1.1 1.3-2 1.6-.7 0-1 .4-1.1 1.2 0 1.9-.8 2.6-2.7 3-1 .3-1.5.7-1.8 1.5-.4 2-1.7 2.6-3.5 2.2A27 27 0 0 1 .7 111.5l-.7-2.4c-.2-1.6.4-2.7 2-3.1 1-.3 1.6-.7 1.8-1.8.4-2 1.1-2.5 3.2-2.7.7 0 1-.3 1-1 .3-1.2 1-2 2.3-2.4 1-.3 2-1 3.2-1.7-7.3-3.7-9.4-9-6.6-15 2-4.6 8.8-8.4 14.9-4.5.2-2.2 2.2-2 3.6-2.7l-.3-1.7c-.7-3.8-1.2-7.7-1.1-11.8.3-7.1 2.3-13.6 6.2-19.6a82.6 82.6 0 0 1 34.5-29.7c6-3 12.4-5.7 18.8-7.8 1.4-.5 2.8-.7 4.3-.4.5 0 1 0 1.4-.3A16 16 0 0 0 92.4.6c.8-.8 1.7-.8 2.6-.2 2.5 1.4 5 2.8 7.3 4.5 3.6 2.8 7.3 5.6 10.6 8.9 3 3.1 5.7 6.8 8.5 10.5 1.3 1.7 2.4 3.8 3.6 5.8.6 1 1 2.1-.2 3.2-.4.2-.6.9-.9 1.1-1.3 1.5-2 3-1.5 5 .2.6-.1 1.5-.3 2.2-4 12.7-10.1 24.7-18 35.4a75.5 75.5 0 0 1-23.7 20.4c-6.9 3.5-14.6 4.9-22.2 3.8l-7-1Zm-48.7 10c1.1 2.8 3.1 5 5.2 7.2.8.9 1.7 1.8 2.8 2.6l5 3c.7.3 1.5.8 1.8-.3a3.4 3.4 0 0 1 3.2-3c.8 0 1.2-.5 1.1-1.2-.2-2 .8-2.7 2.5-3.1.4-.1.8-.4 1-.7a12 12 0 0 1 4.8-6 43 43 0 0 1 16-6.7c1.7-.3 2.7-1 3.1-2.8.3-1.2 1-1.5 2.2-1.3l3 .5a38 38 0 0 0 32.9-7.8 74.7 74.7 0 0 0 14.7-14.4 117.4 117.4 0 0 0 18-35.4c.2-.5.3-1.3.2-1.9-.7-1.9.1-3.4 1.2-4.8l1.2-1.5c.7-.6.5-1.2.1-1.9a70.9 70.9 0 0 0-17.3-20.4c-3.3-2.5-7-4.8-10.3-7.2-.8-.4-1.2-.5-2 .2L90.3 5c-.8.6-1.7.8-2.6.6A6.3 6.3 0 0 0 84 6c-8.4 3-16.4 6.4-24 10.8a76.1 76.1 0 0 0-25 21.7 38.2 38.2 0 0 0-7.5 34c.6 2.9 1.3 3.5-2.6 4.6-.6 0-.7.3-.8.8l-.5 2.4c-.1.7-.5.9-1 .3l-1.3-1.2c-3.4-2.7-8.7-2.1-11.2 1.4-2 2.5-2.4 6-1 8.9 1.2 3 4.2 4.8 7.4 4.6 1-.1 1.2.4.7 1-1.5 2.2-3.3 4-5.6 5-.9.2-1.2.6-1.4 1.4-.5 1.8-.9 2.2-2.7 2.1-1 0-1.4.5-1.6 1.5-.2 1.3-.8 2.3-2.3 2.7-1.3.3-1.4.6-.9 2h-.1Z"/>
  <path d="M19.1 101.8c-4.3 4.7-8.1 10-11.3 15.5-2-2.2-4-4.4-5-7.4-.6-1.3-.4-1.6 1-2 1.3-.3 2-1.3 2.2-2.7.2-1 .6-1.4 1.6-1.4 1.8 0 2.3-.4 2.7-2.1.2-.8.5-1.2 1.3-1.6 2.5-.8 4.1-2.7 5.6-4.8.4-.7.3-1.1-.6-1-3.6 0-6-1.5-7.4-4.6-1.5-3-1-6.2 1-9 2.4-3.4 7.9-4 11.3-1.2l1.1 1.1c.5.5 1 .4 1-.3l.5-2.4c.1-.5.3-.8.8-.9 4-1 3.2-1.8 2.6-4.4a38 38 0 0 1 7.6-34c6.6-9 15.1-16.5 25-21.8 7.6-4.5 15.6-8 23.9-10.9 1.2-.4 2.6-.6 3.8-.2 1 .2 1.8 0 2.7-.6l2.7-2c.6-.6 1.2-.6 1.8-.1 3.6 2.4 7 4.6 10.3 7.2 7 5.6 13 12.6 17.4 20.4.4.7.5 1.3-.1 2l-1.1 1.3c-1.3 1.5-2 3-1.4 5 .2.4 0 1.1-.1 1.8-4 12.7-10.1 24.7-18 35.4a84.2 84.2 0 0 1-14.8 14.5 41.8 41.8 0 0 1-13.6 7.2c-6.3 1.8-12.9 2-19.2.6l-3-.5c-1.4-.3-2 0-2.3 1.2-.3 1.9-1.4 2.5-3.2 2.9a41 41 0 0 0-16 6.8 12 12 0 0 0-4.8 5.9c0 .3-.5.6-.8.6-1.8.5-2.9 1-2.6 3 .1.9-.3 1.3-1 1.4-1.8.2-2.9 1.1-3.3 2.9-.2 1.1-1 .7-1.8.4.6-1.4.8-3 1.6-4.1A45 45 0 0 1 31.5 103c3.3-2.1 6.9-4 11-4.3l1-.5 1.4.8h1l-.5-1-.8-.6 1.5-1.7c3-3.4 2.2-2.8 6.2-2.3a49 49 0 0 0 32-6c4-2.6 7.7-6 10.8-10 4.7-5.8 9-12 12.6-18.6 1.9-3.6 3.7-7.2 4.6-11.3.2-2.4.7-4.8.7-7.1a7.3 7.3 0 0 0-7.8-7c-2.3 0-4.4.6-6.3 1.5a46 46 0 0 0-10.6 8.2c-2.3 2.2-4.3 4.6-6.4 6.9l-3-1.1 8.3-8.3c.2-.2.4-.8.3-1l-2-2.1-9 9-3-7h-.1L72 43c-1-1.2-1.9-2.4-2.9-3.4-.3-.3-.8-.7-1.4-.8l-12.3-2.1h-.7v.3l3.2 13.3c0 .3.4.6.8.8l3.7 1.2-1 .7-4 2.3c-.6.3-1 .8-1 1.7l-2 12.8-.2 1.7 1.6-.2 7.2-1-2.8 2h-.3l-.3.2-.3.2L46.5 79a72 72 0 0 0-13.2 8.4l-5.6-6.8c-.3-.4-.5-1.4-1.3-.8-.7.4.1 1 .5 1.5l5.4 6.8-1.9 1.6c-3.8 4-7.6 8-11.3 12.2v-.1Zm83.6-82c1.4.5 1.5.6 2.1-.6 4.1 4 8 8.4 11.3 13.1.3.4.8.4 1.1.7 0-.5 0-1-.2-1.2-5-7-10.7-13.2-17.2-18.6L94 8.5c-.5-.2-1-.7-1.5-.2-1.2.1-2.7 0-3.7.3-3.9 1.3-7.4 3-10.6 5.4-.5.3-.9 1.1-.7 1.5.2.5 1 .8 1.5 1 .3.2.7 0 1 0h6c5.8.2 11.3 1.8 16.8 3.4h-.1ZM60 27l-9.7 8.6c-.8 1-1.5 2-2.4 2.9-2.3 2.5-4.7 5-6.8 7.7-2.2 2.8-4.2 5.6-6.2 8.5a5.5 5.5 0 0 0-1 3.8c0 .5.3 1 .7 1.2.2.2.8 0 1.1-.3l1.1-1.4 2.5-4.2c4.4-6 9-12 13.7-17.8 1.7-1.8 3.7-3.5 5.7-5.4l3-2.7 5.6-4.7c.2-.2.2-.8.3-1.2h-1.2l-.3.3c-2.1 1.6-4.2 3-6.1 4.8ZM21.3 83.2c-1.9-1.8-3.7-2.5-5.9-1.8a5 5 0 0 0-3.3 4.4c-.5 2 .5 3.6 2.2 4.8 1.4.8 3.1 1 4.6.3a3 3 0 0 0 1.3-1c.6-1 .8-2.2 1.5-3.3.7-1.5.5-2.7-.5-3.4Z" class="j"/>
  <path fill="#d79f47" d="m10.6 119.8 5 3c.5-1.3.8-2.8 1.6-4a45 45 0 0 1 14.2-15.6c3.4-2.1 7-4 11-4.4.5 0 .8-.3 1.1-.5L34.3 90l-2-2-2 1.7-11.2 12c-4.3 4.8-8.1 10-11.3 15.6 1 .8 1.8 1.8 2.8 2.5Z"/>
  <path fill="#d7a046" d="M44.7 97.6c.4-.7 1-1.3 1.4-1.8 3.1-3.4 2.2-2.8 6.2-2.3a49 49 0 0 0 32-6c4.1-2.6 7.7-6.1 10.8-10 4.8-5.7 9-11.9 12.6-18.6 1.9-3.6 3.7-7.3 4.6-11.3l-7.2 7.2a29 29 0 0 1-8.4 5.3c-2.9 1.3-6 2.4-9 3.6L89 71l-3.7-.8-10-2.4-.5-.2-1.8.7-3.4.9-.4.1h-.3l-.9.4-3.9 1.3L61 72l-.8.1-.3.2h-.3l-.3.3c-4.2 2-8.6 4-12.7 6.2-4.8 2.5-9.2 5.1-13.4 8.6 3.6 3.7 7.2 7.3 11.5 10.2Z"/>
  <path fill="#bf763c" d="m87.7 63.7-.8-4.9c0-2-1.4-2.9-2.7-3.9l-1.7-1.4 3.7-1.5-4.4-1.8-3-1.1 1-.9 7.3-7.5c.3-.3.5-.8.4-1l-2-2-9 9-2.9-7.1h-.2L72 43l-2.9-3.3c-.3-.5-.9-.8-1.3-.9l-12.3-2.1h-.8v.3l3.2 13.3c0 .2.4.5.7.7l3.8 1.2-1.1.7-3.8 2.3c-.8.4-1 .9-1.2 1.6l-2 13-.2 1.7 1.6-.2L63 70l.2-.1 4.2-.6.6.2 1-.4h.2l.4-.1 3-4.8.6-1.2 1.6 4.4.6.2 9.9 2.4 3.6.9-1-7.3h-.2Z"/>
  <path fill="#e5bf67" d="M87.8 63.8c2.9-1.2 6-2.3 8.9-3.7 3-1.3 6-2.9 8.4-5.3l7.2-7.1c.2-2.4.7-4.8.7-7.2a7.4 7.4 0 0 0-7.8-7.1c-2.3.1-4.4.7-6.3 1.8-4 2-7.4 5-10.7 8-2.3 2.2-4.2 4.7-6.4 7l4.4 1.8-3.7 1.5L84 55c1.3 1 2.8 1.9 2.8 3.9 0 1.6.6 3.3 1 5h-.1Z"/>
  <path fill="#d7b7b2" d="M104.8 19.2 93 9.2c-.3-.1-.3-.6-.6-.9-1.2.1-2.6 0-3.6.3-3.9 1.3-7.4 3-10.6 5.4-.5.3-.9 1.1-.7 1.5.2.5 1 .7 1.5 1 .3.2.7 0 1 0h6c5.8.2 11.3 1.8 16.8 3.4 1.3.4 1.4.4 2-.7Z"/>
  <path fill="#f5f4f4" d="M50.2 35.6c-.8 1-1.5 2-2.4 2.9-2.3 2.5-4.7 5-6.8 7.7-2.3 2.7-4.2 5.6-6.2 8.5a5.5 5.5 0 0 0-1 3.8c0 .5.3 1 .7 1.2.2.2.9 0 1.1-.3l1.1-1.4c.8-1.3 1.5-3 2.5-4.2 4.4-6 9-12 13.7-17.8 1.7-1.8 3.7-3.5 5.7-5.4l3-2.7 5.6-4.7c.2-.2.2-.8.3-1.2h-1.2l-.3.3-6.1 4.6-9.6 8.8h-.1Z"/>
  <path fill="#4b423e" d="M104.8 19.2c4.1 4 8 8.4 11.3 13.1l1.1.7-.1-1.2c-5-6.9-10.8-13.2-17.3-18.6L94 8.4c-.3-.2-.8-.6-1.4 0l.6.9 11.8 10v-.1Z"/>
  <path fill="#49413d" d="M21.2 83.3c1 .7 1.2 2 .4 3.4-.6 1-1 2.2-1.5 3.3-.3.4-.7.9-1.2 1-1.5.5-3.2.4-4.6-.4a4.6 4.6 0 0 1-2.4-4.8 5 5 0 0 1 3.6-4.4c2-.7 3.9 0 5.7 1.9Zm-7 5.7.7.6c1.4 1 2.6.6 3.3-1l1.4-3.1c.6-1.6-.1-2.9-1.8-3.2-1.8-.3-3.4.4-4.3 2.2-.9 1.6-.7 3.2.7 4.5Z"/>
  <path fill="#4a4039" d="m33.2 87.3-5.5-6.7c-.4-.5-.5-1.5-1.4-1-.6.6.2 1.2.5 1.7l5.4 6.8 2 2 9.3 8.2 1.3.8 1 .1c-.1-.4-.2-.8-.4-1-.2-.3-.5-.4-.8-.6-4.3-2.8-8-6.6-11.4-10.2v-.1Z"/>
  <path d="m63.2 70-.2.1-2.8 2h.8l3.2-1.2 3.8-1.3-.7-.2-4.2.7Zm-3.6 2.4.3-.1-.2.1Z" class="o"/>
  <path fill="#e3bd65" d="m69.5 69.2 3.4-1c.7-.1 1.2-.5 1.9-.7L73.3 63l-.8 1.3-2.9 4.8Z"/>
  <path d="m69 69.2-1 .4 1-.4Zm.2 0h-.3.3Z" class="o"/>
  <path d="M63.3 70H63h.1Z" class="j"/>
  <path fill="#faf9f9" d="M14.9 89.6c1.4 1 2.6.6 3.3-1l1.4-3.1c.6-1.6-.1-3-1.8-3.2-1.8-.3-3.4.4-4.3 2.2-.9 1.6-.7 3.2.7 4.5l.7.6Z"/>
</svg>