<svg xmlns="http://www.w3.org/2000/svg" id="a" viewBox="0 0 114.1 107.7">
  <defs>
    <style>
      .b{fill:#e0b482}.g{fill:#eec98f}.h{fill:#dca56c}.m{fill:#dca46c}.n{fill:#bfbbaa}.q{fill:#dfd9c9}.r{fill:#c3bfaf}.ak{fill:#ded8c8}.al{fill:#ddb685}.ax{fill:#c3c0af}.bd{fill:#bdb8a7}
    </style>
  </defs>
  <path d="M5.5 102.5c-2-2.6-4.2-5.2-5.2-8.4-.7-2.4-.4-3.1 2-4.2.4-.2 1-.7 1.1-1.2.5-1.3 1.2-2.2 2.7-2.4.5 0 1-.4 1.2-.8a4 4 0 0 1 2.5-2.1c.6-.2 1-.7 1.7-1-1.2-1.2-2.3-2-3.2-3-4.7-5-2.5-13.2 4.8-15.2 2.2-.6 3.4-.5 7 .6l3.6-1.7-.4-2.5a30 30 0 0 1 1.4-18.7A44.3 44.3 0 0 1 34 27.2c6-6 12.9-11 20.4-14.8C61.4 8.7 68.6 6 76 3.6c1.5-.5 3-.9 4.6-.7.6 0 1.3-.2 2-.4l3.1-2c1.4-.3 2.6.5 4 .8 8 5.3 15 12 20.6 19.8l3 4c1.1 2 1.1 2.6-.2 4.4l-.9 1.1a4 4 0 0 0-1.3 3.5 8 8 0 0 1-.5 2.7 110.3 110.3 0 0 1-19.2 33.7A52 52 0 0 1 69 85.7c-6.4 2-13 2.6-19.7.8l-2.7-.6-.4.4c-.3 2.2-1.7 2.8-3.7 3-1.9.3-3.8.6-5.5 1.4-3.3 1.7-6.6 3.5-9.7 5.5-1 .7-1.8 2-2.7 3-.4.5-.8 1.1-1.3 1.4-.8.3-1.4.6-1.5 1.5-.2 1.4-1 2-2.3 2.4-.6.2-1.3.6-1.5 1-.8 2-2.2 2.5-4 2-3-1.3-5.9-3-8.4-5Zm.7-14c-1 .3-1 1.3-1.2 2l-2.3 1.6c0 .5-.2 1 0 1.4.6 2.7 2 5 4.1 7l3.5 2.9c1.2.7 2.6 1.1 3.8 1.7.8.6 1.5.7 2-.4a3 3 0 0 1 2.3-2c.8-.3 1.2-.8 1.4-1.7.2-.6.6-1.4 1.2-1.7 1.3-.7 2-1.7 2.8-2.9l1.5-1.4c4.5-3.4 9.3-6.1 14.8-7.5l2.7-.3c.4 0 1-.5 1-.9 1.1-2.4 1.6-2.6 4-2.2l3.3.6a29 29 0 0 0 16-.6c10-2.8 17.4-9 24-16.5A85 85 0 0 0 102.8 49c2-4.1 3.7-8.3 5.4-12.6.4-1 .4-2 .6-3 .1-1 .2-1.9.6-2.6.5-1 1.3-2 2-2.9 1.1-.7 1.1-.8 0-1.5l-2-3c-1-1.5-2-3-3.3-4.2-2-2.3-4.2-4.5-6.3-6.7A61.3 61.3 0 0 0 88.3 3c-1-.7-1.9-.7-2.8 0l-1 .9a5.9 5.9 0 0 1-4.4 1 6 6 0 0 0-2.3.3L65.4 9.5c-6.7 2.7-13 6-19 10-3.4 2.3-6.5 5-9.4 7.8a43 43 0 0 0-9.2 12.8c-2.4 5-3.4 10.6-3 16.2.1 1.6.6 3.2 1 4.8.2 1.3.3 2.6-.3 3.8l-3 1-.6 2.4-1.3-.8c-1.3-.5-2.6-1.2-4-1.5-3-.7-5.9.8-7.2 3.3a6.2 6.2 0 0 0-.9 6.1c1 3.3 3.4 5 7.2 5.4l-1.2 1.8-2.4 2c-1.2.4-2.4.9-2.7 2.4l-.4.4-.4.3-2.4.9v-.1Z" style="fill:#3e3d32"/>
  <path d="M89.6 1.3c-1.3-.3-2.5-1-4-.8 1.5-.8 2.3-.7 4 .8" style="fill:#909089"/>
  <path d="M25.5 65a6 6 0 0 0 .2-4c-.3-1.5-.8-3-1-4.7-.6-5.7.8-11 3-16.2 2.2-5 5.5-9 9.3-12.8 3-2.9 6-5.5 9.3-7.8 6-4 12.4-7.3 19-10 4.2-1.6 8.3-2.9 12.5-4.3.7-.2 1.5-.4 2.3-.3 1.6.3 3-.2 4.2-1l1.2-.8c1-.8 1.7-.8 2.8-.1a61 61 0 0 1 11.6 9.6l6.3 6.7c1.2 1.3 2.2 2.7 3.2 4.1.8 1 1.4 2 2.1 3.1V28c-.7 1-1.5 1.8-2 2.9-.5.7-.5 1.7-.7 2.6-.2 1 0 2-.5 3-1.7 4.2-3.5 8.5-5.5 12.6-3.2 6.6-7 12.9-11.8 18.5A49.2 49.2 0 0 1 67 84a29.3 29.3 0 0 1-16 .6L46.5 83c-.4-.4-.9-1-1.5-1.4-.9-.5-.8-1-.3-1.7h2.7l3.6.3c4.1.7 8.3.7 12.4 0a28 28 0 0 0 10-3.5l3-1.6c3.1-1.4 5.6-3.5 8-5.9l3.2-3.5c.8-1 1.8-1.9 2.5-3 2-2.9 3.8-5.8 5.7-8.8l2.3-4.3 1.2-2.4 1.2-2.4.4-.4c.6-2.4 1.5-4.8 1.8-7.3.4-2.7-.7-5-2.6-6.9a5.6 5.6 0 0 0-2.9-1.4c-2.8-.4-5.4.2-7.7 1.9-1 0-1.9.3-2.4 1.2l-1.2.8-2.7 2h-.8l-.6-.8c-1.2-2.6-3.9-3.4-6.4-2.4l-1.4.6c-1.5.6-2 .4-2.6-1l-.5-1.6-.9-1.6-.7.4-.3.8-.4 1.2v-3.2l-.4-.1-4 6.1c-.6-.6-1-1.1-1.3-1.7-.3-1.6-1.4-2-3-2.3L55.4 28h1c.7 0 1.4-.2 2-.8l2.3-2c.5-.5 1.3-.9 1.3-1.9-1.9.5-3 1.7-4.6 2.7-1.3-.3-2.7-.9-4-.7-2.9.6-4.4 1.8-4.8 5a11 11 0 0 1-1.8 5.5l-4 4.6a408.4 408.4 0 0 0-7.7 10.4c-.8 1.4-.6 3 .5 3.8l.5-.5 2.7-4 6.1-8.2 3.5-4.1c1.2.6 1.1 2 1.7 3a5 5 0 0 1-.2 5c-.4.7-.8 1.5-1 2.2l-.9 2.4-1 7c-.3 1.4 0 2 1.7 2.6l1-1.4-.5 3 3.1-.7 2.4-.3 2.7-.4 1 .1v.3l-9.6 3.5c-1.2.2-2-.4-2.3-1.7l-5.7.5H39c-1.8-.7-3.7-.2-5.5 0-1 .2-1.8 1-2 2.2l-.2 1.2-.4.1-3-4.2c-.5 1 1 1.5 0 2.3l-.6.3c-.3 1-1 1-1.8.7V65Zm81.8-36.2-2.2-2.7c-2.6-4-5.9-7.5-9.2-10.9l-1-.8L86 7.3c-.4-.8-1-1.2-1.7-.6-.5.4-.2 1 .2 1.5l.1.2c1.7 3.5 4.4 6.3 6.7 9.3 4 4.5 8.4 8.5 13.3 12 .5.5 1.4.7 2.1.6.8 0 1.3-.6.6-1.5" class="q"/>
  <path d="m14.4 82.6 1.2-1.8c-3.7-.3-6-2.1-7-5.4-.8-2.1-.7-4.2.7-6L11 68c2.3-2 5-1.8 7.5-1 1 .3 1.6 1 2.4 1.4.7.3 1.3.2 1.6-.6l.7-1.9.7 1c-.5.6-.6 1.1 0 1.6l1.2 1.6 4.4 5.2c-1.7 1.6-3.4 3-5 4.7-2.8 2.8-5.4 5.7-8 8.6-.7-.6-1.6-1.1-2-1.9-.7-1.1-1.6-1.4-2.8-1.3l.4-.8c1.2-.1 2-1 2.4-2Zm6-11.3c-.5-1.6-1.8-2.2-3-3-2-1.1-4.4-.6-5.6 1.4-.6 1-1 2-.8 3.2 0 4 2.7 6 6.4 4.7 1.7-1.3 2.5-3.3 3.3-5.2.1-.3-.2-.7-.3-1v-.1Zm3.4 4c-1.4 1.8-2.6 3.8-4 5.5-1.5 1.7-3.3 3.2-4.6 5.5l1-.4c2.6-2.4 5.2-4.8 7.2-7.7l1-1.6c.4-.6.2-1-.7-1.3h.1ZM40 87.5c-6 1.8-11.5 4.9-16.2 9a9 9 0 0 1-2.8 2.8c-.6.3-1 1.1-1.2 1.7-.2 1-.6 1.4-1.5 1.6a3 3 0 0 0-2.3 2.1c-.4 1.1-1 1-1.9.4l.7-2 .1-.3 1.6-2.4h2L18 98l2-2c.6.1 1 1 2 .3.6-.7 0-1.3 0-2V94c4.7-5 10-9 17.5-9.5l1 .8c.3 1.2 1.5.6 2.5 1l-3 1v.2Z" class="ak"/>
  <path d="m40 87.5 3-1c-1-.4-2.2.1-2.5-1.1l1.4.2c.3-1.4-1.2-1-1.5-1.8v-.3l1.7-1.8c.8-.8 1.4-1.8 2.6-1.8l.1.1c-.5.7-.6 1.2.3 1.7.6.4 1.1 1 1.5 1.4l4.5 1.6-3.3-.6c-2.4-.4-3-.1-4 2.2 0 .4-.6.8-1 1-1 .1-1.8 0-2.7.2Z" class="bd"/>
  <path d="m8.6 87.7.4-.3.4 1.6-1.6.1A14 14 0 0 0 11 95l-.8 1.6c-.9-.7-1.9-1.2-2.5-2-1-1.2-2.3-2.2-2.3-4l.8-2c1 0 2 .5 2.4-.8v-.1Z" class="ak"/>
  <path d="M6.8 100.4a13.8 13.8 0 0 1-4.2-6.9c-.2-.4 0-1 0-1.4h1.8l.7 1.6c1 1.8 1.5 3.7 3 5.1l-1.3 1.6Z" style="fill:#dbd5c5"/>
  <path d="M9.4 89 9 87.4l.3-.4 2.4-1.5c.3 2 1.5 3.6 2.8 5l-1.6 2c-1.8-.5-2.5-2.1-3.5-3.5" class="ak"/>
  <path d="m6.8 100.4 1.4-1.6h.4c1 2 4 4.1 6.2 4.3l-.7 2c-1.2-.6-2.6-1-3.8-1.7-1.3-.9-2.4-2-3.5-3" style="fill:#d9a36a"/>
  <path d="M8.6 98.8h-.4c-1.6-1.3-2.2-3.3-3-5.1L4.3 92l-1.7.1L5 90.6h.4c0 1.7 1.3 2.7 2.3 3.9.6.8 1.6 1.3 2.4 2l-.3.8-1.2 1.5Z" style="fill:#c0bcab"/>
  <path d="m24 67-.8-1-.7 1.8c-.3.8-.9 1-1.6.6-.8-.4-1.5-1-2.4-1.3-2.6-.9-5.2-1-7.5.9l-1.7 1.3c1.4-2.5 4.3-4 7.3-3.3 1.3.3 2.6 1 4 1.5l1.2.8.7-2.4 3-1v.8c.7.2 1.4.2 1.7-.8l.7-.3c.4.6 1.6.5 1.5 1.6l-5 .8H24h.1Z" class="ax"/>
  <path d="M11.8 85.5 9.3 87c.3-1.5 1.6-2 2.8-2.4l-.3.9Zm2.6-2.9c-.4 1-1 1.9-2.3 2l2.4-2Z" class="r"/>
  <path d="M8.6 87.7c-.4 1.3-1.5.9-2.4.9l2.4-.9Zm-3.2 2.9H5c.2-.8 0-1.8 1.2-2l-.8 2Z" class="n"/>
  <path d="M111.5 28v-1.5c1 .7 1 .8 0 1.5" style="fill:#615f54"/>
  <path d="m57.3 60.3-2.7.4-2.4.4-3 .6.3-3c.3-1 .6-2 .7-3.1.4-2.3.6-4.7.8-7 .1-1 .4-1.6 1.3-2l2-1 2.6-1.2-1.7-1.7-2.2-1.6c-.7-.5-1-1-1-2l-1-7.5.2-4.1 4.2.6c1.5.4 3.1.9 4.7 1.1 1.5.3 2.6.7 3 2.4 0 .5.6 1 1 1.7l4.2-6.2.4.1v3.6c0 1-.2 1.8-.3 2.8-.4 2.3.4 4.2 1.8 6 2.4-1.5 4-3.3 5.6-5.3l1.2-1c.6-.4 1.2-.7 2-.4l1.7 2.2-2.6 2.4-4 3.5c-.6.2-1.2.6-1 1.4.2.4.7.9 1.2 1l4 1.2 4.6-.4 2.5.2.1.4-2.6 1.8c-1.3.5-2.7.8-3.9 2.1l3.5 2.2.4 2.3.8 4c0 1.4.2 2.8.4 4.2l-1.6.1-2.4-.4c-2.4-.3-4.8-.8-7.2-1-1-.1-1.9-.6-2.5-1.4l-1.7-2.3-1.6-1.6-.7 2c-.5.4-1 .8-1.3 1.4-.6 1.4-1.5 2-3 1.8h-3.3c-.5 0-1 .2-1.4.3Z" style="fill:#cc6f42"/>
  <path d="m83 46.5 2.5-1.7v-.4l-2.6-.2 2.7-.7c-.6-1-1.5-1.8-2.7-2.1-1.5-.5-1.9-1.3-1.4-2.7l1-2.8.8-.8 2.7-2.3 1.2-.8c.8-.3 2-.2 2.4-1.2 2.3-1.7 5-2.3 7.7-1.9a6 6 0 0 1 3 1.4c1.8 1.9 3 4.2 2.6 6.9-.4 2.5-1.3 4.9-2 7.3 0 .2-.2.3-.3.4-.2 0-.5-.4-.6-.3l-3 2.3a47 47 0 0 1-11.4 5.5c-.9-2.2.2-4.3.4-6.7l-3 .8Z" style="fill:#ecc081"/>
  <path d="m51 31.6.8 7.5c.1.9.5 1.5 1.2 2l2.2 1.6 1.7 1.7-2.7 1.3-2 .9c-.8.4-1 1-1.2 2l-.8 7c0 1-.5 2-.7 3.1l-.9 1.4c-1.7-.6-2-1.2-1.8-2.7l1.1-6.8.8-2.5 1.1-2.2a5 5 0 0 0 .1-5c-.5-1-.4-2.4-1.6-3l1.6-2.2c1-1 1-2 .5-3.2L46.7 36c1.2-1.6 1.5-3.5 1.8-5.5.3-3.2 2-4.4 5-5 1.1-.2 2.5.4 4 .7-.5.2-.9.5-1 .8l-.3 1.1h-.9c-1-.3-2.2-.8-3.3-1-.7-.3-1.3.1-1.3.8l.3 3.7Z" style="fill:#e7e1cb"/>
  <path d="M29.4 66.2c.1-1.1-1-1-1.5-1.6.8-.7-.6-1.3 0-2.3l3 4.3.3-.2.2-1.2c.2-1.2 1-2 2-2.1 1.8-.2 3.7-.8 5.5-.1.6.2 1.2 0 1.8 0l5.7-.5c.4 1.3 1 2 2.3 1.7v.4L39.3 69c-1.2 0-2.4.2-3.5 0-1 0-1.9.2-2.4 1l-4-3.8Z" style="fill:#d1ccbc"/>
  <path d="M68.7 30.8v-.4l.4-1.2.3-.7c.1-.2.3-.2.7-.5l1 1.7.4 1.4c.6 1.5 1 1.7 2.6 1.2l1.4-.7c2.5-1 5.2-.2 6.4 2.4l.6.8-2 2.2-5 5.5c-.8.8-1.4.6-2-.2l.7-1.4 4-3.4 2.5-2.4-1.8-2.2c0-.7-.3-1-1-.8-1 .4-1.9 1-2 2.2-1.6 2-3.3 3.7-5.7 5.3a7.3 7.3 0 0 1-1.8-6l.3-2.9v.1Z" style="fill:#e6dfc9"/>
  <path d="m73.5 76.8-.8.5c-1-1-2-1-3.2-.6-1.7.4-3.2 1.7-5 1-.3-.2-.8 0-1 .2-1 1.4-2.2 1.3-3.6.9h-1l1.6-.8c3.4-1.3 6.7-2.8 9.7-4.8l6.4-5c.9.2 1.2 1 1 2.2l1.8 2.7 1-1.7c.1-.3.3-.8.7-1 1-.4 2.2-.7 3.4-1-2.2 2.4-5 4.3-7.9 5.8-1.3 0-2.4.4-3 1.6" style="fill:#d4955d"/>
  <path d="M107.3 28.8c.7.9.2 1.5-.6 1.5-.7 0-1.6-.1-2.2-.6A126 126 0 0 1 94 20.9c-1-1-2-2-2.7-3-2.3-3.1-5-6-6.7-9.4v-.2c-.5-.4-.8-1-.3-1.5.7-.6 1.4-.2 1.7.6L84.6 7l-.2.4L86 8.8l8 6.6a3 3 0 0 0 1 3l3 3.3c2 3 5 5.1 7.7 7.5.7.4 1.4 1 1.6-.4" style="fill:#bebbab"/>
  <path d="m46.7 36 3.7-3.5c.4 1.3.4 2.3-.5 3.2L48.3 38l-3.5 4-6 8.1-2.8 4c0 .3-.4.4-.5.6-1-.9-1.3-2.4-.6-3.8l1.2-2a601 601 0 0 1 6.7-8.4c1.2-1.6 2.6-3 4-4.6v.1Z" style="fill:#f5f4f2"/>
  <path d="m96 54-5.8 9c-.7 1-1.7 2-2.5 3l-2.2 1.7c-1.4-.3-1.5-1.3-1.7-2.2 1.6-1.7 3.5-3.2 3.7-5.7l.1-3.3c1.3-.4 2.5-.9 3.4-2 .3-.6 1.2-1.1 2.2-.7.4.1 1-.2 1.4-.3l1-.7.3 1.3V54Z" style="fill:#c47a45"/>
  <path d="M87.6 56.4v3.3c-.3 2.5-2 4-3.8 5.7.2 1 .3 2 1.7 2.2l2.2-1.8-3.2 3.6c-1.2.3-2.3.6-3.4 1.1-.4.1-.6.6-.8 1l-1 1.7c-.5-1-1-1.8-1.7-2.7.2-1.3-.1-2.1-1-2.3l3.2-2.8 1.1-1.1 1.2-.4h.5c2-.4 3.7-3 3.6-5.3 0-1.3.7-2.9 1.8-3.4l-.4 1.2Z" style="fill:#cb8851"/>
  <path d="M107.3 28.8c-.2 1.4-1 .8-1.6.4 0-.1 0-.4-.2-.5a77.5 77.5 0 0 0-10-12.1c-.5-.5-1-.8-1.6-1.2L86 8.8l-1.6-1.5.2-.4 1.4.4 8.8 7c3.8 3.6 7.3 7.5 10.3 11.7l2.2 2.8Z" style="fill:#565449"/>
  <path d="M59 78.8h1c1.3.4 2.6.5 3.5-.9.2-.2.7-.4 1-.3 1.8.8 3.3-.5 5-.9 1.2-.3 2.2-.3 3.2.5-2.9 1.6-6 2.6-9.2 3.1-4 .7-8.3.7-12.4 0v-.4l7.8-1.1h.1Z" class="m"/>
  <path d="M48.7 64.6v-.4l9.6-3.4v-.4l-1-.1 1.5-.4H62c1.5.2 2.4-.3 3-1.7.3-.6.8-1 1.3-1.5l-.2 1.4h3l-.5-1.7 1.6 2.3c0 1-1 .8-1.6.8-1.8 0-3.4.3-4.7 1.6l-4.5 1c-3.6 1.2-7.2 2-10.8 2.5h.1Z" class="al"/>
  <path d="M85.6 52.4c4-1.4 8-3 11.4-5.4l3-2.4.6.3-1.2 2.4v-1.1l-4 3-3 2.4-3.8 1.6c-1 .5-2 1.1-2.3 2.6-.3 1.3-1 2.6-1.6 4.2l-.6-1.7c.8-.3.7-1 .8-1.8l.8-4v-.1Z" class="m"/>
  <path d="m84 58.3.7 1.7c.6-1.6 1.3-2.9 1.6-4.2.2-1.5 1.2-2 2.3-2.6 1.3-.5 2.6-1 3.7-1.6 1.1-.7 2-1.6 3.1-2.4l3.8-3 .2 1-1.2 2.5-.3-1.3-1 .9c-1 1-1.9 2-3.2 2.4a11 11 0 0 0-5 3.3l-.7.2c-1 .5-1.9 2.1-1.8 3.4.1 2.3-1.6 4.8-3.6 5.4l-.5-.2v-.7c.2-.5 1-1 .4-1.6.4 0 1 0 1.5-.2l-.3-3.4.4.4Z" style="fill:#d1935e"/>
  <path d="m74.2 41-.7 1.3c.7.8 1.2 1 2 .2l5-5.5 2-2.3h.8v.4l-.8.8-3.4 3.2c-1.5 1.6-1 3 1.1 3.5l2.1.7c-.4 1.1-1 .8-1.7.9l-2.4.4c-1.3-.4-2.7-.7-4-1.2-.4-.1-1-.6-1-1-.3-.8.3-1.2 1-1.5v.1Z" style="fill:#efce9a"/>
  <path d="M88 55.2c.3 0 .6 0 .7-.2a11 11 0 0 1 5-3.3c1.3-.5 2.2-1.5 3.2-2.4l1-.9.3 1.3-2.4 4.3-.2-1.3-1 .7c-.5.1-1 .4-1.4.3a2 2 0 0 0-2.2.6c-1 1.2-2 1.7-3.4 2l.4-1.1Z" style="fill:#cb8450"/>
  <path d="M56.2 28c0-.3 0-.8.2-1 .2-.4.6-.6 1-.9 1.3-1 2.6-2.2 4.5-2.7 0 1-.8 1.4-1.3 2-.7.6-1.6 1.2-2.3 2-.6.6-1.3.7-2 .6" style="fill:#f1efe2"/>
  <path d="M83.3 35.1v-.4l2.7-2-2.7 2.4Z" class="g"/>
  <path d="M73.5 76.8c.7-1 1.9-1.7 3.1-1.6l-3 1.6Z" class="m"/>
  <path d="M89.6 30.8c-.5 1-1.6.9-2.4 1.2.6-.9 1.4-1.2 2.4-1.2" class="g"/>
  <path d="M51 80v.3l-3.5-.3h3.6Z" class="bd"/>
  <path d="M47.5 80h-2.7c1-.5 1.8-.5 2.8 0v.1-.1Z" class="bd"/>
  <path d="m52.2 61 2.4-.3-2.4.4V61Z" class="al"/>
  <path d="m16.4 88.6 8-8.6c1.7-1.6 3.4-3 5-4.7h.4l1 1.4.3 1.2c-.9.8-2.5-1.4-3 .8l.8 1.2-10 10c-.3.3-.8.4-1.3.7l-1.5-1.2c0-.3.2-.6.3-.8" class="h"/>
  <path d="M24 67h.3c1.4 0 2.8 0 3.8 1.2a3 3 0 0 0 3 1.1l3 2.8v.4l-1.2.7-2.3 1.3-5-5.9c-.4-.4-.6-1.1-1.5-1v1c-.8-.6-.7-1.1 0-1.7v.1Z" style="fill:#9c9c8a"/>
  <path d="M17.4 77.7c-3.7 1.1-6.4-.9-6.4-4.8l.5-1c1.3-2.7 4-3.6 6.6-2.1l1.6 1.1-.8.8-.5.8c0-.6 0-1.2-.6-1.6-1.9-1.2-5-.1-5.5 2-.4 1.2 0 2.5 1 3.2 1.3.8 2 .8 3.2-.1 0 1-.9 1.1-1.6 1.5l2.5.2Z" style="fill:#5d5c51"/>
  <path d="M23.8 75.3c1 .3 1 .7.6 1.3l-1 1.6c-2 3-4.6 5.3-7.2 7.7l-1 .4c1.3-2.3 3-3.8 4.5-5.5s2.7-3.7 4-5.5h.1Z" style="fill:#f4f3f1"/>
  <path d="m17.4 77.7-2.5-.2c.7-.4 1.7-.4 1.5-1.5l2-3.5.5-.8.7-.8.8.4c.1.4.4.8.3 1.1-.9 2-1.6 4-3.3 5.3" style="fill:#4a483d"/>
  <path d="M16.4 88.6c0 .3-.2.5-.3.8L15 90.6h-.4c-1.3-1.5-2.5-3-2.7-5.1 1.1-.2 2 .1 2.7 1.2.4.8 1.3 1.3 2 2v-.1Z" class="r"/>
  <path d="m20.4 71.3-.7-.4-1.6-1.1c-2.6-1.5-5.3-.6-6.6 2l-.5 1c-.2-1 .2-2.1.8-3 1.2-2.1 3.4-2.7 5.5-1.5 1.3.8 2.6 1.4 3 3h.1Z" style="fill:#bdbaaa"/>
  <path d="M24 68.5v-1c1 0 1.2.7 1.6 1.1l5 6v.3l-.8.5h-.3L25 70l-1-1.5Z" style="fill:#59574b"/>
  <path d="M39.5 84.6c-7.6.6-12.8 4.6-17.6 9.5l-1 .8c0-.8 0-2 .3-2.4 1-1 2.3-1.9 3.5-2.7l3.6-2.4 4.1-2c1.6-.9 3-1.8 3.8-3.5l3.3 2.7Z" style="fill:#c99864"/>
  <path d="M14.5 90.6h.4l3.1 4c.5.7 1.1 1.2 2 1v.5l-2 2h-.3L16 96.7l-3.5-3.4.3-.7 1.6-2h.1Z" class="h"/>
  <path d="M39.5 84.6 36.1 82l-4-3.8-1.4-1.4-1-1.3 1-.5 3.1 2.9 6.6 6c.3.7 1.8.4 1.5 1.9l-1.4-.3-1-.8v-.1Z" style="fill:#514836"/>
  <path d="m9.8 97.2.3-.7 1-1.6h.2l.5 1 4.7 4.1v.4l-1.6 2.4c-.4-.6-.8-1.3-1.3-1.8l-2.4-2.4-1.4-1.3v-.1Z" style="fill:#dca46b"/>
  <path d="m9.8 97.2 1.4 1.3 2.4 2.5c.5.5 1 1.2 1.3 1.8v.4c-2.6-.4-5-2-6.3-4.4l1.2-1.5v-.1Z" style="fill:#bb8d5b"/>
  <path d="M20 96v-.3l.8-.8 1.1-.8v.4c0 .6.7 1.3 0 1.9-.8.6-1.3-.2-1.9-.3V96Z" style="fill:#c9c2ad"/>
  <path d="M16.5 100.4v-.4l1.2-2h.3l.5 2.4h-2Z" style="fill:#c2bba7"/>
  <path d="M47.5 79.9c-.9-.5-1.8-.5-2.8 0-1.2 0-1.8 1-2.6 1.7l-1.6 1.9c.1-1.1.2-2.2.5-3.3 0-.5.4-1 .6-1.4 1.3.5 2.2-.7 2.2-1.3.1-1.8 1.4-2.2 2.5-3 1-.5 2.2-.8 1.8-2.2.8-.4 1.7-.6 2-1.1 1.3-1.8 3.1-1.7 5-1.6 1.2 0 1.5.1 1.8-1.2.3-1.6 1.4-2.1 2.6-2.5 1.4-.5 3-.8 4.4-1 1.2-.2 2.2-.5 3-1.4.6-.5 1.5-.9 2.2-.8 2.3.4 4.6.7 6.5 2.1a7 7 0 0 1 5.3-.6l-1.2 1.2c-1-.6-2-.8-3-.3-.4.2-.9.3-1.4.3h-5.2c-1-.2-1.7.1-2.3.7-1 1-1.7 2.1-3.3 1.5l-.5.2c-2.4 1.3-5 2.2-7 4.1-1 1-2.3 1.7-3.9 1l-1 .3c.3.5.3 1 .6 1 1 .5 2 .7 3 1L56 78c.7.5 1.4.6 2.3.4.7-.2 1.4-.2 2.2-.3l-1.6.8L51 80h-3.5v-.1Z" style="fill:#ba8652"/>
  <path d="M41.6 78.8c-.2.5-.5.9-.6 1.4-.3 1-.4 2.2-.5 3.3v.3l-6.7-6-3.2-3v-.3l2.3-1.3 1.3-.7 3.5 2.6 4 3.7Z" style="fill:#a27b4d"/>
  <path d="M11.3 95H11a14.1 14.1 0 0 1-3.2-6l1.6-.1c1 1.4 1.7 3 3.5 3.5l-.3.8-1.2 1.6v.2Z" class="n"/>
  <path d="M31 69.3a3 3 0 0 1-3-1c-.9-1.2-2.3-1.2-3.7-1.3l5.1-.8c0 1.4 0 2.7 1.6 3.2v-.1Z" style="fill:#b2b09f"/>
  <path d="M82.5 61.5c.5.7-.2 1-.4 1.6l-5.6.2H76l-6-2.2c-1.4-.5-2.5-.3-3.8.4-1 .5-2 .9-3.2 1.2l-4.3 1-4.6 1.7c-2 .6-4 1-5.9 1.8-1.2.5-2.5.4-3.8.7l-5 1.4V69l9.4-4.4c3.6-.4 7.2-1.3 10.8-2.4 1.4-.5 3-.8 4.5-1.1.5-.1 1 0 1.3-.3 2.8-1.3 5.4-.8 8 .4 1.4.6 2.8.9 4.2 1 1.2.1 2.4.4 3.6-.4l-1-.7 2.4.4Z" style="fill:#d09f6a"/>
  <path d="m83 46.5 3-.8c-.2 2.4-1.3 4.5-.4 6.7l-2.3.8-.8-2.3-3.5-2.2c1.2-1.3 2.6-1.6 4-2.2" style="fill:#efcd95"/>
  <path d="m78.2 44.6 2.4-.4c.6-.1 1.3.2 1.8-.9l-2.2-.7c-2-.6-2.6-1.8-1-3.5l3.3-3.2-1 2.8c-.5 1.4 0 2.2 1.3 2.7 1.2.3 2.1 1 2.8 2l-2.7.8-4.7.4Z" class="g"/>
  <path d="m80.1 61.1 1 .7c-1.2.8-2.4.5-3.6.4-1.4-.1-2.8-.5-4-1-2.8-1.1-5.4-1.7-8-.4l-1.5.3c1.3-1.3 3-1.6 4.7-1.6.7 0 1.5.2 1.7-.8.6.8 1.4 1.2 2.5 1.4 2.4.2 4.8.7 7.2 1" style="fill:#daae7e"/>
  <path d="m83.3 53.2 2.4-.8-.8 4.1c0 .7 0 1.5-.8 1.8l-.4-.4v-.7l-.4-4Z" class="b"/>
  <path d="m68.7 56.4.6 1.7h-3l.1-1.4.7-1.9 1.6 1.6Z" style="fill:#edd2a3"/>
  <path d="M51 31.6c0-1.3-.3-2.5-.3-3.8 0-.7.6-1 1.3-.9l3.4 1.2-4.2-.6-.2 4v.1Zm24.8 2.7c.2-1.2 1.2-1.8 2.2-2.2.6-.2 1 .1 1 .8-.8-.3-1.5 0-2 .4l-1.2 1Z" class="q"/>
  <path d="m83.3 53.2.4 4-.8-4h.4Z" class="m"/>
  <path d="M83.3 53.2H83l-.4-2.3.8 2.3Z" class="b"/>
  <path d="m68.7 30.8-.3 2.7.3-2.7Z" class="q"/>
  <path d="M39.3 69v.3l-5 2.8-3.3-2.8c-1.6-.4-1.7-1.7-1.6-3.1l4 3.8c.5-.8 1.3-1 2.4-1 1.1.2 2.3 0 3.5 0" class="ax"/>
  <path d="m60.5 78-2 .3c-1 .2-1.8.1-2.4-.4l-.4-2.7-3-1c-.2 0-.3-.6-.5-1 .4-.1.8-.4 1-.3 1.5.7 2.7 0 3.7-1 2-2 4.7-2.8 7.1-4.1l.6-.2c1.6.6 2.3-.6 3.2-1.5.7-.6 1.3-.9 2.3-.8 1.7.2 3.5.1 5.3 0 .4 0 1 0 1.3-.2 1-.6 2-.3 3 .3l-3 2.7c-2.2 1.7-4.3 3.5-6.5 5a49 49 0 0 1-9.7 4.9" style="fill:#b07b49"/>
  <path d="m94 15.4 1.5 1.2c3.7 3.7 7.1 7.7 10 12l.2.6c-2.7-2.4-5.6-4.5-7.8-7.5-.9-1.2-1.9-2.3-3-3.3a3.7 3.7 0 0 1-1-3h.1Z" style="fill:#b3b1a0"/>
  <path d="M34.2 72c1.7-.8 3.4-1.7 5-2.7l5.1-1.4c1.3-.3 2.7-.2 3.8-.7 2-.8 4-1.2 6-1.8 1.5-.5 3-1.2 4.5-1.6 1.4-.5 3-.7 4.3-1.1 1.1-.3 2.2-.7 3.2-1.2 1.3-.7 2.4-1 3.7-.4 2 .8 4 1.4 6.1 2.1l.6.1L82 63v.8l-1.2.4a7.1 7.1 0 0 0-5.2.6c-2-1.4-4.3-1.7-6.6-2-.6-.2-1.6.2-2 .7-1 .9-2 1.2-3.2 1.4-1.4.2-3 .5-4.3 1-1.2.4-2.4.9-2.7 2.5-.2 1.3-.5 1.2-1.9 1.2-1.7 0-3.6-.2-4.8 1.6-.3.5-1.2.7-2 1.1.4 1.4-1 1.7-1.8 2.3-1 .7-2.4 1.1-2.5 2.9 0 .6-1 1.8-2.2 1.3l-4-3.7c-1-1-2.3-1.7-3.5-2.6V72h.1Z" style="fill:#c28e59"/>
  <path d="m20.8 94.9-.8.8c-.9.1-1.5-.4-2-1l-3-4 1.1-1.3 1.5 1.2c.4.7 1 .9 1.6.2l4.5-4.2 2.6-2.3-.9 2.1 1.5.5 1.4.5-3.5 2.4c-1.3.8-2.6 1.6-3.6 2.7-.4.5-.3 1.6-.4 2.4" style="fill:#b78958"/>
  <path d="m26.3 84.3-2.6 2.4-4.5 4.1c-.7.7-1.2.5-1.6-.2.5-.3 1-.4 1.3-.8L29 80l-.8-1.2c.5-2.2 2.1 0 3-.8l-.4-1.2 1.4 1.4c-.8.6-1.7 1-2.4 1.8l-3.4 4.4v-.1Z" style="fill:#cb9862"/>
  <path d="m18.4 72.5-2 3.5c-1.2 1-1.8 1-3 0-1-.6-1.5-1.9-1.2-3 .7-2.2 3.7-3.3 5.6-2 .6.3.6.9.6 1.5" style="fill:#fafafa"/>
  <path d="m26.3 84.3 3.4-4.4c.7-.7 1.6-1.2 2.4-1.8l4 3.8a7.2 7.2 0 0 1-3.7 3.4l-4 2.1-1.5-.5-1.5-.5 1-2.1Z" style="fill:#a67f50"/>
  <path d="m11.3 95 1.3-1.7 3.5 3.4 1.6 1.4-1.2 1.9-4.6-4c-.3-.3-.4-.7-.5-1Z" style="fill:#ba8c5b"/>
</svg>